<svg width="1500" height="1171" viewBox="0 0 1500 1171" fill="none" xmlns="http://www.w3.org/2000/svg">
<rect width="1500" height="1171" fill="#1E1E1E"/>
<rect width="1500" height="1170" fill="#21283A"/>
<path d="M3.05176e-05 707.145H1499V1170.15H3.05176e-05V707.145Z" fill="white"/>
<path fill-rule="evenodd" clip-rule="evenodd" d="M14.9053 1009.78C14.8982 1014.04 15.7718 1017.57 16.2484 1018.94L23.8473 1020.35C23.8753 1020.35 21.9784 1013.34 22.0902 1010.25C22.2738 1005.14 24.0436 1004.67 26.4324 1004.76C26.5721 1004.68 24.274 1006.08 24.1969 1010.5C24.1007 1016.08 26.1721 1023.95 34.5925 1023.94C44.0642 1024.09 46.8505 1016.87 46.9016 1011.95C46.8211 1007.52 45.2262 1005.45 44.3717 1004.31C42.8108 1002.82 41.2411 1001.11 39.3579 999.482C42.1584 1001.02 44.0946 1002.36 45.5769 1003.75H46.828L45.6965 997.025L27.4168 996.979C24.8296 997.047 14.9293 995.495 14.9053 1009.78ZM30.8206 1010.74C30.8589 1007.95 32.2329 1004.76 35.5401 1004.75C38.5482 1004.74 40.1655 1008.52 40.1399 1010.98C40.1143 1013.44 38.2058 1016.71 35.2733 1016.72C32.6519 1016.67 30.7532 1013.64 30.8206 1010.74Z" fill="#4D4D4D"/>
<path fill-rule="evenodd" clip-rule="evenodd" d="M16.5944 992.545L46.8655 992.59L45.3561 984.756L28.1927 984.743C25.6372 984.741 22.651 981.091 22.6986 976.511C20.9399 975.539 16.4451 973.712 15.4227 973.267C15.3982 983.499 18.3637 983.629 19.8224 985.408C17.0396 985.427 15.3691 985.415 15.3691 985.415L16.5944 992.545Z" fill="#4D4D4D"/>
<path fill-rule="evenodd" clip-rule="evenodd" d="M20.5684 948.455C20.5329 948.53 15.8775 952.541 15.8408 960.603C15.7153 968.155 18.6431 976.626 31.3059 976.761C42.4392 976.695 46.7902 968.624 46.875 960.56C46.9647 951.931 41.479 948.497 41.3431 948.291C40.4505 949.321 36.629 953.178 36.629 953.178C36.629 953.178 40.0589 955.587 40.1025 960.26C40.1471 964.935 36.4894 968.998 31.386 969.056C26.2825 969.116 23.5175 965.32 23.2941 960.225C23.2933 955.814 26.1419 953.269 26.1419 953.269L20.5684 948.455Z" fill="#4D4D4D"/>
<path fill-rule="evenodd" clip-rule="evenodd" d="M6 938.58L7.73873 945.976L47.1684 945.921L45.8529 938.635L27.2972 938.552C25.3515 938.537 22.3635 935.738 22.4582 931.064C22.5046 926.595 25.4367 925.596 25.8068 925.608L47.288 925.48L46.0185 918.295L23.2401 918.267C21.0483 918.22 16.4193 923.068 16.3864 930.861C16.3924 934.565 17.2308 936.616 17.8491 937.66C19.2286 939.446 20.5503 941.487 22.2374 943.493C19.8555 941.638 18.2086 940.082 16.9844 938.562L6 938.58Z" fill="#4D4D4D"/>
<path fill-rule="evenodd" clip-rule="evenodd" d="M7.02314 912.026L6.18817 908.69L45.94 908.532L46.5171 911.922L7.02314 912.026Z" fill="#1793D1"/>
<path fill-rule="evenodd" clip-rule="evenodd" d="M18.8873 902.956L17.5856 900.032L46.089 900.007L46.6726 902.831L18.8873 902.956ZM8.60885 903.651L6.68451 901.293L8.86348 899.335L10.8388 901.693L8.60885 903.651Z" fill="#1793D1"/>
<path fill-rule="evenodd" clip-rule="evenodd" d="M18.368 894.534L17.6872 891.197L23.6461 891.182C23.902 891.181 16.9892 889.35 17.143 880.515C17.1907 871.937 23.8315 870.534 25.3203 870.58L46.2746 870.474L46.9093 873.399L26.2119 873.416C25.6074 873.382 20.4961 874.753 20.4773 880.814C20.4597 886.875 24.8795 891.074 27.7032 891.067L45.9363 891.018L46.8217 894.407L18.368 894.534Z" fill="#1793D1"/>
<path fill-rule="evenodd" clip-rule="evenodd" d="M46.4254 841.361L47.1061 844.698L41.1474 844.714C40.8914 844.714 47.8042 846.547 47.6504 855.38C47.6027 863.958 40.962 865.361 39.4731 865.315L18.5187 865.421L17.8029 861.876L38.5008 861.821C39.066 861.82 44.2973 861.143 44.316 855.081C44.3336 849.02 40.6665 844.774 35.1442 844.744L18.8138 844.788L17.9718 841.488L46.4254 841.361Z" fill="#1793D1"/>
<path fill-rule="evenodd" clip-rule="evenodd" d="M18.133 834.822L19.9635 837.162L31.7021 828.192L45.2637 837.759L47.1055 835.277L34.5112 826.284L47.404 817.002L45.5731 814.706L31.7881 824.653L20.6405 816.718L18.5771 819.158L28.8924 826.387L18.133 834.822Z" fill="#1793D1"/>
<path d="M44.6768 810.337H42.2172V811.256H41.8881V809.046H42.2172V809.968H44.6768V810.337Z" fill="#1793D1"/>
<path d="M44.6769 808.661H41.8881V808.106L43.8627 807.446C44.0466 807.385 44.1842 807.34 44.2755 807.313C44.174 807.281 44.025 807.231 43.8284 807.164L41.8881 806.496V806H44.6769V806.356H42.3427L44.6769 807.166V807.499L42.3028 808.306H44.6769V808.661Z" fill="#1793D1"/>
<path fill-rule="evenodd" clip-rule="evenodd" d="M1481.75 870.17C1481.75 865.91 1480.88 862.374 1480.4 861.007L1472.81 859.599C1472.78 859.596 1474.67 866.604 1474.56 869.691C1474.38 874.802 1472.61 875.273 1470.22 875.184C1470.08 875.271 1472.38 873.865 1472.46 869.443C1472.55 863.864 1470.48 855.992 1462.06 856.002C1452.59 855.852 1449.8 863.078 1449.75 867.999C1449.83 872.423 1451.43 874.498 1452.28 875.634C1453.84 877.127 1455.41 878.835 1457.3 880.464C1454.49 878.923 1452.56 877.587 1451.08 876.196H1449.82L1450.96 882.92L1469.24 882.966C1471.82 882.898 1481.72 884.451 1481.75 870.17ZM1465.83 869.204C1465.79 871.991 1464.42 875.188 1461.11 875.193C1458.1 875.207 1456.49 871.425 1456.51 868.965C1456.54 866.504 1458.45 863.238 1461.38 863.224C1464 863.271 1465.9 866.303 1465.83 869.204Z" fill="#4D4D4D"/>
<path fill-rule="evenodd" clip-rule="evenodd" d="M1480.06 887.401L1449.79 887.355L1451.3 895.19L1468.46 895.203C1471.02 895.205 1474 898.855 1473.95 903.435C1475.71 904.407 1480.21 906.234 1481.23 906.679C1481.25 896.447 1478.29 896.317 1476.83 894.537C1479.61 894.519 1481.28 894.531 1481.28 894.531L1480.06 887.401Z" fill="#4D4D4D"/>
<path fill-rule="evenodd" clip-rule="evenodd" d="M1476.08 931.491C1476.12 931.415 1480.78 927.405 1480.81 919.343C1480.94 911.791 1478.01 903.32 1465.35 903.185C1454.21 903.251 1449.86 911.322 1449.78 919.385C1449.69 928.015 1455.17 931.448 1455.31 931.654C1456.2 930.625 1460.02 926.768 1460.02 926.768C1460.02 926.768 1456.59 924.359 1456.55 919.686C1456.51 915.011 1460.16 910.947 1465.27 910.89C1470.37 910.83 1473.14 914.625 1473.36 919.721C1473.36 924.132 1470.51 926.677 1470.51 926.677L1476.08 931.491Z" fill="#4D4D4D"/>
<path fill-rule="evenodd" clip-rule="evenodd" d="M1490.65 941.366L1488.91 933.969L1449.48 934.025L1450.8 941.311L1469.36 941.393C1471.3 941.409 1474.29 944.208 1474.19 948.882C1474.15 953.351 1471.22 954.349 1470.85 954.337L1449.36 954.466L1450.63 961.651L1473.41 961.679C1475.6 961.726 1480.23 956.878 1480.27 949.084C1480.26 945.381 1479.42 943.33 1478.8 942.286C1477.42 940.5 1476.1 938.459 1474.42 936.453C1476.8 938.307 1478.44 939.864 1479.67 941.384L1490.65 941.366Z" fill="#4D4D4D"/>
<path fill-rule="evenodd" clip-rule="evenodd" d="M1489.63 967.92L1490.46 971.256L1450.71 971.414L1450.14 968.024L1489.63 967.92Z" fill="#1793D1"/>
<path fill-rule="evenodd" clip-rule="evenodd" d="M1477.77 976.99L1479.07 979.914L1450.56 979.939L1449.98 977.115L1477.77 976.99ZM1488.04 976.295L1489.97 978.653L1487.79 980.611L1485.81 978.253L1488.04 976.295Z" fill="#1793D1"/>
<path fill-rule="evenodd" clip-rule="evenodd" d="M1478.28 985.412L1478.97 988.748L1473.01 988.764C1472.75 988.765 1479.66 990.596 1479.51 999.431C1479.46 1008.01 1472.82 1009.41 1471.33 1009.37L1450.38 1009.47L1449.74 1006.55L1470.44 1006.53C1471.05 1006.56 1476.16 1005.19 1476.18 999.132C1476.19 993.071 1471.77 988.872 1468.95 988.879L1450.72 988.927L1449.83 985.539L1478.28 985.412Z" fill="#1793D1"/>
<path fill-rule="evenodd" clip-rule="evenodd" d="M1450.23 1038.58L1449.55 1035.25L1455.51 1035.23C1455.76 1035.23 1448.85 1033.4 1449 1024.57C1449.05 1015.99 1455.69 1014.58 1457.18 1014.63L1478.13 1014.53L1478.85 1018.07L1458.15 1018.12C1457.59 1018.13 1452.36 1018.8 1452.34 1024.86C1452.32 1030.93 1455.99 1035.17 1461.51 1035.2L1477.84 1035.16L1478.68 1038.46L1450.23 1038.58Z" fill="#1793D1"/>
<path fill-rule="evenodd" clip-rule="evenodd" d="M1478.52 1045.12L1476.69 1042.78L1464.95 1051.75L1451.39 1042.19L1449.55 1044.67L1462.14 1053.66L1449.25 1062.94L1451.08 1065.24L1464.86 1055.29L1476.01 1063.23L1478.08 1060.79L1467.76 1053.56L1478.52 1045.12Z" fill="#1793D1"/>
<path d="M1451.98 1069.61H1454.44V1068.69H1454.76V1070.9H1454.44V1069.98H1451.98V1069.61Z" fill="#1793D1"/>
<path d="M1451.98 1071.28H1454.76V1071.84L1452.79 1072.5C1452.61 1072.56 1452.47 1072.61 1452.38 1072.63C1452.48 1072.66 1452.63 1072.71 1452.82 1072.78L1454.76 1073.45V1073.95H1451.98V1073.59H1454.31L1451.98 1072.78V1072.45L1454.35 1071.64H1451.98V1071.28Z" fill="#1793D1"/>
<rect x="1.00003" y="653.145" width="1499" height="54" fill="#1793D1" fill-opacity="0.85"/>
<line x1="60.5" y1="-2.37838e-09" x2="60.5" y2="1170" stroke="black"/>
<line x1="1440.5" y1="-2.37838e-09" x2="1440.5" y2="1170" stroke="black"/>
<path d="M25.7558 310.07L29.0921 311.104V304.532L25.7558 305.566C24.5325 305.966 23.3203 306.344 22.1192 306.7C20.8959 307.056 19.6504 307.412 18.3826 307.768V307.901C19.6504 308.235 20.8959 308.58 22.1192 308.936C23.3203 309.292 24.5325 309.67 25.7558 310.07ZM38 316.743L16.1139 309.336V306.2L38 298.793V301.763L31.3274 303.831V311.805L38 313.907V316.743ZM38 295.959H21.7856V293.691L24.7215 293.457V293.357C23.6984 292.801 22.8866 292.123 22.2861 291.322C21.6855 290.521 21.3853 289.665 21.3853 288.753C21.3853 288.108 21.4965 287.53 21.7189 287.018L24.121 287.552C24.032 287.819 23.9653 288.063 23.9208 288.286C23.8764 288.508 23.8541 288.786 23.8541 289.12C23.8541 289.809 24.1321 290.532 24.6882 291.288C25.2442 292.022 26.2118 292.667 27.5908 293.224H38V295.959ZM38.4004 278.313C38.4004 279.737 38.0667 281.027 37.3995 282.183C36.7322 283.34 35.7647 284.252 34.4969 284.919C33.2291 285.586 31.7055 285.92 29.9262 285.92C28.1023 285.92 26.5565 285.564 25.2887 284.852C24.0209 284.118 23.0534 283.162 22.3861 281.983C21.7189 280.782 21.3853 279.492 21.3853 278.113C21.3853 277.045 21.5743 276.133 21.9524 275.377C22.3305 274.599 22.7754 273.931 23.2869 273.375L25.0885 274.777C24.6659 275.244 24.3212 275.744 24.0543 276.278C23.7874 276.79 23.6539 277.368 23.6539 278.013C23.6539 278.992 23.9208 279.87 24.4546 280.649C24.9662 281.405 25.7002 282.005 26.6566 282.45C27.5908 282.873 28.6806 283.084 29.9262 283.084C31.7722 283.084 33.2736 282.628 34.4302 281.716C35.5645 280.782 36.1317 279.57 36.1317 278.08C36.1317 277.323 35.976 276.623 35.6646 275.978C35.331 275.333 34.9417 274.766 34.4969 274.276L36.3319 273.075C36.9769 273.809 37.4884 274.621 37.8665 275.511C38.2224 276.4 38.4004 277.335 38.4004 278.313ZM38 269.504H14.2456V266.768H20.718L24.0543 266.868C23.3203 266.089 22.6975 265.278 22.186 264.432C21.6522 263.565 21.3853 262.575 21.3853 261.463C21.3853 259.75 21.9302 258.505 23.02 257.726C24.0877 256.926 25.6557 256.525 27.7242 256.525H38L38 259.261H28.0912C26.5788 259.261 25.4778 259.506 24.7883 259.995C24.0988 260.484 23.754 261.263 23.754 262.33C23.754 263.153 23.9653 263.899 24.3879 264.566C24.8105 265.211 25.4333 265.945 26.2562 266.768H38V269.504ZM38 244.41H16.1139V241.641H35.6312V232.066H38V244.41ZM38 228.451H21.7856V225.716H38V228.451ZM18.4493 227.05C18.4493 227.584 18.2936 228.029 17.9822 228.385C17.6486 228.718 17.2038 228.885 16.6477 228.885C16.1139 228.885 15.6802 228.718 15.3466 228.385C15.0129 228.029 14.8461 227.584 14.8461 227.05C14.8461 226.516 15.0129 226.083 15.3466 225.749C15.6802 225.393 16.1139 225.215 16.6477 225.215C17.2038 225.215 17.6486 225.393 17.9822 225.749C18.2936 226.083 18.4493 226.516 18.4493 227.05ZM38 220.241H21.7856V217.972L24.121 217.739V217.639C23.3425 216.86 22.6975 216.037 22.186 215.17C21.6522 214.302 21.3853 213.313 21.3853 212.201C21.3853 210.488 21.9302 209.242 23.02 208.464C24.0877 207.663 25.6557 207.263 27.7242 207.263H38V209.999H28.0912C26.5788 209.999 25.4778 210.243 24.7883 210.733C24.0988 211.222 23.754 212 23.754 213.068C23.754 213.891 23.9653 214.636 24.3879 215.303C24.8105 215.948 25.4333 216.682 26.2562 217.505H38V220.241ZM38.4004 197.258C38.4004 198.971 37.8665 200.227 36.7989 201.028C35.7091 201.829 34.1299 202.229 32.0614 202.229H21.7856V199.46H31.6944C33.2069 199.46 34.3078 199.227 34.9973 198.759C35.6868 198.27 36.0316 197.492 36.0316 196.424C36.0316 195.579 35.8203 194.834 35.3977 194.189C34.9529 193.521 34.2522 192.81 33.2958 192.054H21.7856V189.318H38V191.586L35.4644 191.82V191.92C36.3541 192.676 37.0658 193.477 37.5996 194.322C38.1335 195.167 38.4004 196.146 38.4004 197.258ZM38 186.117L29.5258 180.812L21.7856 185.716V182.747L25.3554 180.579C25.778 180.334 26.2229 180.078 26.69 179.811C27.157 179.544 27.613 179.266 28.0578 178.977V178.844C27.613 178.599 27.157 178.354 26.69 178.11C26.2229 177.865 25.778 177.62 25.3554 177.376L21.7856 175.407V172.538L29.8261 177.442L38 172.171V175.14L34.23 177.509C33.7407 177.798 33.2513 178.087 32.762 178.377C32.2727 178.666 31.7945 178.966 31.3274 179.277V179.411C31.7945 179.7 32.2727 179.978 32.762 180.245C33.2291 180.512 33.7184 180.779 34.23 181.046L38 183.248V186.117ZM38.4004 156.741C38.4004 158.765 37.6664 160.389 36.1984 161.612C34.7082 162.835 32.6174 163.447 29.9262 163.447C28.1691 163.447 26.6566 163.125 25.3888 162.48C24.0988 161.812 23.109 160.945 22.4195 159.877C21.73 158.787 21.3853 157.631 21.3853 156.408C21.3853 155.473 21.5521 154.662 21.8857 153.972C22.2193 153.283 22.6753 152.582 23.2536 151.87L20.4845 152.004H14.2456V149.235H38V151.503L36.0983 151.737V151.837C36.7211 152.46 37.266 153.194 37.7331 154.039C38.1779 154.884 38.4004 155.785 38.4004 156.741ZM36.0983 156.141C36.0983 154.717 35.3532 153.338 33.863 152.004H25.3888C24.766 152.693 24.3323 153.36 24.0877 154.005C23.8207 154.628 23.6873 155.273 23.6873 155.94C23.6873 156.808 23.9542 157.598 24.488 158.309C24.9996 158.999 25.7224 159.555 26.6566 159.977C27.5685 160.4 28.6473 160.611 29.8928 160.611C31.8279 160.611 33.3514 160.222 34.4635 159.444C35.5534 158.665 36.0983 157.564 36.0983 156.141ZM38.4004 137.201C38.4004 138.647 38.0667 139.959 37.3995 141.138C36.71 142.317 35.7313 143.251 34.4635 143.94C33.1957 144.63 31.6833 144.975 29.9262 144.975C28.1468 144.975 26.6232 144.63 25.3554 143.94C24.0877 143.229 23.109 142.317 22.4195 141.204C21.73 140.092 21.3853 138.925 21.3853 137.701C21.3853 135.633 22.0748 134.043 23.4538 132.93C24.8328 131.796 26.6788 131.229 28.992 131.229C29.2812 131.229 29.5703 131.24 29.8594 131.262C30.1263 131.262 30.3599 131.285 30.5601 131.329V142.272C32.2727 142.161 33.6406 141.627 34.6637 140.671C35.6868 139.692 36.1984 138.424 36.1984 136.867C36.1984 136.089 36.0872 135.377 35.8648 134.732C35.6201 134.065 35.3087 133.431 34.9306 132.83L36.7322 131.863C37.177 132.552 37.5663 133.342 37.8999 134.232C38.2335 135.099 38.4004 136.089 38.4004 137.201ZM28.5916 142.305V133.631C26.9457 133.631 25.7002 133.987 24.855 134.699C23.9876 135.388 23.5538 136.367 23.5538 137.635C23.5538 138.769 23.9987 139.792 24.8884 140.704C25.7558 141.594 26.9902 142.128 28.5916 142.305ZM38 123.556L21.7856 129.395V126.559L30.9938 123.49C31.7945 123.245 32.5952 123 33.3959 122.756C34.1966 122.489 34.9862 122.233 35.7647 121.988V121.855C34.9862 121.61 34.1966 121.365 33.3959 121.121C32.5952 120.854 31.7945 120.609 30.9938 120.387L21.7856 117.317V114.615L38 120.353V123.556ZM38.4004 99.702C38.4004 101.437 37.8999 102.649 36.899 103.339C35.8981 104.006 34.597 104.339 32.9956 104.339H24.0209V106.742H21.9524L21.7856 104.206L17.2482 103.872V101.57H21.7856V97.1998H24.0209V101.57H33.0289C34.0298 101.57 34.8083 101.392 35.3643 101.037C35.8981 100.658 36.165 100.002 36.165 99.0681C36.165 98.779 36.1206 98.4676 36.0316 98.134C35.9204 97.8003 35.8203 97.5001 35.7313 97.2332L37.7998 96.6994C37.9555 97.1442 38.089 97.6335 38.2002 98.1673C38.3336 98.6789 38.4004 99.1905 38.4004 99.702ZM38.4004 87.4172C38.4004 88.8629 38.0667 90.1752 37.3995 91.354C36.71 92.5328 35.7313 93.467 34.4635 94.1565C33.1957 94.846 31.6833 95.1907 29.9262 95.1907C28.1468 95.1907 26.6232 94.846 25.3554 94.1565C24.0877 93.4447 23.109 92.5328 22.4195 91.4207C21.73 90.3086 21.3853 89.1409 21.3853 87.9176C21.3853 85.8491 22.0748 84.2588 23.4538 83.1467C24.8328 82.0124 26.6788 81.4452 28.992 81.4452C29.2812 81.4452 29.5703 81.4563 29.8594 81.4786C30.1263 81.4786 30.3599 81.5008 30.5601 81.5453V92.4883C32.2727 92.3771 33.6406 91.8433 34.6637 90.8869C35.6868 89.9083 36.1984 88.6405 36.1984 87.0835C36.1984 86.3051 36.0872 85.5933 35.8648 84.9483C35.6201 84.281 35.3087 83.6471 34.9306 83.0466L36.7322 82.0791C37.177 82.7686 37.5663 83.5582 37.8999 84.4479C38.2335 85.3153 38.4004 86.3051 38.4004 87.4172ZM28.5916 92.5217V83.8473C26.9457 83.8473 25.7002 84.2032 24.855 84.9149C23.9876 85.6044 23.5538 86.5831 23.5538 87.8509C23.5538 88.9852 23.9987 90.0083 24.8884 90.9203C25.7558 91.8099 26.9902 92.3438 28.5916 92.5217ZM38.4004 74.158C38.4004 75.5147 38 76.6491 37.1993 77.561C36.3763 78.4507 35.242 78.8955 33.7963 78.8955C32.0169 78.8955 30.6602 78.1059 29.726 76.5268C28.7696 74.9253 28.1023 72.4009 27.7242 68.9534C27.0347 68.9534 26.3786 69.0535 25.7558 69.2536C25.133 69.4316 24.6326 69.7652 24.2545 70.2545C23.8541 70.7216 23.6539 71.4 23.6539 72.2897C23.6539 73.2238 23.8319 74.1024 24.1877 74.9253C24.5436 75.7483 24.944 76.4823 25.3888 77.1273L23.4871 78.1949C22.9978 77.4387 22.5307 76.5156 22.0859 75.4258C21.6188 74.3137 21.3853 73.1126 21.3853 71.8226C21.3853 69.843 21.9969 68.4084 23.2202 67.5188C24.4213 66.6291 26.0338 66.1842 28.0578 66.1842H38V68.4529L36.0649 68.6865V68.7866C36.6877 69.5428 37.2327 70.3769 37.6997 71.2888C38.1668 72.1785 38.4004 73.1349 38.4004 74.158ZM36.1984 73.3573C36.1984 72.5788 36.0093 71.8448 35.6312 71.1553C35.2531 70.4658 34.7193 69.7318 34.0298 68.9534H29.5258C29.8594 71.6446 30.3599 73.5352 31.0271 74.6251C31.6944 75.6927 32.5507 76.2265 33.5961 76.2265C34.508 76.2265 35.1753 75.9485 35.5979 75.3924C35.9982 74.8364 36.1984 74.158 36.1984 73.3573ZM38 61.0829H21.7856V58.8142L24.121 58.5806V58.4805C23.3425 57.7688 22.6975 56.9903 22.186 56.1451C21.6522 55.2999 21.3853 54.3991 21.3853 53.4427C21.3853 52.1972 21.6633 51.2297 22.2193 50.5402C22.7531 49.8284 23.5094 49.3057 24.488 48.9721C23.5761 48.1269 22.831 47.2706 22.2527 46.4032C21.6744 45.5357 21.3853 44.6127 21.3853 43.634C21.3853 41.9659 21.9302 40.7315 23.02 39.9307C24.0877 39.1078 25.6557 38.6963 27.7242 38.6963H38V41.4321H28.0912C26.5788 41.4321 25.4778 41.6767 24.7883 42.1661C24.0988 42.6554 23.754 43.4116 23.754 44.4347C23.754 45.6358 24.5881 46.9926 26.2562 48.505H38V51.2408H28.0912C26.5788 51.2408 25.4778 51.4854 24.7883 51.9748C24.0988 52.4641 23.754 53.2314 23.754 54.2768C23.754 55.4779 24.5881 56.8346 26.2562 58.3471H38V61.0829Z" fill="white"/>
<path d="M1474.24 44.93L1470.91 43.8958V50.4683L1474.24 49.434C1475.47 49.0337 1476.68 48.6555 1477.88 48.2997C1479.1 47.9438 1480.35 47.5879 1481.62 47.2321V47.0986C1480.35 46.765 1479.1 46.4202 1477.88 46.0644C1476.68 45.7085 1475.47 45.3304 1474.24 44.93ZM1462 38.2574L1483.89 45.664V48.8001L1462 56.2067V53.2374L1468.67 51.1689V43.1951L1462 41.0933V38.2574ZM1462 59.0407H1478.21V61.3094L1475.28 61.5429V61.643C1476.3 62.1991 1477.11 62.8775 1477.71 63.6782C1478.31 64.4789 1478.61 65.3352 1478.61 66.2471C1478.61 66.8921 1478.5 67.4704 1478.28 67.982L1475.88 67.4482C1475.97 67.1813 1476.03 66.9366 1476.08 66.7142C1476.12 66.4918 1476.15 66.2137 1476.15 65.8801C1476.15 65.1906 1475.87 64.4678 1475.31 63.7115C1474.76 62.9775 1473.79 62.3325 1472.41 61.7765H1462V59.0407ZM1461.6 76.6868C1461.6 75.2634 1461.93 73.9733 1462.6 72.8167C1463.27 71.6602 1464.24 70.7482 1465.5 70.081C1466.77 69.4137 1468.29 69.0801 1470.07 69.0801C1471.9 69.0801 1473.44 69.436 1474.71 70.1477C1475.98 70.8817 1476.95 71.8381 1477.61 73.0169C1478.28 74.218 1478.61 75.508 1478.61 76.887C1478.61 77.9546 1478.43 78.8666 1478.05 79.6228C1477.67 80.4013 1477.22 81.0685 1476.71 81.6246L1474.91 80.2233C1475.33 79.7562 1475.68 79.2558 1475.95 78.722C1476.21 78.2104 1476.35 77.6321 1476.35 76.9871C1476.35 76.0085 1476.08 75.1299 1475.55 74.3514C1475.03 73.5952 1474.3 72.9947 1473.34 72.5498C1472.41 72.1272 1471.32 71.9159 1470.07 71.9159C1468.23 71.9159 1466.73 72.3719 1465.57 73.2838C1464.44 74.218 1463.87 75.4302 1463.87 76.9204C1463.87 77.6766 1464.02 78.3772 1464.34 79.0222C1464.67 79.6673 1465.06 80.2344 1465.5 80.7238L1463.67 81.9248C1463.02 81.1908 1462.51 80.379 1462.13 79.4893C1461.78 78.5997 1461.6 77.6655 1461.6 76.6868ZM1462 85.4965H1485.75V88.2322H1479.28L1475.95 88.1322C1476.68 88.9106 1477.3 89.7225 1477.81 90.5677C1478.35 91.4351 1478.61 92.4249 1478.61 93.537C1478.61 95.2496 1478.07 96.4951 1476.98 97.2736C1475.91 98.0743 1474.34 98.4747 1472.28 98.4747H1462V95.7389H1471.91C1473.42 95.7389 1474.52 95.4942 1475.21 95.0049C1475.9 94.5156 1476.25 93.7371 1476.25 92.6695C1476.25 91.8466 1476.03 91.1015 1475.61 90.4342C1475.19 89.7892 1474.57 89.0552 1473.74 88.2322H1462V85.4965ZM1462 110.59H1483.89V113.359H1464.37V122.934H1462V110.59ZM1462 126.549H1478.21V129.284H1462V126.549ZM1481.55 127.95C1481.55 127.416 1481.71 126.971 1482.02 126.615C1482.35 126.282 1482.8 126.115 1483.35 126.115C1483.89 126.115 1484.32 126.282 1484.65 126.615C1484.99 126.971 1485.15 127.416 1485.15 127.95C1485.15 128.484 1484.99 128.917 1484.65 129.251C1484.32 129.607 1483.89 129.785 1483.35 129.785C1482.8 129.785 1482.35 129.607 1482.02 129.251C1481.71 128.917 1481.55 128.484 1481.55 127.95ZM1462 134.759H1478.21V137.028L1475.88 137.261V137.361C1476.66 138.14 1477.3 138.963 1477.81 139.83C1478.35 140.698 1478.61 141.687 1478.61 142.799C1478.61 144.512 1478.07 145.758 1476.98 146.536C1475.91 147.337 1474.34 147.737 1472.28 147.737H1462V145.001H1471.91C1473.42 145.001 1474.52 144.757 1475.21 144.267C1475.9 143.778 1476.25 143 1476.25 141.932C1476.25 141.109 1476.03 140.364 1475.61 139.697C1475.19 139.052 1474.57 138.318 1473.74 137.495H1462V134.759ZM1461.6 157.742C1461.6 156.029 1462.13 154.773 1463.2 153.972C1464.29 153.171 1465.87 152.771 1467.94 152.771H1478.21V155.54H1468.31C1466.79 155.54 1465.69 155.773 1465 156.241C1464.31 156.73 1463.97 157.508 1463.97 158.576C1463.97 159.421 1464.18 160.166 1464.6 160.811C1465.05 161.479 1465.75 162.19 1466.7 162.946H1478.21V165.682H1462V163.414L1464.54 163.18V163.08C1463.65 162.324 1462.93 161.523 1462.4 160.678C1461.87 159.833 1461.6 158.854 1461.6 157.742ZM1462 168.883L1470.47 174.188L1478.21 169.284V172.253L1474.64 174.421C1474.22 174.666 1473.78 174.922 1473.31 175.189C1472.84 175.456 1472.39 175.734 1471.94 176.023V176.156C1472.39 176.401 1472.84 176.646 1473.31 176.89C1473.78 177.135 1474.22 177.38 1474.64 177.624L1478.21 179.593V182.462L1470.17 177.558L1462 182.829V179.86L1465.77 177.491C1466.26 177.202 1466.75 176.913 1467.24 176.623C1467.73 176.334 1468.21 176.034 1468.67 175.723V175.589C1468.21 175.3 1467.73 175.022 1467.24 174.755C1466.77 174.488 1466.28 174.221 1465.77 173.954L1462 171.752V168.883ZM1461.6 198.259C1461.6 196.235 1462.33 194.611 1463.8 193.388C1465.29 192.165 1467.38 191.553 1470.07 191.553C1471.83 191.553 1473.34 191.875 1474.61 192.52C1475.9 193.188 1476.89 194.055 1477.58 195.123C1478.27 196.213 1478.61 197.369 1478.61 198.592C1478.61 199.527 1478.45 200.338 1478.11 201.028C1477.78 201.717 1477.32 202.418 1476.75 203.13L1479.52 202.996H1485.75V205.765H1462V203.497L1463.9 203.263V203.163C1463.28 202.54 1462.73 201.806 1462.27 200.961C1461.82 200.116 1461.6 199.215 1461.6 198.259ZM1463.9 198.859C1463.9 200.283 1464.65 201.662 1466.14 202.996H1474.61C1475.23 202.307 1475.67 201.64 1475.91 200.995C1476.18 200.372 1476.31 199.727 1476.31 199.06C1476.31 198.192 1476.05 197.402 1475.51 196.691C1475 196.001 1474.28 195.445 1473.34 195.023C1472.43 194.6 1471.35 194.389 1470.11 194.389C1468.17 194.389 1466.65 194.778 1465.54 195.556C1464.45 196.335 1463.9 197.436 1463.9 198.859ZM1461.6 217.799C1461.6 216.353 1461.93 215.041 1462.6 213.862C1463.29 212.683 1464.27 211.749 1465.54 211.06C1466.8 210.37 1468.32 210.025 1470.07 210.025C1471.85 210.025 1473.38 210.37 1474.64 211.06C1475.91 211.771 1476.89 212.683 1477.58 213.796C1478.27 214.908 1478.61 216.075 1478.61 217.299C1478.61 219.367 1477.93 220.957 1476.55 222.07C1475.17 223.204 1473.32 223.771 1471.01 223.771C1470.72 223.771 1470.43 223.76 1470.14 223.738C1469.87 223.738 1469.64 223.715 1469.44 223.671V212.728C1467.73 212.839 1466.36 213.373 1465.34 214.329C1464.31 215.308 1463.8 216.576 1463.8 218.133C1463.8 218.911 1463.91 219.623 1464.14 220.268C1464.38 220.935 1464.69 221.569 1465.07 222.17L1463.27 223.137C1462.82 222.448 1462.43 221.658 1462.1 220.768C1461.77 219.901 1461.6 218.911 1461.6 217.799ZM1471.41 212.695V221.369C1473.05 221.369 1474.3 221.013 1475.15 220.301C1476.01 219.612 1476.45 218.633 1476.45 217.365C1476.45 216.231 1476 215.208 1475.11 214.296C1474.24 213.406 1473.01 212.872 1471.41 212.695ZM1462 231.444L1478.21 225.605V228.441L1469.01 231.51C1468.21 231.755 1467.4 232 1466.6 232.244C1465.8 232.511 1465.01 232.767 1464.24 233.012V233.145C1465.01 233.39 1465.8 233.635 1466.6 233.879C1467.4 234.146 1468.21 234.391 1469.01 234.613L1478.21 237.683V240.385L1462 234.647V231.444ZM1461.6 255.298C1461.6 253.563 1462.1 252.351 1463.1 251.661C1464.1 250.994 1465.4 250.661 1467 250.661H1475.98V248.258H1478.05L1478.21 250.794L1482.75 251.128V253.43H1478.21V257.8H1475.98V253.43H1466.97C1465.97 253.43 1465.19 253.608 1464.64 253.963C1464.1 254.342 1463.83 254.998 1463.83 255.932C1463.83 256.221 1463.88 256.532 1463.97 256.866C1464.08 257.2 1464.18 257.5 1464.27 257.767L1462.2 258.301C1462.04 257.856 1461.91 257.366 1461.8 256.833C1461.67 256.321 1461.6 255.81 1461.6 255.298ZM1461.6 267.583C1461.6 266.137 1461.93 264.825 1462.6 263.646C1463.29 262.467 1464.27 261.533 1465.54 260.844C1466.8 260.154 1468.32 259.809 1470.07 259.809C1471.85 259.809 1473.38 260.154 1474.64 260.844C1475.91 261.555 1476.89 262.467 1477.58 263.579C1478.27 264.691 1478.61 265.859 1478.61 267.082C1478.61 269.151 1477.93 270.741 1476.55 271.853C1475.17 272.988 1473.32 273.555 1471.01 273.555C1470.72 273.555 1470.43 273.544 1470.14 273.521C1469.87 273.521 1469.64 273.499 1469.44 273.455V262.512C1467.73 262.623 1466.36 263.157 1465.34 264.113C1464.31 265.092 1463.8 266.36 1463.8 267.916C1463.8 268.695 1463.91 269.407 1464.14 270.052C1464.38 270.719 1464.69 271.353 1465.07 271.953L1463.27 272.921C1462.82 272.231 1462.43 271.442 1462.1 270.552C1461.77 269.685 1461.6 268.695 1461.6 267.583ZM1471.41 262.478V271.153C1473.05 271.153 1474.3 270.797 1475.15 270.085C1476.01 269.396 1476.45 268.417 1476.45 267.149C1476.45 266.015 1476 264.992 1475.11 264.08C1474.24 263.19 1473.01 262.656 1471.41 262.478ZM1461.6 280.842C1461.6 279.485 1462 278.351 1462.8 277.439C1463.62 276.549 1464.76 276.104 1466.2 276.104C1467.98 276.104 1469.34 276.894 1470.27 278.473C1471.23 280.075 1471.9 282.599 1472.28 286.047C1472.97 286.047 1473.62 285.947 1474.24 285.746C1474.87 285.568 1475.37 285.235 1475.75 284.745C1476.15 284.278 1476.35 283.6 1476.35 282.71C1476.35 281.776 1476.17 280.898 1475.81 280.075C1475.46 279.252 1475.06 278.518 1474.61 277.873L1476.51 276.805C1477 277.561 1477.47 278.484 1477.91 279.574C1478.38 280.686 1478.61 281.887 1478.61 283.177C1478.61 285.157 1478 286.592 1476.78 287.481C1475.58 288.371 1473.97 288.816 1471.94 288.816H1462V286.547L1463.94 286.314V286.213C1463.31 285.457 1462.77 284.623 1462.3 283.711C1461.83 282.822 1461.6 281.865 1461.6 280.842ZM1463.8 281.643C1463.8 282.421 1463.99 283.155 1464.37 283.845C1464.75 284.534 1465.28 285.268 1465.97 286.047H1470.47C1470.14 283.355 1469.64 281.465 1468.97 280.375C1468.31 279.307 1467.45 278.774 1466.4 278.774C1465.49 278.774 1464.82 279.052 1464.4 279.608C1464 280.164 1463.8 280.842 1463.8 281.643ZM1462 293.917H1478.21V296.186L1475.88 296.419V296.519C1476.66 297.231 1477.3 298.01 1477.81 298.855C1478.35 299.7 1478.61 300.601 1478.61 301.557C1478.61 302.803 1478.34 303.77 1477.78 304.46C1477.25 305.172 1476.49 305.694 1475.51 306.028C1476.42 306.873 1477.17 307.729 1477.75 308.597C1478.33 309.464 1478.61 310.387 1478.61 311.366C1478.61 313.034 1478.07 314.269 1476.98 315.069C1475.91 315.892 1474.34 316.304 1472.28 316.304H1462V313.568H1471.91C1473.42 313.568 1474.52 313.323 1475.21 312.834C1475.9 312.345 1476.25 311.588 1476.25 310.565C1476.25 309.364 1475.41 308.007 1473.74 306.495H1462V303.759H1471.91C1473.42 303.759 1474.52 303.515 1475.21 303.025C1475.9 302.536 1476.25 301.769 1476.25 300.723C1476.25 299.522 1475.41 298.165 1473.74 296.653H1462V293.917Z" fill="white"/>
<path d="M743.999 277.849C794.638 396.911 809.435 438.926 957.977 715.706C939.376 705.624 916.16 696.549 885.435 688.566L883.572 693.453C934.062 719.363 958.83 743.207 982.857 761.884C996.75 787.64 1011.25 814.583 1027.26 844.094C941.534 795.08 873.647 763.993 810.226 751.111C812.106 741.796 813.19 731.871 813.444 721.606C814.184 691.752 807.41 663.985 795.741 643.209C784.104 622.49 767.34 608.333 747.985 606.693C728.557 605.048 711.019 616.388 698.322 635.155C685.615 653.938 677.483 680.482 676.738 710.319L676.63 713.265L676.628 713.303V713.341C676.524 726.402 677.938 738.958 680.462 750.662C616.361 763.205 547.756 794.359 460.902 844.001C573.283 641.965 629.921 534.592 666.318 458.938C685.531 474.569 710.907 489.608 747.199 504.539L749.707 499.949C715.585 476.089 694.285 454.911 676.945 436.593C704.356 377.9 719.822 337.293 743.999 277.849Z" fill="#1793D1" stroke="black" stroke-width="5.26174"/>
<path fill-rule="evenodd" clip-rule="evenodd" d="M5 1055C10.0197 1057.05 13.3032 1058.29 18.1737 1060.57C19.6552 1059.17 21.3805 1057.45 23.3291 1054.67C22.0965 1057.66 20.8591 1059.71 19.575 1061.23C25.6626 1064.15 34.334 1068.72 51 1078C46.7913 1070.71 44.1965 1065.06 43.2065 1059.79C42.2338 1060.01 41.1817 1060.14 40.0839 1060.13L39.8503 1060.13C35.1797 1060.01 31.588 1057.58 31.8319 1054.7C32.0758 1051.82 36.062 1049.59 40.7326 1049.7C41.6115 1049.72 42.4569 1049.82 43.2411 1050C44.2601 1044.78 46.8482 1039.19 51 1032C48.3893 1033.42 46.036 1034.68 43.7947 1035.89C42.319 1037.8 40.3984 1039.78 38.3193 1043.84C39.0428 1041.05 39.8775 1039.06 40.8105 1037.5C17.93 1049.79 14.8897 1050.79 5 1055Z" fill="#1793D1"/>
<path fill-rule="evenodd" clip-rule="evenodd" d="M1491 828.996C1485.98 826.948 1482.7 825.713 1477.83 823.433C1476.34 824.831 1474.62 826.547 1472.67 829.333C1473.9 826.337 1475.14 824.294 1476.42 822.767C1470.34 819.849 1461.67 815.277 1445 806C1449.21 813.292 1451.8 818.944 1452.79 824.211C1453.77 823.985 1454.82 823.857 1455.92 823.865L1456.15 823.874C1460.82 823.99 1464.41 826.42 1464.17 829.298C1463.92 832.177 1459.94 834.415 1455.27 834.299C1454.39 834.277 1453.54 834.178 1452.76 834.005C1451.74 839.215 1449.15 844.807 1445 852C1447.61 850.582 1449.96 849.316 1452.21 848.107C1453.68 846.203 1455.6 844.216 1457.68 840.165C1456.96 842.95 1456.12 844.943 1455.19 846.498C1478.07 834.206 1481.11 833.211 1491 828.996Z" fill="#1793D1"/>
</svg>
