<svg width="1500" height="1171" viewBox="0 0 1500 1171" fill="none" xmlns="http://www.w3.org/2000/svg">
<rect width="1500" height="1171" fill="#1E1E1E"/>
<rect width="1500" height="1170" fill="#21283A"/>
<path d="M3.05176e-05 707.145H1499V1170.15H3.05176e-05V707.145Z" fill="white"/>
<rect x="1.00003" y="653.145" width="1499" height="54" fill="#1793D1" fill-opacity="0.85"/>
<line x1="60.5" y1="-2.37838e-09" x2="60.5" y2="1170" stroke="black"/>
<line x1="1440.5" y1="-2.37838e-09" x2="1440.5" y2="1170" stroke="black"/>
<path fill-rule="evenodd" clip-rule="evenodd" d="M113.034 105.012L123.327 106.972C123.99 108.868 125.22 113.771 125.27 119.677C125.438 139.472 112.034 137.307 108.538 137.396L83.8292 137.291L82.2029 127.97L86.0642 127.968C85.2526 126.605 82.2029 123.876 82.0001 116.602C82.0001 109.781 85.6584 99.7768 98.4625 100.004C109.843 100.005 112.753 110.916 112.701 118.648C112.659 124.778 109.575 126.727 109.762 126.606C112.992 126.735 115.371 126.082 115.548 118.997C115.656 114.719 112.997 105.007 113.034 105.012ZM103.746 118.307C103.796 114.287 101.193 110.078 97.6494 110.008C93.686 110.022 91.1444 114.554 91.1444 117.966C91.1444 121.375 93.3809 126.62 97.4465 126.606C101.917 126.606 103.733 122.171 103.746 118.307Z" fill="white"/>
<path fill-rule="evenodd" clip-rule="evenodd" d="M122.927 143.17L82.0115 143.048L84.1617 153.91L107.36 153.962C110.814 153.969 114.901 159.035 114.901 165.384C117.292 166.735 123.393 169.276 124.781 169.895C124.67 155.712 120.661 155.526 118.664 153.056C122.425 153.036 124.683 153.056 124.683 153.056L122.927 143.17Z" fill="white"/>
<path fill-rule="evenodd" clip-rule="evenodd" d="M117.56 203.822C117.607 203.717 124.457 198.623 124.394 187.448C124.457 176.98 120.381 165.233 103.264 165.02C88.2173 165.09 82.4499 176.269 82.4485 187.446C82.4485 199.407 89.9112 204.178 90.0978 204.464C91.2898 203.038 96.179 197.699 96.179 197.699C96.179 197.699 91.0382 194.353 90.9136 187.875C90.7878 181.395 96.3672 175.77 103.264 175.7C110.161 175.627 114.926 179.687 114.863 187.375C114.863 195.99 111.541 197.914 111.541 197.914L117.56 203.822Z" fill="white"/>
<path fill-rule="evenodd" clip-rule="evenodd" d="M82.2603 207.738L84.1409 217.846L109.221 217.995C111.851 218.02 115.929 221.905 115.866 228.383C115.866 234.577 111.916 235.949 111.415 235.931L82.3862 236.073L84.2045 246.04L114.99 246.112C117.953 246.182 124.145 239.47 124.08 228.667C123.989 220.867 121.332 218.338 121.133 217.99H138L135.554 207.737L82.2603 207.738Z" fill="white"/>
<path fill-rule="evenodd" clip-rule="evenodd" d="M131.729 254.868L132.795 259.496L84.2667 259.569L83.5145 254.868L131.729 254.868Z" fill="white"/>
<path fill-rule="evenodd" clip-rule="evenodd" d="M117.372 267.398L119.003 271.455L84.2045 271.386L83.4523 267.469L117.372 267.398ZM129.911 266.472L132.293 269.747L129.661 272.454L127.216 269.177L129.911 266.472Z" fill="white"/>
<path fill-rule="evenodd" clip-rule="evenodd" d="M118.125 279.074L119.003 283.701H111.728C111.416 283.701 119.881 286.265 119.817 298.51C119.879 310.4 111.792 312.321 109.973 312.251L84.3928 312.321L83.5768 308.265L108.845 308.318C109.583 308.367 115.804 306.486 115.742 298.083C115.679 289.683 110.224 283.846 106.776 283.846H84.5172L83.3888 279.145L118.125 279.074Z" fill="white"/>
<path fill-rule="evenodd" clip-rule="evenodd" d="M84.6175 352.676L83.7396 348.048H91.0141C91.3266 348.048 82.8614 345.483 82.925 333.239C82.8628 321.349 90.9505 319.428 92.7687 319.498L118.349 319.428L119.273 324.345H94.0049C93.3149 324.345 86.9377 325.264 87.0001 333.666C87.0637 342.067 91.6004 347.966 98.3427 348.028H118.279L119.353 352.604L84.6175 352.676Z" fill="white"/>
<path fill-rule="evenodd" clip-rule="evenodd" d="M119.25 361.843L116.982 358.594L102.777 370.984L86.0864 357.673L83.8727 361.107L99.3747 373.619L83.7649 386.438L86.0325 389.627L102.722 375.889L116.443 386.93L118.928 383.555L106.233 373.497L119.25 361.843Z" fill="white"/>
<path fill-rule="evenodd" clip-rule="evenodd" d="M117.885 64.4638C119.061 64.2824 114.367 82.567 106.351 81.5101C98.1571 80.8305 90.568 67.7922 86.3668 44.2277C84.8432 33.2596 84.7162 28.3963 85.5139 28.3903C86.2157 28.2876 90.2132 63.5112 105.576 72.1703C114.486 76.8707 116.555 64.669 117.885 64.4638Z" fill="black"/>
<path fill-rule="evenodd" clip-rule="evenodd" d="M85.3927 72.587C82.1736 72.8768 81.5078 72.7738 81.5575 71.9651C81.6254 70.9162 82.982 71.0932 83.8937 70.7852C95.0677 67.4971 112.453 60.0217 112.453 48.7958C112.453 37.6337 98.1211 32.8218 86.2915 28.7738C84.4427 28.1749 81.6197 27.4443 81.5542 23.7209C81.5472 21.055 84.0364 20.3311 85.6476 20.46C112.751 22.5032 133.101 32.2899 133.549 46.7706C133.93 59.0789 112.287 70.166 85.3927 72.587Z" fill="#DADADA" stroke="#383838" stroke-width="1.36343"/>
<path fill-rule="evenodd" clip-rule="evenodd" d="M85.3927 72.587C82.1736 72.8768 81.5078 72.7738 81.5575 71.9651C81.6254 70.9162 82.982 71.0932 83.8937 70.7852C95.0677 67.4971 112.453 60.0217 112.453 48.7958C112.453 37.6337 98.1211 32.8218 86.2915 28.7738C84.4427 28.1749 81.6197 27.4443 81.5542 23.7209C81.5472 21.055 84.0364 20.3311 85.6476 20.46C112.751 22.5032 133.101 32.2899 133.549 46.7706C133.93 59.0789 112.287 70.166 85.3927 72.587Z" fill="url(#paint0_linear_0_1)" stroke="#003870" stroke-width="1.36343"/>
<path fill-rule="evenodd" clip-rule="evenodd" d="M131.329 46.8671C131.136 40.6427 126.68 35.1975 118.547 30.8894C110.413 26.5814 98.8127 23.6711 85.4837 22.6663C85.1041 22.6359 84.4596 22.7403 84.1629 22.9219C83.8661 23.1035 83.7777 23.0847 83.7794 23.7315C83.8024 25.0399 84.0866 25.2671 84.5889 25.6488C85.0912 26.0305 85.9798 26.349 86.9749 26.6713C86.9891 26.6712 87.0033 26.6712 87.0175 26.6713C92.9277 28.6937 99.5704 30.9094 104.955 34.2128C110.34 37.5162 114.67 42.2593 114.67 48.7844C114.67 55.5354 109.578 60.7245 103.549 64.5917C100.816 66.3451 93.1957 69.199 94.8146 69.108C99.5172 68.8438 112.398 64.7587 118.675 61.4387C122.859 59.2255 126.161 56.7516 128.304 54.2381C130.447 51.7246 131.404 49.2887 131.329 46.8671Z" fill="url(#paint1_radial_0_1)"/>
<path fill-rule="evenodd" clip-rule="evenodd" d="M114.968 71.494C113.77 73.0248 112.034 74.2392 110.054 74.3918C108.217 74.5541 106.339 74.0229 104.784 73.0626C104.34 72.8309 103.665 71.851 103.442 72.025C103.818 73.8473 104.509 74.542 105.375 76.0704C106.267 77.6442 103.821 78.5934 106.063 79.8876C107.89 80.9425 109.391 79.8934 110.551 78.7551C112.356 77.0336 113.596 74.8116 114.607 72.556C114.74 72.2064 114.826 71.8407 114.968 71.494Z" fill="url(#paint2_linear_0_1)"/>
<defs>
<linearGradient id="paint0_linear_0_1" x1="76.5849" y1="46.5689" x2="132.159" y2="46.5689" gradientUnits="userSpaceOnUse">
<stop stop-color="#F2F9FF"/>
<stop offset="1" stop-color="#91AFCB"/>
</linearGradient>
<radialGradient id="paint1_radial_0_1" cx="0" cy="0" r="1" gradientTransform="matrix(-22.4167 -16.4677 10.1799 -13.8573 125.232 40.7717)" gradientUnits="userSpaceOnUse">
<stop stop-color="#A4BFDA"/>
<stop offset="1" stop-color="#387CBF"/>
</radialGradient>
<linearGradient id="paint2_linear_0_1" x1="113.008" y1="76.9051" x2="101.248" y2="73.667" gradientUnits="userSpaceOnUse">
<stop stop-color="#9C9C9C"/>
<stop offset="1" stop-opacity="0"/>
</linearGradient>
</defs>
</svg>
