<svg width="1417" height="1417" viewBox="0 0 1417 1417" fill="none" xmlns="http://www.w3.org/2000/svg">
<rect width="1417" height="1417" fill="#1E1E1E"/>
<rect width="1417" height="1417" fill="#21283A"/>
<path opacity="0.6" d="M316.307 0C404.264 99.7893 524.114 230.545 708.672 426.801C662.187 413.488 605.051 405.743 528.307 406.324C647.049 431.932 711.485 467.712 770.737 492.593C817.361 542.004 866.228 593.909 920.796 651.394C706.807 594.061 544.866 565.972 403.585 575.682C402.634 554.279 399.351 531.807 393.843 509.009C364.574 387.851 279.399 300.575 203.547 314.164C127.695 327.753 89.8843 437.086 119.153 558.243L120.543 564.321C127.898 592.671 138.477 618.896 151.021 642.399C101.129 666.354 51.4127 696.904 0 734.564V63.0947C39.4935 76.4144 86.8222 87.1967 145.728 94.8125C84.5065 72.5676 38.3075 49.4774 0 27.6631V0H316.307Z" fill="#1793D1"/>
<path d="M0 760H1416V1417H0V760Z" fill="white"/>
<rect y="684" width="1416" height="76" fill="#1793D1" fill-opacity="0.85"/>
<path d="M68.7921 1008.68C65.5278 1008.68 62.6241 1007.92 60.081 1006.41C57.5379 1004.85 55.5451 1002.63 54.1028 999.744C52.6604 996.86 51.9392 993.387 51.9392 989.325C51.9392 985.302 52.6794 981.848 54.1597 978.963C55.64 976.078 57.6707 973.858 60.2518 972.301C62.8329 970.745 65.7745 969.967 69.0768 969.967C71.6579 969.967 73.8214 970.461 75.5674 971.447C77.3514 972.396 78.7748 973.44 79.8376 974.579L77.2186 977.653C76.2696 976.667 75.1689 975.831 73.9163 975.148C72.6637 974.465 71.0885 974.123 69.1907 974.123C66.6855 974.123 64.503 974.75 62.6431 976.002C60.7832 977.217 59.3408 978.944 58.316 981.183C57.3291 983.423 56.8357 986.099 56.8357 989.211C56.8357 993.918 57.8985 997.657 60.024 1000.43C62.1876 1003.16 65.2621 1004.53 69.2476 1004.53C70.5761 1004.53 71.8476 1004.34 73.0623 1003.96C74.2769 1003.54 75.2448 1002.99 75.966 1002.31V992.57H68.0519V988.642H80.2931V1004.36C79.1164 1005.61 77.5222 1006.65 75.5105 1007.49C73.5367 1008.28 71.2973 1008.68 68.7921 1008.68ZM89.2426 1008V970.65H94.1391L107.633 994.108L111.675 1001.85H111.903C111.789 999.953 111.656 997.998 111.504 995.987C111.391 993.937 111.334 991.925 111.334 989.951V970.65H115.831V1008H110.935L97.3844 984.486L93.342 976.799H93.1142C93.2661 978.659 93.3989 980.576 93.5128 982.55C93.6646 984.524 93.7405 986.497 93.7405 988.471V1008H89.2426ZM139.372 1008.68C136.829 1008.68 134.533 1008.17 132.483 1007.15C130.471 1006.12 128.877 1004.43 127.7 1002.08C126.524 999.725 125.935 996.556 125.935 992.57V970.65H130.661V992.684C130.661 995.683 131.041 998.055 131.8 999.801C132.597 1001.51 133.641 1002.72 134.931 1003.45C136.26 1004.17 137.74 1004.53 139.372 1004.53C141.042 1004.53 142.542 1004.17 143.87 1003.45C145.198 1002.72 146.242 1001.51 147.001 999.801C147.799 998.055 148.197 995.683 148.197 992.684V970.65H152.752V992.57C152.752 996.556 152.164 999.725 150.987 1002.08C149.81 1004.43 148.216 1006.12 146.204 1007.15C144.193 1008.17 141.915 1008.68 139.372 1008.68ZM156.469 1017.11L171.671 967.576H175.087L159.885 1017.11H156.469ZM180.929 1008V970.65H185.654V1003.96H201.995V1008H180.929ZM208.163 1008V980.329H212.831V1008H208.163ZM210.554 974.636C209.643 974.636 208.884 974.37 208.276 973.839C207.707 973.269 207.422 972.51 207.422 971.561C207.422 970.65 207.707 969.91 208.276 969.341C208.884 968.771 209.643 968.487 210.554 968.487C211.465 968.487 212.205 968.771 212.774 969.341C213.382 969.91 213.685 970.65 213.685 971.561C213.685 972.51 213.382 973.269 212.774 973.839C212.205 974.37 211.465 974.636 210.554 974.636ZM222.174 1008V980.329H226.046L226.444 984.315H226.615C227.944 982.986 229.348 981.886 230.828 981.013C232.309 980.102 233.998 979.646 235.896 979.646C238.818 979.646 240.944 980.576 242.272 982.436C243.639 984.258 244.322 986.934 244.322 990.464V1008H239.653V991.09C239.653 988.509 239.236 986.63 238.401 985.454C237.566 984.277 236.237 983.689 234.415 983.689C233.011 983.689 231.739 984.049 230.601 984.77C229.5 985.492 228.247 986.554 226.843 987.959V1008H222.174ZM261.396 1008.68C258.473 1008.68 256.328 1007.77 254.962 1005.95C253.595 1004.09 252.912 1001.4 252.912 997.865V980.329H257.638V997.239C257.638 999.82 258.036 1001.7 258.833 1002.88C259.668 1004.05 260.997 1004.64 262.819 1004.64C264.261 1004.64 265.533 1004.28 266.634 1003.56C267.772 1002.8 268.987 1001.6 270.277 999.972V980.329H274.946V1008H271.075L270.676 1003.67H270.505C269.215 1005.19 267.848 1006.41 266.406 1007.32C264.963 1008.23 263.293 1008.68 261.396 1008.68ZM280.409 1008L289.462 993.538L281.092 980.329H286.159L289.86 986.421C290.278 987.143 290.714 987.902 291.17 988.699C291.625 989.496 292.1 990.274 292.593 991.033H292.821C293.238 990.274 293.656 989.496 294.073 988.699C294.491 987.902 294.908 987.143 295.326 986.421L298.685 980.329H303.582L295.212 994.051L304.208 1008H299.141L295.098 1001.57C294.605 1000.73 294.111 999.896 293.618 999.061C293.124 998.226 292.612 997.41 292.081 996.613H291.853C291.359 997.41 290.885 998.226 290.429 999.061C289.974 999.858 289.519 1000.69 289.063 1001.57L285.305 1008H280.409Z" fill="black"/>
<path fill-rule="evenodd" clip-rule="evenodd" d="M99.7773 1032.27C84.5302 1032.24 71.8767 1035.37 66.984 1037.07L61.9465 1064.27C61.9342 1064.37 87.0174 1057.58 98.0652 1057.98C116.357 1058.64 118.041 1064.97 117.721 1073.52C118.033 1074.02 113.002 1065.8 97.1763 1065.52C77.2109 1065.18 49.0342 1072.59 49.0728 1102.73C48.5345 1136.62 74.3946 1146.6 92.007 1146.78C107.841 1146.49 115.268 1140.78 119.335 1137.73C124.678 1132.14 130.791 1126.52 136.62 1119.78C131.104 1129.8 126.322 1136.73 121.343 1142.04V1146.52L145.411 1142.47L145.576 1077.04C145.332 1067.79 150.888 1032.35 99.7773 1032.27ZM96.3202 1089.23C106.297 1089.36 117.738 1094.28 117.754 1106.12C117.806 1116.88 104.268 1122.67 95.4642 1122.58C86.6563 1122.49 74.9706 1115.66 74.9189 1105.16C75.0877 1095.78 85.9391 1088.99 96.3202 1089.23Z" fill="#4D4D4D"/>
<path fill-rule="evenodd" clip-rule="evenodd" d="M161.447 1038.31L161.284 1146.65L189.322 1141.25L189.37 1079.82C189.376 1070.68 202.44 1059.99 218.831 1060.16C222.31 1053.86 228.849 1037.78 230.443 1034.12C193.823 1034.03 193.357 1044.64 186.988 1049.86C186.921 1039.91 186.966 1033.93 186.966 1033.93L161.447 1038.31Z" fill="#4D4D4D"/>
<path fill-rule="evenodd" clip-rule="evenodd" d="M319.242 1052.53C318.972 1052.41 304.619 1035.75 275.764 1035.61C248.737 1035.17 218.421 1045.64 217.936 1090.96C218.172 1130.81 247.058 1146.38 275.917 1146.68C306.801 1147.01 319.09 1127.37 319.827 1126.89C316.142 1123.69 302.339 1110.01 302.339 1110.01C302.339 1110.01 293.719 1122.29 276.992 1122.45C260.261 1122.61 245.718 1109.52 245.512 1091.25C245.298 1072.98 258.881 1063.09 277.117 1062.29C292.905 1062.29 302.014 1072.48 302.014 1072.48L319.242 1052.53Z" fill="#4D4D4D"/>
<path fill-rule="evenodd" clip-rule="evenodd" d="M354.584 1000.4L328.113 1006.62L328.31 1147.73L354.387 1143.03L354.683 1076.62C354.739 1069.65 364.757 1058.96 381.484 1059.3C397.477 1059.46 401.052 1069.96 401.009 1071.28L401.47 1148.16L427.184 1143.62L427.283 1062.1C427.452 1054.25 410.1 1037.69 382.208 1037.57C368.953 1037.59 361.612 1040.59 357.877 1042.8C351.485 1047.74 344.18 1052.47 337.002 1058.51C343.638 1049.98 349.209 1044.09 354.65 1039.71L354.584 1000.4Z" fill="#4D4D4D"/>
<path fill-rule="evenodd" clip-rule="evenodd" d="M449.618 1004.06L461.558 1001.07L462.123 1143.34L449.992 1145.4L449.618 1004.06Z" fill="#1793D1"/>
<path fill-rule="evenodd" clip-rule="evenodd" d="M482.082 1046.52L492.546 1041.86L492.635 1143.87L482.529 1145.96L482.082 1046.52ZM479.595 1009.73L488.032 1002.84L495.041 1010.64L486.6 1017.71L479.595 1009.73Z" fill="#1793D1"/>
<path fill-rule="evenodd" clip-rule="evenodd" d="M512.223 1044.66L524.164 1042.22L524.22 1063.55C524.222 1064.47 530.777 1039.73 562.396 1040.28C593.095 1040.45 598.118 1064.21 597.951 1069.54L598.33 1144.54L587.864 1146.81L587.803 1072.73C587.925 1070.57 583.019 1052.28 561.325 1052.21C539.634 1052.15 524.605 1067.96 524.632 1078.07L524.804 1143.33L512.676 1146.49L512.223 1044.66Z" fill="#1793D1"/>
<path fill-rule="evenodd" clip-rule="evenodd" d="M702.525 1145.08L690.583 1147.51L690.527 1126.19C690.525 1125.27 683.967 1150.01 652.352 1149.46C621.652 1149.29 616.63 1125.52 616.796 1120.19L616.417 1045.2L629.104 1042.64L629.3 1116.71C629.305 1118.74 631.728 1137.46 653.423 1137.53C675.113 1137.59 690.309 1124.46 690.417 1104.7L690.262 1046.25L702.071 1043.24L702.525 1145.08Z" fill="#1793D1"/>
<path fill-rule="evenodd" clip-rule="evenodd" d="M725.927 1043.82L717.554 1050.37L749.656 1092.38L715.416 1140.92L724.299 1147.51L756.486 1102.44L789.705 1148.58L797.922 1142.02L762.321 1092.69L790.722 1052.79L781.989 1045.41L756.117 1082.33L725.927 1043.82Z" fill="#1793D1"/>
<path d="M813.558 1138.82V1130.01H810.269V1128.84H818.181V1130.01H814.879V1138.82H813.558Z" fill="#1793D1"/>
<path d="M819.556 1138.82V1128.84H821.544L823.906 1135.9C824.124 1136.56 824.283 1137.05 824.383 1137.38C824.497 1137.02 824.674 1136.48 824.914 1135.78L827.304 1128.84H829.081V1138.82H827.808V1130.46L824.907 1138.82H823.716L820.829 1130.32V1138.82H819.556Z" fill="#1793D1"/>
<path d="M57.4488 1244.12V1184.36H74.4839C78.9781 1184.36 82.8952 1184.91 86.2354 1186C89.5756 1187.09 92.1871 1188.95 94.0698 1191.56C95.9524 1194.11 96.8937 1197.57 96.8937 1201.94C96.8937 1208.2 94.8593 1212.84 90.7903 1215.88C86.7213 1218.92 81.4073 1220.44 74.8483 1220.44H65.0099V1244.12H57.4488ZM65.0099 1214.24H73.9374C79.1602 1214.24 83.0167 1213.27 85.5067 1211.33C88.0574 1209.32 89.3327 1206.19 89.3327 1201.94C89.3327 1197.63 87.9966 1194.66 85.3245 1193.02C82.713 1191.32 78.7959 1190.46 73.573 1190.46H65.0099V1214.24ZM108.318 1244.12V1199.85H114.512L115.15 1207.86H115.423C116.942 1205.07 118.794 1202.85 120.98 1201.21C123.167 1199.57 125.505 1198.75 127.995 1198.75C129.756 1198.75 131.335 1199.06 132.732 1199.67L131.274 1206.22C130.545 1205.98 129.877 1205.8 129.27 1205.68C128.663 1205.56 127.904 1205.5 126.993 1205.5C125.11 1205.5 123.136 1206.26 121.071 1207.77C119.067 1209.29 117.306 1211.93 115.788 1215.7V1244.12H108.318ZM156.227 1245.21C152.644 1245.21 149.273 1244.3 146.115 1242.48C143.018 1240.66 140.498 1238.02 138.554 1234.56C136.671 1231.09 135.73 1226.93 135.73 1222.08C135.73 1217.1 136.671 1212.87 138.554 1209.41C140.498 1205.95 143.018 1203.31 146.115 1201.49C149.273 1199.67 152.644 1198.75 156.227 1198.75C159.871 1198.75 163.241 1199.67 166.339 1201.49C169.436 1203.31 171.926 1205.95 173.809 1209.41C175.752 1212.87 176.724 1217.1 176.724 1222.08C176.724 1226.93 175.752 1231.09 173.809 1234.56C171.926 1238.02 169.436 1240.66 166.339 1242.48C163.241 1244.3 159.871 1245.21 156.227 1245.21ZM156.227 1239.02C160.053 1239.02 163.12 1237.47 165.428 1234.37C167.796 1231.22 168.98 1227.12 168.98 1222.08C168.98 1216.97 167.796 1212.84 165.428 1209.69C163.12 1206.53 160.053 1204.95 156.227 1204.95C152.462 1204.95 149.395 1206.53 147.026 1209.69C144.658 1212.84 143.473 1216.97 143.473 1222.08C143.473 1227.12 144.658 1231.22 147.026 1234.37C149.395 1237.47 152.462 1239.02 156.227 1239.02ZM189.659 1244.12V1205.95H183.646V1200.3L189.659 1199.85V1192.83C189.659 1188.34 190.691 1184.79 192.756 1182.18C194.882 1179.5 198.161 1178.17 202.594 1178.17C203.991 1178.17 205.327 1178.32 206.603 1178.62C207.878 1178.87 209.002 1179.2 209.973 1179.62L208.334 1185.36C206.694 1184.63 205.024 1184.27 203.323 1184.27C199.194 1184.27 197.129 1187.12 197.129 1192.83V1199.85H206.512V1205.95H197.129V1244.12H189.659ZM232.039 1245.21C228.092 1245.21 224.509 1244.3 221.29 1242.48C218.071 1240.6 215.52 1237.93 213.638 1234.46C211.755 1231 210.814 1226.87 210.814 1222.08C210.814 1217.22 211.755 1213.06 213.638 1209.6C215.581 1206.13 218.071 1203.46 221.108 1201.58C224.144 1199.7 227.333 1198.75 230.673 1198.75C236.321 1198.75 240.663 1200.64 243.7 1204.4C246.797 1208.17 248.346 1213.21 248.346 1219.52C248.346 1220.31 248.315 1221.1 248.255 1221.89C248.255 1222.62 248.194 1223.26 248.072 1223.81H218.193C218.496 1228.48 219.954 1232.22 222.565 1235.01C225.237 1237.8 228.699 1239.2 232.95 1239.2C235.076 1239.2 237.019 1238.9 238.781 1238.29C240.602 1237.62 242.333 1236.77 243.973 1235.74L246.615 1240.66C244.732 1241.87 242.576 1242.94 240.147 1243.85C237.778 1244.76 235.076 1245.21 232.039 1245.21ZM218.102 1218.43H241.787C241.787 1213.94 240.815 1210.54 238.872 1208.23C236.989 1205.86 234.317 1204.68 230.855 1204.68C227.758 1204.68 224.964 1205.89 222.474 1208.32C220.045 1210.69 218.587 1214.06 218.102 1218.43ZM270.855 1245.21C267.697 1245.21 264.691 1244.64 261.837 1243.48C258.982 1242.27 256.492 1240.81 254.367 1239.11L258.102 1234.1C260.045 1235.62 262.049 1236.89 264.114 1237.93C266.179 1238.9 268.517 1239.38 271.128 1239.38C274.044 1239.38 276.23 1238.72 277.687 1237.38C279.145 1235.98 279.874 1234.34 279.874 1232.46C279.874 1230.94 279.357 1229.67 278.325 1228.63C277.353 1227.6 276.078 1226.75 274.499 1226.08C272.981 1225.36 271.402 1224.69 269.762 1224.08C267.697 1223.29 265.663 1222.41 263.658 1221.44C261.654 1220.41 260.015 1219.1 258.739 1217.52C257.464 1215.88 256.826 1213.82 256.826 1211.33C256.826 1207.74 258.162 1204.77 260.834 1202.4C263.567 1199.97 267.333 1198.75 272.13 1198.75C274.863 1198.75 277.414 1199.24 279.783 1200.21C282.151 1201.18 284.186 1202.37 285.886 1203.77L282.242 1208.5C280.724 1207.35 279.145 1206.41 277.505 1205.68C275.865 1204.95 274.074 1204.58 272.13 1204.58C269.337 1204.58 267.272 1205.22 265.936 1206.5C264.661 1207.77 264.023 1209.26 264.023 1210.96C264.023 1212.36 264.478 1213.51 265.389 1214.42C266.3 1215.27 267.485 1216.03 268.942 1216.7C270.4 1217.31 271.948 1217.95 273.588 1218.61C275.714 1219.4 277.809 1220.31 279.874 1221.35C281.939 1222.32 283.639 1223.65 284.975 1225.36C286.372 1226.99 287.07 1229.21 287.07 1232.01C287.07 1234.37 286.433 1236.56 285.157 1238.56C283.943 1240.57 282.121 1242.18 279.692 1243.39C277.323 1244.61 274.378 1245.21 270.855 1245.21ZM309.02 1245.21C305.862 1245.21 302.855 1244.64 300.001 1243.48C297.147 1242.27 294.657 1240.81 292.531 1239.11L296.266 1234.1C298.21 1235.62 300.214 1236.89 302.279 1237.93C304.343 1238.9 306.682 1239.38 309.293 1239.38C312.208 1239.38 314.394 1238.72 315.852 1237.38C317.31 1235.98 318.038 1234.34 318.038 1232.46C318.038 1230.94 317.522 1229.67 316.49 1228.63C315.518 1227.6 314.243 1226.75 312.664 1226.08C311.145 1225.36 309.566 1224.69 307.927 1224.08C305.862 1223.29 303.827 1222.41 301.823 1221.44C299.819 1220.41 298.179 1219.1 296.904 1217.52C295.628 1215.88 294.991 1213.82 294.991 1211.33C294.991 1207.74 296.327 1204.77 298.999 1202.4C301.732 1199.97 305.497 1198.75 310.295 1198.75C313.028 1198.75 315.579 1199.24 317.947 1200.21C320.316 1201.18 322.35 1202.37 324.051 1203.77L320.407 1208.5C318.889 1207.35 317.31 1206.41 315.67 1205.68C314.03 1204.95 312.238 1204.58 310.295 1204.58C307.501 1204.58 305.437 1205.22 304.1 1206.5C302.825 1207.77 302.187 1209.26 302.187 1210.96C302.187 1212.36 302.643 1213.51 303.554 1214.42C304.465 1215.27 305.649 1216.03 307.107 1216.7C308.564 1217.31 310.113 1217.95 311.753 1218.61C313.878 1219.4 315.973 1220.31 318.038 1221.35C320.103 1222.32 321.804 1223.65 323.14 1225.36C324.537 1226.99 325.235 1229.21 325.235 1232.01C325.235 1234.37 324.597 1236.56 323.322 1238.56C322.107 1240.57 320.285 1242.18 317.856 1243.39C315.488 1244.61 312.542 1245.21 309.02 1245.21ZM335.615 1244.12V1199.85H343.085V1244.12H335.615ZM339.441 1190.74C337.983 1190.74 336.769 1190.31 335.797 1189.46C334.886 1188.55 334.431 1187.34 334.431 1185.82C334.431 1184.36 334.886 1183.18 335.797 1182.27C336.769 1181.36 337.983 1180.9 339.441 1180.9C340.899 1180.9 342.083 1181.36 342.994 1182.27C343.965 1183.18 344.451 1184.36 344.451 1185.82C344.451 1187.34 343.965 1188.55 342.994 1189.46C342.083 1190.31 340.899 1190.74 339.441 1190.74ZM375.251 1245.21C371.668 1245.21 368.297 1244.3 365.139 1242.48C362.042 1240.66 359.521 1238.02 357.578 1234.56C355.695 1231.09 354.754 1226.93 354.754 1222.08C354.754 1217.1 355.695 1212.87 357.578 1209.41C359.521 1205.95 362.042 1203.31 365.139 1201.49C368.297 1199.67 371.668 1198.75 375.251 1198.75C378.895 1198.75 382.265 1199.67 385.362 1201.49C388.46 1203.31 390.95 1205.95 392.832 1209.41C394.776 1212.87 395.747 1217.1 395.747 1222.08C395.747 1226.93 394.776 1231.09 392.832 1234.56C390.95 1238.02 388.46 1240.66 385.362 1242.48C382.265 1244.3 378.895 1245.21 375.251 1245.21ZM375.251 1239.02C379.077 1239.02 382.144 1237.47 384.451 1234.37C386.82 1231.22 388.004 1227.12 388.004 1222.08C388.004 1216.97 386.82 1212.84 384.451 1209.69C382.144 1206.53 379.077 1204.95 375.251 1204.95C371.485 1204.95 368.418 1206.53 366.05 1209.69C363.681 1212.84 362.497 1216.97 362.497 1222.08C362.497 1227.12 363.681 1231.22 366.05 1234.37C368.418 1237.47 371.485 1239.02 375.251 1239.02ZM407.407 1244.12V1199.85H413.602L414.239 1206.22H414.513C416.638 1204.1 418.885 1202.34 421.254 1200.94C423.622 1199.48 426.325 1198.75 429.361 1198.75C434.038 1198.75 437.439 1200.24 439.564 1203.22C441.751 1206.13 442.844 1210.42 442.844 1216.06V1244.12H435.374V1217.07C435.374 1212.94 434.706 1209.93 433.37 1208.05C432.034 1206.16 429.908 1205.22 426.993 1205.22C424.746 1205.22 422.711 1205.8 420.889 1206.95C419.128 1208.11 417.124 1209.81 414.877 1212.05V1244.12H407.407ZM467.428 1245.21C463.724 1245.21 460.627 1244.12 458.137 1241.93C455.707 1239.69 454.493 1236.59 454.493 1232.64C454.493 1227.78 456.649 1224.08 460.961 1221.53C465.333 1218.92 472.226 1217.1 481.64 1216.06C481.64 1214.18 481.366 1212.39 480.82 1210.69C480.334 1208.99 479.423 1207.62 478.087 1206.59C476.811 1205.5 474.959 1204.95 472.53 1204.95C469.979 1204.95 467.58 1205.44 465.333 1206.41C463.086 1207.38 461.082 1208.47 459.321 1209.69L456.406 1204.49C458.471 1203.16 460.991 1201.88 463.967 1200.67C467.003 1199.39 470.283 1198.75 473.805 1198.75C479.21 1198.75 483.127 1200.42 485.557 1203.77C487.986 1207.04 489.201 1211.45 489.201 1216.97V1244.12H483.006L482.368 1238.84H482.095C480.03 1240.54 477.753 1242.03 475.263 1243.3C472.834 1244.58 470.222 1245.21 467.428 1245.21ZM469.615 1239.2C471.74 1239.2 473.744 1238.69 475.627 1237.65C477.51 1236.62 479.514 1235.16 481.64 1233.28V1220.98C474.291 1221.89 469.129 1223.26 466.153 1225.08C463.238 1226.9 461.78 1229.24 461.78 1232.1C461.78 1234.59 462.54 1236.41 464.058 1237.56C465.576 1238.66 467.428 1239.2 469.615 1239.2ZM511.055 1245.21C508.262 1245.21 506.227 1244.36 504.952 1242.66C503.737 1240.9 503.13 1238.41 503.13 1235.19V1179.26H510.6V1235.74C510.6 1236.89 510.812 1237.74 511.237 1238.29C511.663 1238.78 512.148 1239.02 512.695 1239.02C512.938 1239.02 513.15 1239.02 513.333 1239.02C513.576 1238.96 513.91 1238.9 514.335 1238.84L515.337 1244.49C514.851 1244.73 514.274 1244.91 513.606 1245.03C512.938 1245.15 512.088 1245.21 511.055 1245.21Z" fill="black"/>
<g filter="url(#filter0_d_0_1)">
<path fill-rule="evenodd" clip-rule="evenodd" d="M250.963 488C233.512 530.777 222.987 558.758 203.557 600.263C215.47 612.888 230.092 627.591 253.838 644.196C228.309 633.692 210.895 623.147 197.881 612.205C173.015 664.081 134.057 737.977 55 880C117.136 844.134 165.303 822.023 210.193 813.586C208.265 805.297 207.169 796.331 207.244 786.976L207.317 784.985C208.303 745.184 229.012 714.576 253.544 716.654C278.075 718.733 297.143 752.702 296.157 792.504C295.972 799.993 295.127 807.198 293.65 813.88C338.052 822.565 385.704 844.62 447 880C434.914 857.752 424.126 837.698 413.823 818.598C397.596 806.023 380.669 789.656 346.143 771.938C369.875 778.104 386.866 785.217 400.11 793.167C295.365 598.186 286.883 572.277 250.963 488Z" fill="#1793D1"/>
<path d="M251.017 494.85C284.461 573.557 295.156 603.076 393.547 786.495C381.333 780.166 366.283 774.452 346.805 769.392L344.942 774.279C378.876 791.693 395.526 807.688 411.77 820.332C420.719 836.924 430.042 854.25 440.269 873.113C383.901 841.039 338.879 820.527 296.762 811.824C297.942 805.719 298.622 799.247 298.787 792.569C299.29 772.259 294.684 753.337 286.713 739.145C278.774 725.009 267.237 715.174 253.766 714.033C240.22 712.886 228.106 720.805 219.422 733.641C210.727 746.492 205.197 764.595 204.688 784.888L204.614 786.878L204.613 786.916V786.955C204.545 795.533 205.44 803.79 207.046 811.516C164.483 819.997 118.987 840.546 61.8926 873.018C136.388 739.043 174.332 667.129 198.799 616.36C211.76 626.746 228.775 636.729 252.838 646.629L255.346 642.039C232.609 626.14 218.324 612.013 206.698 599.752C224.79 560.97 235.192 533.809 251.017 494.85Z" stroke="black" stroke-width="5.26174"/>
</g>
<circle cx="1187.94" cy="1113.29" r="183.292" fill="#03D20A"/>
<path d="M1083.47 1048.51V1019.75H1087.11V1048.51H1083.47ZM1094.64 1048.51V1027.2H1097.62L1097.92 1030.27H1098.06C1099.08 1029.25 1100.16 1028.4 1101.3 1027.73C1102.44 1027.03 1103.74 1026.67 1105.2 1026.67C1107.45 1026.67 1109.09 1027.39 1110.11 1028.82C1111.16 1030.23 1111.69 1032.29 1111.69 1035.01V1048.51H1108.1V1035.49C1108.1 1033.5 1107.77 1032.05 1107.13 1031.15C1106.49 1030.24 1105.46 1029.79 1104.06 1029.79C1102.98 1029.79 1102 1030.07 1101.12 1030.62C1100.28 1031.18 1099.31 1031.99 1098.23 1033.08V1048.51H1094.64ZM1127.03 1049.04C1125.16 1049.04 1123.46 1048.6 1121.94 1047.72C1120.42 1046.84 1119.23 1045.57 1118.35 1043.91C1117.47 1042.24 1117.03 1040.24 1117.03 1037.9C1117.03 1035.5 1117.5 1033.47 1118.44 1031.8C1119.4 1030.14 1120.66 1028.87 1122.21 1027.99C1123.79 1027.11 1125.48 1026.67 1127.29 1026.67C1128.7 1026.67 1129.9 1026.92 1130.89 1027.42C1131.91 1027.92 1132.79 1028.5 1133.52 1029.17L1131.68 1031.54C1131.06 1030.99 1130.41 1030.53 1129.71 1030.18C1129.03 1029.83 1128.27 1029.66 1127.43 1029.66C1126.14 1029.66 1124.98 1030.01 1123.96 1030.71C1122.97 1031.38 1122.18 1032.35 1121.59 1033.6C1121.04 1034.83 1120.76 1036.26 1120.76 1037.9C1120.76 1040.32 1121.36 1042.3 1122.56 1043.82C1123.79 1045.31 1125.38 1046.05 1127.34 1046.05C1128.33 1046.05 1129.25 1045.85 1130.1 1045.44C1130.95 1045 1131.69 1044.49 1132.34 1043.91L1133.91 1046.32C1132.95 1047.16 1131.88 1047.84 1130.71 1048.33C1129.54 1048.8 1128.32 1049.04 1127.03 1049.04ZM1142.42 1049.04C1141.08 1049.04 1140.1 1048.63 1139.48 1047.81C1138.9 1046.96 1138.61 1045.76 1138.61 1044.21V1017.29H1142.2V1044.48C1142.2 1045.03 1142.31 1045.44 1142.51 1045.7C1142.71 1045.94 1142.95 1046.05 1143.21 1046.05C1143.33 1046.05 1143.43 1046.05 1143.52 1046.05C1143.64 1046.02 1143.8 1046 1144 1045.97L1144.48 1048.68C1144.25 1048.8 1143.97 1048.89 1143.65 1048.95C1143.33 1049.01 1142.92 1049.04 1142.42 1049.04ZM1156.01 1049.04C1153.76 1049.04 1152.11 1048.33 1151.05 1046.93C1150 1045.5 1149.48 1043.42 1149.48 1040.7V1027.2H1153.12V1040.22C1153.12 1042.21 1153.42 1043.66 1154.04 1044.56C1154.68 1045.47 1155.7 1045.92 1157.1 1045.92C1158.22 1045.92 1159.19 1045.64 1160.04 1045.09C1160.92 1044.5 1161.85 1043.58 1162.85 1042.33V1027.2H1166.44V1048.51H1163.46L1163.16 1045.18H1163.02C1162.03 1046.35 1160.98 1047.28 1159.87 1047.98C1158.76 1048.68 1157.47 1049.04 1156.01 1049.04ZM1180.91 1049.04C1178.25 1049.04 1176.12 1048.07 1174.51 1046.14C1172.9 1044.18 1172.1 1041.44 1172.1 1037.9C1172.1 1035.59 1172.52 1033.6 1173.37 1031.94C1174.25 1030.24 1175.39 1028.94 1176.79 1028.03C1178.22 1027.13 1179.74 1026.67 1181.35 1026.67C1182.58 1026.67 1183.64 1026.89 1184.55 1027.33C1185.45 1027.77 1186.38 1028.37 1187.31 1029.13L1187.14 1025.49V1017.29H1190.77V1048.51H1187.79L1187.49 1046.01H1187.35C1186.54 1046.83 1185.57 1047.54 1184.46 1048.16C1183.35 1048.74 1182.17 1049.04 1180.91 1049.04ZM1181.7 1046.01C1183.57 1046.01 1185.38 1045.03 1187.14 1043.07V1031.94C1186.23 1031.12 1185.35 1030.55 1184.5 1030.23C1183.69 1029.88 1182.84 1029.7 1181.96 1029.7C1180.82 1029.7 1179.78 1030.05 1178.85 1030.75C1177.94 1031.42 1177.21 1032.37 1176.66 1033.6C1176.1 1034.8 1175.82 1036.22 1175.82 1037.85C1175.82 1040.4 1176.34 1042.4 1177.36 1043.86C1178.38 1045.29 1179.83 1046.01 1181.7 1046.01ZM1206.59 1049.04C1204.69 1049.04 1202.96 1048.6 1201.41 1047.72C1199.87 1046.81 1198.64 1045.53 1197.73 1043.86C1196.83 1042.2 1196.37 1040.21 1196.37 1037.9C1196.37 1035.56 1196.83 1033.56 1197.73 1031.89C1198.67 1030.23 1199.87 1028.94 1201.33 1028.03C1202.79 1027.13 1204.32 1026.67 1205.93 1026.67C1208.65 1026.67 1210.74 1027.58 1212.2 1029.39C1213.69 1031.21 1214.44 1033.63 1214.44 1036.67C1214.44 1037.05 1214.42 1037.43 1214.39 1037.81C1214.39 1038.16 1214.36 1038.47 1214.31 1038.73H1199.92C1200.07 1040.98 1200.77 1042.78 1202.03 1044.12C1203.31 1045.47 1204.98 1046.14 1207.03 1046.14C1208.05 1046.14 1208.99 1046 1209.83 1045.7C1210.71 1045.38 1211.54 1044.97 1212.33 1044.48L1213.6 1046.84C1212.7 1047.43 1211.66 1047.94 1210.49 1048.38C1209.35 1048.82 1208.05 1049.04 1206.59 1049.04ZM1199.88 1036.14H1211.28C1211.28 1033.98 1210.81 1032.35 1209.88 1031.23C1208.97 1030.09 1207.68 1029.52 1206.02 1029.52C1204.53 1029.52 1203.18 1030.11 1201.98 1031.28C1200.82 1032.42 1200.11 1034.04 1199.88 1036.14ZM1225.27 1049.04C1223.75 1049.04 1222.3 1048.76 1220.93 1048.2C1219.56 1047.62 1218.36 1046.92 1217.33 1046.1L1219.13 1043.69C1220.07 1044.42 1221.03 1045.03 1222.03 1045.53C1223.02 1046 1224.14 1046.23 1225.4 1046.23C1226.8 1046.23 1227.86 1045.91 1228.56 1045.26C1229.26 1044.59 1229.61 1043.8 1229.61 1042.9C1229.61 1042.17 1229.36 1041.55 1228.87 1041.06C1228.4 1040.56 1227.78 1040.15 1227.02 1039.83C1226.29 1039.48 1225.53 1039.16 1224.74 1038.86C1223.75 1038.48 1222.77 1038.06 1221.81 1037.59C1220.84 1037.09 1220.05 1036.47 1219.44 1035.71C1218.83 1034.92 1218.52 1033.92 1218.52 1032.73C1218.52 1031 1219.16 1029.57 1220.45 1028.43C1221.76 1027.26 1223.57 1026.67 1225.88 1026.67C1227.2 1026.67 1228.43 1026.91 1229.57 1027.38C1230.71 1027.84 1231.69 1028.41 1232.5 1029.09L1230.75 1031.37C1230.02 1030.81 1229.26 1030.36 1228.47 1030.01C1227.68 1029.66 1226.82 1029.48 1225.88 1029.48C1224.54 1029.48 1223.55 1029.79 1222.9 1030.4C1222.29 1031.02 1221.98 1031.73 1221.98 1032.55C1221.98 1033.22 1222.2 1033.78 1222.64 1034.22C1223.08 1034.63 1223.65 1034.99 1224.35 1035.31C1225.05 1035.6 1225.8 1035.91 1226.59 1036.23C1227.61 1036.61 1228.62 1037.05 1229.61 1037.55C1230.6 1038.02 1231.42 1038.66 1232.07 1039.48C1232.74 1040.27 1233.07 1041.33 1233.07 1042.68C1233.07 1043.82 1232.77 1044.87 1232.15 1045.83C1231.57 1046.8 1230.69 1047.57 1229.52 1048.16C1228.38 1048.74 1226.97 1049.04 1225.27 1049.04ZM1253.56 1049.04C1251.28 1049.04 1249.68 1048.38 1248.78 1047.06C1247.9 1045.75 1247.46 1044.04 1247.46 1041.93V1030.14H1244.3V1027.42L1247.64 1027.2L1248.08 1021.24H1251.1V1027.2H1256.84V1030.14H1251.1V1041.98C1251.1 1043.29 1251.33 1044.31 1251.8 1045.05C1252.3 1045.75 1253.16 1046.1 1254.39 1046.1C1254.77 1046.1 1255.18 1046.04 1255.62 1045.92C1256.05 1045.78 1256.45 1045.64 1256.8 1045.53L1257.5 1048.25C1256.92 1048.45 1256.27 1048.63 1255.57 1048.77C1254.9 1048.95 1254.23 1049.04 1253.56 1049.04ZM1261.66 1048.51V1017.29H1265.26V1025.8L1265.13 1030.18C1266.15 1029.22 1267.22 1028.4 1268.33 1027.73C1269.47 1027.03 1270.77 1026.67 1272.23 1026.67C1274.48 1026.67 1276.12 1027.39 1277.14 1028.82C1278.19 1030.23 1278.72 1032.29 1278.72 1035.01V1048.51H1275.12V1035.49C1275.12 1033.5 1274.8 1032.05 1274.16 1031.15C1273.51 1030.24 1272.49 1029.79 1271.09 1029.79C1270.01 1029.79 1269.03 1030.07 1268.15 1030.62C1267.3 1031.18 1266.34 1031.99 1265.26 1033.08V1048.51H1261.66ZM1294.15 1049.04C1292.25 1049.04 1290.52 1048.6 1288.97 1047.72C1287.43 1046.81 1286.2 1045.53 1285.29 1043.86C1284.39 1042.2 1283.93 1040.21 1283.93 1037.9C1283.93 1035.56 1284.39 1033.56 1285.29 1031.89C1286.23 1030.23 1287.43 1028.94 1288.89 1028.03C1290.35 1027.13 1291.88 1026.67 1293.49 1026.67C1296.21 1026.67 1298.3 1027.58 1299.76 1029.39C1301.25 1031.21 1302 1033.63 1302 1036.67C1302 1037.05 1301.98 1037.43 1301.95 1037.81C1301.95 1038.16 1301.92 1038.47 1301.86 1038.73H1287.48C1287.63 1040.98 1288.33 1042.78 1289.59 1044.12C1290.87 1045.47 1292.54 1046.14 1294.59 1046.14C1295.61 1046.14 1296.54 1046 1297.39 1045.7C1298.27 1045.38 1299.1 1044.97 1299.89 1044.48L1301.16 1046.84C1300.26 1047.43 1299.22 1047.94 1298.05 1048.38C1296.91 1048.82 1295.61 1049.04 1294.15 1049.04ZM1287.44 1036.14H1298.84C1298.84 1033.98 1298.37 1032.35 1297.44 1031.23C1296.53 1030.09 1295.24 1029.52 1293.58 1029.52C1292.09 1029.52 1290.74 1030.11 1289.54 1031.28C1288.38 1032.42 1287.67 1034.04 1287.44 1036.14ZM1039 1110.09C1037.02 1110.09 1035.36 1109.51 1034.03 1108.34C1032.73 1107.14 1032.08 1105.48 1032.08 1103.37C1032.08 1100.77 1033.23 1098.79 1035.54 1097.43C1037.88 1096.03 1041.56 1095.06 1046.6 1094.5C1046.6 1093.5 1046.45 1092.54 1046.16 1091.63C1045.9 1090.72 1045.41 1089.99 1044.7 1089.44C1044.01 1088.85 1043.02 1088.56 1041.73 1088.56C1040.36 1088.56 1039.08 1088.82 1037.88 1089.34C1036.68 1089.86 1035.6 1090.44 1034.66 1091.09L1033.1 1088.32C1034.21 1087.6 1035.55 1086.92 1037.15 1086.27C1038.77 1085.59 1040.52 1085.25 1042.41 1085.25C1045.3 1085.25 1047.39 1086.14 1048.69 1087.93C1049.99 1089.68 1050.64 1092.04 1050.64 1094.99V1109.51H1047.33L1046.99 1106.68H1046.84C1045.74 1107.59 1044.52 1108.39 1043.19 1109.07C1041.89 1109.75 1040.49 1110.09 1039 1110.09ZM1040.17 1106.88C1041.3 1106.88 1042.37 1106.6 1043.38 1106.05C1044.39 1105.5 1045.46 1104.72 1046.6 1103.71V1097.14C1042.67 1097.62 1039.91 1098.35 1038.32 1099.33C1036.76 1100.3 1035.98 1101.55 1035.98 1103.08C1035.98 1104.41 1036.38 1105.38 1037.19 1106C1038.01 1106.59 1039 1106.88 1040.17 1106.88ZM1058.09 1109.51V1085.83H1061.4L1061.74 1090.12H1061.89C1062.7 1088.63 1063.69 1087.44 1064.86 1086.56C1066.03 1085.69 1067.28 1085.25 1068.61 1085.25C1069.55 1085.25 1070.4 1085.41 1071.14 1085.74L1070.37 1089.24C1069.98 1089.11 1069.62 1089.02 1069.29 1088.95C1068.97 1088.89 1068.56 1088.85 1068.08 1088.85C1067.07 1088.85 1066.01 1089.26 1064.91 1090.07C1063.84 1090.88 1062.9 1092.3 1062.08 1094.31V1109.51H1058.09ZM1083.86 1110.09C1081.78 1110.09 1079.89 1109.61 1078.2 1108.63C1076.52 1107.66 1075.18 1106.25 1074.21 1104.39C1073.24 1102.54 1072.75 1100.32 1072.75 1097.72C1072.75 1095.06 1073.27 1092.8 1074.31 1090.95C1075.38 1089.1 1076.78 1087.68 1078.5 1086.71C1080.25 1085.74 1082.13 1085.25 1084.15 1085.25C1085.71 1085.25 1087.04 1085.52 1088.14 1086.08C1089.28 1086.63 1090.25 1087.28 1091.07 1088.03L1089.02 1090.66C1088.34 1090.04 1087.61 1089.54 1086.83 1089.15C1086.08 1088.76 1085.24 1088.56 1084.29 1088.56C1082.86 1088.56 1081.58 1088.95 1080.45 1089.73C1079.34 1090.48 1078.46 1091.55 1077.81 1092.95C1077.2 1094.31 1076.89 1095.9 1076.89 1097.72C1076.89 1100.42 1077.55 1102.61 1078.89 1104.3C1080.25 1105.95 1082.02 1106.78 1084.2 1106.78C1085.3 1106.78 1086.32 1106.55 1087.27 1106.1C1088.21 1105.61 1089.04 1105.04 1089.75 1104.39L1091.5 1107.07C1090.43 1108.02 1089.25 1108.76 1087.95 1109.31C1086.65 1109.83 1085.28 1110.09 1083.86 1110.09ZM1096.72 1109.51V1074.82H1100.71V1084.27L1100.57 1089.15C1101.7 1088.07 1102.89 1087.16 1104.12 1086.42C1105.39 1085.64 1106.84 1085.25 1108.46 1085.25C1110.96 1085.25 1112.78 1086.04 1113.92 1087.64C1115.08 1089.19 1115.67 1091.48 1115.67 1094.5V1109.51H1111.67V1095.04C1111.67 1092.83 1111.32 1091.22 1110.6 1090.22C1109.89 1089.21 1108.75 1088.71 1107.19 1088.71C1105.99 1088.71 1104.9 1089.02 1103.93 1089.63C1102.99 1090.25 1101.92 1091.16 1100.71 1092.36V1109.51H1096.72ZM1123.22 1109.51V1085.83H1127.21V1109.51H1123.22ZM1125.26 1080.96C1124.48 1080.96 1123.83 1080.73 1123.32 1080.28C1122.83 1079.79 1122.58 1079.14 1122.58 1078.33C1122.58 1077.55 1122.83 1076.92 1123.32 1076.43C1123.83 1075.94 1124.48 1075.7 1125.26 1075.7C1126.04 1075.7 1126.68 1075.94 1127.16 1076.43C1127.68 1076.92 1127.94 1077.55 1127.94 1078.33C1127.94 1079.14 1127.68 1079.79 1127.16 1080.28C1126.68 1080.73 1126.04 1080.96 1125.26 1080.96ZM1135.21 1109.51V1085.83H1138.52L1138.86 1089.24H1139.01C1140.14 1088.11 1141.34 1087.16 1142.61 1086.42C1143.88 1085.64 1145.32 1085.25 1146.95 1085.25C1149.45 1085.25 1151.27 1086.04 1152.4 1087.64C1153.57 1089.19 1154.16 1091.48 1154.16 1094.5V1109.51H1150.16V1095.04C1150.16 1092.83 1149.8 1091.22 1149.09 1090.22C1148.38 1089.21 1147.24 1088.71 1145.68 1088.71C1144.48 1088.71 1143.39 1089.02 1142.42 1089.63C1141.47 1090.25 1140.4 1091.16 1139.2 1092.36V1109.51H1135.21ZM1168.03 1110.09C1166.35 1110.09 1164.74 1109.79 1163.21 1109.17C1161.69 1108.52 1160.35 1107.74 1159.22 1106.83L1161.21 1104.15C1162.25 1104.96 1163.33 1105.64 1164.43 1106.2C1165.53 1106.72 1166.78 1106.98 1168.18 1106.98C1169.74 1106.98 1170.91 1106.62 1171.69 1105.9C1172.47 1105.16 1172.86 1104.28 1172.86 1103.27C1172.86 1102.46 1172.58 1101.78 1172.03 1101.23C1171.51 1100.68 1170.83 1100.22 1169.98 1099.86C1169.17 1099.47 1168.33 1099.12 1167.45 1098.79C1166.35 1098.37 1165.26 1097.9 1164.19 1097.38C1163.11 1096.83 1162.24 1096.13 1161.56 1095.28C1160.87 1094.41 1160.53 1093.3 1160.53 1091.97C1160.53 1090.06 1161.25 1088.46 1162.68 1087.2C1164.14 1085.9 1166.15 1085.25 1168.72 1085.25C1170.18 1085.25 1171.54 1085.51 1172.81 1086.03C1174.08 1086.55 1175.16 1087.18 1176.07 1087.93L1174.12 1090.46C1173.31 1089.84 1172.47 1089.34 1171.59 1088.95C1170.71 1088.56 1169.76 1088.37 1168.72 1088.37C1167.22 1088.37 1166.12 1088.71 1165.4 1089.39C1164.72 1090.07 1164.38 1090.87 1164.38 1091.78C1164.38 1092.52 1164.62 1093.14 1165.11 1093.63C1165.6 1094.08 1166.23 1094.49 1167.01 1094.85C1167.79 1095.17 1168.62 1095.51 1169.5 1095.87C1170.63 1096.29 1171.75 1096.78 1172.86 1097.33C1173.96 1097.85 1174.87 1098.56 1175.59 1099.47C1176.33 1100.35 1176.71 1101.54 1176.71 1103.03C1176.71 1104.3 1176.36 1105.47 1175.68 1106.54C1175.03 1107.61 1174.06 1108.47 1172.76 1109.12C1171.49 1109.77 1169.92 1110.09 1168.03 1110.09ZM1188.76 1110.09C1186.23 1110.09 1184.46 1109.36 1183.45 1107.9C1182.47 1106.44 1181.99 1104.54 1181.99 1102.2V1089.1H1178.48V1086.08L1182.18 1085.83L1182.67 1079.21H1186.03V1085.83H1192.41V1089.1H1186.03V1102.25C1186.03 1103.71 1186.29 1104.85 1186.81 1105.66C1187.36 1106.44 1188.32 1106.83 1189.68 1106.83C1190.11 1106.83 1190.56 1106.76 1191.05 1106.63C1191.54 1106.47 1191.97 1106.33 1192.36 1106.2L1193.14 1109.22C1192.49 1109.44 1191.78 1109.64 1191 1109.8C1190.25 1110 1189.51 1110.09 1188.76 1110.09ZM1202.18 1110.09C1200.19 1110.09 1198.54 1109.51 1197.21 1108.34C1195.91 1107.14 1195.26 1105.48 1195.26 1103.37C1195.26 1100.77 1196.41 1098.79 1198.72 1097.43C1201.05 1096.03 1204.74 1095.06 1209.77 1094.5C1209.77 1093.5 1209.63 1092.54 1209.34 1091.63C1209.08 1090.72 1208.59 1089.99 1207.87 1089.44C1207.19 1088.85 1206.2 1088.56 1204.9 1088.56C1203.54 1088.56 1202.26 1088.82 1201.05 1089.34C1199.85 1089.86 1198.78 1090.44 1197.84 1091.09L1196.28 1088.32C1197.38 1087.6 1198.73 1086.92 1200.32 1086.27C1201.95 1085.59 1203.7 1085.25 1205.59 1085.25C1208.48 1085.25 1210.57 1086.14 1211.87 1087.93C1213.17 1089.68 1213.82 1092.04 1213.82 1094.99V1109.51H1210.51L1210.16 1106.68H1210.02C1208.91 1107.59 1207.7 1108.39 1206.36 1109.07C1205.07 1109.75 1203.67 1110.09 1202.18 1110.09ZM1203.34 1106.88C1204.48 1106.88 1205.55 1106.6 1206.56 1106.05C1207.57 1105.5 1208.64 1104.72 1209.77 1103.71V1097.14C1205.85 1097.62 1203.08 1098.35 1201.49 1099.33C1199.93 1100.3 1199.15 1101.55 1199.15 1103.08C1199.15 1104.41 1199.56 1105.38 1200.37 1106C1201.18 1106.59 1202.18 1106.88 1203.34 1106.88ZM1225.51 1110.09C1224.01 1110.09 1222.92 1109.64 1222.24 1108.73C1221.59 1107.79 1221.27 1106.46 1221.27 1104.73V1074.82H1225.26V1105.03C1225.26 1105.64 1225.38 1106.1 1225.6 1106.39C1225.83 1106.65 1226.09 1106.78 1226.38 1106.78C1226.51 1106.78 1226.63 1106.78 1226.72 1106.78C1226.85 1106.75 1227.03 1106.72 1227.26 1106.68L1227.79 1109.7C1227.54 1109.83 1227.23 1109.93 1226.87 1110C1226.51 1110.06 1226.06 1110.09 1225.51 1110.09ZM1237.92 1110.09C1236.43 1110.09 1235.34 1109.64 1234.66 1108.73C1234.01 1107.79 1233.68 1106.46 1233.68 1104.73V1074.82H1237.68V1105.03C1237.68 1105.64 1237.79 1106.1 1238.02 1106.39C1238.25 1106.65 1238.51 1106.78 1238.8 1106.78C1238.93 1106.78 1239.04 1106.78 1239.14 1106.78C1239.27 1106.75 1239.45 1106.72 1239.68 1106.68L1240.21 1109.7C1239.95 1109.83 1239.64 1109.93 1239.29 1110C1238.93 1110.06 1238.47 1110.09 1237.92 1110.09ZM1260.05 1110.04C1258.53 1110.04 1257.08 1109.76 1255.71 1109.2C1254.33 1108.62 1253.13 1107.92 1252.11 1107.1L1253.91 1104.69C1254.84 1105.42 1255.81 1106.03 1256.8 1106.53C1257.8 1107 1258.92 1107.23 1260.18 1107.23C1261.58 1107.23 1262.63 1106.91 1263.33 1106.26C1264.04 1105.59 1264.39 1104.8 1264.39 1103.9C1264.39 1103.17 1264.14 1102.55 1263.64 1102.06C1263.17 1101.56 1262.56 1101.15 1261.8 1100.83C1261.07 1100.48 1260.31 1100.16 1259.52 1099.86C1258.53 1099.48 1257.55 1099.06 1256.58 1098.59C1255.62 1098.09 1254.83 1097.47 1254.22 1096.71C1253.6 1095.92 1253.29 1094.92 1253.29 1093.73C1253.29 1092 1253.94 1090.57 1255.22 1089.43C1256.54 1088.26 1258.35 1087.67 1260.66 1087.67C1261.98 1087.67 1263.2 1087.91 1264.34 1088.38C1265.48 1088.84 1266.46 1089.41 1267.28 1090.09L1265.53 1092.37C1264.8 1091.81 1264.04 1091.36 1263.25 1091.01C1262.46 1090.66 1261.6 1090.48 1260.66 1090.48C1259.32 1090.48 1258.32 1090.79 1257.68 1091.4C1257.07 1092.02 1256.76 1092.73 1256.76 1093.55C1256.76 1094.22 1256.98 1094.78 1257.42 1095.22C1257.85 1095.63 1258.42 1095.99 1259.13 1096.31C1259.83 1096.6 1260.57 1096.91 1261.36 1097.23C1262.38 1097.61 1263.39 1098.05 1264.39 1098.55C1265.38 1099.02 1266.2 1099.66 1266.84 1100.48C1267.51 1101.27 1267.85 1102.33 1267.85 1103.68C1267.85 1104.82 1267.54 1105.87 1266.93 1106.83C1266.35 1107.8 1265.47 1108.57 1264.3 1109.16C1263.16 1109.74 1261.74 1110.04 1260.05 1110.04ZM1281.26 1110.04C1279.39 1110.04 1277.7 1109.6 1276.18 1108.72C1274.66 1107.84 1273.46 1106.57 1272.58 1104.91C1271.71 1103.24 1271.27 1101.24 1271.27 1098.9C1271.27 1096.5 1271.74 1094.47 1272.67 1092.8C1273.64 1091.14 1274.89 1089.87 1276.44 1088.99C1278.02 1088.11 1279.72 1087.67 1281.53 1087.67C1282.93 1087.67 1284.13 1087.92 1285.12 1088.42C1286.15 1088.92 1287.02 1089.5 1287.75 1090.17L1285.91 1092.54C1285.3 1091.99 1284.64 1091.53 1283.94 1091.18C1283.27 1090.83 1282.51 1090.66 1281.66 1090.66C1280.37 1090.66 1279.22 1091.01 1278.2 1091.71C1277.2 1092.38 1276.41 1093.35 1275.83 1094.6C1275.27 1095.83 1274.99 1097.26 1274.99 1098.9C1274.99 1101.32 1275.59 1103.3 1276.79 1104.82C1278.02 1106.31 1279.61 1107.05 1281.57 1107.05C1282.57 1107.05 1283.49 1106.85 1284.33 1106.44C1285.18 1106 1285.93 1105.49 1286.57 1104.91L1288.15 1107.32C1287.18 1108.16 1286.12 1108.84 1284.95 1109.33C1283.78 1109.8 1282.55 1110.04 1281.26 1110.04ZM1292.84 1109.51V1088.2H1295.82L1296.13 1092.06H1296.26C1296.99 1090.71 1297.88 1089.65 1298.94 1088.86C1299.99 1088.07 1301.11 1087.67 1302.31 1087.67C1303.16 1087.67 1303.92 1087.82 1304.59 1088.11L1303.89 1091.27C1303.54 1091.15 1303.22 1091.07 1302.93 1091.01C1302.63 1090.95 1302.27 1090.92 1301.83 1090.92C1300.92 1090.92 1299.97 1091.28 1298.98 1092.02C1298.02 1092.75 1297.17 1094.02 1296.44 1095.83V1109.51H1292.84ZM1308.04 1109.51V1088.2H1311.64V1109.51H1308.04ZM1309.88 1083.82C1309.18 1083.82 1308.6 1083.61 1308.13 1083.2C1307.69 1082.76 1307.47 1082.18 1307.47 1081.45C1307.47 1080.75 1307.69 1080.18 1308.13 1079.74C1308.6 1079.3 1309.18 1079.08 1309.88 1079.08C1310.58 1079.08 1311.15 1079.3 1311.59 1079.74C1312.06 1080.18 1312.29 1080.75 1312.29 1081.45C1312.29 1082.18 1312.06 1082.76 1311.59 1083.2C1311.15 1083.61 1310.58 1083.82 1309.88 1083.82ZM1318.83 1118.5V1088.2H1321.81L1322.12 1090.66H1322.25C1323.22 1089.84 1324.27 1089.14 1325.41 1088.55C1326.58 1087.97 1327.79 1087.67 1329.05 1087.67C1331.79 1087.67 1333.88 1088.67 1335.32 1090.66C1336.75 1092.61 1337.47 1095.25 1337.47 1098.55C1337.47 1100.94 1337.03 1103.01 1336.15 1104.73C1335.3 1106.45 1334.18 1107.77 1332.77 1108.68C1331.4 1109.58 1329.89 1110.04 1328.26 1110.04C1327.26 1110.04 1326.27 1109.82 1325.28 1109.38C1324.31 1108.94 1323.33 1108.34 1322.34 1107.58L1322.43 1111.31V1118.5H1318.83ZM1327.64 1107.01C1329.4 1107.01 1330.84 1106.26 1331.98 1104.77C1333.15 1103.25 1333.74 1101.18 1333.74 1098.55C1333.74 1096.21 1333.3 1094.32 1332.42 1092.89C1331.58 1091.43 1330.14 1090.7 1328.13 1090.7C1327.22 1090.7 1326.3 1090.95 1325.36 1091.45C1324.46 1091.94 1323.48 1092.66 1322.43 1093.59V1104.77C1323.39 1105.59 1324.33 1106.18 1325.23 1106.53C1326.14 1106.85 1326.94 1107.01 1327.64 1107.01ZM1349.13 1110.04C1346.85 1110.04 1345.26 1109.38 1344.35 1108.06C1343.48 1106.75 1343.04 1105.04 1343.04 1102.93V1091.14H1339.88V1088.42L1343.21 1088.2L1343.65 1082.24H1346.68V1088.2H1352.42V1091.14H1346.68V1102.98C1346.68 1104.29 1346.91 1105.31 1347.38 1106.05C1347.87 1106.75 1348.74 1107.1 1349.96 1107.1C1350.34 1107.1 1350.75 1107.04 1351.19 1106.92C1351.63 1106.78 1352.02 1106.64 1352.38 1106.53L1353.08 1109.25C1352.49 1109.45 1351.85 1109.63 1351.15 1109.77C1350.48 1109.95 1349.8 1110.04 1349.13 1110.04ZM1097.28 1164.51V1146.14H1094.39V1143.42L1097.28 1143.2V1139.82C1097.28 1137.66 1097.78 1135.95 1098.77 1134.7C1099.8 1133.41 1101.38 1132.77 1103.51 1132.77C1104.18 1132.77 1104.82 1132.84 1105.44 1132.99C1106.05 1133.1 1106.59 1133.26 1107.06 1133.47L1106.27 1136.23C1105.48 1135.88 1104.68 1135.7 1103.86 1135.7C1101.87 1135.7 1100.88 1137.08 1100.88 1139.82V1143.2H1105.39V1146.14H1100.88V1164.51H1097.28ZM1117.33 1165.04C1115.61 1165.04 1113.98 1164.6 1112.46 1163.72C1110.97 1162.84 1109.76 1161.57 1108.82 1159.91C1107.92 1158.24 1107.46 1156.24 1107.46 1153.9C1107.46 1151.5 1107.92 1149.47 1108.82 1147.8C1109.76 1146.14 1110.97 1144.87 1112.46 1143.99C1113.98 1143.11 1115.61 1142.67 1117.33 1142.67C1119.08 1142.67 1120.71 1143.11 1122.2 1143.99C1123.69 1144.87 1124.89 1146.14 1125.79 1147.8C1126.73 1149.47 1127.19 1151.5 1127.19 1153.9C1127.19 1156.24 1126.73 1158.24 1125.79 1159.91C1124.89 1161.57 1123.69 1162.84 1122.2 1163.72C1120.71 1164.6 1119.08 1165.04 1117.33 1165.04ZM1117.33 1162.05C1119.17 1162.05 1120.65 1161.31 1121.76 1159.82C1122.9 1158.3 1123.47 1156.32 1123.47 1153.9C1123.47 1151.44 1122.9 1149.46 1121.76 1147.94C1120.65 1146.42 1119.17 1145.66 1117.33 1145.66C1115.52 1145.66 1114.04 1146.42 1112.9 1147.94C1111.76 1149.46 1111.19 1151.44 1111.19 1153.9C1111.19 1156.32 1111.76 1158.3 1112.9 1159.82C1114.04 1161.31 1115.52 1162.05 1117.33 1162.05ZM1132.81 1164.51V1143.2H1135.79L1136.09 1147.06H1136.23C1136.96 1145.71 1137.85 1144.65 1138.9 1143.86C1139.95 1143.07 1141.08 1142.67 1142.28 1142.67C1143.12 1142.67 1143.88 1142.82 1144.56 1143.11L1143.85 1146.27C1143.5 1146.15 1143.18 1146.07 1142.89 1146.01C1142.6 1145.95 1142.23 1145.92 1141.79 1145.92C1140.89 1145.92 1139.94 1146.28 1138.94 1147.02C1137.98 1147.75 1137.13 1149.02 1136.4 1150.83V1164.51H1132.81ZM1161.69 1165.04C1159.91 1165.04 1158.42 1164.51 1157.22 1163.46C1156.05 1162.38 1155.47 1160.88 1155.47 1158.98C1155.47 1156.65 1156.51 1154.86 1158.58 1153.64C1160.69 1152.38 1164 1151.5 1168.53 1151.01C1168.53 1150.1 1168.4 1149.24 1168.14 1148.42C1167.91 1147.6 1167.47 1146.94 1166.82 1146.45C1166.21 1145.92 1165.32 1145.66 1164.15 1145.66C1162.92 1145.66 1161.77 1145.89 1160.69 1146.36C1159.6 1146.83 1158.64 1147.35 1157.79 1147.94L1156.39 1145.44C1157.38 1144.79 1158.6 1144.18 1160.03 1143.6C1161.49 1142.98 1163.07 1142.67 1164.76 1142.67C1167.36 1142.67 1169.25 1143.48 1170.42 1145.09C1171.59 1146.66 1172.17 1148.78 1172.17 1151.44V1164.51H1169.19L1168.88 1161.97H1168.75C1167.76 1162.78 1166.66 1163.5 1165.46 1164.11C1164.3 1164.73 1163.04 1165.04 1161.69 1165.04ZM1162.75 1162.14C1163.77 1162.14 1164.73 1161.89 1165.64 1161.4C1166.55 1160.9 1167.51 1160.2 1168.53 1159.29V1153.37C1165 1153.81 1162.51 1154.47 1161.08 1155.35C1159.68 1156.22 1158.98 1157.35 1158.98 1158.72C1158.98 1159.92 1159.34 1160.8 1160.07 1161.35C1160.8 1161.88 1161.69 1162.14 1162.75 1162.14ZM1178.88 1164.51V1143.2H1181.86L1182.16 1146.27H1182.3C1183.32 1145.25 1184.4 1144.4 1185.54 1143.73C1186.68 1143.03 1187.98 1142.67 1189.44 1142.67C1191.69 1142.67 1193.33 1143.39 1194.35 1144.82C1195.41 1146.23 1195.93 1148.29 1195.93 1151.01V1164.51H1192.34V1151.49C1192.34 1149.5 1192.02 1148.05 1191.37 1147.15C1190.73 1146.24 1189.71 1145.79 1188.3 1145.79C1187.22 1145.79 1186.24 1146.07 1185.37 1146.62C1184.52 1147.18 1183.55 1147.99 1182.47 1149.08V1164.51H1178.88ZM1220.27 1165.04C1218.37 1165.04 1216.64 1164.6 1215.09 1163.72C1213.55 1162.81 1212.32 1161.53 1211.41 1159.86C1210.51 1158.2 1210.05 1156.21 1210.05 1153.9C1210.05 1151.56 1210.51 1149.56 1211.41 1147.89C1212.35 1146.23 1213.55 1144.94 1215.01 1144.03C1216.47 1143.13 1218 1142.67 1219.61 1142.67C1222.33 1142.67 1224.42 1143.58 1225.88 1145.39C1227.37 1147.21 1228.12 1149.63 1228.12 1152.67C1228.12 1153.05 1228.1 1153.43 1228.07 1153.81C1228.07 1154.16 1228.04 1154.47 1227.98 1154.73H1213.6C1213.75 1156.98 1214.45 1158.78 1215.71 1160.12C1216.99 1161.47 1218.66 1162.14 1220.71 1162.14C1221.73 1162.14 1222.67 1162 1223.51 1161.7C1224.39 1161.38 1225.22 1160.97 1226.01 1160.48L1227.28 1162.84C1226.38 1163.43 1225.34 1163.94 1224.17 1164.38C1223.03 1164.82 1221.73 1165.04 1220.27 1165.04ZM1213.56 1152.14H1224.96C1224.96 1149.98 1224.49 1148.35 1223.56 1147.23C1222.65 1146.09 1221.36 1145.52 1219.7 1145.52C1218.21 1145.52 1216.86 1146.11 1215.66 1147.28C1214.5 1148.42 1213.79 1150.04 1213.56 1152.14ZM1237.69 1165.04C1235.91 1165.04 1234.42 1164.51 1233.22 1163.46C1232.05 1162.38 1231.47 1160.88 1231.47 1158.98C1231.47 1156.65 1232.5 1154.86 1234.58 1153.64C1236.68 1152.38 1240 1151.5 1244.53 1151.01C1244.53 1150.1 1244.4 1149.24 1244.14 1148.42C1243.9 1147.6 1243.47 1146.94 1242.82 1146.45C1242.21 1145.92 1241.32 1145.66 1240.15 1145.66C1238.92 1145.66 1237.77 1145.89 1236.68 1146.36C1235.6 1146.83 1234.64 1147.35 1233.79 1147.94L1232.39 1145.44C1233.38 1144.79 1234.59 1144.18 1236.03 1143.6C1237.49 1142.98 1239.07 1142.67 1240.76 1142.67C1243.36 1142.67 1245.25 1143.48 1246.42 1145.09C1247.59 1146.66 1248.17 1148.78 1248.17 1151.44V1164.51H1245.19L1244.88 1161.97H1244.75C1243.76 1162.78 1242.66 1163.5 1241.46 1164.11C1240.29 1164.73 1239.04 1165.04 1237.69 1165.04ZM1238.75 1162.14C1239.77 1162.14 1240.73 1161.89 1241.64 1161.4C1242.55 1160.9 1243.51 1160.2 1244.53 1159.29V1153.37C1241 1153.81 1238.51 1154.47 1237.08 1155.35C1235.68 1156.22 1234.97 1157.35 1234.97 1158.72C1234.97 1159.92 1235.34 1160.8 1236.07 1161.35C1236.8 1161.88 1237.69 1162.14 1238.75 1162.14ZM1260.44 1165.04C1258.92 1165.04 1257.48 1164.76 1256.1 1164.2C1254.73 1163.62 1253.53 1162.92 1252.51 1162.1L1254.31 1159.69C1255.24 1160.42 1256.21 1161.03 1257.2 1161.53C1258.19 1162 1259.32 1162.23 1260.58 1162.23C1261.98 1162.23 1263.03 1161.91 1263.73 1161.26C1264.43 1160.59 1264.78 1159.8 1264.78 1158.9C1264.78 1158.17 1264.54 1157.55 1264.04 1157.06C1263.57 1156.56 1262.96 1156.15 1262.2 1155.83C1261.47 1155.48 1260.71 1155.16 1259.92 1154.86C1258.92 1154.48 1257.94 1154.06 1256.98 1153.59C1256.02 1153.09 1255.23 1152.47 1254.61 1151.71C1254 1150.92 1253.69 1149.92 1253.69 1148.73C1253.69 1147 1254.33 1145.57 1255.62 1144.43C1256.94 1143.26 1258.75 1142.67 1261.06 1142.67C1262.37 1142.67 1263.6 1142.91 1264.74 1143.38C1265.88 1143.84 1266.86 1144.41 1267.68 1145.09L1265.92 1147.37C1265.19 1146.81 1264.43 1146.36 1263.64 1146.01C1262.86 1145.66 1261.99 1145.48 1261.06 1145.48C1259.71 1145.48 1258.72 1145.79 1258.08 1146.4C1257.46 1147.02 1257.16 1147.73 1257.16 1148.55C1257.16 1149.22 1257.37 1149.78 1257.81 1150.22C1258.25 1150.63 1258.82 1150.99 1259.52 1151.31C1260.22 1151.6 1260.97 1151.91 1261.76 1152.23C1262.78 1152.61 1263.79 1153.05 1264.78 1153.55C1265.78 1154.02 1266.6 1154.66 1267.24 1155.48C1267.91 1156.27 1268.25 1157.33 1268.25 1158.68C1268.25 1159.82 1267.94 1160.87 1267.33 1161.83C1266.74 1162.8 1265.87 1163.57 1264.7 1164.16C1263.56 1164.74 1262.14 1165.04 1260.44 1165.04ZM1273.59 1173.67C1273.13 1173.67 1272.67 1173.63 1272.24 1173.54C1271.83 1173.45 1271.45 1173.35 1271.1 1173.23L1271.8 1170.38C1272.03 1170.44 1272.29 1170.5 1272.59 1170.56C1272.88 1170.65 1273.16 1170.69 1273.42 1170.69C1274.62 1170.69 1275.61 1170.25 1276.4 1169.38C1277.19 1168.53 1277.8 1167.45 1278.24 1166.13L1278.72 1164.55L1270.17 1143.2H1273.9L1278.24 1154.99C1278.56 1155.9 1278.9 1156.88 1279.25 1157.93C1279.63 1158.98 1279.98 1160.01 1280.3 1161H1280.48C1280.8 1160.04 1281.11 1159.03 1281.4 1157.98C1281.69 1156.92 1281.98 1155.93 1282.28 1154.99L1286.09 1143.2H1289.6L1281.57 1166.26C1281.08 1167.67 1280.48 1168.92 1279.78 1170.03C1279.1 1171.14 1278.26 1172.02 1277.23 1172.66C1276.24 1173.34 1275.03 1173.67 1273.59 1173.67ZM1086.14 1219.51V1198.2H1089.73V1219.51H1086.14ZM1087.98 1193.82C1087.28 1193.82 1086.69 1193.61 1086.22 1193.2C1085.79 1192.76 1085.57 1192.18 1085.57 1191.45C1085.57 1190.75 1085.79 1190.18 1086.22 1189.74C1086.69 1189.3 1087.28 1189.08 1087.98 1189.08C1088.68 1189.08 1089.25 1189.3 1089.69 1189.74C1090.16 1190.18 1090.39 1190.75 1090.39 1191.45C1090.39 1192.18 1090.16 1192.76 1089.69 1193.2C1089.25 1193.61 1088.68 1193.82 1087.98 1193.82ZM1096.93 1219.51V1198.2H1099.91L1100.21 1201.27H1100.35C1101.37 1200.25 1102.45 1199.4 1103.59 1198.73C1104.73 1198.03 1106.03 1197.67 1107.49 1197.67C1109.74 1197.67 1111.38 1198.39 1112.4 1199.82C1113.46 1201.23 1113.98 1203.29 1113.98 1206.01V1219.51H1110.39V1206.49C1110.39 1204.5 1110.06 1203.05 1109.42 1202.15C1108.78 1201.24 1107.76 1200.79 1106.35 1200.79C1105.27 1200.79 1104.29 1201.07 1103.42 1201.62C1102.57 1202.18 1101.6 1202.99 1100.52 1204.08V1219.51H1096.93ZM1126.47 1220.04C1124.95 1220.04 1123.5 1219.76 1122.13 1219.2C1120.76 1218.62 1119.56 1217.92 1118.54 1217.1L1120.33 1214.69C1121.27 1215.42 1122.23 1216.03 1123.23 1216.53C1124.22 1217 1125.35 1217.23 1126.6 1217.23C1128.01 1217.23 1129.06 1216.91 1129.76 1216.26C1130.46 1215.59 1130.81 1214.8 1130.81 1213.9C1130.81 1213.17 1130.56 1212.55 1130.07 1212.06C1129.6 1211.56 1128.99 1211.15 1128.23 1210.83C1127.49 1210.48 1126.73 1210.16 1125.95 1209.86C1124.95 1209.48 1123.97 1209.06 1123.01 1208.59C1122.04 1208.09 1121.25 1207.47 1120.64 1206.71C1120.03 1205.92 1119.72 1204.92 1119.72 1203.73C1119.72 1202 1120.36 1200.57 1121.65 1199.43C1122.96 1198.26 1124.78 1197.67 1127.09 1197.67C1128.4 1197.67 1129.63 1197.91 1130.77 1198.38C1131.91 1198.84 1132.89 1199.41 1133.71 1200.09L1131.95 1202.37C1131.22 1201.81 1130.46 1201.36 1129.67 1201.01C1128.88 1200.66 1128.02 1200.48 1127.09 1200.48C1125.74 1200.48 1124.75 1200.79 1124.1 1201.4C1123.49 1202.02 1123.18 1202.73 1123.18 1203.55C1123.18 1204.22 1123.4 1204.78 1123.84 1205.22C1124.28 1205.63 1124.85 1205.99 1125.55 1206.31C1126.25 1206.6 1127 1206.91 1127.79 1207.23C1128.81 1207.61 1129.82 1208.05 1130.81 1208.55C1131.81 1209.02 1132.62 1209.66 1133.27 1210.48C1133.94 1211.27 1134.28 1212.33 1134.28 1213.68C1134.28 1214.82 1133.97 1215.87 1133.35 1216.83C1132.77 1217.8 1131.89 1218.57 1130.72 1219.16C1129.58 1219.74 1128.17 1220.04 1126.47 1220.04ZM1145.12 1220.04C1142.84 1220.04 1141.25 1219.38 1140.34 1218.06C1139.47 1216.75 1139.03 1215.04 1139.03 1212.93V1201.14H1135.87V1198.42L1139.2 1198.2L1139.64 1192.24H1142.67V1198.2H1148.41V1201.14H1142.67V1212.98C1142.67 1214.29 1142.9 1215.31 1143.37 1216.05C1143.87 1216.75 1144.73 1217.1 1145.96 1217.1C1146.34 1217.1 1146.75 1217.04 1147.18 1216.92C1147.62 1216.78 1148.02 1216.64 1148.37 1216.53L1149.07 1219.25C1148.48 1219.45 1147.84 1219.63 1147.14 1219.77C1146.47 1219.95 1145.8 1220.04 1145.12 1220.04ZM1157.2 1220.04C1155.42 1220.04 1153.92 1219.51 1152.73 1218.46C1151.56 1217.38 1150.97 1215.88 1150.97 1213.98C1150.97 1211.65 1152.01 1209.86 1154.09 1208.64C1156.19 1207.38 1159.51 1206.5 1164.04 1206.01C1164.04 1205.1 1163.91 1204.24 1163.64 1203.42C1163.41 1202.6 1162.97 1201.94 1162.33 1201.45C1161.71 1200.92 1160.82 1200.66 1159.65 1200.66C1158.43 1200.66 1157.27 1200.89 1156.19 1201.36C1155.11 1201.83 1154.14 1202.35 1153.3 1202.94L1151.89 1200.44C1152.89 1199.79 1154.1 1199.18 1155.53 1198.6C1156.99 1197.98 1158.57 1197.67 1160.27 1197.67C1162.87 1197.67 1164.75 1198.48 1165.92 1200.09C1167.09 1201.66 1167.68 1203.78 1167.68 1206.44V1219.51H1164.7L1164.39 1216.97H1164.26C1163.26 1217.78 1162.17 1218.5 1160.97 1219.11C1159.8 1219.73 1158.54 1220.04 1157.2 1220.04ZM1158.25 1217.14C1159.27 1217.14 1160.24 1216.89 1161.14 1216.4C1162.05 1215.9 1163.01 1215.2 1164.04 1214.29V1208.37C1160.5 1208.81 1158.02 1209.47 1156.58 1210.35C1155.18 1211.22 1154.48 1212.35 1154.48 1213.72C1154.48 1214.92 1154.85 1215.8 1155.58 1216.35C1156.31 1216.88 1157.2 1217.14 1158.25 1217.14ZM1178.2 1220.04C1176.85 1220.04 1175.87 1219.63 1175.26 1218.81C1174.67 1217.96 1174.38 1216.76 1174.38 1215.21V1188.29H1177.98V1215.48C1177.98 1216.03 1178.08 1216.44 1178.28 1216.7C1178.49 1216.94 1178.72 1217.05 1178.98 1217.05C1179.1 1217.05 1179.2 1217.05 1179.29 1217.05C1179.41 1217.02 1179.57 1217 1179.77 1216.97L1180.26 1219.68C1180.02 1219.8 1179.74 1219.89 1179.42 1219.95C1179.1 1220.01 1178.69 1220.04 1178.2 1220.04ZM1189.37 1220.04C1188.03 1220.04 1187.05 1219.63 1186.43 1218.81C1185.85 1217.96 1185.56 1216.76 1185.56 1215.21V1188.29H1189.15V1215.48C1189.15 1216.03 1189.25 1216.44 1189.46 1216.7C1189.66 1216.94 1189.9 1217.05 1190.16 1217.05C1190.28 1217.05 1190.38 1217.05 1190.47 1217.05C1190.58 1217.02 1190.74 1217 1190.95 1216.97L1191.43 1219.68C1191.2 1219.8 1190.92 1219.89 1190.6 1219.95C1190.28 1220.01 1189.87 1220.04 1189.37 1220.04ZM1201.64 1220.04C1199.86 1220.04 1198.37 1219.51 1197.17 1218.46C1196 1217.38 1195.42 1215.88 1195.42 1213.98C1195.42 1211.65 1196.45 1209.86 1198.53 1208.64C1200.63 1207.38 1203.95 1206.5 1208.48 1206.01C1208.48 1205.1 1208.35 1204.24 1208.09 1203.42C1207.85 1202.6 1207.41 1201.94 1206.77 1201.45C1206.16 1200.92 1205.27 1200.66 1204.1 1200.66C1202.87 1200.66 1201.71 1200.89 1200.63 1201.36C1199.55 1201.83 1198.59 1202.35 1197.74 1202.94L1196.34 1200.44C1197.33 1199.79 1198.54 1199.18 1199.98 1198.6C1201.44 1197.98 1203.02 1197.67 1204.71 1197.67C1207.31 1197.67 1209.2 1198.48 1210.37 1200.09C1211.54 1201.66 1212.12 1203.78 1212.12 1206.44V1219.51H1209.14L1208.83 1216.97H1208.7C1207.71 1217.78 1206.61 1218.5 1205.41 1219.11C1204.24 1219.73 1202.99 1220.04 1201.64 1220.04ZM1202.69 1217.14C1203.72 1217.14 1204.68 1216.89 1205.59 1216.4C1206.49 1215.9 1207.46 1215.2 1208.48 1214.29V1208.37C1204.94 1208.81 1202.46 1209.47 1201.03 1210.35C1199.62 1211.22 1198.92 1212.35 1198.92 1213.72C1198.92 1214.92 1199.29 1215.8 1200.02 1216.35C1200.75 1216.88 1201.64 1217.14 1202.69 1217.14ZM1224.93 1220.04C1222.65 1220.04 1221.06 1219.38 1220.15 1218.06C1219.28 1216.75 1218.84 1215.04 1218.84 1212.93V1201.14H1215.68V1198.42L1219.01 1198.2L1219.45 1192.24H1222.48V1198.2H1228.22V1201.14H1222.48V1212.98C1222.48 1214.29 1222.71 1215.31 1223.18 1216.05C1223.68 1216.75 1224.54 1217.1 1225.77 1217.1C1226.15 1217.1 1226.56 1217.04 1226.99 1216.92C1227.43 1216.78 1227.83 1216.64 1228.18 1216.53L1228.88 1219.25C1228.29 1219.45 1227.65 1219.63 1226.95 1219.77C1226.28 1219.95 1225.61 1220.04 1224.93 1220.04ZM1233.04 1219.51V1198.2H1236.63V1219.51H1233.04ZM1234.88 1193.82C1234.18 1193.82 1233.59 1193.61 1233.13 1193.2C1232.69 1192.76 1232.47 1192.18 1232.47 1191.45C1232.47 1190.75 1232.69 1190.18 1233.13 1189.74C1233.59 1189.3 1234.18 1189.08 1234.88 1189.08C1235.58 1189.08 1236.15 1189.3 1236.59 1189.74C1237.06 1190.18 1237.29 1190.75 1237.29 1191.45C1237.29 1192.18 1237.06 1192.76 1236.59 1193.2C1236.15 1193.61 1235.58 1193.82 1234.88 1193.82ZM1252.12 1220.04C1250.39 1220.04 1248.77 1219.6 1247.25 1218.72C1245.76 1217.84 1244.55 1216.57 1243.61 1214.91C1242.7 1213.24 1242.25 1211.24 1242.25 1208.9C1242.25 1206.5 1242.7 1204.47 1243.61 1202.8C1244.55 1201.14 1245.76 1199.87 1247.25 1198.99C1248.77 1198.11 1250.39 1197.67 1252.12 1197.67C1253.87 1197.67 1255.49 1198.11 1256.98 1198.99C1258.47 1199.87 1259.67 1201.14 1260.58 1202.8C1261.51 1204.47 1261.98 1206.5 1261.98 1208.9C1261.98 1211.24 1261.51 1213.24 1260.58 1214.91C1259.67 1216.57 1258.47 1217.84 1256.98 1218.72C1255.49 1219.6 1253.87 1220.04 1252.12 1220.04ZM1252.12 1217.05C1253.96 1217.05 1255.43 1216.31 1256.54 1214.82C1257.68 1213.3 1258.25 1211.32 1258.25 1208.9C1258.25 1206.44 1257.68 1204.46 1256.54 1202.94C1255.43 1201.42 1253.96 1200.66 1252.12 1200.66C1250.3 1200.66 1248.83 1201.42 1247.69 1202.94C1246.55 1204.46 1245.98 1206.44 1245.98 1208.9C1245.98 1211.32 1246.55 1213.3 1247.69 1214.82C1248.83 1216.31 1250.3 1217.05 1252.12 1217.05ZM1267.59 1219.51V1198.2H1270.57L1270.88 1201.27H1271.01C1272.03 1200.25 1273.12 1199.4 1274.26 1198.73C1275.4 1198.03 1276.7 1197.67 1278.16 1197.67C1280.41 1197.67 1282.05 1198.39 1283.07 1199.82C1284.12 1201.23 1284.65 1203.29 1284.65 1206.01V1219.51H1281.05V1206.49C1281.05 1204.5 1280.73 1203.05 1280.09 1202.15C1279.44 1201.24 1278.42 1200.79 1277.02 1200.79C1275.94 1200.79 1274.96 1201.07 1274.08 1201.62C1273.23 1202.18 1272.27 1202.99 1271.19 1204.08V1219.51H1267.59ZM1293.06 1210.83L1292.58 1194.25L1292.49 1190.13H1296.13L1296.04 1194.25L1295.56 1210.83H1293.06ZM1294.33 1220.04C1293.6 1220.04 1292.97 1219.79 1292.45 1219.29C1291.95 1218.76 1291.7 1218.11 1291.7 1217.32C1291.7 1216.47 1291.95 1215.8 1292.45 1215.3C1292.97 1214.77 1293.6 1214.51 1294.33 1214.51C1295.03 1214.51 1295.63 1214.77 1296.13 1215.3C1296.66 1215.8 1296.92 1216.47 1296.92 1217.32C1296.92 1218.11 1296.66 1218.76 1296.13 1219.29C1295.63 1219.79 1295.03 1220.04 1294.33 1220.04Z" fill="white"/>
<path d="M1038.4 1364V1329.95H1049.04C1051.36 1329.95 1053.42 1330.26 1055.22 1330.88C1057.02 1331.47 1058.42 1332.47 1059.42 1333.89C1060.46 1335.28 1060.98 1337.14 1060.98 1339.5C1060.98 1342.13 1060.29 1344.26 1058.91 1345.88C1057.52 1347.47 1055.65 1348.56 1053.3 1349.15L1061.97 1364H1057.09L1048.89 1349.62H1042.71V1364H1038.4ZM1042.71 1346.09H1048.42C1051.08 1346.09 1053.13 1345.55 1054.54 1344.48C1055.96 1343.37 1056.67 1341.71 1056.67 1339.5C1056.67 1337.25 1055.96 1335.67 1054.54 1334.77C1053.13 1333.87 1051.08 1333.42 1048.42 1333.42H1042.71V1346.09ZM1076.84 1364.62C1074.8 1364.62 1072.88 1364.1 1071.08 1363.07C1069.32 1362.03 1067.88 1360.52 1066.77 1358.55C1065.7 1356.58 1065.16 1354.21 1065.16 1351.44C1065.16 1348.6 1065.7 1346.19 1066.77 1344.22C1067.88 1342.25 1069.32 1340.74 1071.08 1339.7C1072.88 1338.67 1074.8 1338.15 1076.84 1338.15C1078.92 1338.15 1080.84 1338.67 1082.61 1339.7C1084.37 1340.74 1085.79 1342.25 1086.86 1344.22C1087.97 1346.19 1088.53 1348.6 1088.53 1351.44C1088.53 1354.21 1087.97 1356.58 1086.86 1358.55C1085.79 1360.52 1084.37 1362.03 1082.61 1363.07C1080.84 1364.1 1078.92 1364.62 1076.84 1364.62ZM1076.84 1361.09C1079.03 1361.09 1080.77 1360.21 1082.09 1358.45C1083.44 1356.65 1084.11 1354.31 1084.11 1351.44C1084.11 1348.53 1083.44 1346.18 1082.09 1344.38C1080.77 1342.58 1079.03 1341.68 1076.84 1341.68C1074.7 1341.68 1072.95 1342.58 1071.6 1344.38C1070.25 1346.18 1069.58 1348.53 1069.58 1351.44C1069.58 1354.31 1070.25 1356.65 1071.6 1358.45C1072.95 1360.21 1074.7 1361.09 1076.84 1361.09ZM1099.69 1364.62C1098.09 1364.62 1096.93 1364.14 1096.21 1363.17C1095.52 1362.17 1095.17 1360.75 1095.17 1358.91V1327.04H1099.43V1359.22C1099.43 1359.88 1099.55 1360.37 1099.79 1360.68C1100.03 1360.95 1100.31 1361.09 1100.62 1361.09C1100.76 1361.09 1100.88 1361.09 1100.98 1361.09C1101.12 1361.06 1101.31 1361.02 1101.55 1360.99L1102.13 1364.21C1101.85 1364.35 1101.52 1364.45 1101.14 1364.52C1100.76 1364.59 1100.27 1364.62 1099.69 1364.62ZM1112.92 1364.62C1111.33 1364.62 1110.17 1364.14 1109.44 1363.17C1108.75 1362.17 1108.4 1360.75 1108.4 1358.91V1327.04H1112.66V1359.22C1112.66 1359.88 1112.78 1360.37 1113.02 1360.68C1113.26 1360.95 1113.54 1361.09 1113.85 1361.09C1113.99 1361.09 1114.11 1361.09 1114.22 1361.09C1114.35 1361.06 1114.54 1361.02 1114.79 1360.99L1115.36 1364.21C1115.08 1364.35 1114.75 1364.45 1114.37 1364.52C1113.99 1364.59 1113.51 1364.62 1112.92 1364.62ZM1121.63 1364V1338.77H1125.89V1364H1121.63ZM1123.81 1333.58C1122.98 1333.58 1122.29 1333.34 1121.74 1332.85C1121.22 1332.33 1120.96 1331.64 1120.96 1330.78C1120.96 1329.95 1121.22 1329.27 1121.74 1328.75C1122.29 1328.23 1122.98 1327.97 1123.81 1327.97C1124.64 1327.97 1125.32 1328.23 1125.84 1328.75C1126.39 1329.27 1126.67 1329.95 1126.67 1330.78C1126.67 1331.64 1126.39 1332.33 1125.84 1332.85C1125.32 1333.34 1124.64 1333.58 1123.81 1333.58ZM1134.41 1364V1338.77H1137.94L1138.3 1342.4H1138.46C1139.67 1341.19 1140.95 1340.19 1142.3 1339.39C1143.65 1338.56 1145.19 1338.15 1146.92 1338.15C1149.58 1338.15 1151.52 1339 1152.73 1340.69C1153.98 1342.35 1154.6 1344.79 1154.6 1348.01V1364H1150.35V1348.58C1150.35 1346.23 1149.96 1344.52 1149.2 1343.44C1148.44 1342.37 1147.23 1341.83 1145.57 1341.83C1144.29 1341.83 1143.13 1342.16 1142.09 1342.82C1141.09 1343.48 1139.95 1344.45 1138.66 1345.73V1364H1134.41ZM1171.31 1375.63C1168.23 1375.63 1165.72 1375.04 1163.78 1373.86C1161.85 1372.69 1160.88 1371.01 1160.88 1368.83C1160.88 1367.76 1161.21 1366.72 1161.86 1365.71C1162.52 1364.74 1163.42 1363.88 1164.56 1363.12V1362.91C1163.94 1362.53 1163.4 1361.99 1162.95 1361.3C1162.54 1360.61 1162.33 1359.78 1162.33 1358.81C1162.33 1357.74 1162.62 1356.8 1163.21 1356.01C1163.8 1355.21 1164.42 1354.59 1165.08 1354.14V1353.93C1164.25 1353.24 1163.49 1352.3 1162.8 1351.13C1162.14 1349.95 1161.81 1348.62 1161.81 1347.13C1161.81 1345.29 1162.24 1343.7 1163.11 1342.35C1163.97 1341 1165.13 1339.96 1166.59 1339.24C1168.04 1338.51 1169.62 1338.15 1171.31 1338.15C1172 1338.15 1172.66 1338.22 1173.28 1338.36C1173.91 1338.46 1174.44 1338.6 1174.89 1338.77H1183.67V1342.04H1178.48C1179.06 1342.59 1179.55 1343.34 1179.93 1344.27C1180.34 1345.17 1180.55 1346.16 1180.55 1347.23C1180.55 1349.03 1180.14 1350.59 1179.31 1351.9C1178.48 1353.22 1177.37 1354.24 1175.98 1354.97C1174.6 1355.66 1173.04 1356.01 1171.31 1356.01C1169.96 1356.01 1168.7 1355.71 1167.52 1355.12C1167.07 1355.5 1166.69 1355.94 1166.38 1356.42C1166.07 1356.87 1165.91 1357.44 1165.91 1358.13C1165.91 1358.93 1166.22 1359.59 1166.85 1360.11C1167.5 1360.63 1168.68 1360.89 1170.38 1360.89H1175.26C1178.2 1360.89 1180.4 1361.37 1181.85 1362.34C1183.34 1363.27 1184.08 1364.8 1184.08 1366.91C1184.08 1368.46 1183.56 1369.9 1182.52 1371.22C1181.49 1372.53 1180.02 1373.59 1178.11 1374.38C1176.21 1375.21 1173.94 1375.63 1171.31 1375.63ZM1171.31 1353.15C1172.76 1353.15 1174.01 1352.61 1175.05 1351.54C1176.12 1350.43 1176.66 1348.96 1176.66 1347.13C1176.66 1345.29 1176.14 1343.86 1175.1 1342.82C1174.06 1341.78 1172.8 1341.26 1171.31 1341.26C1169.82 1341.26 1168.56 1341.78 1167.52 1342.82C1166.48 1343.86 1165.96 1345.29 1165.96 1347.13C1165.96 1348.96 1166.48 1350.43 1167.52 1351.54C1168.59 1352.61 1169.86 1353.15 1171.31 1353.15ZM1171.93 1372.67C1174.36 1372.67 1176.29 1372.13 1177.75 1371.06C1179.2 1370.02 1179.93 1368.85 1179.93 1367.53C1179.93 1366.35 1179.48 1365.54 1178.58 1365.09C1177.71 1364.64 1176.47 1364.42 1174.84 1364.42H1170.48C1170 1364.42 1169.46 1364.38 1168.87 1364.31C1168.32 1364.24 1167.76 1364.14 1167.21 1364C1166.31 1364.66 1165.65 1365.35 1165.24 1366.08C1164.82 1366.8 1164.61 1367.53 1164.61 1368.26C1164.61 1369.61 1165.25 1370.68 1166.54 1371.48C1167.85 1372.27 1169.65 1372.67 1171.93 1372.67ZM1199.35 1364V1338.77H1202.88L1203.24 1343.34H1203.4C1204.26 1341.75 1205.32 1340.48 1206.57 1339.55C1207.81 1338.61 1209.14 1338.15 1210.56 1338.15C1211.57 1338.15 1212.47 1338.32 1213.26 1338.67L1212.43 1342.4C1212.02 1342.27 1211.64 1342.16 1211.29 1342.09C1210.94 1342.02 1210.51 1341.99 1209.99 1341.99C1208.92 1341.99 1207.79 1342.42 1206.62 1343.29C1205.47 1344.15 1204.47 1345.66 1203.61 1347.8V1364H1199.35ZM1227.07 1364.62C1224.82 1364.62 1222.77 1364.1 1220.94 1363.07C1219.11 1361.99 1217.65 1360.47 1216.58 1358.5C1215.51 1356.52 1214.97 1354.17 1214.97 1351.44C1214.97 1348.67 1215.51 1346.3 1216.58 1344.33C1217.69 1342.35 1219.11 1340.83 1220.84 1339.76C1222.57 1338.68 1224.38 1338.15 1226.29 1338.15C1229.51 1338.15 1231.98 1339.22 1233.71 1341.37C1235.48 1343.51 1236.36 1346.38 1236.36 1349.98C1236.36 1350.43 1236.34 1350.88 1236.31 1351.33C1236.31 1351.75 1236.27 1352.11 1236.2 1352.42H1219.18C1219.35 1355.09 1220.18 1357.22 1221.67 1358.81C1223.19 1360.4 1225.16 1361.2 1227.59 1361.2C1228.8 1361.2 1229.9 1361.02 1230.91 1360.68C1231.95 1360.3 1232.93 1359.81 1233.87 1359.22L1235.37 1362.03C1234.3 1362.72 1233.07 1363.33 1231.69 1363.84C1230.34 1364.36 1228.8 1364.62 1227.07 1364.62ZM1219.12 1349.36H1232.62C1232.62 1346.8 1232.07 1344.86 1230.96 1343.55C1229.89 1342.2 1228.36 1341.52 1226.39 1341.52C1224.63 1341.52 1223.03 1342.21 1221.62 1343.6C1220.23 1344.95 1219.4 1346.87 1219.12 1349.36ZM1247.11 1364.62C1245.52 1364.62 1244.36 1364.14 1243.63 1363.17C1242.94 1362.17 1242.59 1360.75 1242.59 1358.91V1327.04H1246.85V1359.22C1246.85 1359.88 1246.97 1360.37 1247.21 1360.68C1247.46 1360.95 1247.73 1361.09 1248.04 1361.09C1248.18 1361.09 1248.3 1361.09 1248.41 1361.09C1248.55 1361.06 1248.74 1361.02 1248.98 1360.99L1249.55 1364.21C1249.27 1364.35 1248.94 1364.45 1248.56 1364.52C1248.18 1364.59 1247.7 1364.62 1247.11 1364.62ZM1266.05 1364.62C1263.8 1364.62 1261.76 1364.1 1259.93 1363.07C1258.09 1361.99 1256.64 1360.47 1255.56 1358.5C1254.49 1356.52 1253.96 1354.17 1253.96 1351.44C1253.96 1348.67 1254.49 1346.3 1255.56 1344.33C1256.67 1342.35 1258.09 1340.83 1259.82 1339.76C1261.55 1338.68 1263.37 1338.15 1265.27 1338.15C1268.49 1338.15 1270.97 1339.22 1272.7 1341.37C1274.46 1343.51 1275.34 1346.38 1275.34 1349.98C1275.34 1350.43 1275.33 1350.88 1275.29 1351.33C1275.29 1351.75 1275.26 1352.11 1275.19 1352.42H1258.16C1258.33 1355.09 1259.16 1357.22 1260.65 1358.81C1262.17 1360.4 1264.15 1361.2 1266.57 1361.2C1267.78 1361.2 1268.89 1361.02 1269.89 1360.68C1270.93 1360.3 1271.92 1359.81 1272.85 1359.22L1274.36 1362.03C1273.28 1362.72 1272.06 1363.33 1270.67 1363.84C1269.32 1364.36 1267.78 1364.62 1266.05 1364.62ZM1258.11 1349.36H1271.61C1271.61 1346.8 1271.05 1344.86 1269.94 1343.55C1268.87 1342.2 1267.35 1341.52 1265.38 1341.52C1263.61 1341.52 1262.02 1342.21 1260.6 1343.6C1259.22 1344.95 1258.39 1346.87 1258.11 1349.36ZM1286.68 1364.62C1284.57 1364.62 1282.81 1364 1281.39 1362.75C1280 1361.47 1279.31 1359.71 1279.31 1357.46C1279.31 1354.69 1280.54 1352.58 1283 1351.13C1285.49 1349.64 1289.42 1348.6 1294.78 1348.01C1294.78 1346.94 1294.62 1345.92 1294.31 1344.95C1294.04 1343.98 1293.52 1343.2 1292.76 1342.61C1292.03 1341.99 1290.97 1341.68 1289.59 1341.68C1288.14 1341.68 1286.77 1341.95 1285.49 1342.51C1284.21 1343.06 1283.07 1343.68 1282.06 1344.38L1280.4 1341.42C1281.58 1340.66 1283.01 1339.93 1284.71 1339.24C1286.44 1338.51 1288.31 1338.15 1290.32 1338.15C1293.4 1338.15 1295.63 1339.1 1297.01 1341C1298.4 1342.87 1299.09 1345.38 1299.09 1348.53V1364H1295.56L1295.2 1360.99H1295.04C1293.86 1361.96 1292.57 1362.81 1291.15 1363.53C1289.76 1364.26 1288.27 1364.62 1286.68 1364.62ZM1287.93 1361.2C1289.14 1361.2 1290.28 1360.9 1291.35 1360.31C1292.43 1359.73 1293.57 1358.9 1294.78 1357.82V1350.81C1290.59 1351.33 1287.65 1352.11 1285.96 1353.15C1284.29 1354.19 1283.46 1355.52 1283.46 1357.15C1283.46 1358.57 1283.9 1359.6 1284.76 1360.26C1285.63 1360.89 1286.68 1361.2 1287.93 1361.2ZM1313.62 1364.62C1311.82 1364.62 1310.11 1364.29 1308.48 1363.64C1306.85 1362.94 1305.44 1362.11 1304.22 1361.14L1306.35 1358.29C1307.46 1359.15 1308.6 1359.88 1309.78 1360.47C1310.96 1361.02 1312.29 1361.3 1313.78 1361.3C1315.44 1361.3 1316.68 1360.92 1317.51 1360.16C1318.34 1359.36 1318.76 1358.43 1318.76 1357.36C1318.76 1356.49 1318.47 1355.76 1317.88 1355.17C1317.32 1354.59 1316.6 1354.1 1315.7 1353.72C1314.83 1353.31 1313.93 1352.93 1313 1352.58C1311.82 1352.13 1310.66 1351.63 1309.52 1351.07C1308.38 1350.49 1307.44 1349.74 1306.72 1348.84C1305.99 1347.91 1305.63 1346.73 1305.63 1345.31C1305.63 1343.27 1306.39 1341.57 1307.91 1340.22C1309.47 1338.84 1311.61 1338.15 1314.35 1338.15C1315.9 1338.15 1317.36 1338.42 1318.71 1338.98C1320.06 1339.53 1321.22 1340.21 1322.19 1341L1320.11 1343.7C1319.24 1343.04 1318.34 1342.51 1317.41 1342.09C1316.48 1341.68 1315.45 1341.47 1314.35 1341.47C1312.75 1341.47 1311.58 1341.83 1310.82 1342.56C1310.09 1343.29 1309.73 1344.13 1309.73 1345.1C1309.73 1345.9 1309.99 1346.56 1310.51 1347.08C1311.02 1347.56 1311.7 1347.99 1312.53 1348.37C1313.36 1348.72 1314.24 1349.08 1315.18 1349.46C1316.39 1349.91 1317.58 1350.43 1318.76 1351.02C1319.94 1351.58 1320.9 1352.34 1321.67 1353.31C1322.46 1354.24 1322.86 1355.5 1322.86 1357.1C1322.86 1358.45 1322.5 1359.69 1321.77 1360.83C1321.08 1361.98 1320.04 1362.89 1318.66 1363.58C1317.31 1364.28 1315.63 1364.62 1313.62 1364.62ZM1339 1364.62C1336.75 1364.62 1334.71 1364.1 1332.88 1363.07C1331.04 1361.99 1329.59 1360.47 1328.52 1358.5C1327.44 1356.52 1326.91 1354.17 1326.91 1351.44C1326.91 1348.67 1327.44 1346.3 1328.52 1344.33C1329.62 1342.35 1331.04 1340.83 1332.77 1339.76C1334.5 1338.68 1336.32 1338.15 1338.22 1338.15C1341.44 1338.15 1343.92 1339.22 1345.65 1341.37C1347.41 1343.51 1348.29 1346.38 1348.29 1349.98C1348.29 1350.43 1348.28 1350.88 1348.24 1351.33C1348.24 1351.75 1348.21 1352.11 1348.14 1352.42H1331.11C1331.28 1355.09 1332.12 1357.22 1333.6 1358.81C1335.13 1360.4 1337.1 1361.2 1339.52 1361.2C1340.73 1361.2 1341.84 1361.02 1342.84 1360.68C1343.88 1360.3 1344.87 1359.81 1345.8 1359.22L1347.31 1362.03C1346.24 1362.72 1345.01 1363.33 1343.62 1363.84C1342.27 1364.36 1340.73 1364.62 1339 1364.62ZM1331.06 1349.36H1344.56C1344.56 1346.8 1344 1344.86 1342.9 1343.55C1341.82 1342.2 1340.3 1341.52 1338.33 1341.52C1336.56 1341.52 1334.97 1342.21 1333.55 1343.6C1332.17 1344.95 1331.34 1346.87 1331.06 1349.36Z" fill="#C9C9C9"/>
<path d="M1010.73 50.65L1009.27 55.3775H1018.58L1017.11 50.65C1016.55 48.9165 1016.01 47.1989 1015.51 45.497C1015 43.7635 1014.5 41.9986 1013.99 40.2021H1013.8C1013.33 41.9986 1012.84 43.7635 1012.34 45.497C1011.83 47.1989 1011.3 48.9165 1010.73 50.65ZM1001.28 68L1011.77 36.9874H1016.22L1026.71 68H1022.5L1019.57 58.5449H1008.27L1005.29 68H1001.28ZM1030.73 68V45.0242H1033.94L1034.27 49.1844H1034.41C1035.2 47.7347 1036.16 46.5843 1037.3 45.7333C1038.43 44.8824 1039.65 44.4569 1040.94 44.4569C1041.85 44.4569 1042.67 44.6145 1043.4 44.9297L1042.64 48.3335C1042.26 48.2074 1041.91 48.1129 1041.6 48.0498C1041.28 47.9868 1040.89 47.9553 1040.42 47.9553C1039.44 47.9553 1038.42 48.3492 1037.34 49.1372C1036.3 49.9251 1035.39 51.2961 1034.6 53.2501V68H1030.73ZM1055.73 68.5673C1053.71 68.5673 1051.89 68.0946 1050.25 67.149C1048.61 66.2035 1047.32 64.8326 1046.37 63.0361C1045.42 61.2396 1044.95 59.0807 1044.95 56.5594C1044.95 53.975 1045.46 51.7846 1046.46 49.9881C1047.5 48.1917 1048.86 46.8207 1050.53 45.8752C1052.23 44.9297 1054.06 44.4569 1056.01 44.4569C1057.53 44.4569 1058.82 44.7248 1059.89 45.2606C1060.99 45.7964 1061.94 46.4267 1062.73 47.1516L1060.74 49.7045C1060.08 49.1056 1059.37 48.6171 1058.61 48.2389C1057.89 47.8607 1057.07 47.6716 1056.16 47.6716C1054.77 47.6716 1053.52 48.0498 1052.42 48.8062C1051.35 49.5311 1050.5 50.5712 1049.87 51.9264C1049.27 53.2501 1048.97 54.7944 1048.97 56.5594C1048.97 59.1753 1049.62 61.3027 1050.91 62.9415C1052.23 64.5489 1053.95 65.3526 1056.06 65.3526C1057.13 65.3526 1058.13 65.132 1059.04 64.6907C1059.95 64.218 1060.76 63.6664 1061.45 63.0361L1063.15 65.6362C1062.11 66.5502 1060.96 67.2751 1059.7 67.8109C1058.44 68.3152 1057.12 68.5673 1055.73 68.5673ZM1068.21 68V34.34H1072.09V43.5114L1071.95 48.2389C1073.05 47.1989 1074.2 46.3164 1075.4 45.5915C1076.63 44.8351 1078.03 44.4569 1079.61 44.4569C1082.03 44.4569 1083.8 45.2291 1084.9 46.7734C1086.04 48.2862 1086.6 50.5081 1086.6 53.4392V68H1082.73V53.9592C1082.73 51.8161 1082.38 50.256 1081.69 49.279C1080.99 48.302 1079.89 47.8134 1078.38 47.8134C1077.21 47.8134 1076.16 48.1129 1075.21 48.7117C1074.3 49.3105 1073.26 50.193 1072.09 51.3591V68H1068.21ZM1103.77 68V36.9874H1107.7V64.6435H1121.26V68H1103.77ZM1126.38 68V45.0242H1130.26V68H1126.38ZM1128.37 40.2967C1127.61 40.2967 1126.98 40.0761 1126.48 39.6348C1126.01 39.1621 1125.77 38.5317 1125.77 37.7438C1125.77 36.9874 1126.01 36.3728 1126.48 35.9001C1126.98 35.4273 1127.61 35.1909 1128.37 35.1909C1129.13 35.1909 1129.74 35.4273 1130.21 35.9001C1130.72 36.3728 1130.97 36.9874 1130.97 37.7438C1130.97 38.5317 1130.72 39.1621 1130.21 39.6348C1129.74 40.0761 1129.13 40.2967 1128.37 40.2967ZM1138.02 68V45.0242H1141.23L1141.56 48.3335H1141.71C1142.81 47.2304 1143.98 46.3164 1145.2 45.5915C1146.43 44.8351 1147.84 44.4569 1149.41 44.4569C1151.84 44.4569 1153.6 45.2291 1154.71 46.7734C1155.84 48.2862 1156.41 50.5081 1156.41 53.4392V68H1152.53V53.9592C1152.53 51.8161 1152.19 50.256 1151.49 49.279C1150.8 48.302 1149.7 47.8134 1148.18 47.8134C1147.02 47.8134 1145.96 48.1129 1145.02 48.7117C1144.1 49.3105 1143.06 50.193 1141.9 51.3591V68H1138.02ZM1170.59 68.5673C1168.16 68.5673 1166.38 67.8109 1165.24 66.2981C1164.11 64.7538 1163.54 62.5161 1163.54 59.585V45.0242H1167.47V59.065C1167.47 61.2081 1167.8 62.7682 1168.46 63.7452C1169.15 64.7222 1170.25 65.2108 1171.77 65.2108C1172.97 65.2108 1174.02 64.9113 1174.94 64.3125C1175.88 63.6822 1176.89 62.6894 1177.96 61.3342V45.0242H1181.84V68H1178.62L1178.29 64.4071H1178.15C1177.08 65.6678 1175.94 66.6763 1174.75 67.4327C1173.55 68.1891 1172.16 68.5673 1170.59 68.5673ZM1186.37 68L1193.89 55.9921L1186.94 45.0242H1191.15L1194.22 50.0827C1194.57 50.6815 1194.93 51.3118 1195.31 51.9737C1195.69 52.6355 1196.08 53.2816 1196.49 53.912H1196.68C1197.03 53.2816 1197.37 52.6355 1197.72 51.9737C1198.07 51.3118 1198.41 50.6815 1198.76 50.0827L1201.55 45.0242H1205.61L1198.66 56.4176L1206.13 68H1201.93L1198.57 62.6579C1198.16 61.9645 1197.75 61.2711 1197.34 60.5778C1196.93 59.8844 1196.51 59.2068 1196.06 58.5449H1195.88C1195.47 59.2068 1195.07 59.8844 1194.69 60.5778C1194.32 61.2396 1193.94 61.933 1193.56 62.6579L1190.44 68H1186.37ZM1228 68.5673C1225.13 68.5673 1222.83 67.5272 1221.1 65.4471C1219.36 63.3355 1218.5 60.3729 1218.5 56.5594C1218.5 54.0695 1218.95 51.9264 1219.87 50.1299C1220.81 48.302 1222.04 46.8995 1223.55 45.9224C1225.1 44.9454 1226.74 44.4569 1228.47 44.4569C1229.79 44.4569 1230.95 44.6933 1231.92 45.166C1232.9 45.6388 1233.89 46.2849 1234.9 47.1043L1234.71 43.1805V34.34H1238.64V68H1235.42L1235.09 65.3053H1234.95C1234.07 66.1878 1233.03 66.9599 1231.83 67.6218C1230.63 68.2521 1229.35 68.5673 1228 68.5673ZM1228.85 65.3053C1230.87 65.3053 1232.82 64.2495 1234.71 62.1379V50.1299C1233.73 49.2475 1232.79 48.6329 1231.87 48.2862C1230.99 47.908 1230.08 47.7189 1229.13 47.7189C1227.9 47.7189 1226.78 48.0971 1225.78 48.8535C1224.8 49.5784 1224.01 50.6027 1223.41 51.9264C1222.81 53.2186 1222.51 54.7472 1222.51 56.5121C1222.51 59.2541 1223.07 61.413 1224.17 62.9888C1225.27 64.5331 1226.83 65.3053 1228.85 65.3053ZM1255.69 68.5673C1253.64 68.5673 1251.78 68.0946 1250.11 67.149C1248.44 66.172 1247.11 64.7853 1246.14 62.9888C1245.16 61.1924 1244.67 59.0492 1244.67 56.5594C1244.67 54.038 1245.16 51.8791 1246.14 50.0827C1247.15 48.2862 1248.44 46.8995 1250.01 45.9224C1251.59 44.9454 1253.24 44.4569 1254.98 44.4569C1257.91 44.4569 1260.16 45.4339 1261.74 47.388C1263.35 49.342 1264.15 51.9579 1264.15 55.2357C1264.15 55.6454 1264.13 56.0551 1264.1 56.4648C1264.1 56.843 1264.07 57.174 1264.01 57.4576H1248.5C1248.66 59.8844 1249.41 61.8227 1250.77 63.2725C1252.16 64.7222 1253.95 65.4471 1256.16 65.4471C1257.26 65.4471 1258.27 65.2895 1259.19 64.9744C1260.13 64.6277 1261.03 64.1865 1261.88 63.6507L1263.25 66.2035C1262.27 66.8339 1261.15 67.3854 1259.89 67.8582C1258.67 68.3309 1257.26 68.5673 1255.69 68.5673ZM1248.45 54.6684H1260.75C1260.75 52.3361 1260.24 50.5712 1259.23 49.3735C1258.26 48.1444 1256.87 47.5298 1255.07 47.5298C1253.46 47.5298 1252.02 48.1601 1250.72 49.4208C1249.46 50.65 1248.71 52.3992 1248.45 54.6684ZM1275.02 68L1266.75 45.0242H1270.77L1275.12 58.0722C1275.46 59.2068 1275.81 60.3414 1276.16 61.476C1276.53 62.6106 1276.9 63.7295 1277.24 64.8326H1277.43C1277.78 63.7295 1278.13 62.6106 1278.47 61.476C1278.85 60.3414 1279.2 59.2068 1279.51 58.0722L1283.86 45.0242H1287.69L1279.56 68H1275.02ZM1308.82 68.5673C1306.36 68.5673 1304.65 67.8582 1303.67 66.4399C1302.72 65.0217 1302.25 63.1779 1302.25 60.9087V48.1916H1298.85V45.2606L1302.44 45.0242L1302.91 38.5948H1306.18V45.0242H1312.37V48.1916H1306.18V60.956C1306.18 62.3742 1306.43 63.4773 1306.93 64.2653C1307.47 65.0217 1308.4 65.3999 1309.72 65.3999C1310.13 65.3999 1310.57 65.3368 1311.04 65.2108C1311.52 65.0532 1311.94 64.9113 1312.32 64.7853L1313.08 67.7163C1312.45 67.937 1311.75 68.1261 1311 68.2837C1310.27 68.4728 1309.55 68.5673 1308.82 68.5673ZM1326.23 68.5673C1324.18 68.5673 1322.32 68.0946 1320.65 67.149C1318.98 66.172 1317.66 64.7853 1316.68 62.9888C1315.7 61.1924 1315.22 59.0492 1315.22 56.5594C1315.22 54.038 1315.7 51.8791 1316.68 50.0827C1317.69 48.2862 1318.98 46.8995 1320.56 45.9224C1322.13 44.9454 1323.79 44.4569 1325.52 44.4569C1328.45 44.4569 1330.71 45.4339 1332.28 47.388C1333.89 49.342 1334.69 51.9579 1334.69 55.2357C1334.69 55.6454 1334.68 56.0551 1334.65 56.4648C1334.65 56.843 1334.61 57.174 1334.55 57.4576H1319.04C1319.2 59.8844 1319.96 61.8227 1321.31 63.2725C1322.7 64.7222 1324.5 65.4471 1326.7 65.4471C1327.81 65.4471 1328.81 65.2895 1329.73 64.9744C1330.67 64.6277 1331.57 64.1865 1332.42 63.6507L1333.79 66.2035C1332.82 66.8339 1331.7 67.3854 1330.44 67.8582C1329.21 68.3309 1327.81 68.5673 1326.23 68.5673ZM1319 54.6684H1331.29C1331.29 52.3361 1330.78 50.5712 1329.78 49.3735C1328.8 48.1444 1327.41 47.5298 1325.62 47.5298C1324.01 47.5298 1322.56 48.1601 1321.27 49.4208C1320.01 50.65 1319.25 52.3992 1319 54.6684ZM1345.02 68.5673C1343.1 68.5673 1341.49 68 1340.2 66.8654C1338.94 65.6993 1338.31 64.0919 1338.31 62.0433C1338.31 59.522 1339.42 57.5994 1341.66 56.2757C1343.93 54.9205 1347.51 53.975 1352.39 53.4392C1352.39 52.4622 1352.25 51.5324 1351.97 50.65C1351.72 49.7675 1351.24 49.0584 1350.55 48.5226C1349.89 47.9553 1348.93 47.6716 1347.67 47.6716C1346.34 47.6716 1345.1 47.9238 1343.93 48.428C1342.77 48.9323 1341.73 49.4996 1340.81 50.1299L1339.3 47.4352C1340.37 46.7419 1341.68 46.08 1343.22 45.4497C1344.8 44.7878 1346.5 44.4569 1348.33 44.4569C1351.13 44.4569 1353.17 45.3236 1354.43 47.057C1355.69 48.759 1356.32 51.0439 1356.32 53.912V68H1353.1L1352.77 65.258H1352.63C1351.56 66.1405 1350.38 66.9127 1349.08 67.5745C1347.82 68.2364 1346.47 68.5673 1345.02 68.5673ZM1346.15 65.4471C1347.26 65.4471 1348.3 65.1792 1349.27 64.6435C1350.25 64.1077 1351.29 63.3513 1352.39 62.3742V55.9921C1348.58 56.4648 1345.9 57.174 1344.36 58.1195C1342.84 59.065 1342.09 60.2784 1342.09 61.7597C1342.09 63.0519 1342.48 63.9974 1343.27 64.5962C1344.06 65.1635 1345.02 65.4471 1346.15 65.4471ZM1363.55 68V45.0242H1366.76L1367.09 48.3335H1367.23C1368.24 47.2304 1369.35 46.3164 1370.54 45.5915C1371.74 44.8351 1373.02 44.4569 1374.37 44.4569C1376.14 44.4569 1377.51 44.8509 1378.49 45.6388C1379.49 46.3952 1380.23 47.4668 1380.71 48.8535C1381.9 47.5613 1383.12 46.5055 1384.35 45.6861C1385.58 44.8666 1386.88 44.4569 1388.27 44.4569C1390.63 44.4569 1392.38 45.2291 1393.52 46.7734C1394.68 48.2862 1395.27 50.5081 1395.27 53.4392V68H1391.39V53.9592C1391.39 51.8161 1391.04 50.256 1390.35 49.279C1389.66 48.302 1388.59 47.8134 1387.14 47.8134C1385.43 47.8134 1383.51 48.9953 1381.37 51.3591V68H1377.49V53.9592C1377.49 51.8161 1377.15 50.256 1376.45 49.279C1375.76 48.302 1374.67 47.8134 1373.19 47.8134C1371.49 47.8134 1369.57 48.9953 1367.42 51.3591V68H1363.55Z" fill="white"/>
<defs>
<filter id="filter0_d_0_1" x="25" y="468.523" width="452" height="452" filterUnits="userSpaceOnUse" color-interpolation-filters="sRGB">
<feFlood flood-opacity="0" result="BackgroundImageFix"/>
<feColorMatrix in="SourceAlpha" type="matrix" values="0 0 0 0 0 0 0 0 0 0 0 0 0 0 0 0 0 0 127 0" result="hardAlpha"/>
<feOffset dy="10.5235"/>
<feGaussianBlur stdDeviation="15"/>
<feComposite in2="hardAlpha" operator="out"/>
<feColorMatrix type="matrix" values="0 0 0 0 1 0 0 0 0 1 0 0 0 0 1 0 0 0 0.5 0"/>
<feBlend mode="normal" in2="BackgroundImageFix" result="effect1_dropShadow_0_1"/>
<feBlend mode="normal" in="SourceGraphic" in2="effect1_dropShadow_0_1" result="shape"/>
</filter>
</defs>
</svg>
