<svg width="1500" height="1171" viewBox="0 0 1500 1171" fill="none" xmlns="http://www.w3.org/2000/svg">
<rect width="1500" height="1171" fill="#1E1E1E"/>
<rect width="1500" height="1170" fill="#21283A"/>
<path d="M3.05176e-05 707.145H1499V1170.15H3.05176e-05V707.145Z" fill="white"/>
<rect x="1.00003" y="653.145" width="1499" height="54" fill="#1793D1" fill-opacity="0.85"/>
<line x1="60.5" y1="-2.37838e-09" x2="60.5" y2="1170" stroke="black"/>
<line x1="1440.5" y1="-2.37838e-09" x2="1440.5" y2="1170" stroke="black"/>
<path fill-rule="evenodd" clip-rule="evenodd" d="M124.787 112.11C124.798 105.763 123.496 100.496 122.786 98.4593L111.466 96.3623C111.424 96.3572 114.25 106.799 114.083 111.397C113.81 119.012 111.173 119.713 107.614 119.58C107.406 119.709 110.83 117.615 110.945 111.027C111.088 102.716 108.002 90.9874 95.4574 91.0034C81.3465 90.7794 77.1955 101.544 77.1193 108.876C77.2393 115.467 79.6154 118.558 80.8884 120.251C83.2139 122.475 85.5524 125.02 88.3579 127.447C84.1858 125.15 81.3013 123.16 79.0929 121.087H77.229L78.9148 131.106L106.148 131.175C110.002 131.073 124.752 133.386 124.787 112.11ZM101.077 110.671C101.02 114.824 98.9728 119.586 94.0457 119.593C89.5642 119.615 87.1549 113.979 87.1929 110.315C87.231 106.648 90.0743 101.784 94.4432 101.762C98.3485 101.833 101.177 106.35 101.077 110.671Z" fill="#4D4D4D"/>
<path fill-rule="evenodd" clip-rule="evenodd" d="M122.271 137.781L77.1732 137.713L79.4219 149.385L104.992 149.404C108.799 149.407 113.248 154.845 113.177 161.668C115.797 163.116 122.493 165.838 124.016 166.502C124.053 151.258 119.635 151.064 117.462 148.413C121.608 148.385 124.096 148.404 124.096 148.404L122.271 137.781Z" fill="#4D4D4D"/>
<path fill-rule="evenodd" clip-rule="evenodd" d="M116.35 203.466C116.403 203.353 123.339 197.379 123.394 185.367C123.581 174.117 119.219 161.497 100.354 161.295C83.7674 161.394 77.2854 173.418 77.159 185.431C77.0254 198.287 85.1979 203.403 85.4004 203.709C86.7302 202.175 92.4234 196.43 92.4234 196.43C92.4234 196.43 87.3135 192.841 87.2486 185.879C87.1823 178.914 92.6314 172.86 100.234 172.775C107.838 172.685 111.957 178.34 112.29 185.931C112.291 192.503 108.047 196.294 108.047 196.294L116.35 203.466Z" fill="#4D4D4D"/>
<path fill-rule="evenodd" clip-rule="evenodd" d="M138.054 218.178L135.464 207.158L76.7218 207.241L78.6817 218.095L106.326 218.219C109.225 218.242 113.676 222.412 113.535 229.375C113.466 236.033 109.098 237.521 108.546 237.503L76.5436 237.694L78.435 248.398L112.37 248.44C115.635 248.51 122.532 241.287 122.581 229.677C122.572 224.159 121.323 221.103 120.402 219.548C118.347 216.888 116.377 213.847 113.864 210.859C117.413 213.621 119.866 215.94 121.69 218.205L138.054 218.178Z" fill="#4D4D4D"/>
<path fill-rule="evenodd" clip-rule="evenodd" d="M136.53 257.737L137.774 262.707L78.552 262.942L77.6921 257.893L136.53 257.737Z" fill="#1793D1"/>
<path fill-rule="evenodd" clip-rule="evenodd" d="M118.855 271.251L120.794 275.606L78.3299 275.644L77.4604 271.437L118.855 271.251ZM134.168 270.215L137.035 273.728L133.788 276.645L130.846 273.131L134.168 270.215Z" fill="#1793D1"/>
<path fill-rule="evenodd" clip-rule="evenodd" d="M119.629 283.797L120.643 288.768L111.765 288.791C111.384 288.792 121.683 291.521 121.454 304.683C121.382 317.462 111.489 319.552 109.271 319.483L78.0534 319.641L77.1078 315.284L107.943 315.259C108.843 315.309 116.458 313.267 116.486 304.237C116.512 295.208 109.928 288.952 105.721 288.963L78.5574 289.035L77.2384 283.986L119.629 283.797Z" fill="#1793D1"/>
<path fill-rule="evenodd" clip-rule="evenodd" d="M77.8288 363.014L76.8146 358.043L85.6919 358.019C86.0734 358.019 75.7747 355.288 76.0037 342.128C76.0748 329.349 85.9682 327.258 88.1862 327.328L119.404 327.17L120.47 332.451L89.6348 332.533C88.7928 332.535 80.9992 333.543 80.9714 342.574C80.9451 351.603 86.4084 357.929 94.6355 357.974L118.964 357.909L120.219 362.825L77.8288 363.014Z" fill="#1793D1"/>
<path fill-rule="evenodd" clip-rule="evenodd" d="M119.979 372.755L117.252 369.27L99.7636 382.633L79.5596 368.38L76.8156 372.078L95.5784 385.476L76.3709 399.304L79.0986 402.724L99.6354 387.905L116.243 399.727L119.317 396.092L103.949 385.322L119.979 372.755Z" fill="#1793D1"/>
<path d="M80.4338 409.233H84.0982V407.864H84.5885V411.157H84.0982V409.783H80.4338V409.233Z" fill="#1793D1"/>
<path d="M80.4337 411.73H84.5884V412.557L81.6467 413.541C81.3727 413.632 81.1677 413.698 81.0317 413.739C81.1828 413.787 81.4048 413.86 81.6977 413.96L84.5884 414.955V415.695H80.4337V415.165H83.9111L80.4337 413.957V413.462L83.9706 412.26H80.4337V411.73Z" fill="#1793D1"/>
<path fill-rule="evenodd" clip-rule="evenodd" d="M144.531 44.2588C137.052 41.208 132.16 39.3679 124.904 35.9712C122.697 38.0538 120.127 40.6101 117.224 44.7615C119.06 40.2984 120.904 37.2539 122.817 34.9788C113.748 30.6317 100.829 23.821 76 10C82.2701 20.8629 86.1357 29.2836 87.6108 37.1313C89.0598 36.7943 90.6273 36.6027 92.2628 36.6157L92.6107 36.6286C99.569 36.801 104.92 40.4213 104.557 44.71C104.193 48.9986 98.2546 52.3321 91.2963 52.1598C89.987 52.1274 88.7274 51.9796 87.5592 51.7216C86.041 59.484 82.1853 67.8147 76 78.5306C79.8894 76.4176 83.3954 74.5316 86.7345 72.7306C88.9329 69.8936 91.7942 66.9345 94.8917 60.8985C93.8138 65.0473 92.5703 68.0178 91.1803 70.3332C125.268 52.0213 129.797 50.5384 144.531 44.2588Z" fill="#1793D1"/>
</svg>
