<svg width="535" height="373" viewBox="0 0 535 373" fill="none" xmlns="http://www.w3.org/2000/svg">
<rect width="535" height="373" fill="#1E1E1E"/>
<g clip-path="url(#clip0_0_1)">
<rect x="-1" y="-5" width="268" height="377.88" fill="#D9D9D9"/>
<rect x="-1" y="-5" width="268" height="378" fill="#21283A"/>
<path d="M169.629 6.83252L169.277 7.96807H171.514L171.162 6.83252C171.025 6.41615 170.897 6.00357 170.775 5.59477C170.654 5.1784 170.533 4.75446 170.412 4.32295H170.367C170.253 4.75446 170.136 5.1784 170.015 5.59477C169.894 6.00357 169.765 6.41615 169.629 6.83252ZM167.357 11L169.878 3.55077H170.946L173.467 11H172.456L171.752 8.72889H169.038L168.323 11H167.357ZM174.431 11V5.48121H175.203L175.283 6.4805H175.317C175.506 6.13226 175.737 5.85594 176.01 5.65154C176.282 5.44714 176.574 5.34494 176.884 5.34494C177.104 5.34494 177.3 5.3828 177.475 5.4585L177.293 6.2761C177.202 6.24582 177.119 6.22311 177.043 6.20796C176.967 6.19282 176.873 6.18525 176.759 6.18525C176.525 6.18525 176.278 6.27988 176.021 6.46914C175.771 6.6584 175.552 6.98771 175.362 7.45707V11H174.431ZM180.437 11.1363C179.953 11.1363 179.514 11.0227 179.12 10.7956C178.727 10.5685 178.416 10.2392 178.189 9.80767C177.962 9.37616 177.848 8.85759 177.848 8.25196C177.848 7.63119 177.969 7.10505 178.212 6.67354C178.462 6.24203 178.787 5.91272 179.188 5.68561C179.597 5.4585 180.036 5.34494 180.506 5.34494C180.869 5.34494 181.179 5.40929 181.437 5.53799C181.702 5.66668 181.929 5.81809 182.118 5.99221L181.641 6.60541C181.482 6.46157 181.312 6.34423 181.13 6.25339C180.956 6.16254 180.759 6.11712 180.54 6.11712C180.207 6.11712 179.907 6.20796 179.643 6.38965C179.385 6.56377 179.181 6.81359 179.029 7.13912C178.885 7.45707 178.814 7.82802 178.814 8.25196C178.814 8.8803 178.969 9.3913 179.279 9.78496C179.597 10.171 180.01 10.3641 180.517 10.3641C180.774 10.3641 181.013 10.3111 181.232 10.2051C181.452 10.0916 181.645 9.95908 181.811 9.80767L182.22 10.4322C181.97 10.6518 181.694 10.8259 181.391 10.9546C181.088 11.0757 180.771 11.1363 180.437 11.1363ZM183.436 11V2.91486H184.367V5.11783L184.333 6.25339C184.598 6.00356 184.874 5.79159 185.162 5.61748C185.457 5.43579 185.794 5.34494 186.173 5.34494C186.755 5.34494 187.179 5.53042 187.444 5.90137C187.717 6.26474 187.853 6.79845 187.853 7.5025V11H186.922V7.62741C186.922 7.11262 186.839 6.73789 186.672 6.50321C186.506 6.26853 186.241 6.15119 185.877 6.15119C185.597 6.15119 185.344 6.22311 185.117 6.36694C184.897 6.51078 184.647 6.72275 184.367 7.00285V11H183.436ZM191.977 11V3.55077H192.919V10.1938H196.178V11H191.977ZM197.409 11V5.48121H198.34V11H197.409ZM197.885 4.34566C197.704 4.34566 197.552 4.29266 197.431 4.18668C197.318 4.07312 197.261 3.92172 197.261 3.73246C197.261 3.55077 197.318 3.40315 197.431 3.28959C197.552 3.17604 197.704 3.11926 197.885 3.11926C198.067 3.11926 198.215 3.17604 198.328 3.28959C198.449 3.40315 198.51 3.55077 198.51 3.73246C198.51 3.92172 198.449 4.07312 198.328 4.18668C198.215 4.29266 198.067 4.34566 197.885 4.34566ZM200.203 11V5.48121H200.975L201.055 6.2761H201.089C201.354 6.01114 201.634 5.79159 201.929 5.61748C202.224 5.43579 202.561 5.34494 202.94 5.34494C203.523 5.34494 203.947 5.53042 204.212 5.90137C204.484 6.26474 204.62 6.79845 204.62 7.5025V11H203.689V7.62741C203.689 7.11262 203.606 6.73789 203.439 6.50321C203.273 6.26853 203.008 6.15119 202.644 6.15119C202.364 6.15119 202.111 6.22311 201.884 6.36694C201.664 6.51078 201.414 6.72275 201.134 7.00285V11H200.203ZM208.026 11.1363C207.443 11.1363 207.015 10.9546 206.742 10.5912C206.47 10.2203 206.334 9.68276 206.334 8.97871V5.48121H207.276V8.8538C207.276 9.36859 207.356 9.74332 207.515 9.978C207.681 10.2127 207.946 10.33 208.309 10.33C208.597 10.33 208.851 10.2581 209.07 10.1143C209.297 9.96286 209.54 9.7244 209.797 9.39887V5.48121H210.728V11H209.956L209.877 10.137H209.842C209.585 10.4398 209.313 10.682 209.025 10.8637C208.737 11.0454 208.404 11.1363 208.026 11.1363ZM211.818 11L213.623 8.11569L211.954 5.48121H212.965L213.703 6.69625C213.786 6.84009 213.873 6.9915 213.964 7.15047C214.055 7.30945 214.149 7.46464 214.248 7.61605H214.293C214.376 7.46464 214.46 7.30945 214.543 7.15047C214.626 6.9915 214.71 6.84009 214.793 6.69625L215.463 5.48121H216.439L214.77 8.21789L216.564 11H215.554L214.747 9.71682C214.649 9.55028 214.551 9.38373 214.452 9.21718C214.354 9.05063 214.252 8.88787 214.146 8.72889H214.1C214.002 8.88787 213.907 9.05063 213.816 9.21718C213.725 9.37616 213.635 9.54271 213.544 9.71682L212.794 11H211.818ZM221.816 11.1363C221.127 11.1363 220.575 10.8864 220.158 10.3868C219.742 9.87959 219.534 9.16797 219.534 8.25196C219.534 7.6539 219.643 7.13912 219.863 6.70761C220.09 6.26853 220.385 5.93165 220.749 5.69697C221.12 5.46228 221.513 5.34494 221.93 5.34494C222.248 5.34494 222.524 5.40172 222.759 5.51528C222.993 5.62883 223.232 5.78402 223.474 5.98085L223.429 5.03834V2.91486H224.371V11H223.599L223.519 10.3527H223.485C223.273 10.5647 223.024 10.7502 222.736 10.9092C222.448 11.0606 222.142 11.1363 221.816 11.1363ZM222.02 10.3527C222.505 10.3527 222.974 10.0991 223.429 9.59191V6.70761C223.194 6.49564 222.967 6.34802 222.747 6.26474C222.535 6.1739 222.316 6.12848 222.089 6.12848C221.793 6.12848 221.525 6.21932 221.282 6.40101C221.048 6.57513 220.858 6.82116 220.715 7.13912C220.571 7.4495 220.499 7.81667 220.499 8.24061C220.499 8.89923 220.631 9.4178 220.896 9.79631C221.161 10.1673 221.536 10.3527 222.02 10.3527ZM228.467 11.1363C227.975 11.1363 227.528 11.0227 227.127 10.7956C226.726 10.5609 226.408 10.2278 226.173 9.79631C225.938 9.3648 225.821 8.85002 225.821 8.25196C225.821 7.64633 225.938 7.12776 226.173 6.69625C226.415 6.26474 226.726 5.93165 227.104 5.69697C227.483 5.46228 227.88 5.34494 228.297 5.34494C229.001 5.34494 229.542 5.57963 229.92 6.04899C230.306 6.51835 230.5 7.14669 230.5 7.93401C230.5 8.03242 230.496 8.13084 230.488 8.22925C230.488 8.32009 230.481 8.39958 230.465 8.46772H226.741C226.779 9.05063 226.96 9.51621 227.286 9.86445C227.619 10.2127 228.051 10.3868 228.58 10.3868C228.845 10.3868 229.088 10.3489 229.307 10.2732C229.534 10.19 229.75 10.084 229.954 9.95529L230.284 10.5685C230.049 10.7199 229.78 10.8524 229.478 10.9659C229.182 11.0795 228.845 11.1363 228.467 11.1363ZM226.729 7.79774H229.682C229.682 7.23753 229.561 6.81359 229.319 6.52592C229.084 6.23068 228.751 6.08305 228.319 6.08305C227.933 6.08305 227.585 6.23446 227.275 6.53728C226.972 6.83252 226.79 7.25267 226.729 7.79774ZM233.111 11L231.124 5.48121H232.089L233.134 8.61534C233.217 8.88787 233.3 9.1604 233.384 9.43294C233.474 9.70547 233.561 9.97422 233.645 10.2392H233.69C233.773 9.97422 233.857 9.70547 233.94 9.43294C234.031 9.1604 234.114 8.88787 234.19 8.61534L235.235 5.48121H236.154L234.201 11H233.111ZM241.23 11.1363C240.64 11.1363 240.227 10.9659 239.992 10.6253C239.765 10.2846 239.652 9.84174 239.652 9.29667V6.24203H238.834V5.53799L239.697 5.48121L239.811 3.93686H240.594V5.48121H242.082V6.24203H240.594V9.30803C240.594 9.64869 240.655 9.91365 240.776 10.1029C240.905 10.2846 241.128 10.3754 241.446 10.3754C241.544 10.3754 241.65 10.3603 241.764 10.33C241.877 10.2922 241.98 10.2581 242.07 10.2278L242.252 10.9319C242.101 10.9849 241.934 11.0303 241.753 11.0681C241.578 11.1136 241.404 11.1363 241.23 11.1363ZM245.411 11.1363C244.919 11.1363 244.473 11.0227 244.072 10.7956C243.67 10.5609 243.352 10.2278 243.118 9.79631C242.883 9.3648 242.766 8.85002 242.766 8.25196C242.766 7.64633 242.883 7.12776 243.118 6.69625C243.36 6.26474 243.67 5.93165 244.049 5.69697C244.427 5.46228 244.825 5.34494 245.241 5.34494C245.945 5.34494 246.486 5.57963 246.865 6.04899C247.251 6.51835 247.444 7.14669 247.444 7.93401C247.444 8.03242 247.44 8.13084 247.433 8.22925C247.433 8.32009 247.425 8.39958 247.41 8.46772H243.685C243.723 9.05063 243.905 9.51621 244.23 9.86445C244.564 10.2127 244.995 10.3868 245.525 10.3868C245.79 10.3868 246.032 10.3489 246.252 10.2732C246.479 10.19 246.695 10.084 246.899 9.95529L247.228 10.5685C246.994 10.7199 246.725 10.8524 246.422 10.9659C246.127 11.0795 245.79 11.1363 245.411 11.1363ZM243.674 7.79774H246.627C246.627 7.23753 246.505 6.81359 246.263 6.52592C246.028 6.23068 245.695 6.08305 245.264 6.08305C244.878 6.08305 244.53 6.23446 244.219 6.53728C243.916 6.83252 243.735 7.25267 243.674 7.79774ZM249.924 11.1363C249.463 11.1363 249.077 11 248.766 10.7275C248.463 10.4474 248.312 10.0613 248.312 9.5692C248.312 8.96357 248.581 8.50178 249.118 8.18383C249.663 7.8583 250.522 7.63119 251.696 7.5025C251.696 7.26781 251.662 7.04449 251.594 6.83252C251.533 6.62055 251.42 6.45022 251.253 6.32152C251.094 6.18525 250.863 6.11712 250.56 6.11712C250.242 6.11712 249.943 6.17768 249.663 6.29881C249.383 6.41993 249.133 6.5562 248.914 6.70761L248.55 6.06034C248.808 5.89379 249.122 5.73482 249.493 5.58341C249.871 5.42443 250.28 5.34494 250.719 5.34494C251.393 5.34494 251.881 5.55313 252.184 5.9695C252.487 6.3783 252.638 6.92715 252.638 7.61605V11H251.866L251.787 10.3414H251.753C251.495 10.5533 251.211 10.7388 250.901 10.8978C250.598 11.0568 250.273 11.1363 249.924 11.1363ZM250.197 10.3868C250.462 10.3868 250.712 10.3225 250.946 10.1938C251.181 10.0651 251.431 9.88337 251.696 9.64869V8.11569C250.78 8.22925 250.136 8.39958 249.765 8.62669C249.402 8.8538 249.22 9.14526 249.22 9.50107C249.22 9.81145 249.315 10.0386 249.504 10.1824C249.694 10.3187 249.924 10.3868 250.197 10.3868ZM254.375 11V5.48121H255.147L255.226 6.2761H255.26C255.503 6.01114 255.768 5.79159 256.055 5.61748C256.343 5.43579 256.65 5.34494 256.975 5.34494C257.399 5.34494 257.728 5.43957 257.963 5.62883C258.205 5.81052 258.383 6.06791 258.497 6.40101C258.784 6.09062 259.076 5.83702 259.371 5.64019C259.666 5.44336 259.981 5.34494 260.314 5.34494C260.881 5.34494 261.302 5.53042 261.574 5.90137C261.854 6.26474 261.994 6.79845 261.994 7.5025V11H261.063V7.62741C261.063 7.11262 260.98 6.73789 260.813 6.50321C260.647 6.26853 260.389 6.15119 260.041 6.15119C259.632 6.15119 259.171 6.43508 258.656 7.00285V11H257.725V7.62741C257.725 7.11262 257.641 6.73789 257.475 6.50321C257.308 6.26853 257.047 6.15119 256.691 6.15119C256.282 6.15119 255.821 6.43508 255.306 7.00285V11H254.375Z" fill="white"/>
<g opacity="0.6">
<path fill-rule="evenodd" clip-rule="evenodd" d="M116.676 12.7733C114.352 7.49741 205.819 6.5362 210.924 45.3773C218.02 84.582 166.512 136.454 61.4888 185.67C12.0639 206.556 -10.5393 213.25 -11.568 209.524C-12.9287 206.368 146.92 143.483 168.182 60.7205C179.008 13.1221 119.304 18.7396 116.676 12.7733Z" fill="black"/>
<path fill-rule="evenodd" clip-rule="evenodd" d="M195.445 154.663C200.838 169.367 201.191 172.612 197.344 173.394C192.349 174.391 191.476 167.82 188.891 163.939C159.488 115.763 102.697 43.7687 50.1544 57.8474C-2.08927 71.8461 -6.63739 144.959 -10.748 205.403C-11.2324 214.808 -11.1118 228.937 -28.4567 233.913C-40.9256 237.29 -47.4356 226.547 -48.853 218.844C-73.2806 89.4262 -52.9963 -18.0956 14.2182 -38.354C71.3485 -55.5734 150.384 31.8209 195.445 154.663Z" fill="#DADADA" stroke="#383838" stroke-width="6.90185"/>
<path fill-rule="evenodd" clip-rule="evenodd" d="M195.445 154.663C200.838 169.367 201.191 172.612 197.344 173.394C192.349 174.391 191.476 167.82 188.891 163.939C159.488 115.763 102.697 43.7687 50.1544 57.8474C-2.08927 71.8461 -6.63739 144.959 -10.748 205.403C-11.2324 214.808 -11.1118 228.937 -28.4567 233.913C-40.9256 237.29 -47.4356 226.547 -48.853 218.844C-73.2806 89.4262 -52.9963 -18.0956 14.2182 -38.354C71.3485 -55.5734 150.384 31.8209 195.445 154.663Z" fill="url(#paint0_linear_0_1)" stroke="#003870" stroke-width="6.90185"/>
<path fill-rule="evenodd" clip-rule="evenodd" d="M17.4542 -28.0831C-11.4373 -19.3752 -31.3349 8.30898 -41.2981 51.781C-51.2612 95.253 -50.3342 153.198 -38.321 216.844C-37.9871 218.659 -36.6901 221.544 -35.468 222.706C-34.2459 223.867 -34.2229 224.304 -31.1981 223.485C-25.103 221.736 -24.396 220.121 -23.2394 217.292C-22.0829 214.462 -21.7064 209.903 -21.4457 204.842C-21.4641 204.775 -21.482 204.709 -21.4991 204.642C-19.4454 174.444 -17.4058 140.574 -8.69765 111.228C0.010543 81.8823 16.7804 55.6691 47.3211 47.4857C78.9185 39.0192 109.592 56.3443 135.252 79.7103C146.887 90.305 169.801 122.391 167.345 114.927C160.211 93.2486 124.936 38.0823 101.526 12.8702C85.9194 -3.93792 70.2 -16.2894 55.7478 -23.1684C41.2957 -30.0474 28.6941 -31.4709 17.4542 -28.0831Z" fill="url(#paint1_radial_0_1)"/>
<path fill-rule="evenodd" clip-rule="evenodd" d="M153.238 17.6092C161.905 21.2968 169.766 27.8966 172.964 36.9752C176.028 45.3696 175.896 54.8235 173.352 63.308C172.823 65.6738 169.084 70.0631 170.178 70.8898C178.236 66.8438 180.621 62.7404 186.688 56.7691C192.936 50.6205 200.445 60.8767 203.692 48.7615C206.338 38.8866 199.544 33.1751 192.762 29.1752C182.442 22.8876 170.487 19.8713 158.661 17.9643C156.858 17.7798 155.038 17.836 153.238 17.6092Z" fill="url(#paint2_linear_0_1)"/>
</g>
<path d="M0 200H267V373H0V200Z" fill="white"/>
<rect y="187" width="267" height="13" fill="#1793D1" fill-opacity="0.85"/>
<path d="M12.3731 267.146C11.6755 267.146 11.0549 266.984 10.5113 266.659C9.96779 266.327 9.54189 265.852 9.23361 265.236C8.92534 264.619 8.77121 263.877 8.77121 263.009C8.77121 262.149 8.9294 261.411 9.24578 260.794C9.56217 260.177 9.99618 259.703 10.5478 259.37C11.0995 259.038 11.7282 258.871 12.434 258.871C12.9856 258.871 13.448 258.977 13.8212 259.188C14.2025 259.391 14.5067 259.614 14.7338 259.857L14.1741 260.514C13.9713 260.303 13.736 260.125 13.4683 259.979C13.2006 259.833 12.8639 259.76 12.4583 259.76C11.9229 259.76 11.4564 259.894 11.0589 260.161C10.6614 260.421 10.3531 260.79 10.1341 261.269C9.92317 261.747 9.81771 262.319 9.81771 262.984C9.81771 263.99 10.0449 264.789 10.4992 265.382C10.9616 265.966 11.6187 266.258 12.4705 266.258C12.7544 266.258 13.0262 266.217 13.2858 266.136C13.5454 266.047 13.7522 265.929 13.9064 265.783V263.702H12.2149V262.863H14.8312V266.221C14.5797 266.489 14.239 266.712 13.809 266.89C13.3872 267.061 12.9085 267.146 12.3731 267.146ZM16.7439 267V259.017H17.7904L20.6744 264.031L21.5384 265.686H21.587C21.5627 265.28 21.5343 264.862 21.5019 264.432C21.4775 263.994 21.4654 263.564 21.4654 263.143V259.017H22.4267V267H21.3802L18.484 261.974L17.6201 260.332H17.5714C17.6038 260.729 17.6322 261.139 17.6566 261.561C17.689 261.982 17.7053 262.404 17.7053 262.826V267H16.7439ZM27.4579 267.146C26.9144 267.146 26.4236 267.037 25.9855 266.817C25.5556 266.598 25.2148 266.237 24.9634 265.734C24.7119 265.231 24.5861 264.554 24.5861 263.702V259.017H25.5961V263.727C25.5961 264.368 25.6772 264.875 25.8395 265.248C26.0099 265.613 26.2329 265.872 26.5088 266.027C26.7927 266.181 27.1091 266.258 27.4579 266.258C27.8149 266.258 28.1353 266.181 28.4192 266.027C28.7032 265.872 28.9263 265.613 29.0885 265.248C29.2589 264.875 29.3441 264.368 29.3441 263.727V259.017H30.3175V263.702C30.3175 264.554 30.1918 265.231 29.9403 265.734C29.6888 266.237 29.3481 266.598 28.9182 266.817C28.4882 267.037 28.0015 267.146 27.4579 267.146ZM31.1119 268.947L34.361 258.36H35.0911L31.842 268.947H31.1119ZM36.3397 267V259.017H37.3497V266.136H40.8421V267H36.3397ZM42.1603 267V261.086H43.1581V267H42.1603ZM42.6714 259.869C42.4767 259.869 42.3144 259.812 42.1846 259.699C42.0629 259.577 42.0021 259.415 42.0021 259.212C42.0021 259.017 42.0629 258.859 42.1846 258.738C42.3144 258.616 42.4767 258.555 42.6714 258.555C42.8661 258.555 43.0242 258.616 43.1459 258.738C43.2757 258.859 43.3406 259.017 43.3406 259.212C43.3406 259.415 43.2757 259.577 43.1459 259.699C43.0242 259.812 42.8661 259.869 42.6714 259.869ZM45.1549 267V261.086H45.9824L46.0675 261.938H46.104C46.388 261.654 46.6881 261.419 47.0045 261.232C47.3209 261.037 47.6819 260.94 48.0875 260.94C48.7122 260.94 49.1665 261.139 49.4504 261.536C49.7425 261.926 49.8885 262.498 49.8885 263.252V267H48.8907V263.386C48.8907 262.834 48.8014 262.433 48.6229 262.181C48.4445 261.93 48.1605 261.804 47.7711 261.804C47.471 261.804 47.1992 261.881 46.9558 262.035C46.7206 262.189 46.4529 262.416 46.1527 262.717V267H45.1549ZM53.5375 267.146C52.9129 267.146 52.4545 266.951 52.1625 266.562C51.8704 266.164 51.7244 265.588 51.7244 264.834V261.086H52.7344V264.7C52.7344 265.252 52.8196 265.653 52.99 265.905C53.1684 266.156 53.4524 266.282 53.8418 266.282C54.15 266.282 54.4218 266.205 54.6571 266.051C54.9004 265.889 55.16 265.633 55.4359 265.284V261.086H56.4337V267H55.6062L55.521 266.075H55.4845C55.2087 266.4 54.9167 266.659 54.6084 266.854C54.3001 267.049 53.9432 267.146 53.5375 267.146ZM57.6012 267L59.536 263.909L57.7472 261.086H58.8302L59.6212 262.388C59.7104 262.542 59.8037 262.704 59.9011 262.875C59.9984 263.045 60.0998 263.212 60.2053 263.374H60.254C60.3432 263.212 60.4324 263.045 60.5217 262.875C60.6109 262.704 60.7001 262.542 60.7894 262.388L61.5073 261.086H62.5538L60.765 264.019L62.6877 267H61.6047L60.7407 265.625C60.6352 265.446 60.5298 265.268 60.4243 265.09C60.3189 264.911 60.2093 264.737 60.0958 264.566H60.0471C59.9416 264.737 59.8402 264.911 59.7429 265.09C59.6455 265.26 59.5482 265.438 59.4508 265.625L58.6477 267H57.6012Z" fill="black"/>
<path d="M8.06625 321V308.228H11.7071C12.6676 308.228 13.5048 308.345 14.2187 308.578C14.9326 308.812 15.4907 309.208 15.8931 309.766C16.2955 310.311 16.4967 311.051 16.4967 311.985C16.4967 313.322 16.0618 314.315 15.1922 314.964C14.3225 315.613 13.1868 315.938 11.785 315.938H9.68224V321H8.06625ZM9.68224 314.614H11.5903C12.7065 314.614 13.5308 314.406 14.0629 313.991C14.6081 313.563 14.8807 312.894 14.8807 311.985C14.8807 311.064 14.5951 310.428 14.024 310.077C13.4659 309.714 12.6287 309.532 11.5124 309.532H9.68224V314.614ZM18.9383 321V311.538H20.2622L20.3985 313.251H20.4569C20.7814 312.654 21.1773 312.18 21.6446 311.83C22.1119 311.479 22.6116 311.304 23.1438 311.304C23.5202 311.304 23.8577 311.369 24.1562 311.499L23.8447 312.901C23.6889 312.849 23.5461 312.81 23.4163 312.784C23.2865 312.758 23.1243 312.745 22.9296 312.745C22.5272 312.745 22.1054 312.907 21.6641 313.232C21.2357 313.556 20.8593 314.121 20.5348 314.925V321H18.9383ZM29.1777 321.234C28.4119 321.234 27.6915 321.039 27.0166 320.65C26.3546 320.26 25.8159 319.696 25.4006 318.956C24.9982 318.216 24.797 317.327 24.797 316.288C24.797 315.224 24.9982 314.322 25.4006 313.582C25.8159 312.842 26.3546 312.278 27.0166 311.888C27.6915 311.499 28.4119 311.304 29.1777 311.304C29.9565 311.304 30.6769 311.499 31.3389 311.888C32.0008 312.278 32.533 312.842 32.9354 313.582C33.3508 314.322 33.5584 315.224 33.5584 316.288C33.5584 317.327 33.3508 318.216 32.9354 318.956C32.533 319.696 32.0008 320.26 31.3389 320.65C30.6769 321.039 29.9565 321.234 29.1777 321.234ZM29.1777 319.91C29.9955 319.91 30.6509 319.579 31.1442 318.917C31.6504 318.242 31.9035 317.366 31.9035 316.288C31.9035 315.198 31.6504 314.315 31.1442 313.64C30.6509 312.965 29.9955 312.628 29.1777 312.628C28.373 312.628 27.7175 312.965 27.2113 313.64C26.7051 314.315 26.452 315.198 26.452 316.288C26.452 317.366 26.7051 318.242 27.2113 318.917C27.7175 319.579 28.373 319.91 29.1777 319.91ZM36.323 321V312.842H35.038V311.635L36.323 311.538V310.039C36.323 309.078 36.5436 308.319 36.985 307.761C37.4393 307.189 38.1402 306.904 39.0877 306.904C39.3862 306.904 39.6718 306.936 39.9444 307.001C40.2169 307.053 40.4571 307.125 40.6647 307.215L40.3143 308.442C39.9638 308.286 39.6069 308.208 39.2435 308.208C38.3608 308.208 37.9195 308.818 37.9195 310.039V311.538H39.9249V312.842H37.9195V321H36.323ZM45.3809 321.234C44.5372 321.234 43.7713 321.039 43.0834 320.65C42.3955 320.247 41.8503 319.676 41.448 318.936C41.0456 318.196 40.8444 317.314 40.8444 316.288C40.8444 315.25 41.0456 314.361 41.448 313.621C41.8633 312.881 42.3955 312.31 43.0445 311.908C43.6935 311.505 44.3749 311.304 45.0888 311.304C46.2959 311.304 47.224 311.706 47.873 312.511C48.535 313.316 48.8659 314.393 48.8659 315.743C48.8659 315.912 48.8595 316.081 48.8465 316.249C48.8465 316.405 48.8335 316.541 48.8075 316.658H42.4214C42.4863 317.658 42.7979 318.456 43.356 319.053C43.9271 319.65 44.667 319.949 45.5755 319.949C46.0298 319.949 46.4452 319.884 46.8216 319.754C47.211 319.611 47.5809 319.429 47.9314 319.209L48.496 320.26C48.0936 320.52 47.6329 320.747 47.1137 320.942C46.6074 321.136 46.0298 321.234 45.3809 321.234ZM42.402 315.51H47.4641C47.4641 314.549 47.2564 313.822 46.8411 313.329C46.4387 312.823 45.8676 312.57 45.1277 312.57C44.4658 312.57 43.8687 312.829 43.3365 313.348C42.8173 313.855 42.5058 314.575 42.402 315.51ZM53.6768 321.234C53.0019 321.234 52.3594 321.11 51.7493 320.864C51.1392 320.604 50.6071 320.293 50.1528 319.929L50.951 318.858C51.3664 319.183 51.7947 319.455 52.236 319.676C52.6774 319.884 53.1771 319.988 53.7352 319.988C54.3582 319.988 54.8255 319.845 55.137 319.559C55.4486 319.261 55.6043 318.91 55.6043 318.508C55.6043 318.183 55.494 317.911 55.2733 317.69C55.0657 317.469 54.7931 317.288 54.4556 317.145C54.1311 316.989 53.7936 316.846 53.4432 316.717C53.0019 316.548 52.567 316.36 52.1387 316.152C51.7104 315.931 51.3599 315.652 51.0873 315.315C50.8147 314.964 50.6785 314.523 50.6785 313.991C50.6785 313.225 50.964 312.589 51.5351 312.083C52.1192 311.564 52.924 311.304 53.9494 311.304C54.5335 311.304 55.0786 311.408 55.5848 311.616C56.0911 311.823 56.5259 312.076 56.8893 312.375L56.1105 313.387C55.786 313.141 55.4486 312.94 55.0981 312.784C54.7476 312.628 54.3647 312.55 53.9494 312.55C53.3523 312.55 52.911 312.686 52.6254 312.959C52.3529 313.232 52.2166 313.55 52.2166 313.913C52.2166 314.212 52.3139 314.458 52.5086 314.653C52.7033 314.835 52.9564 314.997 53.2679 315.14C53.5795 315.269 53.9104 315.406 54.2609 315.548C54.7152 315.717 55.163 315.912 55.6043 316.133C56.0456 316.34 56.4091 316.626 56.6946 316.989C56.9932 317.34 57.1424 317.813 57.1424 318.411C57.1424 318.917 57.0061 319.384 56.7336 319.812C56.474 320.241 56.0846 320.585 55.5654 320.844C55.0592 321.104 54.4296 321.234 53.6768 321.234ZM61.8336 321.234C61.1586 321.234 60.5161 321.11 59.9061 320.864C59.296 320.604 58.7638 320.293 58.3096 319.929L59.1078 318.858C59.5232 319.183 59.9515 319.455 60.3928 319.676C60.8341 319.884 61.3339 319.988 61.892 319.988C62.515 319.988 62.9823 319.845 63.2938 319.559C63.6053 319.261 63.7611 318.91 63.7611 318.508C63.7611 318.183 63.6508 317.911 63.4301 317.69C63.2224 317.469 62.9498 317.288 62.6124 317.145C62.2879 316.989 61.9504 316.846 61.5999 316.717C61.1586 316.548 60.7238 316.36 60.2955 316.152C59.8671 315.931 59.5167 315.652 59.2441 315.315C58.9715 314.964 58.8352 314.523 58.8352 313.991C58.8352 313.225 59.1208 312.589 59.6919 312.083C60.276 311.564 61.0808 311.304 62.1062 311.304C62.6903 311.304 63.2354 311.408 63.7416 311.616C64.2478 311.823 64.6827 312.076 65.0461 312.375L64.2673 313.387C63.9428 313.141 63.6053 312.94 63.2549 312.784C62.9044 312.628 62.5215 312.55 62.1062 312.55C61.5091 312.55 61.0678 312.686 60.7822 312.959C60.5096 313.232 60.3733 313.55 60.3733 313.913C60.3733 314.212 60.4707 314.458 60.6654 314.653C60.8601 314.835 61.1132 314.997 61.4247 315.14C61.7362 315.269 62.0672 315.406 62.4177 315.548C62.872 315.717 63.3198 315.912 63.7611 316.133C64.2024 316.34 64.5658 316.626 64.8514 316.989C65.1499 317.34 65.2992 317.813 65.2992 318.411C65.2992 318.917 65.1629 319.384 64.8903 319.812C64.6307 320.241 64.2413 320.585 63.7222 320.844C63.2159 321.104 62.5864 321.234 61.8336 321.234ZM67.5177 321V311.538H69.1142V321H67.5177ZM68.3354 309.591C68.0239 309.591 67.7643 309.5 67.5566 309.318C67.3619 309.123 67.2646 308.864 67.2646 308.539C67.2646 308.228 67.3619 307.975 67.5566 307.78C67.7643 307.585 68.0239 307.488 68.3354 307.488C68.6469 307.488 68.9 307.585 69.0947 307.78C69.3024 307.975 69.4063 308.228 69.4063 308.539C69.4063 308.864 69.3024 309.123 69.0947 309.318C68.9 309.5 68.6469 309.591 68.3354 309.591ZM75.9889 321.234C75.2231 321.234 74.5027 321.039 73.8277 320.65C73.1658 320.26 72.6271 319.696 72.2117 318.956C71.8094 318.216 71.6082 317.327 71.6082 316.288C71.6082 315.224 71.8094 314.322 72.2117 313.582C72.6271 312.842 73.1658 312.278 73.8277 311.888C74.5027 311.499 75.2231 311.304 75.9889 311.304C76.7677 311.304 77.488 311.499 78.15 311.888C78.812 312.278 79.3442 312.842 79.7465 313.582C80.1619 314.322 80.3696 315.224 80.3696 316.288C80.3696 317.327 80.1619 318.216 79.7465 318.956C79.3442 319.696 78.812 320.26 78.15 320.65C77.488 321.039 76.7677 321.234 75.9889 321.234ZM75.9889 319.91C76.8066 319.91 77.4621 319.579 77.9553 318.917C78.4615 318.242 78.7146 317.366 78.7146 316.288C78.7146 315.198 78.4615 314.315 77.9553 313.64C77.4621 312.965 76.8066 312.628 75.9889 312.628C75.1841 312.628 74.5286 312.965 74.0224 313.64C73.5162 314.315 73.2631 315.198 73.2631 316.288C73.2631 317.366 73.5162 318.242 74.0224 318.917C74.5286 319.579 75.1841 319.91 75.9889 319.91ZM82.8616 321V311.538H84.1855L84.3218 312.901H84.3802C84.8345 312.446 85.3148 312.07 85.821 311.771C86.3272 311.46 86.9048 311.304 87.5538 311.304C88.5532 311.304 89.2801 311.622 89.7344 312.258C90.2017 312.881 90.4353 313.796 90.4353 315.003V321H88.8388V315.217C88.8388 314.335 88.696 313.692 88.4104 313.29C88.1249 312.888 87.6706 312.686 87.0476 312.686C86.5673 312.686 86.1325 312.81 85.7431 313.056C85.3667 313.303 84.9383 313.666 84.4581 314.147V321H82.8616ZM95.6897 321.234C94.8979 321.234 94.236 321 93.7038 320.533C93.1846 320.052 92.925 319.39 92.925 318.547C92.925 317.508 93.3858 316.717 94.3074 316.171C95.2419 315.613 96.7151 315.224 98.727 315.003C98.727 314.601 98.6686 314.218 98.5518 313.855C98.4479 313.491 98.2532 313.199 97.9677 312.978C97.6951 312.745 97.2992 312.628 96.78 312.628C96.2349 312.628 95.7222 312.732 95.2419 312.94C94.7617 313.147 94.3333 313.381 93.9569 313.64L93.3339 312.531C93.7752 312.245 94.3138 311.973 94.9499 311.713C95.5989 311.44 96.2998 311.304 97.0526 311.304C98.2078 311.304 99.045 311.661 99.5642 312.375C100.083 313.076 100.343 314.017 100.343 315.198V321H99.019L98.8828 319.871H98.8243C98.383 320.234 97.8963 320.552 97.3641 320.825C96.8449 321.097 96.2868 321.234 95.6897 321.234ZM96.157 319.949C96.6113 319.949 97.0396 319.838 97.442 319.618C97.8444 319.397 98.2727 319.085 98.727 318.683V316.055C97.1564 316.249 96.0531 316.541 95.4171 316.931C94.7941 317.32 94.4826 317.82 94.4826 318.43C94.4826 318.962 94.6448 319.352 94.9693 319.598C95.2938 319.832 95.6897 319.949 96.157 319.949ZM105.014 321.234C104.417 321.234 103.982 321.052 103.709 320.688C103.45 320.312 103.32 319.78 103.32 319.092V307.138H104.917V319.209C104.917 319.455 104.962 319.637 105.053 319.754C105.144 319.858 105.248 319.91 105.364 319.91C105.416 319.91 105.462 319.91 105.501 319.91C105.553 319.897 105.624 319.884 105.715 319.871L105.929 321.078C105.825 321.13 105.702 321.169 105.559 321.195C105.416 321.221 105.235 321.234 105.014 321.234Z" fill="black"/>
<path d="M197.658 364V357.278H199.759C200.217 357.278 200.623 357.339 200.978 357.462C201.333 357.578 201.61 357.776 201.808 358.057C202.013 358.33 202.116 358.699 202.116 359.163C202.116 359.682 201.979 360.103 201.706 360.424C201.433 360.738 201.064 360.953 200.599 361.069L202.31 364H201.347L199.728 361.162H198.509V364H197.658ZM198.509 360.465H199.636C200.162 360.465 200.565 360.359 200.845 360.147C201.125 359.928 201.265 359.6 201.265 359.163C201.265 358.719 201.125 358.408 200.845 358.231C200.565 358.053 200.162 357.964 199.636 357.964H198.509V360.465ZM205.247 364.123C204.844 364.123 204.465 364.02 204.11 363.816C203.761 363.611 203.478 363.313 203.259 362.924C203.047 362.535 202.941 362.067 202.941 361.52C202.941 360.96 203.047 360.485 203.259 360.096C203.478 359.706 203.761 359.409 204.11 359.204C204.465 358.999 204.844 358.897 205.247 358.897C205.657 358.897 206.036 358.999 206.384 359.204C206.733 359.409 207.013 359.706 207.225 360.096C207.443 360.485 207.553 360.96 207.553 361.52C207.553 362.067 207.443 362.535 207.225 362.924C207.013 363.313 206.733 363.611 206.384 363.816C206.036 364.02 205.657 364.123 205.247 364.123ZM205.247 363.426C205.677 363.426 206.022 363.252 206.282 362.904C206.548 362.548 206.682 362.087 206.682 361.52C206.682 360.946 206.548 360.482 206.282 360.127C206.022 359.771 205.677 359.594 205.247 359.594C204.823 359.594 204.478 359.771 204.212 360.127C203.946 360.482 203.812 360.946 203.812 361.52C203.812 362.087 203.946 362.548 204.212 362.904C204.478 363.252 204.823 363.426 205.247 363.426ZM209.756 364.123C209.441 364.123 209.213 364.027 209.069 363.836C208.932 363.638 208.864 363.358 208.864 362.996V356.704H209.704V363.057C209.704 363.187 209.728 363.283 209.776 363.344C209.824 363.399 209.879 363.426 209.94 363.426C209.967 363.426 209.991 363.426 210.012 363.426C210.039 363.419 210.077 363.412 210.125 363.406L210.237 364.041C210.183 364.068 210.118 364.089 210.043 364.102C209.967 364.116 209.872 364.123 209.756 364.123ZM212.368 364.123C212.053 364.123 211.824 364.027 211.681 363.836C211.544 363.638 211.476 363.358 211.476 362.996V356.704H212.316V363.057C212.316 363.187 212.34 363.283 212.388 363.344C212.436 363.399 212.491 363.426 212.552 363.426C212.579 363.426 212.603 363.426 212.624 363.426C212.651 363.419 212.689 363.412 212.736 363.406L212.849 364.041C212.795 364.068 212.73 364.089 212.654 364.102C212.579 364.116 212.484 364.123 212.368 364.123ZM214.088 364V359.02H214.928V364H214.088ZM214.518 357.995C214.354 357.995 214.218 357.947 214.108 357.852C214.006 357.749 213.955 357.613 213.955 357.442C213.955 357.278 214.006 357.145 214.108 357.042C214.218 356.94 214.354 356.888 214.518 356.888C214.682 356.888 214.815 356.94 214.918 357.042C215.027 357.145 215.082 357.278 215.082 357.442C215.082 357.613 215.027 357.749 214.918 357.852C214.815 357.947 214.682 357.995 214.518 357.995ZM216.61 364V359.02H217.307L217.378 359.737H217.409C217.648 359.498 217.901 359.3 218.167 359.143C218.434 358.979 218.738 358.897 219.079 358.897C219.605 358.897 219.988 359.064 220.227 359.399C220.473 359.727 220.596 360.209 220.596 360.844V364H219.756V360.957C219.756 360.492 219.68 360.154 219.53 359.942C219.38 359.73 219.141 359.624 218.813 359.624C218.56 359.624 218.331 359.689 218.126 359.819C217.928 359.949 217.703 360.14 217.45 360.393V364H216.61ZM223.894 366.295C223.286 366.295 222.791 366.179 222.408 365.947C222.026 365.715 221.835 365.383 221.835 364.953C221.835 364.741 221.899 364.536 222.029 364.338C222.159 364.147 222.337 363.976 222.562 363.826V363.785C222.439 363.71 222.333 363.604 222.244 363.467C222.162 363.331 222.121 363.167 222.121 362.975C222.121 362.763 222.18 362.579 222.296 362.422C222.412 362.265 222.535 362.142 222.665 362.053V362.012C222.501 361.875 222.35 361.691 222.214 361.459C222.084 361.226 222.019 360.963 222.019 360.67C222.019 360.308 222.104 359.993 222.275 359.727C222.446 359.46 222.675 359.256 222.962 359.112C223.249 358.969 223.559 358.897 223.894 358.897C224.031 358.897 224.161 358.911 224.284 358.938C224.407 358.958 224.512 358.986 224.601 359.02H226.333V359.665H225.308C225.424 359.775 225.52 359.922 225.595 360.106C225.677 360.284 225.718 360.478 225.718 360.69C225.718 361.045 225.636 361.353 225.472 361.612C225.308 361.872 225.09 362.074 224.816 362.217C224.543 362.354 224.236 362.422 223.894 362.422C223.628 362.422 223.378 362.364 223.146 362.248C223.057 362.323 222.982 362.408 222.921 362.504C222.859 362.593 222.829 362.705 222.829 362.842C222.829 362.999 222.89 363.129 223.013 363.231C223.143 363.334 223.375 363.385 223.71 363.385H224.673C225.254 363.385 225.688 363.481 225.974 363.672C226.268 363.857 226.415 364.157 226.415 364.574C226.415 364.881 226.313 365.165 226.108 365.424C225.903 365.684 225.612 365.892 225.237 366.049C224.861 366.213 224.413 366.295 223.894 366.295ZM223.894 361.858C224.181 361.858 224.427 361.752 224.632 361.541C224.844 361.322 224.95 361.032 224.95 360.67C224.95 360.308 224.847 360.024 224.642 359.819C224.437 359.614 224.188 359.512 223.894 359.512C223.6 359.512 223.351 359.614 223.146 359.819C222.941 360.024 222.839 360.308 222.839 360.67C222.839 361.032 222.941 361.322 223.146 361.541C223.358 361.752 223.607 361.858 223.894 361.858ZM224.017 365.711C224.495 365.711 224.878 365.605 225.165 365.394C225.452 365.189 225.595 364.956 225.595 364.697C225.595 364.465 225.506 364.304 225.329 364.215C225.158 364.126 224.912 364.082 224.591 364.082H223.73C223.635 364.082 223.529 364.075 223.413 364.061C223.303 364.048 223.194 364.027 223.085 364C222.907 364.13 222.777 364.266 222.695 364.41C222.613 364.553 222.572 364.697 222.572 364.84C222.572 365.107 222.699 365.318 222.951 365.476C223.211 365.633 223.566 365.711 224.017 365.711ZM229.429 364V359.02H230.126L230.197 359.922H230.228C230.399 359.607 230.607 359.358 230.853 359.174C231.099 358.989 231.362 358.897 231.642 358.897C231.84 358.897 232.018 358.931 232.175 358.999L232.011 359.737C231.929 359.71 231.854 359.689 231.786 359.676C231.717 359.662 231.632 359.655 231.53 359.655C231.318 359.655 231.096 359.741 230.863 359.911C230.638 360.082 230.44 360.379 230.269 360.803V364H229.429ZM234.9 364.123C234.456 364.123 234.053 364.02 233.691 363.816C233.329 363.604 233.042 363.303 232.83 362.914C232.618 362.524 232.512 362.06 232.512 361.52C232.512 360.974 232.618 360.506 232.83 360.116C233.049 359.727 233.329 359.426 233.67 359.215C234.012 359.003 234.371 358.897 234.746 358.897C235.382 358.897 235.87 359.109 236.212 359.532C236.56 359.956 236.734 360.523 236.734 361.233C236.734 361.322 236.731 361.411 236.724 361.5C236.724 361.582 236.717 361.653 236.704 361.715H233.342C233.377 362.241 233.541 362.661 233.834 362.975C234.135 363.29 234.524 363.447 235.002 363.447C235.242 363.447 235.46 363.412 235.658 363.344C235.863 363.269 236.058 363.173 236.242 363.057L236.54 363.611C236.328 363.747 236.085 363.867 235.812 363.969C235.546 364.072 235.242 364.123 234.9 364.123ZM233.332 361.11H235.996C235.996 360.605 235.887 360.222 235.669 359.963C235.457 359.696 235.156 359.563 234.767 359.563C234.418 359.563 234.104 359.7 233.824 359.973C233.551 360.239 233.387 360.618 233.332 361.11ZM238.856 364.123C238.542 364.123 238.313 364.027 238.17 363.836C238.033 363.638 237.965 363.358 237.965 362.996V356.704H238.805V363.057C238.805 363.187 238.829 363.283 238.877 363.344C238.925 363.399 238.979 363.426 239.041 363.426C239.068 363.426 239.092 363.426 239.113 363.426C239.14 363.419 239.177 363.412 239.225 363.406L239.338 364.041C239.283 364.068 239.218 364.089 239.143 364.102C239.068 364.116 238.973 364.123 238.856 364.123ZM242.595 364.123C242.151 364.123 241.748 364.02 241.386 363.816C241.024 363.604 240.737 363.303 240.526 362.914C240.314 362.524 240.208 362.06 240.208 361.52C240.208 360.974 240.314 360.506 240.526 360.116C240.744 359.727 241.024 359.426 241.366 359.215C241.707 359.003 242.066 358.897 242.442 358.897C243.077 358.897 243.566 359.109 243.907 359.532C244.256 359.956 244.43 360.523 244.43 361.233C244.43 361.322 244.426 361.411 244.419 361.5C244.419 361.582 244.413 361.653 244.399 361.715H241.038C241.072 362.241 241.236 362.661 241.53 362.975C241.83 363.29 242.22 363.447 242.698 363.447C242.937 363.447 243.156 363.412 243.354 363.344C243.559 363.269 243.753 363.173 243.938 363.057L244.235 363.611C244.023 363.747 243.781 363.867 243.507 363.969C243.241 364.072 242.937 364.123 242.595 364.123ZM241.028 361.11H243.692C243.692 360.605 243.583 360.222 243.364 359.963C243.152 359.696 242.852 359.563 242.462 359.563C242.114 359.563 241.8 359.7 241.519 359.973C241.246 360.239 241.082 360.618 241.028 361.11ZM246.668 364.123C246.251 364.123 245.903 364 245.623 363.754C245.349 363.501 245.213 363.153 245.213 362.709C245.213 362.162 245.455 361.746 245.94 361.459C246.432 361.165 247.208 360.96 248.267 360.844C248.267 360.632 248.236 360.431 248.174 360.239C248.12 360.048 248.017 359.894 247.867 359.778C247.723 359.655 247.515 359.594 247.242 359.594C246.955 359.594 246.685 359.648 246.432 359.758C246.18 359.867 245.954 359.99 245.756 360.127L245.428 359.542C245.66 359.392 245.944 359.249 246.279 359.112C246.62 358.969 246.989 358.897 247.385 358.897C247.993 358.897 248.434 359.085 248.707 359.46C248.98 359.829 249.117 360.325 249.117 360.946V364H248.42L248.349 363.406H248.318C248.086 363.597 247.829 363.764 247.549 363.908C247.276 364.051 246.982 364.123 246.668 364.123ZM246.914 363.447C247.153 363.447 247.378 363.389 247.59 363.272C247.802 363.156 248.027 362.992 248.267 362.781V361.397C247.44 361.5 246.859 361.653 246.524 361.858C246.197 362.063 246.033 362.326 246.033 362.647C246.033 362.927 246.118 363.132 246.289 363.262C246.46 363.385 246.668 363.447 246.914 363.447ZM251.985 364.123C251.63 364.123 251.292 364.058 250.971 363.928C250.65 363.792 250.37 363.628 250.131 363.436L250.551 362.873C250.769 363.044 250.995 363.187 251.227 363.303C251.459 363.412 251.722 363.467 252.016 363.467C252.344 363.467 252.59 363.392 252.754 363.242C252.918 363.085 253 362.9 253 362.688C253 362.518 252.942 362.374 252.826 362.258C252.716 362.142 252.573 362.046 252.395 361.971C252.224 361.889 252.047 361.814 251.862 361.746C251.63 361.657 251.401 361.558 251.176 361.448C250.95 361.332 250.766 361.185 250.622 361.008C250.479 360.823 250.407 360.591 250.407 360.311C250.407 359.908 250.558 359.573 250.858 359.307C251.166 359.033 251.589 358.897 252.129 358.897C252.436 358.897 252.723 358.952 252.99 359.061C253.256 359.17 253.485 359.303 253.676 359.46L253.266 359.993C253.095 359.864 252.918 359.758 252.733 359.676C252.549 359.594 252.347 359.553 252.129 359.553C251.815 359.553 251.582 359.624 251.432 359.768C251.289 359.911 251.217 360.079 251.217 360.27C251.217 360.427 251.268 360.557 251.371 360.659C251.473 360.755 251.606 360.84 251.77 360.916C251.934 360.984 252.108 361.056 252.293 361.131C252.532 361.22 252.768 361.322 253 361.438C253.232 361.547 253.423 361.698 253.574 361.889C253.731 362.074 253.809 362.323 253.809 362.637C253.809 362.904 253.738 363.149 253.594 363.375C253.458 363.6 253.253 363.781 252.979 363.918C252.713 364.055 252.382 364.123 251.985 364.123ZM256.996 364.123C256.552 364.123 256.149 364.02 255.787 363.816C255.424 363.604 255.138 363.303 254.926 362.914C254.714 362.524 254.608 362.06 254.608 361.52C254.608 360.974 254.714 360.506 254.926 360.116C255.144 359.727 255.424 359.426 255.766 359.215C256.108 359.003 256.466 358.897 256.842 358.897C257.477 358.897 257.966 359.109 258.307 359.532C258.656 359.956 258.83 360.523 258.83 361.233C258.83 361.322 258.827 361.411 258.82 361.5C258.82 361.582 258.813 361.653 258.799 361.715H255.438C255.472 362.241 255.636 362.661 255.93 362.975C256.231 363.29 256.62 363.447 257.098 363.447C257.337 363.447 257.556 363.412 257.754 363.344C257.959 363.269 258.154 363.173 258.338 363.057L258.635 363.611C258.423 363.747 258.181 363.867 257.908 363.969C257.641 364.072 257.337 364.123 256.996 364.123ZM255.428 361.11H258.092C258.092 360.605 257.983 360.222 257.764 359.963C257.552 359.696 257.252 359.563 256.862 359.563C256.514 359.563 256.2 359.7 255.92 359.973C255.646 360.239 255.483 360.618 255.428 361.11Z" fill="#C9C9C9"/>
<circle cx="228.024" cy="312.024" r="34.0245" fill="#03D20A"/>
<path d="M208.31 305.273V299.934H208.986V305.273H208.31ZM210.383 305.273V301.318H210.936L210.993 301.887H211.018C211.208 301.697 211.408 301.54 211.62 301.415C211.832 301.285 212.073 301.22 212.344 301.22C212.762 301.22 213.066 301.353 213.256 301.619C213.451 301.879 213.549 302.262 213.549 302.766V305.273H212.882V302.856C212.882 302.487 212.822 302.218 212.703 302.05C212.583 301.882 212.393 301.798 212.133 301.798C211.932 301.798 211.75 301.849 211.587 301.952C211.43 302.055 211.251 302.207 211.05 302.408V305.273H210.383ZM216.396 305.371C216.049 305.371 215.735 305.289 215.452 305.127C215.17 304.964 214.948 304.728 214.785 304.418C214.622 304.109 214.541 303.738 214.541 303.303C214.541 302.859 214.628 302.481 214.801 302.172C214.98 301.863 215.214 301.627 215.501 301.464C215.794 301.301 216.109 301.22 216.445 301.22C216.706 301.22 216.928 301.266 217.113 301.358C217.303 301.451 217.465 301.559 217.601 301.684L217.259 302.123C217.145 302.02 217.023 301.936 216.893 301.871C216.768 301.806 216.627 301.773 216.47 301.773C216.231 301.773 216.017 301.838 215.827 301.969C215.642 302.093 215.496 302.273 215.387 302.506C215.284 302.734 215.233 303 215.233 303.303C215.233 303.754 215.344 304.12 215.566 304.402C215.794 304.679 216.09 304.817 216.453 304.817C216.638 304.817 216.809 304.779 216.966 304.703C217.124 304.622 217.262 304.527 217.381 304.418L217.674 304.866C217.495 305.023 217.297 305.148 217.08 305.24C216.863 305.327 216.635 305.371 216.396 305.371ZM219.254 305.371C219.004 305.371 218.822 305.295 218.708 305.143C218.6 304.985 218.546 304.763 218.546 304.475V299.478H219.213V304.524C219.213 304.627 219.232 304.703 219.27 304.752C219.308 304.796 219.351 304.817 219.4 304.817C219.422 304.817 219.441 304.817 219.457 304.817C219.479 304.812 219.509 304.806 219.547 304.801L219.636 305.306C219.593 305.327 219.541 305.344 219.482 305.354C219.422 305.365 219.346 305.371 219.254 305.371ZM221.776 305.371C221.358 305.371 221.051 305.24 220.856 304.98C220.661 304.714 220.563 304.329 220.563 303.824V301.318H221.239V303.735C221.239 304.104 221.295 304.372 221.409 304.541C221.529 304.709 221.719 304.793 221.979 304.793C222.185 304.793 222.367 304.741 222.524 304.638C222.687 304.53 222.861 304.359 223.045 304.125V301.318H223.713V305.273H223.159L223.102 304.654H223.078C222.893 304.871 222.698 305.045 222.492 305.175C222.286 305.306 222.047 305.371 221.776 305.371ZM226.398 305.371C225.904 305.371 225.508 305.192 225.21 304.834C224.911 304.47 224.762 303.96 224.762 303.303C224.762 302.875 224.841 302.506 224.998 302.197C225.161 301.882 225.373 301.64 225.633 301.472C225.899 301.304 226.181 301.22 226.479 301.22C226.707 301.22 226.905 301.261 227.074 301.342C227.242 301.423 227.413 301.535 227.586 301.676L227.554 301V299.478H228.229V305.273H227.676L227.619 304.809H227.594C227.443 304.961 227.263 305.094 227.057 305.208C226.851 305.316 226.631 305.371 226.398 305.371ZM226.545 304.809C226.892 304.809 227.228 304.627 227.554 304.264V302.197C227.386 302.045 227.223 301.939 227.065 301.879C226.913 301.814 226.756 301.781 226.593 301.781C226.382 301.781 226.189 301.847 226.016 301.977C225.847 302.102 225.712 302.278 225.609 302.506C225.505 302.728 225.454 302.991 225.454 303.295C225.454 303.767 225.549 304.139 225.739 304.41C225.929 304.676 226.197 304.809 226.545 304.809ZM231.165 305.371C230.812 305.371 230.492 305.289 230.204 305.127C229.917 304.958 229.689 304.72 229.521 304.41C229.353 304.101 229.268 303.732 229.268 303.303C229.268 302.869 229.353 302.498 229.521 302.188C229.694 301.879 229.917 301.64 230.188 301.472C230.459 301.304 230.744 301.22 231.043 301.22C231.547 301.22 231.935 301.388 232.207 301.725C232.483 302.061 232.622 302.511 232.622 303.076C232.622 303.146 232.619 303.217 232.613 303.287C232.613 303.352 232.608 303.409 232.597 303.458H229.928C229.955 303.876 230.085 304.21 230.318 304.459C230.557 304.709 230.866 304.834 231.246 304.834C231.436 304.834 231.61 304.806 231.767 304.752C231.93 304.692 232.084 304.616 232.231 304.524L232.467 304.964C232.299 305.072 232.106 305.167 231.889 305.249C231.678 305.33 231.436 305.371 231.165 305.371ZM229.92 302.978H232.036C232.036 302.576 231.949 302.273 231.775 302.066C231.607 301.855 231.368 301.749 231.059 301.749C230.782 301.749 230.533 301.857 230.31 302.074C230.093 302.286 229.963 302.587 229.92 302.978ZM234.633 305.371C234.351 305.371 234.082 305.319 233.827 305.216C233.572 305.108 233.349 304.977 233.16 304.825L233.493 304.378C233.667 304.513 233.846 304.627 234.03 304.72C234.215 304.806 234.424 304.85 234.657 304.85C234.918 304.85 235.113 304.79 235.243 304.671C235.373 304.546 235.438 304.399 235.438 304.231C235.438 304.096 235.392 303.982 235.3 303.889C235.213 303.797 235.099 303.721 234.958 303.662C234.823 303.596 234.682 303.537 234.535 303.482C234.351 303.412 234.169 303.333 233.99 303.246C233.811 303.154 233.664 303.038 233.55 302.896C233.436 302.75 233.379 302.566 233.379 302.343C233.379 302.023 233.499 301.757 233.737 301.545C233.982 301.328 234.318 301.22 234.747 301.22C234.991 301.22 235.219 301.263 235.43 301.35C235.642 301.437 235.824 301.543 235.976 301.668L235.65 302.091C235.514 301.988 235.373 301.904 235.227 301.838C235.08 301.773 234.92 301.741 234.747 301.741C234.497 301.741 234.313 301.798 234.193 301.912C234.079 302.026 234.022 302.159 234.022 302.311C234.022 302.435 234.063 302.538 234.144 302.62C234.226 302.696 234.332 302.764 234.462 302.823C234.592 302.878 234.73 302.934 234.877 302.994C235.067 303.065 235.254 303.146 235.438 303.238C235.623 303.325 235.775 303.445 235.894 303.596C236.019 303.743 236.081 303.941 236.081 304.191C236.081 304.402 236.024 304.597 235.91 304.777C235.802 304.956 235.639 305.099 235.422 305.208C235.211 305.316 234.947 305.371 234.633 305.371ZM239.883 305.371C239.46 305.371 239.164 305.249 238.996 305.004C238.833 304.76 238.752 304.443 238.752 304.052V301.863H238.166V301.358L238.785 301.318L238.866 300.211H239.428V301.318H240.494V301.863H239.428V304.06C239.428 304.304 239.471 304.494 239.558 304.63C239.65 304.76 239.81 304.825 240.038 304.825C240.108 304.825 240.184 304.815 240.266 304.793C240.347 304.766 240.42 304.741 240.486 304.72L240.616 305.224C240.507 305.262 240.388 305.295 240.258 305.322C240.133 305.354 240.008 305.371 239.883 305.371ZM241.388 305.273V299.478H242.055V301.057L242.031 301.871C242.221 301.692 242.419 301.54 242.625 301.415C242.837 301.285 243.078 301.22 243.35 301.22C243.767 301.22 244.071 301.353 244.261 301.619C244.456 301.879 244.554 302.262 244.554 302.766V305.273H243.887V302.856C243.887 302.487 243.827 302.218 243.708 302.05C243.588 301.882 243.398 301.798 243.138 301.798C242.937 301.798 242.755 301.849 242.593 301.952C242.435 302.055 242.256 302.207 242.055 302.408V305.273H241.388ZM247.418 305.371C247.066 305.371 246.746 305.289 246.458 305.127C246.171 304.958 245.943 304.72 245.774 304.41C245.606 304.101 245.522 303.732 245.522 303.303C245.522 302.869 245.606 302.498 245.774 302.188C245.948 301.879 246.171 301.64 246.442 301.472C246.713 301.304 246.998 301.22 247.296 301.22C247.801 301.22 248.189 301.388 248.46 301.725C248.737 302.061 248.875 302.511 248.875 303.076C248.875 303.146 248.873 303.217 248.867 303.287C248.867 303.352 248.862 303.409 248.851 303.458H246.181C246.208 303.876 246.339 304.21 246.572 304.459C246.811 304.709 247.12 304.834 247.5 304.834C247.69 304.834 247.863 304.806 248.021 304.752C248.183 304.692 248.338 304.616 248.485 304.524L248.721 304.964C248.552 305.072 248.36 305.167 248.143 305.249C247.931 305.33 247.69 305.371 247.418 305.371ZM246.173 302.978H248.289C248.289 302.576 248.202 302.273 248.029 302.066C247.861 301.855 247.622 301.749 247.313 301.749C247.036 301.749 246.786 301.857 246.564 302.074C246.347 302.286 246.217 302.587 246.173 302.978ZM200.329 316.941V311.318H200.882L200.939 311.773H200.964C201.143 311.621 201.338 311.491 201.55 311.383C201.767 311.274 201.992 311.22 202.225 311.22C202.735 311.22 203.123 311.404 203.389 311.773C203.655 312.137 203.788 312.625 203.788 313.238C203.788 313.683 203.706 314.066 203.544 314.386C203.386 314.706 203.177 314.95 202.917 315.118C202.662 315.287 202.382 315.371 202.079 315.371C201.894 315.371 201.71 315.33 201.525 315.249C201.346 315.167 201.164 315.056 200.98 314.915L200.996 315.607V316.941H200.329ZM201.965 314.809C202.29 314.809 202.559 314.671 202.77 314.394C202.987 314.112 203.096 313.727 203.096 313.238C203.096 312.804 203.015 312.454 202.852 312.188C202.694 311.917 202.429 311.781 202.054 311.781C201.886 311.781 201.715 311.828 201.541 311.92C201.373 312.012 201.191 312.145 200.996 312.319V314.394C201.175 314.546 201.349 314.654 201.517 314.72C201.685 314.779 201.834 314.809 201.965 314.809ZM205.643 315.371C205.313 315.371 205.036 315.273 204.813 315.078C204.596 314.877 204.488 314.6 204.488 314.248C204.488 313.813 204.68 313.482 205.066 313.255C205.456 313.021 206.072 312.859 206.913 312.766C206.913 312.598 206.889 312.438 206.84 312.286C206.796 312.134 206.715 312.012 206.596 311.92C206.482 311.822 206.316 311.773 206.099 311.773C205.871 311.773 205.657 311.817 205.456 311.904C205.256 311.99 205.076 312.088 204.919 312.197L204.659 311.733C204.843 311.613 205.068 311.499 205.334 311.391C205.605 311.277 205.898 311.22 206.213 311.22C206.696 311.22 207.046 311.369 207.263 311.668C207.48 311.961 207.589 312.354 207.589 312.848V315.273H207.035L206.978 314.801H206.954C206.769 314.953 206.566 315.086 206.343 315.2C206.126 315.314 205.893 315.371 205.643 315.371ZM205.839 314.834C206.029 314.834 206.208 314.787 206.376 314.695C206.544 314.603 206.723 314.473 206.913 314.304V313.206C206.257 313.287 205.795 313.409 205.53 313.572C205.269 313.735 205.139 313.944 205.139 314.199C205.139 314.421 205.207 314.584 205.342 314.687C205.478 314.785 205.643 314.834 205.839 314.834ZM210.396 315.371C210.048 315.371 209.734 315.289 209.452 315.127C209.17 314.964 208.947 314.728 208.784 314.418C208.621 314.109 208.54 313.738 208.54 313.303C208.54 312.859 208.627 312.481 208.801 312.172C208.98 311.863 209.213 311.627 209.5 311.464C209.793 311.301 210.108 311.22 210.445 311.22C210.705 311.22 210.927 311.266 211.112 311.358C211.302 311.451 211.465 311.559 211.6 311.684L211.258 312.123C211.145 312.02 211.022 311.936 210.892 311.871C210.767 311.806 210.626 311.773 210.469 311.773C210.23 311.773 210.016 311.838 209.826 311.969C209.642 312.093 209.495 312.273 209.387 312.506C209.283 312.734 209.232 313 209.232 313.303C209.232 313.754 209.343 314.12 209.566 314.402C209.793 314.679 210.089 314.817 210.453 314.817C210.637 314.817 210.808 314.779 210.965 314.703C211.123 314.622 211.261 314.527 211.381 314.418L211.674 314.866C211.494 315.023 211.296 315.148 211.079 315.24C210.862 315.327 210.634 315.371 210.396 315.371ZM212.545 315.273V311.318H213.098L213.155 311.887H213.18C213.353 311.697 213.543 311.54 213.749 311.415C213.956 311.285 214.175 311.22 214.409 311.22C214.712 311.22 214.948 311.288 215.117 311.423C215.29 311.554 215.418 311.738 215.499 311.977C215.705 311.754 215.914 311.573 216.126 311.432C216.337 311.29 216.563 311.22 216.801 311.22C217.208 311.22 217.509 311.353 217.705 311.619C217.906 311.879 218.006 312.262 218.006 312.766V315.273H217.339V312.856C217.339 312.487 217.279 312.218 217.159 312.05C217.04 311.882 216.856 311.798 216.606 311.798C216.313 311.798 215.982 312.001 215.613 312.408V315.273H214.946V312.856C214.946 312.487 214.886 312.218 214.767 312.05C214.647 311.882 214.46 311.798 214.205 311.798C213.912 311.798 213.581 312.001 213.212 312.408V315.273H212.545ZM220.204 315.371C219.873 315.371 219.597 315.273 219.374 315.078C219.157 314.877 219.049 314.6 219.049 314.248C219.049 313.813 219.241 313.482 219.626 313.255C220.017 313.021 220.633 312.859 221.474 312.766C221.474 312.598 221.449 312.438 221.401 312.286C221.357 312.134 221.276 312.012 221.156 311.92C221.042 311.822 220.877 311.773 220.66 311.773C220.432 311.773 220.218 311.817 220.017 311.904C219.816 311.99 219.637 312.088 219.48 312.197L219.219 311.733C219.404 311.613 219.629 311.499 219.895 311.391C220.166 311.277 220.459 311.22 220.774 311.22C221.257 311.22 221.607 311.369 221.824 311.668C222.041 311.961 222.149 312.354 222.149 312.848V315.273H221.596L221.539 314.801H221.515C221.33 314.953 221.127 315.086 220.904 315.2C220.687 315.314 220.454 315.371 220.204 315.371ZM220.4 314.834C220.589 314.834 220.768 314.787 220.937 314.695C221.105 314.603 221.284 314.473 221.474 314.304V313.206C220.817 313.287 220.356 313.409 220.09 313.572C219.83 313.735 219.7 313.944 219.7 314.199C219.7 314.421 219.767 314.584 219.903 314.687C220.039 314.785 220.204 314.834 220.4 314.834ZM223.394 315.273V311.318H223.947L224.004 311.887H224.029C224.219 311.697 224.419 311.54 224.631 311.415C224.843 311.285 225.084 311.22 225.355 311.22C225.773 311.22 226.077 311.353 226.267 311.619C226.462 311.879 226.56 312.262 226.56 312.766V315.273H225.892V312.856C225.892 312.487 225.833 312.218 225.713 312.05C225.594 311.882 225.404 311.798 225.144 311.798C224.943 311.798 224.761 311.849 224.598 311.952C224.441 312.055 224.262 312.207 224.061 312.408V315.273H223.394ZM229.474 316.941V311.318H230.027L230.084 311.773H230.109C230.288 311.621 230.483 311.491 230.695 311.383C230.912 311.274 231.137 311.22 231.37 311.22C231.88 311.22 232.268 311.404 232.534 311.773C232.8 312.137 232.933 312.625 232.933 313.238C232.933 313.683 232.852 314.066 232.689 314.386C232.531 314.706 232.323 314.95 232.062 315.118C231.807 315.287 231.528 315.371 231.224 315.371C231.039 315.371 230.855 315.33 230.67 315.249C230.491 315.167 230.31 315.056 230.125 314.915L230.141 315.607V316.941H229.474ZM231.11 314.809C231.435 314.809 231.704 314.671 231.916 314.394C232.133 314.112 232.241 313.727 232.241 313.238C232.241 312.804 232.16 312.454 231.997 312.188C231.84 311.917 231.574 311.781 231.199 311.781C231.031 311.781 230.86 311.828 230.687 311.92C230.519 312.012 230.337 312.145 230.141 312.319V314.394C230.32 314.546 230.494 314.654 230.662 314.72C230.831 314.779 230.98 314.809 231.11 314.809ZM234.789 315.371C234.458 315.371 234.181 315.273 233.959 315.078C233.742 314.877 233.633 314.6 233.633 314.248C233.633 313.813 233.826 313.482 234.211 313.255C234.602 313.021 235.217 312.859 236.058 312.766C236.058 312.598 236.034 312.438 235.985 312.286C235.942 312.134 235.86 312.012 235.741 311.92C235.627 311.822 235.462 311.773 235.245 311.773C235.017 311.773 234.802 311.817 234.602 311.904C234.401 311.99 234.222 312.088 234.064 312.197L233.804 311.733C233.988 311.613 234.214 311.499 234.479 311.391C234.751 311.277 235.044 311.22 235.358 311.22C235.841 311.22 236.191 311.369 236.408 311.668C236.625 311.961 236.734 312.354 236.734 312.848V315.273H236.18L236.124 314.801H236.099C235.915 314.953 235.711 315.086 235.489 315.2C235.272 315.314 235.038 315.371 234.789 315.371ZM234.984 314.834C235.174 314.834 235.353 314.787 235.521 314.695C235.689 314.603 235.869 314.473 236.058 314.304V313.206C235.402 313.287 234.941 313.409 234.675 313.572C234.414 313.735 234.284 313.944 234.284 314.199C234.284 314.421 234.352 314.584 234.488 314.687C234.623 314.785 234.789 314.834 234.984 314.834ZM239.541 315.371C239.194 315.371 238.879 315.289 238.597 315.127C238.315 314.964 238.092 314.728 237.93 314.418C237.767 314.109 237.685 313.738 237.685 313.303C237.685 312.859 237.772 312.481 237.946 312.172C238.125 311.863 238.358 311.627 238.646 311.464C238.939 311.301 239.253 311.22 239.59 311.22C239.85 311.22 240.073 311.266 240.257 311.358C240.447 311.451 240.61 311.559 240.746 311.684L240.404 312.123C240.29 312.02 240.168 311.936 240.037 311.871C239.913 311.806 239.772 311.773 239.614 311.773C239.376 311.773 239.161 311.838 238.971 311.969C238.787 312.093 238.64 312.273 238.532 312.506C238.429 312.734 238.377 313 238.377 313.303C238.377 313.754 238.488 314.12 238.711 314.402C238.939 314.679 239.234 314.817 239.598 314.817C239.782 314.817 239.953 314.779 240.111 314.703C240.268 314.622 240.406 314.527 240.526 314.418L240.819 314.866C240.64 315.023 240.442 315.148 240.225 315.24C240.008 315.327 239.78 315.371 239.541 315.371ZM241.69 315.273V309.478H242.349V313.401H242.374L244.058 311.318H244.799L243.472 312.905L244.978 315.273H244.246L243.09 313.369L242.349 314.231V315.273H241.69ZM246.552 315.371C246.221 315.371 245.944 315.273 245.722 315.078C245.505 314.877 245.396 314.6 245.396 314.248C245.396 313.813 245.589 313.482 245.974 313.255C246.365 313.021 246.98 312.859 247.821 312.766C247.821 312.598 247.797 312.438 247.748 312.286C247.705 312.134 247.623 312.012 247.504 311.92C247.39 311.822 247.225 311.773 247.008 311.773C246.78 311.773 246.565 311.817 246.365 311.904C246.164 311.99 245.985 312.088 245.827 312.197L245.567 311.733C245.751 311.613 245.977 311.499 246.243 311.391C246.514 311.277 246.807 311.22 247.122 311.22C247.604 311.22 247.954 311.369 248.171 311.668C248.388 311.961 248.497 312.354 248.497 312.848V315.273H247.944L247.887 314.801H247.862C247.678 314.953 247.474 315.086 247.252 315.2C247.035 315.314 246.801 315.371 246.552 315.371ZM246.747 314.834C246.937 314.834 247.116 314.787 247.284 314.695C247.452 314.603 247.632 314.473 247.821 314.304V313.206C247.165 313.287 246.704 313.409 246.438 313.572C246.177 313.735 246.047 313.944 246.047 314.199C246.047 314.421 246.115 314.584 246.251 314.687C246.386 314.785 246.552 314.834 246.747 314.834ZM251.076 317.096C250.593 317.096 250.2 317.004 249.896 316.819C249.592 316.635 249.44 316.372 249.44 316.03C249.44 315.862 249.492 315.699 249.595 315.542C249.698 315.39 249.839 315.254 250.018 315.135V315.102C249.92 315.042 249.836 314.958 249.766 314.85C249.701 314.741 249.668 314.611 249.668 314.459C249.668 314.291 249.714 314.144 249.807 314.02C249.899 313.895 249.996 313.797 250.1 313.727V313.694C249.969 313.586 249.85 313.439 249.741 313.255C249.638 313.07 249.587 312.861 249.587 312.628C249.587 312.34 249.655 312.091 249.79 311.879C249.926 311.668 250.108 311.505 250.336 311.391C250.563 311.277 250.81 311.22 251.076 311.22C251.185 311.22 251.288 311.231 251.385 311.252C251.483 311.269 251.567 311.29 251.638 311.318H253.013V311.83H252.199C252.292 311.917 252.368 312.034 252.427 312.18C252.492 312.321 252.525 312.476 252.525 312.644C252.525 312.926 252.46 313.171 252.33 313.377C252.199 313.583 252.026 313.743 251.809 313.857C251.592 313.965 251.347 314.02 251.076 314.02C250.865 314.02 250.667 313.974 250.482 313.881C250.412 313.941 250.352 314.009 250.303 314.085C250.254 314.155 250.23 314.245 250.23 314.353C250.23 314.478 250.279 314.581 250.376 314.663C250.479 314.744 250.664 314.785 250.93 314.785H251.695C252.156 314.785 252.5 314.861 252.728 315.013C252.962 315.159 253.078 315.398 253.078 315.729C253.078 315.973 252.997 316.198 252.834 316.404C252.671 316.61 252.441 316.776 252.142 316.901C251.844 317.031 251.489 317.096 251.076 317.096ZM251.076 313.572C251.304 313.572 251.499 313.488 251.662 313.32C251.83 313.146 251.914 312.915 251.914 312.628C251.914 312.34 251.833 312.115 251.67 311.952C251.508 311.79 251.309 311.708 251.076 311.708C250.843 311.708 250.645 311.79 250.482 311.952C250.319 312.115 250.238 312.34 250.238 312.628C250.238 312.915 250.319 313.146 250.482 313.32C250.65 313.488 250.848 313.572 251.076 313.572ZM251.174 316.632C251.554 316.632 251.857 316.548 252.085 316.38C252.313 316.217 252.427 316.033 252.427 315.826C252.427 315.642 252.357 315.514 252.216 315.444C252.08 315.373 251.885 315.338 251.63 315.338H250.946C250.87 315.338 250.786 315.333 250.694 315.322C250.607 315.311 250.52 315.295 250.433 315.273C250.292 315.376 250.189 315.485 250.124 315.599C250.059 315.713 250.026 315.826 250.026 315.94C250.026 316.152 250.127 316.32 250.327 316.445C250.534 316.57 250.816 316.632 251.174 316.632ZM255.335 315.371C254.982 315.371 254.662 315.289 254.374 315.127C254.087 314.958 253.859 314.72 253.691 314.41C253.522 314.101 253.438 313.732 253.438 313.303C253.438 312.869 253.522 312.498 253.691 312.188C253.864 311.879 254.087 311.64 254.358 311.472C254.629 311.304 254.914 311.22 255.213 311.22C255.717 311.22 256.105 311.388 256.376 311.725C256.653 312.061 256.791 312.511 256.791 313.076C256.791 313.146 256.789 313.217 256.783 313.287C256.783 313.352 256.778 313.409 256.767 313.458H254.098C254.125 313.876 254.255 314.21 254.488 314.459C254.727 314.709 255.036 314.834 255.416 314.834C255.606 314.834 255.78 314.806 255.937 314.752C256.1 314.692 256.254 314.616 256.401 314.524L256.637 314.964C256.469 315.072 256.276 315.167 256.059 315.249C255.847 315.33 255.606 315.371 255.335 315.371ZM254.089 312.978H256.205C256.205 312.576 256.119 312.273 255.945 312.066C255.777 311.855 255.538 311.749 255.229 311.749C254.952 311.749 254.703 311.857 254.48 312.074C254.263 312.286 254.133 312.587 254.089 312.978ZM213.924 325.273V321.318H214.477L214.534 321.887H214.559C214.732 321.697 214.922 321.54 215.128 321.415C215.335 321.285 215.554 321.22 215.788 321.22C216.091 321.22 216.327 321.288 216.496 321.423C216.669 321.554 216.797 321.738 216.878 321.977C217.084 321.754 217.293 321.573 217.505 321.432C217.716 321.29 217.942 321.22 218.18 321.22C218.587 321.22 218.888 321.353 219.084 321.619C219.285 321.879 219.385 322.262 219.385 322.766V325.273H218.718V322.856C218.718 322.487 218.658 322.218 218.538 322.05C218.419 321.882 218.235 321.798 217.985 321.798C217.692 321.798 217.361 322.001 216.992 322.408V325.273H216.325V322.856C216.325 322.487 216.265 322.218 216.146 322.05C216.026 321.882 215.839 321.798 215.584 321.798C215.291 321.798 214.96 322.001 214.591 322.408V325.273H213.924ZM221.583 325.371C221.252 325.371 220.975 325.273 220.753 325.078C220.536 324.877 220.427 324.6 220.427 324.248C220.427 323.813 220.62 323.482 221.005 323.255C221.396 323.021 222.012 322.859 222.853 322.766C222.853 322.598 222.828 322.438 222.78 322.286C222.736 322.134 222.655 322.012 222.535 321.92C222.421 321.822 222.256 321.773 222.039 321.773C221.811 321.773 221.597 321.817 221.396 321.904C221.195 321.99 221.016 322.088 220.859 322.197L220.598 321.733C220.783 321.613 221.008 321.499 221.274 321.391C221.545 321.277 221.838 321.22 222.153 321.22C222.636 321.22 222.986 321.369 223.203 321.668C223.42 321.961 223.528 322.354 223.528 322.848V325.273H222.975L222.918 324.801H222.894C222.709 324.953 222.506 325.086 222.283 325.2C222.066 325.314 221.833 325.371 221.583 325.371ZM221.779 324.834C221.968 324.834 222.147 324.787 222.316 324.695C222.484 324.603 222.663 324.473 222.853 324.304V323.206C222.196 323.287 221.735 323.409 221.469 323.572C221.209 323.735 221.079 323.944 221.079 324.199C221.079 324.421 221.146 324.584 221.282 324.687C221.418 324.785 221.583 324.834 221.779 324.834ZM224.773 325.273V321.318H225.326L225.383 321.887H225.408C225.598 321.697 225.798 321.54 226.01 321.415C226.222 321.285 226.463 321.22 226.734 321.22C227.152 321.22 227.456 321.353 227.646 321.619C227.841 321.879 227.939 322.262 227.939 322.766V325.273H227.271V322.856C227.271 322.487 227.212 322.218 227.092 322.05C226.973 321.882 226.783 321.798 226.523 321.798C226.322 321.798 226.14 321.849 225.977 321.952C225.82 322.055 225.641 322.207 225.44 322.408V325.273H224.773ZM230.135 325.371C229.804 325.371 229.528 325.273 229.305 325.078C229.088 324.877 228.98 324.6 228.98 324.248C228.98 323.813 229.172 323.482 229.557 323.255C229.948 323.021 230.564 322.859 231.405 322.766C231.405 322.598 231.38 322.438 231.332 322.286C231.288 322.134 231.207 322.012 231.087 321.92C230.974 321.822 230.808 321.773 230.591 321.773C230.363 321.773 230.149 321.817 229.948 321.904C229.747 321.99 229.568 322.088 229.411 322.197L229.15 321.733C229.335 321.613 229.56 321.499 229.826 321.391C230.097 321.277 230.39 321.22 230.705 321.22C231.188 321.22 231.538 321.369 231.755 321.668C231.972 321.961 232.08 322.354 232.08 322.848V325.273H231.527L231.47 324.801H231.446C231.261 324.953 231.058 325.086 230.835 325.2C230.618 325.314 230.385 325.371 230.135 325.371ZM230.331 324.834C230.52 324.834 230.7 324.787 230.868 324.695C231.036 324.603 231.215 324.473 231.405 324.304V323.206C230.748 323.287 230.287 323.409 230.021 323.572C229.761 323.735 229.631 323.944 229.631 324.199C229.631 324.421 229.698 324.584 229.834 324.687C229.97 324.785 230.135 324.834 230.331 324.834ZM234.66 327.096C234.177 327.096 233.783 327.004 233.479 326.819C233.176 326.635 233.024 326.372 233.024 326.03C233.024 325.862 233.075 325.699 233.178 325.542C233.281 325.39 233.423 325.254 233.602 325.135V325.102C233.504 325.042 233.42 324.958 233.349 324.85C233.284 324.741 233.252 324.611 233.252 324.459C233.252 324.291 233.298 324.144 233.39 324.02C233.482 323.895 233.58 323.797 233.683 323.727V323.694C233.553 323.586 233.433 323.439 233.325 323.255C233.222 323.07 233.17 322.861 233.17 322.628C233.17 322.34 233.238 322.091 233.374 321.879C233.509 321.668 233.691 321.505 233.919 321.391C234.147 321.277 234.394 321.22 234.66 321.22C234.768 321.22 234.871 321.231 234.969 321.252C235.067 321.269 235.151 321.29 235.221 321.318H236.597V321.83H235.783C235.875 321.917 235.951 322.034 236.011 322.18C236.076 322.321 236.108 322.476 236.108 322.644C236.108 322.926 236.043 323.171 235.913 323.377C235.783 323.583 235.609 323.743 235.392 323.857C235.175 323.965 234.931 324.02 234.66 324.02C234.448 324.02 234.25 323.974 234.065 323.881C233.995 323.941 233.935 324.009 233.886 324.085C233.838 324.155 233.813 324.245 233.813 324.353C233.813 324.478 233.862 324.581 233.96 324.663C234.063 324.744 234.247 324.785 234.513 324.785H235.278C235.739 324.785 236.084 324.861 236.312 325.013C236.545 325.159 236.662 325.398 236.662 325.729C236.662 325.973 236.58 326.198 236.418 326.404C236.255 326.61 236.024 326.776 235.726 326.901C235.427 327.031 235.072 327.096 234.66 327.096ZM234.66 323.572C234.887 323.572 235.083 323.488 235.246 323.32C235.414 323.146 235.498 322.915 235.498 322.628C235.498 322.34 235.417 322.115 235.254 321.952C235.091 321.79 234.893 321.708 234.66 321.708C234.426 321.708 234.228 321.79 234.065 321.952C233.903 322.115 233.821 322.34 233.821 322.628C233.821 322.915 233.903 323.146 234.065 323.32C234.234 323.488 234.432 323.572 234.66 323.572ZM234.757 326.632C235.137 326.632 235.441 326.548 235.669 326.38C235.897 326.217 236.011 326.033 236.011 325.826C236.011 325.642 235.94 325.514 235.799 325.444C235.663 325.373 235.468 325.338 235.213 325.338H234.529C234.453 325.338 234.369 325.333 234.277 325.322C234.19 325.311 234.103 325.295 234.017 325.273C233.876 325.376 233.772 325.485 233.707 325.599C233.642 325.713 233.61 325.826 233.61 325.94C233.61 326.152 233.71 326.32 233.911 326.445C234.117 326.57 234.399 326.632 234.757 326.632ZM238.918 325.371C238.565 325.371 238.245 325.289 237.958 325.127C237.67 324.958 237.442 324.72 237.274 324.41C237.106 324.101 237.022 323.732 237.022 323.303C237.022 322.869 237.106 322.498 237.274 322.188C237.448 321.879 237.67 321.64 237.941 321.472C238.213 321.304 238.498 321.22 238.796 321.22C239.301 321.22 239.689 321.388 239.96 321.725C240.237 322.061 240.375 322.511 240.375 323.076C240.375 323.146 240.372 323.217 240.367 323.287C240.367 323.352 240.361 323.409 240.35 323.458H237.681C237.708 323.876 237.838 324.21 238.072 324.459C238.31 324.709 238.62 324.834 238.999 324.834C239.189 324.834 239.363 324.806 239.52 324.752C239.683 324.692 239.838 324.616 239.984 324.524L240.22 324.964C240.052 325.072 239.859 325.167 239.642 325.249C239.431 325.33 239.189 325.371 238.918 325.371ZM237.673 322.978H239.789C239.789 322.576 239.702 322.273 239.528 322.066C239.36 321.855 239.122 321.749 238.812 321.749C238.536 321.749 238.286 321.857 238.064 322.074C237.846 322.286 237.716 322.587 237.673 322.978ZM241.352 325.273V321.318H241.906L241.963 322.034H241.987C242.123 321.784 242.288 321.586 242.484 321.44C242.679 321.293 242.888 321.22 243.11 321.22C243.268 321.22 243.409 321.247 243.534 321.301L243.403 321.887C243.338 321.866 243.278 321.849 243.224 321.838C243.17 321.828 243.102 321.822 243.021 321.822C242.853 321.822 242.676 321.89 242.492 322.026C242.313 322.161 242.155 322.397 242.02 322.734V325.273H241.352Z" fill="white"/>
<rect x="268" width="268" height="378" fill="#21283A"/>
<path d="M267 200H534V373H267V200Z" fill="white"/>
<rect x="267" y="187" width="267" height="13" fill="#1793D1" fill-opacity="0.85"/>
<g filter="url(#filter0_d_0_1)">
<path fill-rule="evenodd" clip-rule="evenodd" d="M452.659 158.156C452.124 154.692 505.983 168.519 502.87 192.129C500.868 216.265 462.463 238.62 393.052 250.994C360.744 255.482 346.419 255.857 346.401 253.507C346.099 251.44 449.853 239.665 475.359 194.413C489.204 168.168 453.263 162.072 452.659 158.156Z" fill="black"/>
<path fill-rule="evenodd" clip-rule="evenodd" d="M476.586 253.864C477.44 263.346 477.137 265.307 474.755 265.161C471.665 264.961 472.186 260.965 471.279 258.279C461.594 225.365 439.574 174.156 406.507 174.156C373.628 174.156 359.455 216.371 347.531 251.216C345.767 256.662 343.615 264.978 332.647 265.17C324.794 265.191 322.662 257.859 323.042 253.113C329.06 173.278 357.888 113.335 400.542 112.015C436.797 110.892 469.455 174.644 476.586 253.864Z" fill="#DADADA" stroke="#383838" stroke-width="4.01609"/>
<path fill-rule="evenodd" clip-rule="evenodd" d="M476.586 253.864C477.44 263.346 477.137 265.307 474.755 265.161C471.665 264.961 472.186 260.965 471.279 258.279C461.594 225.365 439.574 174.156 406.507 174.156C373.628 174.156 359.455 216.371 347.531 251.216C345.767 256.662 343.615 264.978 332.647 265.17C324.794 265.191 322.662 257.859 323.042 253.113C329.06 173.278 357.888 113.335 400.542 112.015C436.797 110.892 469.455 174.644 476.586 253.864Z" fill="url(#paint3_linear_0_1)" stroke="#003870" stroke-width="4.01609"/>
<path fill-rule="evenodd" clip-rule="evenodd" d="M400.826 118.555C382.492 119.122 366.452 132.247 353.763 156.206C341.073 180.164 332.5 214.334 329.541 253.596C329.451 254.714 329.759 256.612 330.294 257.486C330.828 258.36 330.773 258.621 332.678 258.616C336.532 258.548 337.201 257.711 338.326 256.231C339.45 254.752 340.388 252.134 341.338 249.203C341.337 249.161 341.337 249.12 341.338 249.078C347.295 231.669 353.821 212.102 363.552 196.241C373.282 180.38 387.253 167.626 406.474 167.626C426.359 167.626 441.644 182.625 453.035 200.383C458.2 208.434 466.607 230.879 466.339 226.111C465.56 212.259 453.527 174.316 443.748 155.829C437.229 143.504 429.942 133.778 422.538 127.465C415.135 121.152 407.959 118.334 400.826 118.555Z" fill="url(#paint4_radial_0_1)"/>
<path fill-rule="evenodd" clip-rule="evenodd" d="M473.367 166.748C477.876 170.277 481.453 175.389 481.903 181.223C482.381 186.634 480.816 192.164 477.987 196.746C477.305 198.052 474.418 200.041 474.931 200.698C480.299 199.59 482.345 197.556 486.847 195.005C491.483 192.377 494.279 199.581 498.091 192.978C501.198 187.596 498.108 183.173 494.755 179.758C489.684 174.442 483.139 170.79 476.495 167.809C475.465 167.417 474.388 167.164 473.367 166.748Z" fill="url(#paint5_linear_0_1)"/>
</g>
</g>
<g filter="url(#filter1_d_0_1)">
<path fill-rule="evenodd" clip-rule="evenodd" d="M100.804 166.832C100.458 164.594 135.269 173.53 133.257 188.79C131.963 204.391 107.14 218.839 62.2771 226.837C41.3956 229.738 32.1365 229.98 32.125 228.461C31.9296 227.125 98.9898 219.514 115.475 190.267C124.424 173.303 101.194 169.364 100.804 166.832Z" fill="black"/>
<path fill-rule="evenodd" clip-rule="evenodd" d="M116.269 228.692C116.821 234.821 116.624 236.088 115.085 235.994C113.088 235.864 113.425 233.282 112.838 231.546C106.578 210.272 92.3464 177.174 70.9739 177.174C49.723 177.174 40.562 204.459 32.8553 226.981C31.7151 230.501 30.324 235.875 23.2353 236C18.1598 236.013 16.7816 231.274 17.027 228.207C20.9169 176.606 39.5492 137.863 67.1184 137.009C90.5514 136.284 111.66 177.489 116.269 228.692Z" fill="#DADADA" stroke="#383838" stroke-width="2.59576"/>
<path fill-rule="evenodd" clip-rule="evenodd" d="M116.269 228.692C116.821 234.821 116.624 236.088 115.085 235.994C113.088 235.864 113.425 233.282 112.838 231.546C106.578 210.272 92.3464 177.174 70.9739 177.174C49.723 177.174 40.562 204.459 32.8553 226.981C31.7151 230.501 30.324 235.875 23.2353 236C18.1598 236.013 16.7816 231.274 17.027 228.207C20.9169 176.606 39.5492 137.863 67.1184 137.009C90.5514 136.284 111.66 177.489 116.269 228.692Z" fill="url(#paint6_linear_0_1)" stroke="#003870" stroke-width="2.59576"/>
<path fill-rule="evenodd" clip-rule="evenodd" d="M67.3021 141.237C55.4517 141.603 45.085 150.087 36.8831 165.572C28.6812 181.057 23.1404 203.142 21.2274 228.519C21.1696 229.241 21.3684 230.469 21.7141 231.033C22.0598 231.598 22.0241 231.767 23.2553 231.764C25.7464 231.72 26.1789 231.179 26.9056 230.222C27.6323 229.266 28.2388 227.574 28.8524 225.68C28.8522 225.653 28.8522 225.626 28.8524 225.599C32.7028 214.347 36.9211 201.7 43.2102 191.448C49.4994 181.196 58.5295 172.953 70.9524 172.953C83.8051 172.953 93.6845 182.648 101.047 194.125C104.385 199.329 109.819 213.836 109.645 210.754C109.142 201.801 101.365 177.277 95.0442 165.328C90.8305 157.362 86.1207 151.076 81.3354 146.996C76.5501 142.916 71.9123 141.094 67.3021 141.237Z" fill="url(#paint7_radial_0_1)"/>
<path fill-rule="evenodd" clip-rule="evenodd" d="M114.188 172.386C117.102 174.666 119.414 177.971 119.705 181.741C120.014 185.239 119.003 188.813 117.174 191.774C116.733 192.619 114.868 193.904 115.199 194.329C118.668 193.613 119.991 192.298 122.901 190.649C125.897 188.951 127.704 193.607 130.168 189.339C132.176 185.86 130.179 183.002 128.012 180.794C124.735 177.359 120.504 174.998 116.21 173.072C115.544 172.818 114.848 172.655 114.188 172.386Z" fill="url(#paint8_linear_0_1)"/>
</g>
<path fill-rule="evenodd" clip-rule="evenodd" d="M8.86405 283.266L9.98407 277.385C11.0674 277.006 13.8694 276.303 17.2439 276.274C28.5554 276.178 27.3181 283.838 27.3692 285.836L27.3092 299.955L21.9827 300.884L21.9818 298.678C21.2027 299.141 19.6433 300.884 15.487 301C11.5891 301 5.87247 298.909 6.00218 291.593C6.00311 285.089 12.2376 283.427 16.6562 283.456C20.1586 283.48 21.2724 285.243 21.2035 285.136C21.2769 283.29 20.9038 281.931 16.8556 281.83C14.4107 281.768 8.86133 283.288 8.86405 283.266ZM16.4612 288.574C14.1638 288.545 11.759 290.033 11.7187 292.058C11.7269 294.322 14.3168 295.775 16.2661 295.775C18.2146 295.775 21.2116 294.497 21.2035 292.173C21.2035 289.619 18.6691 288.581 16.4612 288.574Z" fill="black"/>
<path fill-rule="evenodd" clip-rule="evenodd" d="M30.6688 277.613L30.5988 300.993L36.8059 299.765L36.8356 286.509C36.8397 284.535 39.7345 282.199 43.3621 282.199C44.134 280.833 45.5863 277.347 45.9401 276.554C37.8356 276.617 37.7291 278.908 36.3179 280.049C36.3063 277.9 36.3179 276.61 36.3179 276.61L30.6688 277.613Z" fill="black"/>
<path fill-rule="evenodd" clip-rule="evenodd" d="M65.327 280.68C65.2671 280.653 62.3562 276.739 55.9701 276.775C49.9886 276.739 43.2759 279.068 43.1544 288.849C43.1943 297.447 49.5822 300.743 55.9692 300.744C62.8043 300.744 65.5302 296.479 65.6934 296.373C64.8789 295.692 61.8282 292.898 61.8282 292.898C61.8282 292.898 59.916 295.835 56.2141 295.907C52.5113 295.978 49.2974 292.79 49.2574 288.849C49.2157 284.908 51.5352 282.185 55.9284 282.221C60.8513 282.221 61.9507 284.119 61.9507 284.119L65.327 280.68Z" fill="black"/>
<path fill-rule="evenodd" clip-rule="evenodd" d="M67.5648 300.851L73.3404 299.777L73.4257 285.445C73.4402 283.942 75.6599 281.612 79.3618 281.648C82.9014 281.648 83.6851 283.905 83.6751 284.191L83.7559 300.779L89.4516 299.74L89.4925 282.149C89.5324 280.455 85.6971 276.917 79.5242 276.954C75.0666 277.006 73.6216 278.524 73.4229 278.638V269L67.5639 270.398L67.5648 300.851Z" fill="black"/>
<path fill-rule="evenodd" clip-rule="evenodd" d="M94.4961 272.583L97.1403 271.974L97.1821 299.705L94.4961 300.135L94.4961 272.583Z" fill="black"/>
<path fill-rule="evenodd" clip-rule="evenodd" d="M101.656 280.787L103.975 279.856L103.935 299.74L101.697 300.17L101.656 280.787ZM101.127 273.622L102.998 272.261L104.545 273.765L102.673 275.162L101.127 273.622Z" fill="black"/>
<path fill-rule="evenodd" clip-rule="evenodd" d="M108.328 280.357L110.972 279.856V284.013C110.972 284.191 112.437 279.354 119.435 279.39C126.229 279.355 127.326 283.976 127.286 285.015L127.326 299.633L125.009 300.099L125.039 285.66C125.067 285.238 123.992 281.683 119.191 281.719C114.39 281.755 111.055 284.872 111.055 286.842V299.562L108.369 300.206L108.328 280.357Z" fill="black"/>
<path fill-rule="evenodd" clip-rule="evenodd" d="M150.386 299.504L147.742 300.006V295.849C147.742 295.67 146.276 300.508 139.279 300.471C132.485 300.507 131.388 295.885 131.427 294.846L131.388 280.229L134.197 279.701V294.14C134.197 294.534 134.722 298.178 139.523 298.143C144.324 298.106 147.695 295.514 147.73 291.661V280.269L150.345 279.655L150.386 299.504Z" fill="black"/>
<path fill-rule="evenodd" clip-rule="evenodd" d="M155.625 279.714L153.768 281.01L160.848 289.127L153.242 298.665L155.204 299.93L162.354 291.072L169.679 299.992L171.501 298.696L163.651 289.159L169.96 281.318L168.031 279.898L162.284 287.153L155.625 279.714Z" fill="black"/>
<defs>
<filter id="filter0_d_0_1" x="301.076" y="92.7315" width="221.84" height="197.018" filterUnits="userSpaceOnUse" color-interpolation-filters="sRGB">
<feFlood flood-opacity="0" result="BackgroundImageFix"/>
<feColorMatrix in="SourceAlpha" type="matrix" values="0 0 0 0 0 0 0 0 0 0 0 0 0 0 0 0 0 0 127 0" result="hardAlpha"/>
<feOffset dy="2.65545"/>
<feGaussianBlur stdDeviation="9.95794"/>
<feComposite in2="hardAlpha" operator="out"/>
<feColorMatrix type="matrix" values="0 0 0 0 1 0 0 0 0 1 0 0 0 0 1 0 0 0 1 0"/>
<feBlend mode="normal" in2="BackgroundImageFix" result="effect1_dropShadow_0_1"/>
<feBlend mode="normal" in="SourceGraphic" in2="effect1_dropShadow_0_1" result="shape"/>
</filter>
<filter id="filter1_d_0_1" x="2.82982" y="124.546" width="143.383" height="127.341" filterUnits="userSpaceOnUse" color-interpolation-filters="sRGB">
<feFlood flood-opacity="0" result="BackgroundImageFix"/>
<feColorMatrix in="SourceAlpha" type="matrix" values="0 0 0 0 0 0 0 0 0 0 0 0 0 0 0 0 0 0 127 0" result="hardAlpha"/>
<feOffset dy="1.71632"/>
<feGaussianBlur stdDeviation="6.4362"/>
<feComposite in2="hardAlpha" operator="out"/>
<feColorMatrix type="matrix" values="0 0 0 0 1 0 0 0 0 1 0 0 0 0 1 0 0 0 1 0"/>
<feBlend mode="normal" in2="BackgroundImageFix" result="effect1_dropShadow_0_1"/>
<feBlend mode="normal" in="SourceGraphic" in2="effect1_dropShadow_0_1" result="shape"/>
</filter>
<linearGradient id="paint0_linear_0_1" x1="84.7141" y1="228.518" x2="15.0169" y2="-31.5957" gradientUnits="userSpaceOnUse">
<stop stop-color="#F2F9FF"/>
<stop offset="1" stop-color="#91AFCB"/>
</linearGradient>
<radialGradient id="paint1_radial_0_1" cx="0" cy="0" r="1" gradientTransform="matrix(-48.963 125.573 -77.6254 -30.2676 -3.42904 8.09746)" gradientUnits="userSpaceOnUse">
<stop stop-color="#A4BFDA"/>
<stop offset="1" stop-color="#387CBF"/>
</radialGradient>
<linearGradient id="paint2_linear_0_1" x1="181.022" y1="19.9964" x2="180.614" y2="79.0974" gradientUnits="userSpaceOnUse">
<stop stop-color="#9C9C9C"/>
<stop offset="1" stop-opacity="0"/>
</linearGradient>
<linearGradient id="paint3_linear_0_1" x1="399.948" y1="279.808" x2="399.948" y2="116.109" gradientUnits="userSpaceOnUse">
<stop stop-color="#F2F9FF"/>
<stop offset="1" stop-color="#91AFCB"/>
</linearGradient>
<radialGradient id="paint4_radial_0_1" cx="0" cy="0" r="1" gradientTransform="matrix(-48.5071 66.0305 -40.818 -29.9857 382.872 136.514)" gradientUnits="userSpaceOnUse">
<stop stop-color="#A4BFDA"/>
<stop offset="1" stop-color="#387CBF"/>
</radialGradient>
<linearGradient id="paint5_linear_0_1" x1="489.306" y1="172.521" x2="479.768" y2="207.16" gradientUnits="userSpaceOnUse">
<stop stop-color="#9C9C9C"/>
<stop offset="1" stop-opacity="0"/>
</linearGradient>
<linearGradient id="paint6_linear_0_1" x1="66.7343" y1="245.461" x2="66.7343" y2="139.656" gradientUnits="userSpaceOnUse">
<stop stop-color="#F2F9FF"/>
<stop offset="1" stop-color="#91AFCB"/>
</linearGradient>
<radialGradient id="paint7_radial_0_1" cx="0" cy="0" r="1" gradientTransform="matrix(-31.352 42.678 -26.3822 -19.3809 55.6973 152.844)" gradientUnits="userSpaceOnUse">
<stop stop-color="#A4BFDA"/>
<stop offset="1" stop-color="#387CBF"/>
</radialGradient>
<linearGradient id="paint8_linear_0_1" x1="124.49" y1="176.117" x2="118.325" y2="198.505" gradientUnits="userSpaceOnUse">
<stop stop-color="#9C9C9C"/>
<stop offset="1" stop-opacity="0"/>
</linearGradient>
<clipPath id="clip0_0_1">
<rect width="535" height="373" fill="white"/>
</clipPath>
</defs>
</svg>
