<svg width="1000" height="1000" viewBox="0 0 1000 1000" fill="none" xmlns="http://www.w3.org/2000/svg">
<rect width="1000" height="1000" fill="#1E1E1E"/>
<g clip-path="url(#clip0_0_1)">
<rect width="1000" height="1000" fill="#21283A"/>
<path d="M713.352 36.2816L712.318 39.6178H718.89L717.856 36.2816C717.456 35.0582 717.078 33.8461 716.722 32.645C716.366 31.4217 716.01 30.1761 715.654 28.9083H715.521C715.187 30.1761 714.842 31.4217 714.486 32.645C714.13 33.8461 713.752 35.0582 713.352 36.2816ZM706.679 48.5258L714.086 26.6397H717.222L724.629 48.5258H721.659L719.591 41.8532H711.617L709.515 48.5258H706.679ZM727.463 48.5258V32.3114H729.731L729.965 35.2473H730.065C730.621 34.2242 731.299 33.4123 732.1 32.8118C732.901 32.2113 733.757 31.911 734.669 31.911C735.314 31.911 735.892 32.0222 736.404 32.2446L735.87 34.6468C735.603 34.5578 735.359 34.4911 735.136 34.4466C734.914 34.4021 734.636 34.3799 734.302 34.3799C733.613 34.3799 732.89 34.6579 732.134 35.2139C731.4 35.77 730.755 36.7375 730.198 38.1165V48.5258H727.463ZM745.109 48.9261C743.685 48.9261 742.395 48.5925 741.239 47.9252C740.082 47.258 739.17 46.2904 738.503 45.0226C737.836 43.7549 737.502 42.2313 737.502 40.4519C737.502 38.6281 737.858 37.0823 738.57 35.8145C739.304 34.5467 740.26 33.5792 741.439 32.9119C742.64 32.2446 743.93 31.911 745.309 31.911C746.377 31.911 747.289 32.1001 748.045 32.4782C748.823 32.8563 749.491 33.3011 750.047 33.8127L748.645 35.6143C748.178 35.1917 747.678 34.8469 747.144 34.58C746.632 34.3131 746.054 34.1797 745.409 34.1797C744.43 34.1797 743.552 34.4466 742.773 34.9804C742.017 35.492 741.417 36.226 740.972 37.1824C740.549 38.1165 740.338 39.2064 740.338 40.4519C740.338 42.298 740.794 43.7993 741.706 44.9559C742.64 46.0903 743.852 46.6574 745.342 46.6574C746.099 46.6574 746.799 46.5017 747.444 46.1904C748.089 45.8567 748.656 45.4675 749.146 45.0226L750.347 46.8576C749.613 47.5026 748.801 48.0142 747.911 48.3923C747.022 48.7482 746.087 48.9261 745.109 48.9261ZM753.918 48.5258V24.7713H756.654V31.2438L756.554 34.58C757.333 33.8461 758.144 33.2233 758.99 32.7117C759.857 32.1779 760.847 31.911 761.959 31.911C763.672 31.911 764.917 32.4559 765.696 33.5458C766.496 34.6134 766.897 36.1815 766.897 38.25V48.5258H764.161V38.617C764.161 37.1045 763.916 36.0035 763.427 35.314C762.938 34.6245 762.159 34.2798 761.092 34.2798C760.269 34.2798 759.523 34.4911 758.856 34.9137C758.211 35.3363 757.477 35.959 756.654 36.782V48.5258H753.918ZM779.012 48.5258V26.6397H781.781V46.157H791.356V48.5258H779.012ZM794.971 48.5258V32.3114H797.706V48.5258H794.971ZM796.372 28.9751C795.838 28.9751 795.393 28.8194 795.037 28.508C794.704 28.1744 794.537 27.7295 794.537 27.1735C794.537 26.6397 794.704 26.2059 795.037 25.8723C795.393 25.5387 795.838 25.3719 796.372 25.3719C796.906 25.3719 797.339 25.5387 797.673 25.8723C798.029 26.2059 798.207 26.6397 798.207 27.1735C798.207 27.7295 798.029 28.1744 797.673 28.508C797.339 28.8194 796.906 28.9751 796.372 28.9751ZM803.181 48.5258V32.3114H805.45L805.683 34.6468H805.783C806.562 33.8683 807.385 33.2233 808.252 32.7117C809.12 32.1779 810.109 31.911 811.221 31.911C812.934 31.911 814.18 32.4559 814.958 33.5458C815.759 34.6134 816.159 36.1815 816.159 38.25V48.5258H813.423V38.617C813.423 37.1045 813.179 36.0035 812.689 35.314C812.2 34.6245 811.422 34.2798 810.354 34.2798C809.531 34.2798 808.786 34.4911 808.119 34.9137C807.474 35.3363 806.74 35.959 805.917 36.782V48.5258H803.181ZM826.164 48.9261C824.451 48.9261 823.195 48.3923 822.394 47.3247C821.593 46.2348 821.193 44.6557 821.193 42.5872V32.3114H823.962V42.2202C823.962 43.7326 824.195 44.8336 824.663 45.5231C825.152 46.2126 825.93 46.5573 826.998 46.5573C827.843 46.5573 828.588 46.346 829.233 45.9234C829.901 45.4786 830.612 44.778 831.368 43.8216V32.3114H834.104V48.5258H831.836L831.602 45.9902H831.502C830.746 46.8799 829.945 47.5916 829.1 48.1254C828.255 48.6592 827.276 48.9261 826.164 48.9261ZM837.305 48.5258L842.61 40.0516L837.706 32.3114H840.675L842.843 35.8812C843.088 36.3038 843.344 36.7486 843.611 37.2157C843.878 37.6828 844.156 38.1388 844.445 38.5836H844.578C844.823 38.1388 845.068 37.6828 845.312 37.2157C845.557 36.7486 845.802 36.3038 846.046 35.8812L848.015 32.3114H850.884L845.98 40.3518L851.251 48.5258H848.282L845.913 44.7557C845.624 44.2664 845.335 43.7771 845.045 43.2878C844.756 42.7985 844.456 42.3202 844.145 41.8532H844.011C843.722 42.3202 843.444 42.7985 843.177 43.2878C842.91 43.7549 842.643 44.2442 842.376 44.7557L840.174 48.5258H837.305ZM866.681 48.9261C864.657 48.9261 863.033 48.1921 861.81 46.7242C860.587 45.2339 859.975 43.1432 859.975 40.4519C859.975 38.6948 860.297 37.1824 860.942 35.9146C861.61 34.6245 862.477 33.6348 863.545 32.9453C864.635 32.2558 865.791 31.911 867.014 31.911C867.949 31.911 868.76 32.0778 869.45 32.4115C870.139 32.7451 870.84 33.201 871.552 33.7793L871.418 31.0102V24.7713H874.187V48.5258H871.919L871.685 46.6241H871.585C870.962 47.2468 870.228 47.7918 869.383 48.2589C868.538 48.7037 867.637 48.9261 866.681 48.9261ZM867.281 46.6241C868.705 46.6241 870.084 45.879 871.418 44.3888V35.9146C870.729 35.2918 870.062 34.8581 869.417 34.6134C868.794 34.3465 868.149 34.2131 867.482 34.2131C866.614 34.2131 865.824 34.48 865.113 35.0138C864.423 35.5253 863.867 36.2482 863.445 37.1824C863.022 38.0943 862.811 39.173 862.811 40.4186C862.811 42.3536 863.2 43.8772 863.978 44.9893C864.757 46.0791 865.858 46.6241 867.281 46.6241ZM886.221 48.9261C884.775 48.9261 883.463 48.5925 882.284 47.9252C881.105 47.2357 880.171 46.2571 879.482 44.9893C878.792 43.7215 878.447 42.209 878.447 40.4519C878.447 38.6726 878.792 37.149 879.482 35.8812C880.193 34.6134 881.105 33.6348 882.218 32.9453C883.33 32.2558 884.497 31.911 885.721 31.911C887.789 31.911 889.379 32.6005 890.492 33.9795C891.626 35.3585 892.193 37.2046 892.193 39.5178C892.193 39.8069 892.182 40.0961 892.16 40.3852C892.16 40.6521 892.137 40.8856 892.093 41.0858H881.15C881.261 42.7985 881.795 44.1663 882.751 45.1895C883.73 46.2126 884.998 46.7242 886.555 46.7242C887.333 46.7242 888.045 46.6129 888.69 46.3905C889.357 46.1459 889.991 45.8345 890.592 45.4564L891.559 47.258C890.87 47.7028 890.08 48.092 889.19 48.4257C888.323 48.7593 887.333 48.9261 886.221 48.9261ZM881.117 39.1174H889.791C889.791 37.4715 889.435 36.226 888.723 35.3808C888.034 34.5133 887.055 34.0796 885.787 34.0796C884.653 34.0796 883.63 34.5244 882.718 35.4141C881.828 36.2816 881.294 37.516 881.117 39.1174ZM899.866 48.5258L894.027 32.3114H896.863L899.932 41.5195C900.177 42.3202 900.422 43.121 900.666 43.9217C900.933 44.7224 901.189 45.512 901.434 46.2904H901.567C901.812 45.512 902.057 44.7224 902.301 43.9217C902.568 43.121 902.813 42.3202 903.035 41.5195L906.105 32.3114H908.807L903.069 48.5258H899.866ZM923.72 48.9261C921.985 48.9261 920.773 48.4257 920.083 47.4248C919.416 46.4239 919.083 45.1227 919.083 43.5213V34.5467H916.68V32.4782L919.216 32.3114L919.55 27.774H921.852V32.3114H926.222V34.5467H921.852V43.5547C921.852 44.5556 922.03 45.334 922.385 45.8901C922.764 46.4239 923.42 46.6908 924.354 46.6908C924.643 46.6908 924.954 46.6463 925.288 46.5573C925.622 46.4461 925.922 46.346 926.189 46.2571L926.723 48.3256C926.278 48.4813 925.788 48.6147 925.255 48.7259C924.743 48.8594 924.232 48.9261 923.72 48.9261ZM936.005 48.9261C934.559 48.9261 933.247 48.5925 932.068 47.9252C930.889 47.2357 929.955 46.2571 929.266 44.9893C928.576 43.7215 928.231 42.209 928.231 40.4519C928.231 38.6726 928.576 37.149 929.266 35.8812C929.977 34.6134 930.889 33.6348 932.001 32.9453C933.113 32.2558 934.281 31.911 935.504 31.911C937.573 31.911 939.163 32.6005 940.275 33.9795C941.41 35.3585 941.977 37.2046 941.977 39.5178C941.977 39.8069 941.966 40.0961 941.943 40.3852C941.943 40.6521 941.921 40.8856 941.877 41.0858H930.934C931.045 42.7985 931.579 44.1663 932.535 45.1895C933.514 46.2126 934.782 46.7242 936.338 46.7242C937.117 46.7242 937.829 46.6129 938.474 46.3905C939.141 46.1459 939.775 45.8345 940.375 45.4564L941.343 47.258C940.653 47.7028 939.864 48.092 938.974 48.4257C938.107 48.7593 937.117 48.9261 936.005 48.9261ZM930.9 39.1174H939.575C939.575 37.4715 939.219 36.226 938.507 35.3808C937.818 34.5133 936.839 34.0796 935.571 34.0796C934.437 34.0796 933.414 34.5244 932.502 35.4141C931.612 36.2816 931.078 37.516 930.9 39.1174ZM949.264 48.9261C947.907 48.9261 946.773 48.5258 945.861 47.725C944.971 46.9021 944.526 45.7678 944.526 44.322C944.526 42.5427 945.316 41.1859 946.895 40.2517C948.497 39.2953 951.021 38.6281 954.469 38.25C954.469 37.5605 954.369 36.9043 954.168 36.2816C953.99 35.6588 953.657 35.1583 953.167 34.7802C952.7 34.3799 952.022 34.1797 951.132 34.1797C950.198 34.1797 949.32 34.3576 948.497 34.7135C947.674 35.0694 946.94 35.4697 946.295 35.9146L945.227 34.0129C945.983 33.5236 946.906 33.0565 947.996 32.6116C949.108 32.1445 950.309 31.911 951.599 31.911C953.579 31.911 955.014 32.5227 955.903 33.746C956.793 34.947 957.238 36.5596 957.238 38.5836V48.5258H954.969L954.736 46.5907H954.635C953.879 47.2135 953.045 47.7584 952.133 48.2255C951.244 48.6926 950.287 48.9261 949.264 48.9261ZM950.065 46.7242C950.843 46.7242 951.577 46.5351 952.267 46.157C952.956 45.7789 953.69 45.2451 954.469 44.5556V40.0516C951.777 40.3852 949.887 40.8856 948.797 41.5529C947.729 42.2202 947.196 43.0765 947.196 44.1218C947.196 45.0338 947.474 45.701 948.03 46.1236C948.586 46.524 949.264 46.7242 950.065 46.7242ZM962.339 48.5258V32.3114H964.608L964.841 34.6468H964.941C965.653 33.8683 966.432 33.2233 967.277 32.7117C968.122 32.1779 969.023 31.911 969.979 31.911C971.225 31.911 972.192 32.189 972.882 32.7451C973.594 33.2789 974.116 34.0351 974.45 35.0138C975.295 34.1018 976.151 33.3567 977.019 32.7784C977.886 32.2002 978.809 31.911 979.788 31.911C981.456 31.911 982.691 32.4559 983.491 33.5458C984.314 34.6134 984.726 36.1815 984.726 38.25V48.5258H981.99V38.617C981.99 37.1045 981.745 36.0035 981.256 35.314C980.767 34.6245 980.01 34.2798 978.987 34.2798C977.786 34.2798 976.429 35.1139 974.917 36.782V48.5258H972.181V38.617C972.181 37.1045 971.937 36.0035 971.447 35.314C970.958 34.6245 970.191 34.2798 969.145 34.2798C967.944 34.2798 966.587 35.1139 965.075 36.782V48.5258H962.339Z" fill="white"/>
<g opacity="0.6">
<path fill-rule="evenodd" clip-rule="evenodd" d="M317.027 44.6658C311.322 31.7136 535.871 29.3538 548.404 124.708C565.824 220.954 439.375 348.298 181.545 469.122C60.2085 520.398 4.71808 536.831 2.19267 527.683C-1.14767 519.936 391.277 365.555 443.475 162.375C470.051 45.5221 323.479 59.3129 317.027 44.6658Z" fill="black"/>
<path fill-rule="evenodd" clip-rule="evenodd" d="M510.403 393.001C523.644 429.098 524.51 437.066 515.065 438.984C502.803 441.433 500.661 425.301 494.314 415.774C422.13 297.504 282.709 120.759 153.719 155.321C25.4628 189.688 14.2973 369.177 4.2058 517.567C3.01672 540.655 3.3127 575.342 -39.2684 587.558C-69.8794 595.847 -85.8611 569.474 -89.3408 550.563C-149.31 232.846 -99.5125 -31.1166 65.4971 -80.8503C205.75 -123.124 399.78 91.4271 510.403 393.001Z" fill="#DADADA" stroke="#383838" stroke-width="16.9438"/>
<path fill-rule="evenodd" clip-rule="evenodd" d="M510.403 393.001C523.644 429.098 524.51 437.066 515.065 438.984C502.803 441.433 500.661 425.301 494.314 415.774C422.13 297.504 282.709 120.759 153.719 155.321C25.4628 189.688 14.2973 369.177 4.2058 517.567C3.01672 540.655 3.3127 575.342 -39.2684 587.558C-69.8794 595.847 -85.8611 569.474 -89.3408 550.563C-149.31 232.846 -99.5125 -31.1166 65.4971 -80.8503C205.75 -123.124 399.78 91.4271 510.403 393.001Z" fill="url(#paint0_linear_0_1)" stroke="#003870" stroke-width="16.9438"/>
<path fill-rule="evenodd" clip-rule="evenodd" d="M73.4415 -55.6356C2.51362 -34.2581 -46.3345 33.7059 -70.7937 140.428C-95.2529 247.151 -92.9772 389.405 -63.4851 545.654C-62.6654 550.108 -59.4813 557.193 -56.4811 560.043C-53.4809 562.894 -53.4243 563.968 -45.9986 561.957C-31.0352 557.664 -29.2996 553.699 -26.4603 546.752C-23.621 539.805 -22.6967 528.615 -22.0567 516.188C-22.102 516.025 -22.1457 515.862 -22.1879 515.698C-17.1461 441.562 -12.139 358.413 9.23937 286.37C30.6177 214.326 71.7871 149.974 146.764 129.884C224.335 109.099 299.637 151.631 362.633 208.994C391.196 235.004 447.449 313.773 441.419 295.451C423.905 242.23 337.306 106.799 279.835 44.9035C241.522 3.64009 202.931 -26.6825 167.451 -43.5702C131.972 -60.4579 101.035 -63.9525 73.4415 -55.6356Z" fill="url(#paint1_radial_0_1)"/>
<path fill-rule="evenodd" clip-rule="evenodd" d="M406.787 56.5378C428.065 65.5906 447.362 81.7931 455.214 104.081C462.735 124.689 462.411 147.898 456.165 168.727C454.868 174.535 445.688 185.31 448.375 187.34C468.156 177.407 474.011 167.334 488.906 152.674C504.243 137.58 522.68 162.758 530.649 133.016C537.145 108.773 520.468 94.7517 503.818 84.9321C478.482 69.4961 449.132 62.0911 420.099 57.4096C415.673 56.9566 411.205 57.0944 406.787 56.5378Z" fill="url(#paint2_linear_0_1)"/>
</g>
<path d="M0 536.344H999.294V1000H0V536.344Z" fill="white"/>
<rect x="0.705719" y="482.71" width="999.294" height="53.6344" fill="#1793D1" fill-opacity="0.85"/>
<path d="M52.4292 716.558C50.1255 716.558 48.0763 716.023 46.2816 714.951C44.4869 713.853 43.0805 712.286 42.0626 710.25C41.0447 708.214 40.5358 705.763 40.5358 702.897C40.5358 700.058 41.0581 697.62 42.1028 695.584C43.1475 693.548 44.5806 691.981 46.4021 690.883C48.2236 689.785 50.2996 689.236 52.6301 689.236C54.4516 689.236 55.9784 689.584 57.2106 690.28C58.4696 690.95 59.4741 691.687 60.2241 692.49L58.3758 694.66C57.7062 693.964 56.9294 693.374 56.0454 692.892C55.1614 692.41 54.0498 692.169 52.7104 692.169C50.9425 692.169 49.4022 692.611 48.0897 693.495C46.7771 694.352 45.7592 695.571 45.036 697.151C44.3395 698.732 43.9913 700.62 43.9913 702.817C43.9913 706.138 44.7413 708.777 46.2414 710.732C47.7682 712.661 49.938 713.625 52.7506 713.625C53.6881 713.625 54.5855 713.491 55.4427 713.223C56.2999 712.929 56.9829 712.54 57.4919 712.058V705.187H51.9068V702.415H60.5456V713.505C59.7152 714.389 58.5901 715.125 57.1704 715.715C55.7775 716.277 54.1971 716.558 52.4292 716.558ZM66.8614 716.076V689.718H70.3169L79.8397 706.272L82.6925 711.737H82.8532C82.7728 710.397 82.6791 709.018 82.5719 707.598C82.4916 706.152 82.4514 704.732 82.4514 703.339V689.718H85.6256V716.076H82.1701L72.6072 699.482L69.7544 694.057H69.5937C69.7008 695.37 69.7946 696.723 69.8749 698.116C69.9821 699.508 70.0357 700.901 70.0357 702.294V716.076H66.8614ZM102.239 716.558C100.444 716.558 98.8233 716.197 97.3768 715.473C95.9571 714.75 94.832 713.558 94.0016 711.897C93.1713 710.237 92.7561 708 92.7561 705.187V689.718H96.091V705.268C96.091 707.384 96.3589 709.058 96.8946 710.29C97.4571 711.496 98.1938 712.353 99.1045 712.862C100.042 713.371 101.087 713.625 102.239 713.625C103.417 713.625 104.475 713.371 105.413 712.862C106.35 712.353 107.087 711.496 107.623 710.29C108.185 709.058 108.467 707.384 108.467 705.268V689.718H111.681V705.187C111.681 708 111.266 710.237 110.435 711.897C109.605 713.558 108.48 714.75 107.06 715.473C105.641 716.197 104.033 716.558 102.239 716.558ZM114.304 722.505L125.032 687.548H127.443L116.715 722.505H114.304ZM131.566 716.076V689.718H134.901V713.223H146.433V716.076H131.566ZM150.785 716.076V696.549H154.08V716.076H150.785ZM152.473 692.531C151.83 692.531 151.294 692.343 150.866 691.968C150.464 691.566 150.263 691.03 150.263 690.361C150.263 689.718 150.464 689.196 150.866 688.794C151.294 688.392 151.83 688.191 152.473 688.191C153.116 688.191 153.638 688.392 154.04 688.794C154.468 689.196 154.683 689.718 154.683 690.361C154.683 691.03 154.468 691.566 154.04 691.968C153.638 692.343 153.116 692.531 152.473 692.531ZM160.673 716.076V696.549H163.406L163.687 699.361H163.807C164.745 698.424 165.736 697.647 166.781 697.031C167.825 696.388 169.017 696.066 170.357 696.066C172.419 696.066 173.919 696.723 174.857 698.035C175.821 699.321 176.303 701.209 176.303 703.701V716.076H173.009V704.143C173.009 702.321 172.714 700.995 172.125 700.165C171.535 699.334 170.598 698.919 169.312 698.919C168.321 698.919 167.424 699.174 166.62 699.683C165.843 700.192 164.959 700.942 163.968 701.933V716.076H160.673ZM188.353 716.558C186.29 716.558 184.776 715.915 183.812 714.63C182.848 713.317 182.366 711.415 182.366 708.924V696.549H185.701V708.482C185.701 710.304 185.982 711.63 186.544 712.46C187.134 713.29 188.071 713.706 189.357 713.706C190.375 713.706 191.272 713.451 192.049 712.942C192.853 712.406 193.71 711.563 194.621 710.411V696.549H197.915V716.076H195.183L194.902 713.022H194.781C193.871 714.094 192.906 714.951 191.888 715.594C190.87 716.237 189.692 716.558 188.353 716.558ZM201.771 716.076L208.159 705.87L202.253 696.549H205.829L208.44 700.848C208.735 701.357 209.043 701.893 209.365 702.455C209.686 703.018 210.021 703.567 210.369 704.102H210.53C210.824 703.567 211.119 703.018 211.414 702.455C211.708 701.893 212.003 701.357 212.298 700.848L214.668 696.549H218.124L212.217 706.232L218.566 716.076H214.99L212.137 711.536C211.789 710.946 211.441 710.357 211.092 709.768C210.744 709.179 210.383 708.603 210.007 708.04H209.847C209.499 708.603 209.164 709.179 208.842 709.768C208.521 710.33 208.199 710.92 207.878 711.536L205.226 716.076H201.771Z" fill="black"/>
<path d="M40.6993 877.482V835.309H52.7212C55.8928 835.309 58.6572 835.694 61.0144 836.466C63.3717 837.237 65.2146 838.545 66.5432 840.387C67.8719 842.188 68.5362 844.631 68.5362 847.716C68.5362 852.131 67.1004 855.41 64.2288 857.553C61.3573 859.695 57.6071 860.767 52.9784 860.767H46.0352V877.482H40.6993ZM46.0352 856.395H52.3355C56.0214 856.395 58.7429 855.71 60.5001 854.338C62.3002 852.924 63.2002 850.716 63.2002 847.716C63.2002 844.673 62.2573 842.573 60.3715 841.416C58.5286 840.216 55.7642 839.616 52.0783 839.616H46.0352V856.395ZM76.5984 877.482V846.238H80.97L81.42 851.895H81.6129C82.6843 849.924 83.9915 848.359 85.5345 847.202C87.0774 846.045 88.7274 845.466 90.4847 845.466C91.7276 845.466 92.8419 845.681 93.8277 846.109L92.7991 850.738C92.2847 850.566 91.8133 850.438 91.3847 850.352C90.9561 850.266 90.4204 850.224 89.7775 850.224C88.4489 850.224 87.0559 850.759 85.5987 851.831C84.1844 852.902 82.9415 854.767 81.87 857.424V877.482H76.5984ZM110.409 878.253C107.88 878.253 105.501 877.611 103.273 876.325C101.087 875.039 99.3081 873.175 97.9366 870.732C96.608 868.289 95.9437 865.353 95.9437 861.924C95.9437 858.41 96.608 855.431 97.9366 852.988C99.3081 850.545 101.087 848.681 103.273 847.395C105.501 846.109 107.88 845.466 110.409 845.466C112.98 845.466 115.359 846.109 117.545 847.395C119.73 848.681 121.488 850.545 122.816 852.988C124.188 855.431 124.873 858.41 124.873 861.924C124.873 865.353 124.188 868.289 122.816 870.732C121.488 873.175 119.73 875.039 117.545 876.325C115.359 877.611 112.98 878.253 110.409 878.253ZM110.409 873.882C113.109 873.882 115.273 872.789 116.902 870.603C118.573 868.374 119.409 865.481 119.409 861.924C119.409 858.324 118.573 855.41 116.902 853.181C115.273 850.952 113.109 849.838 110.409 849.838C107.751 849.838 105.587 850.952 103.915 853.181C102.244 855.41 101.408 858.324 101.408 861.924C101.408 865.481 102.244 868.374 103.915 870.603C105.587 872.789 107.751 873.882 110.409 873.882ZM134.002 877.482V850.545H129.759V846.559L134.002 846.238V841.288C134.002 838.116 134.731 835.609 136.188 833.766C137.688 831.88 140.002 830.937 143.131 830.937C144.117 830.937 145.06 831.044 145.96 831.259C146.86 831.43 147.653 831.666 148.338 831.966L147.181 836.016C146.024 835.502 144.845 835.244 143.645 835.244C140.731 835.244 139.274 837.259 139.274 841.288V846.238H145.895V850.545H139.274V877.482H134.002ZM163.911 878.253C161.125 878.253 158.596 877.611 156.325 876.325C154.053 874.996 152.253 873.11 150.924 870.667C149.596 868.224 148.931 865.31 148.931 861.924C148.931 858.495 149.596 855.56 150.924 853.117C152.296 850.674 154.053 848.788 156.196 847.459C158.339 846.131 160.589 845.466 162.946 845.466C166.932 845.466 169.997 846.795 172.14 849.452C174.325 852.109 175.418 855.667 175.418 860.124C175.418 860.681 175.397 861.238 175.354 861.796C175.354 862.31 175.311 862.76 175.225 863.146H154.139C154.353 866.446 155.382 869.082 157.225 871.053C159.11 873.025 161.553 874.01 164.554 874.01C166.054 874.01 167.425 873.796 168.668 873.367C169.954 872.896 171.175 872.296 172.332 871.567L174.197 875.039C172.868 875.896 171.347 876.646 169.632 877.289C167.961 877.932 166.054 878.253 163.911 878.253ZM154.075 859.353H170.79C170.79 856.181 170.104 853.781 168.732 852.152C167.404 850.481 165.518 849.645 163.075 849.645C160.889 849.645 158.918 850.502 157.16 852.217C155.446 853.888 154.417 856.267 154.075 859.353ZM191.304 878.253C189.075 878.253 186.953 877.846 184.939 877.032C182.925 876.175 181.167 875.146 179.667 873.946L182.303 870.41C183.675 871.482 185.089 872.382 186.546 873.11C188.003 873.796 189.653 874.139 191.496 874.139C193.554 874.139 195.097 873.667 196.125 872.725C197.154 871.739 197.668 870.582 197.668 869.253C197.668 868.182 197.304 867.281 196.575 866.553C195.889 865.824 194.989 865.224 193.875 864.753C192.804 864.239 191.689 863.767 190.532 863.338C189.075 862.781 187.639 862.16 186.225 861.474C184.81 860.746 183.653 859.824 182.753 858.71C181.853 857.553 181.403 856.095 181.403 854.338C181.403 851.809 182.346 849.709 184.232 848.038C186.16 846.323 188.818 845.466 192.204 845.466C194.132 845.466 195.932 845.809 197.604 846.495C199.275 847.181 200.711 848.016 201.911 849.002L199.34 852.345C198.268 851.531 197.154 850.867 195.997 850.352C194.839 849.838 193.575 849.581 192.204 849.581C190.232 849.581 188.775 850.031 187.832 850.931C186.932 851.831 186.482 852.881 186.482 854.081C186.482 855.067 186.803 855.881 187.446 856.524C188.089 857.124 188.925 857.66 189.954 858.131C190.982 858.56 192.075 859.01 193.232 859.481C194.732 860.038 196.211 860.681 197.668 861.41C199.125 862.096 200.325 863.038 201.268 864.239C202.254 865.396 202.747 866.96 202.747 868.932C202.747 870.603 202.297 872.146 201.397 873.56C200.54 874.975 199.254 876.11 197.54 876.968C195.868 877.825 193.789 878.253 191.304 878.253ZM218.237 878.253C216.008 878.253 213.887 877.846 211.872 877.032C209.858 876.175 208.101 875.146 206.601 873.946L209.237 870.41C210.608 871.482 212.022 872.382 213.48 873.11C214.937 873.796 216.587 874.139 218.43 874.139C220.487 874.139 222.03 873.667 223.059 872.725C224.087 871.739 224.601 870.582 224.601 869.253C224.601 868.182 224.237 867.281 223.509 866.553C222.823 865.824 221.923 865.224 220.808 864.753C219.737 864.239 218.623 863.767 217.465 863.338C216.008 862.781 214.572 862.16 213.158 861.474C211.744 860.746 210.587 859.824 209.687 858.71C208.787 857.553 208.336 856.095 208.336 854.338C208.336 851.809 209.279 849.709 211.165 848.038C213.094 846.323 215.751 845.466 219.137 845.466C221.066 845.466 222.866 845.809 224.537 846.495C226.209 847.181 227.644 848.016 228.845 849.002L226.273 852.345C225.201 851.531 224.087 850.867 222.93 850.352C221.773 849.838 220.508 849.581 219.137 849.581C217.165 849.581 215.708 850.031 214.765 850.931C213.865 851.831 213.415 852.881 213.415 854.081C213.415 855.067 213.737 855.881 214.38 856.524C215.022 857.124 215.858 857.66 216.887 858.131C217.915 858.56 219.008 859.01 220.166 859.481C221.666 860.038 223.144 860.681 224.601 861.41C226.059 862.096 227.259 863.038 228.202 864.239C229.187 865.396 229.68 866.96 229.68 868.932C229.68 870.603 229.23 872.146 228.33 873.56C227.473 874.975 226.187 876.11 224.473 876.968C222.801 877.825 220.723 878.253 218.237 878.253ZM237.006 877.482V846.238H242.277V877.482H237.006ZM239.706 839.809C238.677 839.809 237.82 839.509 237.134 838.909C236.491 838.266 236.17 837.409 236.17 836.337C236.17 835.309 236.491 834.473 237.134 833.83C237.82 833.187 238.677 832.866 239.706 832.866C240.734 832.866 241.57 833.187 242.213 833.83C242.899 834.473 243.242 835.309 243.242 836.337C243.242 837.409 242.899 838.266 242.213 838.909C241.57 839.509 240.734 839.809 239.706 839.809ZM264.977 878.253C262.448 878.253 260.07 877.611 257.841 876.325C255.655 875.039 253.877 873.175 252.505 870.732C251.177 868.289 250.512 865.353 250.512 861.924C250.512 858.41 251.177 855.431 252.505 852.988C253.877 850.545 255.655 848.681 257.841 847.395C260.07 846.109 262.448 845.466 264.977 845.466C267.549 845.466 269.927 846.109 272.113 847.395C274.299 848.681 276.056 850.545 277.385 852.988C278.756 855.431 279.442 858.41 279.442 861.924C279.442 865.353 278.756 868.289 277.385 870.732C276.056 873.175 274.299 875.039 272.113 876.325C269.927 877.611 267.549 878.253 264.977 878.253ZM264.977 873.882C267.677 873.882 269.842 872.789 271.47 870.603C273.142 868.374 273.978 865.481 273.978 861.924C273.978 858.324 273.142 855.41 271.47 853.181C269.842 850.952 267.677 849.838 264.977 849.838C262.32 849.838 260.156 850.952 258.484 853.181C256.813 855.41 255.977 858.324 255.977 861.924C255.977 865.481 256.813 868.374 258.484 870.603C260.156 872.789 262.32 873.882 264.977 873.882ZM287.67 877.482V846.238H292.042L292.492 850.738H292.685C294.185 849.238 295.771 847.995 297.442 847.009C299.114 845.981 301.021 845.466 303.164 845.466C306.464 845.466 308.864 846.516 310.364 848.616C311.907 850.674 312.679 853.695 312.679 857.681V877.482H307.407V858.388C307.407 855.474 306.936 853.352 305.993 852.024C305.05 850.695 303.55 850.031 301.493 850.031C299.907 850.031 298.471 850.438 297.185 851.252C295.942 852.067 294.528 853.267 292.942 854.852V877.482H287.67ZM330.029 878.253C327.414 878.253 325.228 877.482 323.471 875.939C321.757 874.353 320.9 872.167 320.9 869.382C320.9 865.953 322.421 863.338 325.464 861.538C328.55 859.695 333.414 858.41 340.058 857.681C340.058 856.352 339.865 855.088 339.479 853.888C339.136 852.688 338.493 851.724 337.55 850.995C336.65 850.224 335.343 849.838 333.629 849.838C331.829 849.838 330.136 850.181 328.55 850.867C326.964 851.552 325.55 852.324 324.307 853.181L322.25 849.516C323.707 848.574 325.485 847.674 327.586 846.816C329.729 845.916 332.043 845.466 334.529 845.466C338.343 845.466 341.108 846.645 342.822 849.002C344.536 851.317 345.393 854.424 345.393 858.324V877.482H341.022L340.572 873.753H340.379C338.922 874.953 337.315 876.003 335.557 876.903C333.843 877.803 332 878.253 330.029 878.253ZM331.571 874.01C333.072 874.01 334.486 873.646 335.815 872.917C337.143 872.189 338.557 871.16 340.058 869.832V861.153C334.872 861.796 331.229 862.76 329.129 864.046C327.071 865.331 326.043 866.981 326.043 868.996C326.043 870.753 326.578 872.039 327.65 872.853C328.721 873.625 330.029 874.01 331.571 874.01ZM360.817 878.253C358.845 878.253 357.409 877.653 356.509 876.453C355.652 875.21 355.224 873.453 355.224 871.182V831.709H360.495V871.567C360.495 872.382 360.645 872.982 360.945 873.367C361.245 873.71 361.588 873.882 361.974 873.882C362.145 873.882 362.295 873.882 362.424 873.882C362.595 873.839 362.831 873.796 363.131 873.753L363.838 877.739C363.495 877.911 363.088 878.039 362.617 878.125C362.145 878.211 361.545 878.253 360.817 878.253Z" fill="black"/>
<path d="M738.462 961.194V937.161H745.972C747.608 937.161 749.061 937.381 750.331 937.821C751.601 938.236 752.591 938.944 753.299 939.946C754.032 940.922 754.398 942.241 754.398 943.902C754.398 945.758 753.91 947.26 752.933 948.408C751.956 949.532 750.637 950.301 748.976 950.716L755.094 961.194H751.65L745.862 951.046H741.502V961.194H738.462ZM741.502 948.555H745.532C747.413 948.555 748.854 948.176 749.855 947.419C750.857 946.638 751.357 945.465 751.357 943.902C751.357 942.315 750.857 941.203 749.855 940.568C748.854 939.933 747.413 939.616 745.532 939.616H741.502V948.555ZM765.593 961.634C764.152 961.634 762.796 961.267 761.526 960.535C760.281 959.802 759.267 958.74 758.485 957.347C757.728 955.955 757.35 954.282 757.35 952.328C757.35 950.326 757.728 948.628 758.485 947.236C759.267 945.844 760.281 944.781 761.526 944.049C762.796 943.316 764.152 942.95 765.593 942.95C767.058 942.95 768.414 943.316 769.659 944.049C770.905 944.781 771.906 945.844 772.663 947.236C773.445 948.628 773.836 950.326 773.836 952.328C773.836 954.282 773.445 955.955 772.663 957.347C771.906 958.74 770.905 959.802 769.659 960.535C768.414 961.267 767.058 961.634 765.593 961.634ZM765.593 959.143C767.131 959.143 768.365 958.52 769.293 957.274C770.245 956.004 770.722 954.355 770.722 952.328C770.722 950.277 770.245 948.616 769.293 947.346C768.365 946.076 767.131 945.441 765.593 945.441C764.078 945.441 762.845 946.076 761.893 947.346C760.94 948.616 760.464 950.277 760.464 952.328C760.464 954.355 760.94 956.004 761.893 957.274C762.845 958.52 764.078 959.143 765.593 959.143ZM781.712 961.634C780.589 961.634 779.77 961.292 779.257 960.608C778.769 959.9 778.525 958.898 778.525 957.604V935.11H781.529V957.824C781.529 958.288 781.614 958.63 781.785 958.849C781.956 959.045 782.152 959.143 782.371 959.143C782.469 959.143 782.555 959.143 782.628 959.143C782.726 959.118 782.86 959.094 783.031 959.069L783.434 961.341C783.239 961.438 783.006 961.512 782.738 961.56C782.469 961.609 782.127 961.634 781.712 961.634ZM791.05 961.634C789.926 961.634 789.108 961.292 788.595 960.608C788.107 959.9 787.862 958.898 787.862 957.604V935.11H790.867V957.824C790.867 958.288 790.952 958.63 791.123 958.849C791.294 959.045 791.489 959.143 791.709 959.143C791.807 959.143 791.892 959.143 791.966 959.143C792.063 959.118 792.198 959.094 792.369 959.069L792.772 961.341C792.576 961.438 792.344 961.512 792.076 961.56C791.807 961.609 791.465 961.634 791.05 961.634ZM797.2 961.194V943.389H800.204V961.194H797.2ZM798.739 939.726C798.153 939.726 797.664 939.555 797.274 939.213C796.907 938.846 796.724 938.358 796.724 937.747C796.724 937.161 796.907 936.685 797.274 936.319C797.664 935.952 798.153 935.769 798.739 935.769C799.325 935.769 799.801 935.952 800.168 936.319C800.558 936.685 800.754 937.161 800.754 937.747C800.754 938.358 800.558 938.846 800.168 939.213C799.801 939.555 799.325 939.726 798.739 939.726ZM806.216 961.194V943.389H808.707L808.964 945.954H809.074C809.928 945.099 810.832 944.391 811.785 943.829C812.737 943.243 813.824 942.95 815.045 942.95C816.926 942.95 818.293 943.548 819.148 944.745C820.028 945.917 820.467 947.639 820.467 949.91V961.194H817.463V950.313C817.463 948.653 817.194 947.444 816.657 946.686C816.12 945.929 815.265 945.551 814.093 945.551C813.189 945.551 812.371 945.783 811.638 946.247C810.93 946.711 810.124 947.395 809.22 948.298V961.194H806.216ZM832.259 969.4C830.086 969.4 828.315 968.985 826.947 968.155C825.579 967.324 824.895 966.14 824.895 964.601C824.895 963.844 825.128 963.111 825.592 962.403C826.056 961.719 826.691 961.109 827.497 960.571V960.425C827.057 960.156 826.678 959.778 826.361 959.289C826.068 958.801 825.921 958.214 825.921 957.531C825.921 956.773 826.129 956.114 826.544 955.552C826.959 954.99 827.399 954.551 827.863 954.233V954.087C827.277 953.598 826.739 952.939 826.251 952.108C825.787 951.278 825.555 950.338 825.555 949.288C825.555 947.993 825.86 946.87 826.471 945.917C827.081 944.965 827.9 944.232 828.925 943.719C829.951 943.206 831.062 942.95 832.259 942.95C832.748 942.95 833.212 942.998 833.651 943.096C834.091 943.169 834.47 943.267 834.787 943.389H840.978V945.697H837.315C837.73 946.088 838.072 946.613 838.341 947.273C838.634 947.908 838.78 948.604 838.78 949.361C838.78 950.631 838.487 951.73 837.901 952.658C837.315 953.586 836.533 954.307 835.556 954.82C834.579 955.308 833.48 955.552 832.259 955.552C831.307 955.552 830.415 955.345 829.585 954.929C829.267 955.198 828.999 955.503 828.779 955.845C828.559 956.163 828.449 956.566 828.449 957.054C828.449 957.616 828.669 958.08 829.109 958.446C829.573 958.813 830.403 958.996 831.6 958.996H835.044C837.12 958.996 838.67 959.338 839.696 960.022C840.746 960.681 841.272 961.756 841.272 963.246C841.272 964.345 840.905 965.358 840.172 966.286C839.44 967.215 838.402 967.959 837.058 968.521C835.715 969.107 834.115 969.4 832.259 969.4ZM832.259 953.537C833.285 953.537 834.164 953.159 834.897 952.402C835.654 951.62 836.033 950.582 836.033 949.288C836.033 947.993 835.666 946.98 834.934 946.247C834.201 945.514 833.309 945.148 832.259 945.148C831.209 945.148 830.318 945.514 829.585 946.247C828.852 946.98 828.486 947.993 828.486 949.288C828.486 950.582 828.852 951.62 829.585 952.402C830.342 953.159 831.233 953.537 832.259 953.537ZM832.699 967.312C834.409 967.312 835.776 966.934 836.802 966.177C837.828 965.444 838.341 964.613 838.341 963.685C838.341 962.855 838.023 962.281 837.388 961.963C836.778 961.646 835.898 961.487 834.75 961.487H831.673C831.331 961.487 830.953 961.463 830.537 961.414C830.147 961.365 829.756 961.292 829.365 961.194C828.73 961.658 828.266 962.147 827.973 962.66C827.68 963.172 827.533 963.685 827.533 964.198C827.533 965.151 827.985 965.908 828.889 966.47C829.817 967.031 831.087 967.312 832.699 967.312ZM852.046 961.194V943.389H854.537L854.794 946.613H854.904C855.514 945.49 856.259 944.598 857.138 943.939C858.018 943.279 858.958 942.95 859.959 942.95C860.668 942.95 861.303 943.072 861.864 943.316L861.278 945.954C860.985 945.856 860.716 945.783 860.472 945.734C860.228 945.685 859.923 945.661 859.556 945.661C858.799 945.661 858.005 945.966 857.175 946.577C856.369 947.187 855.661 948.25 855.05 949.764V961.194H852.046ZM871.606 961.634C870.019 961.634 868.578 961.267 867.283 960.535C865.989 959.778 864.963 958.703 864.206 957.311C863.449 955.919 863.07 954.258 863.07 952.328C863.07 950.374 863.449 948.701 864.206 947.309C864.987 945.917 865.989 944.842 867.21 944.085C868.431 943.328 869.713 942.95 871.057 942.95C873.328 942.95 875.074 943.707 876.296 945.221C877.541 946.735 878.164 948.762 878.164 951.303C878.164 951.62 878.152 951.938 878.127 952.255C878.127 952.548 878.103 952.805 878.054 953.024H866.038C866.16 954.905 866.746 956.407 867.796 957.531C868.871 958.654 870.263 959.216 871.973 959.216C872.827 959.216 873.609 959.094 874.317 958.849C875.05 958.581 875.746 958.239 876.406 957.824L877.468 959.802C876.711 960.29 875.844 960.718 874.867 961.084C873.914 961.451 872.827 961.634 871.606 961.634ZM866.001 950.863H875.526C875.526 949.056 875.135 947.688 874.354 946.76C873.597 945.807 872.522 945.331 871.13 945.331C869.884 945.331 868.761 945.819 867.76 946.796C866.783 947.749 866.196 949.104 866.001 950.863ZM885.751 961.634C884.628 961.634 883.809 961.292 883.296 960.608C882.808 959.9 882.564 958.898 882.564 957.604V935.11H885.568V957.824C885.568 958.288 885.653 958.63 885.824 958.849C885.995 959.045 886.191 959.143 886.41 959.143C886.508 959.143 886.594 959.143 886.667 959.143C886.765 959.118 886.899 959.094 887.07 959.069L887.473 961.341C887.277 961.438 887.045 961.512 886.777 961.56C886.508 961.609 886.166 961.634 885.751 961.634ZM899.119 961.634C897.531 961.634 896.09 961.267 894.796 960.535C893.501 959.778 892.475 958.703 891.718 957.311C890.961 955.919 890.583 954.258 890.583 952.328C890.583 950.374 890.961 948.701 891.718 947.309C892.5 945.917 893.501 944.842 894.722 944.085C895.944 943.328 897.226 942.95 898.569 942.95C900.841 942.95 902.587 943.707 903.808 945.221C905.054 946.735 905.676 948.762 905.676 951.303C905.676 951.62 905.664 951.938 905.64 952.255C905.64 952.548 905.615 952.805 905.567 953.024H893.55C893.672 954.905 894.258 956.407 895.309 957.531C896.383 958.654 897.775 959.216 899.485 959.216C900.34 959.216 901.121 959.094 901.83 958.849C902.562 958.581 903.258 958.239 903.918 957.824L904.98 959.802C904.223 960.29 903.356 960.718 902.379 961.084C901.427 961.451 900.34 961.634 899.119 961.634ZM893.513 950.863H903.039C903.039 949.056 902.648 947.688 901.866 946.76C901.109 945.807 900.035 945.331 898.642 945.331C897.397 945.331 896.273 945.819 895.272 946.796C894.295 947.749 893.709 949.104 893.513 950.863ZM913.678 961.634C912.189 961.634 910.943 961.194 909.942 960.315C908.965 959.411 908.476 958.166 908.476 956.578C908.476 954.624 909.343 953.134 911.077 952.108C912.836 951.058 915.608 950.326 919.394 949.91C919.394 949.153 919.284 948.433 919.064 947.749C918.868 947.065 918.502 946.515 917.965 946.1C917.452 945.661 916.707 945.441 915.73 945.441C914.704 945.441 913.739 945.636 912.836 946.027C911.932 946.418 911.126 946.857 910.418 947.346L909.245 945.258C910.076 944.72 911.089 944.207 912.286 943.719C913.507 943.206 914.826 942.95 916.243 942.95C918.417 942.95 919.992 943.621 920.969 944.965C921.946 946.283 922.434 948.054 922.434 950.277V961.194H919.943L919.687 959.069H919.577C918.746 959.753 917.83 960.351 916.829 960.864C915.852 961.377 914.802 961.634 913.678 961.634ZM914.558 959.216C915.412 959.216 916.218 959.008 916.976 958.593C917.733 958.178 918.539 957.592 919.394 956.834V951.889C916.438 952.255 914.362 952.805 913.165 953.537C911.993 954.27 911.407 955.21 911.407 956.358C911.407 957.36 911.712 958.092 912.323 958.556C912.933 958.996 913.678 959.216 914.558 959.216ZM932.689 961.634C931.419 961.634 930.21 961.402 929.062 960.938C927.914 960.449 926.913 959.863 926.058 959.179L927.56 957.164C928.341 957.775 929.147 958.288 929.978 958.703C930.808 959.094 931.748 959.289 932.799 959.289C933.971 959.289 934.85 959.02 935.436 958.483C936.023 957.921 936.316 957.262 936.316 956.505C936.316 955.894 936.108 955.381 935.693 954.966C935.302 954.551 934.789 954.209 934.154 953.94C933.544 953.647 932.909 953.379 932.249 953.134C931.419 952.817 930.601 952.463 929.795 952.072C928.989 951.657 928.329 951.132 927.816 950.497C927.303 949.837 927.047 949.007 927.047 948.005C927.047 946.564 927.584 945.368 928.659 944.415C929.758 943.438 931.272 942.95 933.202 942.95C934.301 942.95 935.327 943.145 936.279 943.536C937.232 943.927 938.05 944.403 938.734 944.965L937.268 946.87C936.658 946.406 936.023 946.027 935.363 945.734C934.704 945.441 933.983 945.294 933.202 945.294C932.078 945.294 931.248 945.551 930.71 946.064C930.198 946.577 929.941 947.175 929.941 947.859C929.941 948.421 930.124 948.885 930.491 949.251C930.857 949.593 931.333 949.898 931.919 950.167C932.506 950.411 933.128 950.668 933.788 950.936C934.643 951.254 935.485 951.62 936.316 952.035C937.146 952.426 937.83 952.963 938.367 953.647C938.929 954.307 939.21 955.198 939.21 956.322C939.21 957.274 938.953 958.153 938.441 958.959C937.952 959.765 937.219 960.413 936.242 960.901C935.29 961.389 934.105 961.634 932.689 961.634ZM950.601 961.634C949.014 961.634 947.573 961.267 946.278 960.535C944.984 959.778 943.958 958.703 943.201 957.311C942.444 955.919 942.065 954.258 942.065 952.328C942.065 950.374 942.444 948.701 943.201 947.309C943.983 945.917 944.984 944.842 946.205 944.085C947.426 943.328 948.709 942.95 950.052 942.95C952.323 942.95 954.07 943.707 955.291 945.221C956.536 946.735 957.159 948.762 957.159 951.303C957.159 951.62 957.147 951.938 957.123 952.255C957.123 952.548 957.098 952.805 957.049 953.024H945.033C945.155 954.905 945.741 956.407 946.791 957.531C947.866 958.654 949.258 959.216 950.968 959.216C951.823 959.216 952.604 959.094 953.313 958.849C954.045 958.581 954.741 958.239 955.401 957.824L956.463 959.802C955.706 960.29 954.839 960.718 953.862 961.084C952.91 961.451 951.823 961.634 950.601 961.634ZM944.996 950.863H954.521C954.521 949.056 954.131 947.688 953.349 946.76C952.592 945.807 951.517 945.331 950.125 945.331C948.88 945.331 947.756 945.819 946.755 946.796C945.778 947.749 945.192 949.104 944.996 950.863Z" fill="#C9C9C9"/>
<g filter="url(#filter0_d_0_1)">
<path fill-rule="evenodd" clip-rule="evenodd" d="M321.611 440.859C320.568 434.096 425.726 461.093 419.647 507.191C415.739 554.317 340.753 597.963 205.229 622.125C142.149 630.887 114.179 631.618 114.145 627.03C113.554 622.994 316.132 600.004 365.933 511.651C392.966 460.407 322.791 448.506 321.611 440.859Z" fill="black"/>
<path fill-rule="evenodd" clip-rule="evenodd" d="M368.329 627.727C369.996 646.241 369.403 650.07 364.752 649.784C358.72 649.394 359.738 641.592 357.966 636.349C339.056 572.085 296.063 472.1 231.501 472.1C167.305 472.1 139.631 554.524 116.351 622.558C112.906 633.191 108.704 649.427 87.2903 649.804C71.958 649.844 67.7946 635.528 68.536 626.261C80.2869 470.385 136.572 353.347 219.854 350.769C290.641 348.578 354.405 473.051 368.329 627.727Z" fill="#DADADA" stroke="#383838" stroke-width="7.84135"/>
<path fill-rule="evenodd" clip-rule="evenodd" d="M368.329 627.727C369.996 646.241 369.403 650.07 364.752 649.784C358.72 649.394 359.738 641.592 357.966 636.349C339.056 572.085 296.063 472.1 231.501 472.1C167.305 472.1 139.631 554.524 116.351 622.558C112.906 633.191 108.704 649.427 87.2903 649.804C71.958 649.844 67.7946 635.528 68.536 626.261C80.2869 470.385 136.572 353.347 219.854 350.769C290.641 348.578 354.405 473.051 368.329 627.727Z" fill="url(#paint3_linear_0_1)" stroke="#003870" stroke-width="7.84135"/>
<path fill-rule="evenodd" clip-rule="evenodd" d="M220.409 363.539C184.611 364.647 153.295 390.273 128.518 437.052C103.741 483.83 87.0038 550.546 81.2248 627.204C81.0502 629.387 81.6507 633.094 82.6951 634.801C83.7395 636.507 83.6315 637.016 87.3509 637.006C94.8759 636.874 96.1826 635.239 98.3778 632.35C100.573 629.461 102.405 624.351 104.259 618.628C104.258 618.546 104.258 618.464 104.259 618.383C115.89 584.392 128.633 546.189 147.631 515.22C166.63 484.251 193.908 459.35 231.436 459.35C270.262 459.35 300.106 488.636 322.346 523.306C332.431 539.027 348.844 582.851 348.321 573.54C346.801 546.494 323.307 472.412 304.213 436.316C291.484 412.252 277.257 393.263 262.801 380.937C248.346 368.611 234.336 363.108 220.409 363.539Z" fill="url(#paint4_radial_0_1)"/>
<path fill-rule="evenodd" clip-rule="evenodd" d="M362.043 457.635C370.847 464.525 377.831 474.506 378.709 485.897C379.643 496.462 376.587 507.26 371.064 516.205C369.732 518.755 364.096 522.639 365.097 523.923C375.578 521.759 379.573 517.788 388.363 512.806C397.414 507.676 402.873 521.741 410.317 508.849C416.384 498.34 410.35 489.706 403.803 483.036C393.903 472.658 381.123 465.527 368.151 459.708C366.14 458.942 364.037 458.448 362.043 457.635Z" fill="url(#paint5_linear_0_1)"/>
</g>
<path fill-rule="evenodd" clip-rule="evenodd" d="M41.1365 753.552L45.0069 733.229C48.7506 731.919 58.4334 729.49 70.0944 729.391C109.183 729.059 104.908 755.528 105.084 762.432L104.877 811.223L86.4703 814.434L86.4671 806.809C83.7747 808.412 78.3859 814.434 64.0231 814.835C50.5533 814.835 30.7986 807.611 31.2469 782.327C31.25 759.853 52.7944 754.108 68.0634 754.21C80.1667 754.293 84.0155 760.384 83.7775 760.014C84.0311 753.635 82.7418 748.937 68.7527 748.589C60.3038 748.376 41.1271 753.627 41.1365 753.552ZM67.3897 771.894C59.4505 771.795 51.1405 776.935 51.0013 783.933C51.0295 791.759 59.9794 796.778 66.7155 796.778C73.4488 796.778 83.8054 792.361 83.7775 784.333C83.7775 775.506 75.0195 771.919 67.3897 771.894Z" fill="black"/>
<path fill-rule="evenodd" clip-rule="evenodd" d="M116.486 734.018L116.244 814.812L137.694 810.566L137.797 764.758C137.811 757.937 147.814 749.866 160.35 749.866C163.018 745.145 168.036 733.098 169.259 730.357C141.252 730.575 140.884 738.493 136.008 742.436C135.968 735.009 136.008 730.55 136.008 730.55L116.486 734.018Z" fill="black"/>
<path fill-rule="evenodd" clip-rule="evenodd" d="M236.253 744.615C236.046 744.522 225.987 730.996 203.919 731.121C183.249 730.996 160.052 739.045 159.632 772.845C159.77 802.558 181.845 813.946 203.916 813.949C227.536 813.949 236.955 799.213 237.52 798.844C234.705 796.491 224.163 786.836 224.163 786.836C224.163 786.836 217.555 796.988 204.762 797.233C191.966 797.482 180.86 786.464 180.722 772.845C180.578 759.226 188.594 749.817 203.775 749.942C220.787 749.942 224.586 756.501 224.586 756.501L236.253 744.615Z" fill="black"/>
<path fill-rule="evenodd" clip-rule="evenodd" d="M243.986 814.321L263.945 810.607L264.24 761.083C264.29 755.889 271.96 747.837 284.753 747.96C296.985 747.96 299.693 755.761 299.658 756.749L299.937 814.072L319.62 810.482L319.761 749.691C319.899 743.84 306.646 731.613 285.314 731.741C269.91 731.921 264.917 737.166 264.23 737.56V704.254L243.983 709.084L243.986 814.321Z" fill="black"/>
<path fill-rule="evenodd" clip-rule="evenodd" d="M337.052 716.636L346.19 714.531L346.334 810.359L337.052 811.844L337.052 716.636Z" fill="black"/>
<path fill-rule="evenodd" clip-rule="evenodd" d="M361.794 744.987L369.806 741.767L369.668 810.482L361.935 811.967L361.794 744.987ZM359.966 720.227L366.433 715.522L371.778 720.721L365.308 725.548L359.966 720.227Z" fill="black"/>
<path fill-rule="evenodd" clip-rule="evenodd" d="M384.85 743.501L393.987 741.767V756.132C393.987 756.749 399.05 740.033 423.231 740.159C446.71 740.036 450.502 756.006 450.365 759.597L450.502 810.11L442.493 811.721L442.597 761.825C442.694 760.367 438.979 748.083 422.388 748.206C405.799 748.331 394.273 759.103 394.273 765.91V809.864L384.991 812.093L384.85 743.501Z" fill="black"/>
<path fill-rule="evenodd" clip-rule="evenodd" d="M530.189 809.666L521.052 811.4V797.035C521.052 796.418 515.986 813.134 491.808 813.008C468.329 813.131 464.536 797.161 464.674 793.57L464.536 743.057L474.245 741.233V791.129C474.245 792.492 476.06 805.085 492.651 804.961C509.24 804.836 520.889 795.877 521.011 782.564V743.196L530.048 741.075L530.189 809.666Z" fill="black"/>
<path fill-rule="evenodd" clip-rule="evenodd" d="M548.292 741.278L541.875 745.756L566.342 773.806L540.057 806.766L546.838 811.137L571.545 780.526L596.858 811.35L603.155 806.872L576.028 773.916L597.829 746.821L591.165 741.915L571.304 766.983L548.292 741.278Z" fill="black"/>
<circle cx="846.704" cy="796.598" r="116.993" fill="#03D20A"/>
<path d="M778.916 772.875V754.517H781.238V772.875H778.916ZM786.043 772.875V759.274H787.946L788.142 761.233H788.226C788.879 760.58 789.569 760.039 790.297 759.61C791.025 759.162 791.855 758.938 792.788 758.938C794.224 758.938 795.269 759.395 795.922 760.309C796.594 761.205 796.93 762.52 796.93 764.255V772.875H794.635V764.563C794.635 763.295 794.43 762.371 794.019 761.793C793.609 761.214 792.956 760.925 792.06 760.925C791.37 760.925 790.745 761.102 790.185 761.457C789.644 761.811 789.028 762.334 788.338 763.024V772.875H786.043ZM806.721 773.211C805.527 773.211 804.445 772.931 803.475 772.371C802.504 771.811 801.739 771 801.18 769.936C800.62 768.873 800.34 767.595 800.34 766.102C800.34 764.573 800.639 763.276 801.236 762.212C801.851 761.149 802.654 760.337 803.642 759.778C804.65 759.218 805.732 758.938 806.889 758.938C807.784 758.938 808.549 759.097 809.183 759.414C809.836 759.731 810.396 760.104 810.863 760.533L809.687 762.045C809.295 761.69 808.876 761.401 808.428 761.177C807.999 760.953 807.514 760.841 806.973 760.841C806.152 760.841 805.415 761.065 804.762 761.513C804.127 761.942 803.624 762.558 803.251 763.36C802.896 764.143 802.719 765.058 802.719 766.102C802.719 767.651 803.101 768.91 803.866 769.88C804.65 770.832 805.667 771.308 806.917 771.308C807.551 771.308 808.139 771.177 808.68 770.916C809.221 770.636 809.697 770.309 810.107 769.936L811.114 771.476C810.499 772.017 809.818 772.446 809.072 772.763C808.325 773.061 807.542 773.211 806.721 773.211ZM816.545 773.211C815.687 773.211 815.062 772.949 814.67 772.427C814.297 771.886 814.11 771.121 814.11 770.132V752.949H816.405V770.3C816.405 770.655 816.47 770.916 816.601 771.084C816.732 771.233 816.881 771.308 817.049 771.308C817.123 771.308 817.189 771.308 817.245 771.308C817.319 771.289 817.422 771.27 817.553 771.252L817.86 772.987C817.711 773.061 817.534 773.117 817.329 773.155C817.123 773.192 816.862 773.211 816.545 773.211ZM825.217 773.211C823.781 773.211 822.726 772.763 822.055 771.867C821.383 770.953 821.047 769.628 821.047 767.893V759.274H823.37V767.586C823.37 768.854 823.566 769.778 823.958 770.356C824.368 770.934 825.021 771.224 825.917 771.224C826.626 771.224 827.251 771.046 827.792 770.692C828.351 770.319 828.948 769.731 829.583 768.929V759.274H831.878V772.875H829.975L829.779 770.748H829.695C829.06 771.494 828.389 772.091 827.68 772.539C826.971 772.987 826.15 773.211 825.217 773.211ZM841.111 773.211C839.413 773.211 838.051 772.595 837.025 771.364C835.999 770.114 835.486 768.36 835.486 766.102C835.486 764.629 835.757 763.36 836.298 762.296C836.857 761.214 837.585 760.384 838.48 759.806C839.395 759.227 840.365 758.938 841.391 758.938C842.175 758.938 842.855 759.078 843.434 759.358C844.012 759.638 844.6 760.02 845.197 760.505L845.085 758.183V752.949H847.408V772.875H845.505L845.309 771.28H845.225C844.702 771.802 844.087 772.259 843.378 772.651C842.669 773.024 841.913 773.211 841.111 773.211ZM841.615 771.28C842.809 771.28 843.966 770.655 845.085 769.405V762.296C844.507 761.774 843.947 761.41 843.406 761.205C842.883 760.981 842.342 760.869 841.783 760.869C841.055 760.869 840.393 761.093 839.796 761.541C839.217 761.97 838.751 762.576 838.397 763.36C838.042 764.125 837.865 765.03 837.865 766.074C837.865 767.698 838.191 768.976 838.844 769.908C839.497 770.823 840.421 771.28 841.615 771.28ZM857.502 773.211C856.289 773.211 855.188 772.931 854.199 772.371C853.211 771.793 852.427 770.972 851.849 769.908C851.27 768.845 850.981 767.576 850.981 766.102C850.981 764.61 851.27 763.332 851.849 762.268C852.446 761.205 853.211 760.384 854.143 759.806C855.076 759.227 856.056 758.938 857.082 758.938C858.817 758.938 860.151 759.517 861.084 760.673C862.035 761.83 862.511 763.379 862.511 765.319C862.511 765.561 862.502 765.804 862.483 766.046C862.483 766.27 862.464 766.466 862.427 766.634H853.248C853.341 768.071 853.789 769.218 854.591 770.076C855.412 770.934 856.475 771.364 857.781 771.364C858.434 771.364 859.031 771.27 859.572 771.084C860.132 770.878 860.664 770.617 861.168 770.3L861.979 771.811C861.401 772.184 860.738 772.511 859.992 772.791C859.265 773.071 858.434 773.211 857.502 773.211ZM853.22 764.983H860.496C860.496 763.602 860.197 762.558 859.6 761.849C859.022 761.121 858.201 760.757 857.138 760.757C856.186 760.757 855.328 761.13 854.563 761.877C853.817 762.604 853.369 763.64 853.22 764.983ZM869.426 773.211C868.456 773.211 867.532 773.033 866.655 772.679C865.778 772.306 865.013 771.858 864.36 771.336L865.508 769.796C866.105 770.263 866.721 770.655 867.355 770.972C867.989 771.27 868.707 771.42 869.51 771.42C870.405 771.42 871.077 771.214 871.525 770.804C871.972 770.375 872.196 769.871 872.196 769.293C872.196 768.826 872.038 768.434 871.721 768.117C871.422 767.8 871.03 767.539 870.545 767.334C870.079 767.11 869.594 766.905 869.09 766.718C868.456 766.476 867.831 766.205 867.215 765.906C866.599 765.589 866.096 765.188 865.704 764.703C865.312 764.199 865.116 763.565 865.116 762.8C865.116 761.699 865.527 760.785 866.347 760.058C867.187 759.311 868.344 758.938 869.818 758.938C870.657 758.938 871.441 759.087 872.168 759.386C872.896 759.684 873.521 760.048 874.043 760.477L872.924 761.933C872.457 761.578 871.972 761.289 871.469 761.065C870.965 760.841 870.415 760.729 869.818 760.729C868.959 760.729 868.325 760.925 867.915 761.317C867.523 761.709 867.327 762.166 867.327 762.688C867.327 763.117 867.467 763.472 867.747 763.752C868.027 764.013 868.39 764.246 868.838 764.451C869.286 764.638 869.762 764.834 870.265 765.039C870.918 765.281 871.562 765.561 872.196 765.879C872.831 766.177 873.353 766.587 873.763 767.11C874.193 767.614 874.407 768.295 874.407 769.153C874.407 769.88 874.211 770.552 873.819 771.168C873.446 771.783 872.887 772.278 872.14 772.651C871.413 773.024 870.508 773.211 869.426 773.211ZM887.48 773.211C886.025 773.211 885.008 772.791 884.43 771.951C883.87 771.112 883.59 770.02 883.59 768.677V761.149H881.575V759.414L883.702 759.274L883.982 755.468H885.913V759.274H889.579V761.149H885.913V768.705C885.913 769.545 886.062 770.198 886.361 770.664C886.678 771.112 887.228 771.336 888.012 771.336C888.254 771.336 888.515 771.298 888.795 771.224C889.075 771.13 889.327 771.046 889.551 770.972L889.999 772.707C889.626 772.837 889.215 772.949 888.767 773.043C888.338 773.155 887.909 773.211 887.48 773.211ZM892.654 772.875V752.949H894.949V758.379L894.865 761.177C895.518 760.561 896.199 760.039 896.908 759.61C897.636 759.162 898.466 758.938 899.399 758.938C900.835 758.938 901.88 759.395 902.533 760.309C903.205 761.205 903.54 762.52 903.54 764.255V772.875H901.246V764.563C901.246 763.295 901.04 762.371 900.63 761.793C900.219 761.214 899.567 760.925 898.671 760.925C897.981 760.925 897.356 761.102 896.796 761.457C896.255 761.811 895.639 762.334 894.949 763.024V772.875H892.654ZM913.39 773.211C912.177 773.211 911.076 772.931 910.087 772.371C909.099 771.793 908.315 770.972 907.737 769.908C907.158 768.845 906.869 767.576 906.869 766.102C906.869 764.61 907.158 763.332 907.737 762.268C908.334 761.205 909.099 760.384 910.031 759.806C910.964 759.227 911.944 758.938 912.97 758.938C914.705 758.938 916.039 759.517 916.972 760.673C917.923 761.83 918.399 763.379 918.399 765.319C918.399 765.561 918.39 765.804 918.371 766.046C918.371 766.27 918.352 766.466 918.315 766.634H909.136C909.229 768.071 909.677 769.218 910.479 770.076C911.3 770.934 912.363 771.364 913.669 771.364C914.322 771.364 914.919 771.27 915.46 771.084C916.02 770.878 916.552 770.617 917.056 770.3L917.867 771.811C917.289 772.184 916.627 772.511 915.88 772.791C915.153 773.071 914.322 773.211 913.39 773.211ZM909.108 764.983H916.384C916.384 763.602 916.085 762.558 915.488 761.849C914.91 761.121 914.089 760.757 913.026 760.757C912.074 760.757 911.216 761.13 910.451 761.877C909.705 762.604 909.257 763.64 909.108 764.983ZM751.472 813.612V794.274H753.375L753.571 795.841H753.655C754.271 795.319 754.942 794.871 755.67 794.498C756.416 794.125 757.19 793.938 757.993 793.938C759.746 793.938 761.08 794.573 761.994 795.841C762.909 797.091 763.366 798.77 763.366 800.879C763.366 802.408 763.086 803.724 762.526 804.824C761.985 805.925 761.267 806.765 760.371 807.343C759.494 807.921 758.534 808.211 757.489 808.211C756.854 808.211 756.22 808.071 755.586 807.791C754.97 807.511 754.345 807.128 753.711 806.643L753.767 809.022V813.612H751.472ZM757.097 806.28C758.216 806.28 759.14 805.804 759.868 804.852C760.614 803.882 760.987 802.558 760.987 800.879C760.987 799.386 760.707 798.183 760.147 797.268C759.606 796.336 758.692 795.869 757.405 795.869C756.826 795.869 756.239 796.028 755.642 796.345C755.063 796.662 754.438 797.119 753.767 797.716V804.852C754.382 805.375 754.979 805.748 755.558 805.972C756.136 806.177 756.649 806.28 757.097 806.28ZM769.747 808.211C768.609 808.211 767.657 807.875 766.892 807.203C766.146 806.513 765.773 805.561 765.773 804.349C765.773 802.856 766.435 801.718 767.76 800.934C769.103 800.132 771.221 799.573 774.112 799.255C774.112 798.677 774.028 798.127 773.86 797.604C773.711 797.082 773.431 796.662 773.021 796.345C772.629 796.009 772.06 795.841 771.314 795.841C770.53 795.841 769.793 795.99 769.103 796.289C768.413 796.587 767.797 796.923 767.256 797.296L766.36 795.701C766.995 795.291 767.769 794.899 768.683 794.526C769.616 794.134 770.624 793.938 771.706 793.938C773.366 793.938 774.569 794.451 775.316 795.477C776.062 796.485 776.435 797.837 776.435 799.535V807.875H774.532L774.336 806.252H774.252C773.618 806.774 772.918 807.231 772.153 807.623C771.407 808.015 770.605 808.211 769.747 808.211ZM770.418 806.364C771.071 806.364 771.687 806.205 772.265 805.888C772.844 805.571 773.459 805.123 774.112 804.545V800.767C771.855 801.046 770.269 801.466 769.355 802.026C768.459 802.586 768.012 803.304 768.012 804.181C768.012 804.946 768.245 805.505 768.711 805.86C769.178 806.196 769.747 806.364 770.418 806.364ZM786.087 808.211C784.893 808.211 783.811 807.931 782.841 807.371C781.871 806.811 781.106 806 780.546 804.936C779.987 803.873 779.707 802.595 779.707 801.102C779.707 799.573 780.005 798.276 780.602 797.212C781.218 796.149 782.02 795.337 783.009 794.778C784.016 794.218 785.098 793.938 786.255 793.938C787.151 793.938 787.916 794.097 788.55 794.414C789.203 794.731 789.763 795.104 790.229 795.533L789.054 797.045C788.662 796.69 788.242 796.401 787.794 796.177C787.365 795.953 786.88 795.841 786.339 795.841C785.518 795.841 784.781 796.065 784.128 796.513C783.494 796.942 782.99 797.558 782.617 798.36C782.263 799.143 782.085 800.058 782.085 801.102C782.085 802.651 782.468 803.91 783.233 804.88C784.016 805.832 785.033 806.308 786.283 806.308C786.918 806.308 787.505 806.177 788.046 805.916C788.587 805.636 789.063 805.309 789.473 804.936L790.481 806.476C789.865 807.017 789.184 807.446 788.438 807.763C787.692 808.061 786.908 808.211 786.087 808.211ZM793.477 807.875V794.274H795.38L795.576 796.233H795.66C796.257 795.58 796.91 795.039 797.619 794.61C798.328 794.162 799.083 793.938 799.885 793.938C800.93 793.938 801.742 794.171 802.32 794.638C802.917 795.086 803.356 795.72 803.635 796.541C804.344 795.776 805.063 795.151 805.79 794.666C806.518 794.181 807.292 793.938 808.113 793.938C809.512 793.938 810.548 794.395 811.219 795.309C811.91 796.205 812.255 797.52 812.255 799.255V807.875H809.96V799.563C809.96 798.295 809.755 797.371 809.344 796.793C808.934 796.214 808.3 795.925 807.441 795.925C806.434 795.925 805.296 796.625 804.027 798.024V807.875H801.732V799.563C801.732 798.295 801.527 797.371 801.117 796.793C800.706 796.214 800.063 795.925 799.186 795.925C798.178 795.925 797.04 796.625 795.772 798.024V807.875H793.477ZM819.814 808.211C818.676 808.211 817.724 807.875 816.959 807.203C816.213 806.513 815.84 805.561 815.84 804.349C815.84 802.856 816.502 801.718 817.827 800.934C819.17 800.132 821.287 799.573 824.179 799.255C824.179 798.677 824.095 798.127 823.927 797.604C823.778 797.082 823.498 796.662 823.088 796.345C822.696 796.009 822.127 795.841 821.381 795.841C820.597 795.841 819.86 795.99 819.17 796.289C818.48 796.587 817.864 796.923 817.323 797.296L816.427 795.701C817.062 795.291 817.836 794.899 818.75 794.526C819.683 794.134 820.69 793.938 821.773 793.938C823.433 793.938 824.636 794.451 825.383 795.477C826.129 796.485 826.502 797.837 826.502 799.535V807.875H824.599L824.403 806.252H824.319C823.685 806.774 822.985 807.231 822.22 807.623C821.474 808.015 820.672 808.211 819.814 808.211ZM820.485 806.364C821.138 806.364 821.754 806.205 822.332 805.888C822.911 805.571 823.526 805.123 824.179 804.545V800.767C821.922 801.046 820.336 801.466 819.422 802.026C818.526 802.586 818.079 803.304 818.079 804.181C818.079 804.946 818.312 805.505 818.778 805.86C819.245 806.196 819.814 806.364 820.485 806.364ZM830.781 807.875V794.274H832.684L832.88 796.233H832.964C833.617 795.58 834.307 795.039 835.035 794.61C835.762 794.162 836.593 793.938 837.525 793.938C838.962 793.938 840.007 794.395 840.66 795.309C841.331 796.205 841.667 797.52 841.667 799.255V807.875H839.373V799.563C839.373 798.295 839.167 797.371 838.757 796.793C838.346 796.214 837.693 795.925 836.798 795.925C836.108 795.925 835.483 796.102 834.923 796.457C834.382 796.811 833.766 797.334 833.076 798.024V807.875H830.781ZM851.688 813.612V794.274H853.591L853.787 795.841H853.871C854.486 795.319 855.158 794.871 855.886 794.498C856.632 794.125 857.406 793.938 858.208 793.938C859.962 793.938 861.296 794.573 862.21 795.841C863.124 797.091 863.582 798.77 863.582 800.879C863.582 802.408 863.302 803.724 862.742 804.824C862.201 805.925 861.483 806.765 860.587 807.343C859.71 807.921 858.749 808.211 857.705 808.211C857.07 808.211 856.436 808.071 855.802 807.791C855.186 807.511 854.561 807.128 853.927 806.643L853.983 809.022V813.612H851.688ZM857.313 806.28C858.432 806.28 859.356 805.804 860.083 804.852C860.83 803.882 861.203 802.558 861.203 800.879C861.203 799.386 860.923 798.183 860.363 797.268C859.822 796.336 858.908 795.869 857.621 795.869C857.042 795.869 856.455 796.028 855.858 796.345C855.279 796.662 854.654 797.119 853.983 797.716V804.852C854.598 805.375 855.195 805.748 855.774 805.972C856.352 806.177 856.865 806.28 857.313 806.28ZM869.963 808.211C868.824 808.211 867.873 807.875 867.108 807.203C866.362 806.513 865.989 805.561 865.989 804.349C865.989 802.856 866.651 801.718 867.976 800.934C869.319 800.132 871.436 799.573 874.328 799.255C874.328 798.677 874.244 798.127 874.076 797.604C873.927 797.082 873.647 796.662 873.237 796.345C872.845 796.009 872.276 795.841 871.53 795.841C870.746 795.841 870.009 795.99 869.319 796.289C868.629 796.587 868.013 796.923 867.472 797.296L866.576 795.701C867.211 795.291 867.985 794.899 868.899 794.526C869.832 794.134 870.839 793.938 871.921 793.938C873.582 793.938 874.785 794.451 875.532 795.477C876.278 796.485 876.651 797.837 876.651 799.535V807.875H874.748L874.552 806.252H874.468C873.834 806.774 873.134 807.231 872.369 807.623C871.623 808.015 870.821 808.211 869.963 808.211ZM870.634 806.364C871.287 806.364 871.903 806.205 872.481 805.888C873.06 805.571 873.675 805.123 874.328 804.545V800.767C872.071 801.046 870.485 801.466 869.571 802.026C868.675 802.586 868.227 803.304 868.227 804.181C868.227 804.946 868.461 805.505 868.927 805.86C869.393 806.196 869.963 806.364 870.634 806.364ZM886.303 808.211C885.109 808.211 884.027 807.931 883.057 807.371C882.087 806.811 881.322 806 880.762 804.936C880.202 803.873 879.923 802.595 879.923 801.102C879.923 799.573 880.221 798.276 880.818 797.212C881.434 796.149 882.236 795.337 883.225 794.778C884.232 794.218 885.314 793.938 886.471 793.938C887.367 793.938 888.132 794.097 888.766 794.414C889.419 794.731 889.979 795.104 890.445 795.533L889.27 797.045C888.878 796.69 888.458 796.401 888.01 796.177C887.581 795.953 887.096 795.841 886.555 795.841C885.734 795.841 884.997 796.065 884.344 796.513C883.71 796.942 883.206 797.558 882.833 798.36C882.479 799.143 882.301 800.058 882.301 801.102C882.301 802.651 882.684 803.91 883.449 804.88C884.232 805.832 885.249 806.308 886.499 806.308C887.133 806.308 887.721 806.177 888.262 805.916C888.803 805.636 889.279 805.309 889.689 804.936L890.697 806.476C890.081 807.017 889.4 807.446 888.654 807.763C887.908 808.061 887.124 808.211 886.303 808.211ZM893.693 807.875V787.949H895.96V801.438H896.043L901.836 794.274H904.383L899.821 799.731L904.999 807.875H902.48L898.506 801.326L895.96 804.293V807.875H893.693ZM910.41 808.211C909.272 808.211 908.32 807.875 907.555 807.203C906.809 806.513 906.436 805.561 906.436 804.349C906.436 802.856 907.098 801.718 908.423 800.934C909.766 800.132 911.883 799.573 914.775 799.255C914.775 798.677 914.691 798.127 914.523 797.604C914.374 797.082 914.094 796.662 913.684 796.345C913.292 796.009 912.723 795.841 911.977 795.841C911.193 795.841 910.456 795.99 909.766 796.289C909.076 796.587 908.46 796.923 907.919 797.296L907.023 795.701C907.658 795.291 908.432 794.899 909.346 794.526C910.279 794.134 911.286 793.938 912.369 793.938C914.029 793.938 915.232 794.451 915.979 795.477C916.725 796.485 917.098 797.837 917.098 799.535V807.875H915.195L914.999 806.252H914.915C914.281 806.774 913.581 807.231 912.816 807.623C912.07 808.015 911.268 808.211 910.41 808.211ZM911.081 806.364C911.734 806.364 912.35 806.205 912.928 805.888C913.507 805.571 914.122 805.123 914.775 804.545V800.767C912.518 801.046 910.932 801.466 910.018 802.026C909.122 802.586 908.675 803.304 908.675 804.181C908.675 804.946 908.908 805.505 909.374 805.86C909.841 806.196 910.41 806.364 911.081 806.364ZM925.967 814.143C924.306 814.143 922.954 813.826 921.909 813.192C920.864 812.558 920.342 811.653 920.342 810.477C920.342 809.899 920.519 809.339 920.873 808.798C921.228 808.276 921.713 807.809 922.329 807.399V807.287C921.993 807.082 921.704 806.793 921.461 806.42C921.237 806.046 921.125 805.599 921.125 805.076C921.125 804.498 921.284 803.994 921.601 803.565C921.918 803.136 922.254 802.8 922.608 802.558V802.446C922.161 802.073 921.75 801.569 921.377 800.934C921.023 800.3 920.845 799.582 920.845 798.78C920.845 797.791 921.079 796.933 921.545 796.205C922.011 795.477 922.636 794.918 923.42 794.526C924.204 794.134 925.052 793.938 925.967 793.938C926.34 793.938 926.694 793.976 927.03 794.05C927.366 794.106 927.655 794.181 927.898 794.274H932.627V796.037H929.829C930.146 796.336 930.407 796.737 930.612 797.24C930.836 797.726 930.948 798.257 930.948 798.836C930.948 799.806 930.724 800.645 930.276 801.354C929.829 802.063 929.232 802.614 928.485 803.005C927.739 803.378 926.899 803.565 925.967 803.565C925.239 803.565 924.558 803.406 923.924 803.089C923.681 803.295 923.476 803.528 923.308 803.789C923.14 804.031 923.056 804.339 923.056 804.712C923.056 805.142 923.224 805.496 923.56 805.776C923.914 806.056 924.549 806.196 925.463 806.196H928.094C929.679 806.196 930.864 806.457 931.648 806.979C932.45 807.483 932.851 808.304 932.851 809.442C932.851 810.281 932.571 811.056 932.011 811.765C931.452 812.474 930.659 813.043 929.633 813.472C928.607 813.92 927.385 814.143 925.967 814.143ZM925.967 802.026C926.75 802.026 927.422 801.737 927.982 801.158C928.56 800.561 928.849 799.768 928.849 798.78C928.849 797.791 928.569 797.017 928.01 796.457C927.45 795.897 926.769 795.617 925.967 795.617C925.164 795.617 924.483 795.897 923.924 796.457C923.364 797.017 923.084 797.791 923.084 798.78C923.084 799.768 923.364 800.561 923.924 801.158C924.502 801.737 925.183 802.026 925.967 802.026ZM926.302 812.548C927.608 812.548 928.653 812.259 929.437 811.681C930.22 811.121 930.612 810.487 930.612 809.778C930.612 809.143 930.37 808.705 929.885 808.462C929.418 808.22 928.746 808.099 927.87 808.099H925.519C925.258 808.099 924.969 808.08 924.651 808.043C924.353 808.005 924.054 807.949 923.756 807.875C923.271 808.229 922.916 808.602 922.692 808.994C922.469 809.386 922.357 809.778 922.357 810.17C922.357 810.897 922.702 811.475 923.392 811.905C924.101 812.334 925.071 812.548 926.302 812.548ZM940.609 808.211C939.397 808.211 938.296 807.931 937.307 807.371C936.318 806.793 935.535 805.972 934.956 804.908C934.378 803.845 934.089 802.576 934.089 801.102C934.089 799.61 934.378 798.332 934.956 797.268C935.553 796.205 936.318 795.384 937.251 794.806C938.184 794.227 939.163 793.938 940.19 793.938C941.925 793.938 943.259 794.517 944.191 795.673C945.143 796.83 945.619 798.379 945.619 800.319C945.619 800.561 945.609 800.804 945.591 801.046C945.591 801.27 945.572 801.466 945.535 801.634H936.356C936.449 803.071 936.897 804.218 937.699 805.076C938.52 805.934 939.583 806.364 940.889 806.364C941.542 806.364 942.139 806.27 942.68 806.084C943.24 805.878 943.772 805.617 944.275 805.3L945.087 806.811C944.509 807.184 943.846 807.511 943.1 807.791C942.372 808.071 941.542 808.211 940.609 808.211ZM936.328 799.983H943.604C943.604 798.602 943.305 797.558 942.708 796.849C942.13 796.121 941.309 795.757 940.246 795.757C939.294 795.757 938.436 796.13 937.671 796.877C936.925 797.604 936.477 798.64 936.328 799.983ZM798.218 842.875V829.274H800.121L800.317 831.233H800.401C800.998 830.58 801.651 830.039 802.36 829.61C803.069 829.162 803.825 828.938 804.627 828.938C805.672 828.938 806.483 829.171 807.062 829.638C807.659 830.086 808.097 830.72 808.377 831.541C809.086 830.776 809.804 830.151 810.532 829.666C811.259 829.181 812.034 828.938 812.855 828.938C814.254 828.938 815.289 829.395 815.961 830.309C816.651 831.205 816.996 832.52 816.996 834.255V842.875H814.702V834.563C814.702 833.295 814.496 832.371 814.086 831.793C813.676 831.214 813.041 830.925 812.183 830.925C811.176 830.925 810.037 831.625 808.769 833.024V842.875H806.474V834.563C806.474 833.295 806.269 832.371 805.858 831.793C805.448 831.214 804.804 830.925 803.927 830.925C802.92 830.925 801.782 831.625 800.513 833.024V842.875H798.218ZM824.555 843.211C823.417 843.211 822.466 842.875 821.701 842.203C820.954 841.513 820.581 840.561 820.581 839.349C820.581 837.856 821.244 836.718 822.568 835.934C823.912 835.132 826.029 834.573 828.921 834.255C828.921 833.677 828.837 833.127 828.669 832.604C828.52 832.082 828.24 831.662 827.829 831.345C827.438 831.009 826.869 830.841 826.122 830.841C825.339 830.841 824.602 830.99 823.912 831.289C823.221 831.587 822.606 831.923 822.065 832.296L821.169 830.701C821.803 830.291 822.578 829.899 823.492 829.526C824.425 829.134 825.432 828.938 826.514 828.938C828.175 828.938 829.378 829.451 830.124 830.477C830.87 831.485 831.244 832.837 831.244 834.535V842.875H829.341L829.145 841.252H829.061C828.426 841.774 827.727 842.231 826.962 842.623C826.216 843.015 825.413 843.211 824.555 843.211ZM825.227 841.364C825.88 841.364 826.496 841.205 827.074 840.888C827.652 840.571 828.268 840.123 828.921 839.545V835.767C826.663 836.046 825.078 836.466 824.163 837.026C823.268 837.586 822.82 838.304 822.82 839.181C822.82 839.946 823.053 840.505 823.52 840.86C823.986 841.196 824.555 841.364 825.227 841.364ZM835.523 842.875V829.274H837.426L837.622 831.233H837.706C838.359 830.58 839.049 830.039 839.776 829.61C840.504 829.162 841.334 828.938 842.267 828.938C843.704 828.938 844.748 829.395 845.401 830.309C846.073 831.205 846.409 832.52 846.409 834.255V842.875H844.114V834.563C844.114 833.295 843.909 832.371 843.498 831.793C843.088 831.214 842.435 830.925 841.539 830.925C840.849 830.925 840.224 831.102 839.664 831.457C839.123 831.811 838.508 832.334 837.817 833.024V842.875H835.523ZM853.961 843.211C852.823 843.211 851.872 842.875 851.107 842.203C850.361 841.513 849.987 840.561 849.987 839.349C849.987 837.856 850.65 836.718 851.974 835.934C853.318 835.132 855.435 834.573 858.327 834.255C858.327 833.677 858.243 833.127 858.075 832.604C857.926 832.082 857.646 831.662 857.236 831.345C856.844 831.009 856.275 830.841 855.528 830.841C854.745 830.841 854.008 830.99 853.318 831.289C852.627 831.587 852.012 831.923 851.471 832.296L850.575 830.701C851.209 830.291 851.984 829.899 852.898 829.526C853.831 829.134 854.838 828.938 855.92 828.938C857.581 828.938 858.784 829.451 859.53 830.477C860.277 831.485 860.65 832.837 860.65 834.535V842.875H858.747L858.551 841.252H858.467C857.833 841.774 857.133 842.231 856.368 842.623C855.622 843.015 854.82 843.211 853.961 843.211ZM854.633 841.364C855.286 841.364 855.902 841.205 856.48 840.888C857.058 840.571 857.674 840.123 858.327 839.545V835.767C856.07 836.046 854.484 836.466 853.57 837.026C852.674 837.586 852.226 838.304 852.226 839.181C852.226 839.946 852.459 840.505 852.926 840.86C853.392 841.196 853.961 841.364 854.633 841.364ZM869.518 849.143C867.858 849.143 866.505 848.826 865.461 848.192C864.416 847.558 863.893 846.653 863.893 845.477C863.893 844.899 864.071 844.339 864.425 843.798C864.78 843.276 865.265 842.809 865.88 842.399V842.287C865.545 842.082 865.255 841.793 865.013 841.42C864.789 841.046 864.677 840.599 864.677 840.076C864.677 839.498 864.836 838.994 865.153 838.565C865.47 838.136 865.806 837.8 866.16 837.558V837.446C865.712 837.073 865.302 836.569 864.929 835.934C864.574 835.3 864.397 834.582 864.397 833.78C864.397 832.791 864.63 831.933 865.097 831.205C865.563 830.477 866.188 829.918 866.972 829.526C867.755 829.134 868.604 828.938 869.518 828.938C869.892 828.938 870.246 828.976 870.582 829.05C870.918 829.106 871.207 829.181 871.449 829.274H876.179V831.037H873.38C873.697 831.336 873.959 831.737 874.164 832.24C874.388 832.726 874.5 833.257 874.5 833.836C874.5 834.806 874.276 835.645 873.828 836.354C873.38 837.063 872.783 837.614 872.037 838.005C871.291 838.378 870.451 838.565 869.518 838.565C868.791 838.565 868.11 838.406 867.475 838.089C867.233 838.295 867.028 838.528 866.86 838.789C866.692 839.031 866.608 839.339 866.608 839.712C866.608 840.142 866.776 840.496 867.112 840.776C867.466 841.056 868.1 841.196 869.015 841.196H871.645C873.231 841.196 874.416 841.457 875.199 841.979C876.002 842.483 876.403 843.304 876.403 844.442C876.403 845.281 876.123 846.056 875.563 846.765C875.003 847.474 874.211 848.043 873.184 848.472C872.158 848.92 870.936 849.143 869.518 849.143ZM869.518 837.026C870.302 837.026 870.974 836.737 871.533 836.158C872.112 835.561 872.401 834.768 872.401 833.78C872.401 832.791 872.121 832.017 871.561 831.457C871.002 830.897 870.321 830.617 869.518 830.617C868.716 830.617 868.035 830.897 867.475 831.457C866.916 832.017 866.636 832.791 866.636 833.78C866.636 834.768 866.916 835.561 867.475 836.158C868.054 836.737 868.735 837.026 869.518 837.026ZM869.854 847.548C871.16 847.548 872.205 847.259 872.989 846.681C873.772 846.121 874.164 845.487 874.164 844.778C874.164 844.143 873.921 843.705 873.436 843.462C872.97 843.22 872.298 843.099 871.421 843.099H869.071C868.809 843.099 868.52 843.08 868.203 843.043C867.905 843.005 867.606 842.949 867.308 842.875C866.822 843.229 866.468 843.602 866.244 843.994C866.02 844.386 865.908 844.778 865.908 845.17C865.908 845.897 866.253 846.475 866.944 846.905C867.653 847.334 868.623 847.548 869.854 847.548ZM884.161 843.211C882.948 843.211 881.848 842.931 880.859 842.371C879.87 841.793 879.086 840.972 878.508 839.908C877.93 838.845 877.641 837.576 877.641 836.102C877.641 834.61 877.93 833.332 878.508 832.268C879.105 831.205 879.87 830.384 880.803 829.806C881.736 829.227 882.715 828.938 883.741 828.938C885.476 828.938 886.81 829.517 887.743 830.673C888.695 831.83 889.17 833.379 889.17 835.319C889.17 835.561 889.161 835.804 889.142 836.046C889.142 836.27 889.124 836.466 889.086 836.634H879.907C880.001 838.071 880.448 839.218 881.251 840.076C882.072 840.934 883.135 841.364 884.441 841.364C885.094 841.364 885.691 841.27 886.232 841.084C886.792 840.878 887.323 840.617 887.827 840.3L888.639 841.811C888.06 842.184 887.398 842.511 886.652 842.791C885.924 843.071 885.094 843.211 884.161 843.211ZM879.879 834.983H887.155C887.155 833.602 886.857 832.558 886.26 831.849C885.682 831.121 884.861 830.757 883.797 830.757C882.846 830.757 881.988 831.13 881.223 831.877C880.476 832.604 880.029 833.64 879.879 834.983ZM892.531 842.875V829.274H894.434L894.63 831.737H894.714C895.18 830.879 895.75 830.198 896.421 829.694C897.093 829.19 897.811 828.938 898.576 828.938C899.117 828.938 899.602 829.032 900.031 829.218L899.583 831.233C899.36 831.158 899.154 831.102 898.968 831.065C898.781 831.028 898.548 831.009 898.268 831.009C897.69 831.009 897.083 831.242 896.449 831.709C895.833 832.175 895.292 832.987 894.826 834.143V842.875H892.531Z" fill="white"/>
</g>
<defs>
<filter id="filter0_d_0_1" x="25.6487" y="313.12" width="433.138" height="384.675" filterUnits="userSpaceOnUse" color-interpolation-filters="sRGB">
<feFlood flood-opacity="0" result="BackgroundImageFix"/>
<feColorMatrix in="SourceAlpha" type="matrix" values="0 0 0 0 0 0 0 0 0 0 0 0 0 0 0 0 0 0 127 0" result="hardAlpha"/>
<feOffset dy="5.18472"/>
<feGaussianBlur stdDeviation="19.4427"/>
<feComposite in2="hardAlpha" operator="out"/>
<feColorMatrix type="matrix" values="0 0 0 0 1 0 0 0 0 1 0 0 0 0 1 0 0 0 1 0"/>
<feBlend mode="normal" in2="BackgroundImageFix" result="effect1_dropShadow_0_1"/>
<feBlend mode="normal" in="SourceGraphic" in2="effect1_dropShadow_0_1" result="shape"/>
</filter>
<linearGradient id="paint0_linear_0_1" x1="238.563" y1="574.312" x2="67.4579" y2="-64.259" gradientUnits="userSpaceOnUse">
<stop stop-color="#F2F9FF"/>
<stop offset="1" stop-color="#91AFCB"/>
</linearGradient>
<radialGradient id="paint1_radial_0_1" cx="0" cy="0" r="1" gradientTransform="matrix(-120.203 308.278 -190.568 -74.3061 22.1737 33.1866)" gradientUnits="userSpaceOnUse">
<stop stop-color="#A4BFDA"/>
<stop offset="1" stop-color="#387CBF"/>
</radialGradient>
<linearGradient id="paint2_linear_0_1" x1="474.997" y1="62.3982" x2="473.995" y2="207.49" gradientUnits="userSpaceOnUse">
<stop stop-color="#9C9C9C"/>
<stop offset="1" stop-opacity="0"/>
</linearGradient>
<linearGradient id="paint3_linear_0_1" x1="218.693" y1="678.383" x2="218.693" y2="358.763" gradientUnits="userSpaceOnUse">
<stop stop-color="#F2F9FF"/>
<stop offset="1" stop-color="#91AFCB"/>
</linearGradient>
<radialGradient id="paint4_radial_0_1" cx="0" cy="0" r="1" gradientTransform="matrix(-94.7093 128.923 -79.6964 -58.5465 185.353 398.603)" gradientUnits="userSpaceOnUse">
<stop stop-color="#A4BFDA"/>
<stop offset="1" stop-color="#387CBF"/>
</radialGradient>
<linearGradient id="paint5_linear_0_1" x1="393.164" y1="468.907" x2="374.54" y2="536.538" gradientUnits="userSpaceOnUse">
<stop stop-color="#9C9C9C"/>
<stop offset="1" stop-opacity="0"/>
</linearGradient>
<clipPath id="clip0_0_1">
<rect width="1000" height="1000" fill="white"/>
</clipPath>
</defs>
</svg>
