<svg width="1500" height="1171" viewBox="0 0 1500 1171" fill="none" xmlns="http://www.w3.org/2000/svg">
<rect width="1500" height="1171" fill="#1E1E1E"/>
<rect width="1500" height="1170" fill="#21283A"/>
<path d="M3.05176e-05 707.145H1499V1170.15H3.05176e-05V707.145Z" fill="white"/>
<rect x="1.00003" y="653.145" width="1499" height="54" fill="#1793D1" fill-opacity="0.85"/>
<line x1="60.5" y1="-2.37838e-09" x2="60.5" y2="1170" stroke="black"/>
<line x1="1440.5" y1="-2.37838e-09" x2="1440.5" y2="1170" stroke="black"/>
<path fill-rule="evenodd" clip-rule="evenodd" d="M890.087 501.713C888.202 489.502 1078.07 538.245 1067.1 621.477C1060.04 706.566 924.649 785.372 679.953 828.997C566.06 844.818 515.558 846.138 515.496 837.854C514.43 830.566 880.194 789.056 970.111 629.531C1018.92 537.007 892.217 515.52 890.087 501.713Z" fill="black"/>
<path fill-rule="evenodd" clip-rule="evenodd" d="M974.438 839.112C977.448 872.54 976.378 879.454 967.98 878.937C957.088 878.232 958.927 864.146 955.728 854.679C921.584 738.647 843.959 558.119 727.388 558.119C611.48 558.119 561.513 706.939 519.479 829.779C513.26 848.977 505.673 878.292 467.009 878.972C439.326 879.045 431.809 853.197 433.147 836.465C454.364 555.023 555.989 343.705 706.359 339.051C834.169 335.095 949.298 559.837 974.438 839.112Z" fill="#DADADA" stroke="#383838" stroke-width="14.1579"/>
<path fill-rule="evenodd" clip-rule="evenodd" d="M974.438 839.112C977.448 872.54 976.378 879.454 967.98 878.937C957.088 878.232 958.927 864.146 955.728 854.679C921.584 738.647 843.959 558.119 727.388 558.119C611.48 558.119 561.513 706.939 519.479 829.779C513.26 848.977 505.673 878.292 467.009 878.972C439.326 879.045 431.809 853.197 433.147 836.465C454.364 555.023 555.989 343.705 706.359 339.051C834.169 335.095 949.298 559.837 974.438 839.112Z" fill="url(#paint0_linear_0_1)" stroke="#003870" stroke-width="14.1579"/>
<path fill-rule="evenodd" clip-rule="evenodd" d="M707.361 362.107C642.726 364.107 586.183 410.377 541.447 494.838C496.712 579.298 466.492 699.758 456.057 838.168C455.742 842.109 456.826 848.802 458.712 851.883C460.598 854.965 460.403 855.883 467.118 855.865C480.705 855.626 483.064 852.675 487.028 847.459C490.991 842.243 494.299 833.016 497.646 822.683C497.645 822.535 497.645 822.388 497.646 822.24C518.647 760.869 541.655 691.89 575.957 635.975C610.26 580.059 659.513 535.099 727.27 535.099C797.373 535.099 851.257 587.975 891.414 650.575C909.622 678.959 939.257 758.085 938.312 741.274C935.568 692.442 893.148 558.684 858.674 493.51C835.691 450.062 810.003 415.775 783.902 393.52C757.802 371.265 732.506 361.329 707.361 362.107Z" fill="url(#paint1_radial_0_1)"/>
<path fill-rule="evenodd" clip-rule="evenodd" d="M963.089 532.002C978.985 544.443 991.595 562.464 993.18 583.031C994.865 602.106 989.349 621.602 979.377 637.754C976.971 642.358 966.796 649.37 968.603 651.689C987.526 647.782 994.739 640.611 1010.61 631.616C1026.95 622.354 1036.81 647.749 1050.25 624.471C1061.2 605.498 1050.31 589.907 1038.49 577.866C1020.61 559.126 997.538 546.252 974.116 535.745C970.486 534.363 966.688 533.47 963.089 532.002Z" fill="url(#paint2_linear_0_1)"/>
<path fill-rule="evenodd" clip-rule="evenodd" d="M20.2441 1052.35C19.3253 1052.5 22.9932 1038.21 29.2564 1039.03C35.6593 1039.57 41.5894 1049.75 44.8722 1068.17C46.0627 1076.74 46.162 1080.54 45.5386 1080.54C44.9902 1080.62 41.8666 1053.1 29.8624 1046.33C22.9 1042.66 21.2831 1052.19 20.2441 1052.35Z" fill="black"/>
<path fill-rule="evenodd" clip-rule="evenodd" d="M45.6333 1046.01C48.1488 1045.78 48.669 1045.86 48.6301 1046.49C48.5771 1047.31 47.5171 1047.17 46.8047 1047.41C38.0733 1049.98 24.4887 1055.83 24.4887 1064.6C24.4887 1073.32 35.6873 1077.08 44.931 1080.24C46.3757 1080.71 48.5816 1081.28 48.6327 1084.19C48.6382 1086.27 46.6932 1086.84 45.4341 1086.74C24.2557 1085.14 8.35408 1077.5 8.00387 1066.18C7.70613 1056.56 24.618 1047.9 45.6333 1046.01Z" fill="#DADADA" stroke="#383838" stroke-width="1.06538"/>
<path fill-rule="evenodd" clip-rule="evenodd" d="M45.6333 1046.01C48.1488 1045.78 48.669 1045.86 48.6301 1046.49C48.5771 1047.31 47.5171 1047.17 46.8047 1047.41C38.0733 1049.98 24.4887 1055.83 24.4887 1064.6C24.4887 1073.32 35.6873 1077.08 44.931 1080.24C46.3757 1080.71 48.5816 1081.28 48.6327 1084.19C48.6382 1086.27 46.6932 1086.84 45.4341 1086.74C24.2557 1085.14 8.35408 1077.5 8.00387 1066.18C7.70613 1056.56 24.618 1047.9 45.6333 1046.01Z" fill="url(#paint3_linear_0_1)" stroke="#003870" stroke-width="1.06538"/>
<path fill-rule="evenodd" clip-rule="evenodd" d="M9.73881 1066.1C9.88934 1070.97 13.3711 1075.22 19.7268 1078.59C26.0824 1081.96 35.147 1084.23 45.5623 1085.01C45.8588 1085.04 46.3625 1084.96 46.5943 1084.82C46.8262 1084.67 46.8953 1084.69 46.894 1084.18C46.876 1083.16 46.6539 1082.98 46.2614 1082.68C45.8689 1082.39 45.1746 1082.14 44.397 1081.89C44.3859 1081.89 44.3748 1081.89 44.3637 1081.89C39.7455 1080.31 34.5549 1078.57 30.3473 1075.99C26.1396 1073.41 22.7564 1069.7 22.7564 1064.61C22.7564 1059.33 26.7353 1055.28 31.446 1052.25C33.5819 1050.88 39.5361 1048.65 38.2711 1048.73C34.5965 1048.93 24.5312 1052.12 19.6269 1054.72C16.3574 1056.45 13.7773 1058.38 12.1026 1060.34C10.4279 1062.31 9.68024 1064.21 9.73881 1066.1Z" fill="url(#paint4_radial_0_1)"/>
<path fill-rule="evenodd" clip-rule="evenodd" d="M22.5234 1046.86C23.4595 1045.66 24.8156 1044.72 26.3632 1044.6C27.7987 1044.47 29.2658 1044.88 30.4812 1045.64C30.8276 1045.82 31.3553 1046.58 31.5297 1046.45C31.2358 1045.02 30.6962 1044.48 30.0193 1043.29C29.3223 1042.06 31.2333 1041.31 29.4816 1040.3C28.0539 1039.48 26.8807 1040.3 25.9746 1041.19C24.5645 1042.53 23.5956 1044.27 22.805 1046.03C22.701 1046.3 22.6338 1046.59 22.5234 1046.86Z" fill="url(#paint5_linear_0_1)"/>
<path fill-rule="evenodd" clip-rule="evenodd" d="M1481.39 837.396C1482.31 837.254 1478.64 851.541 1472.38 850.716C1465.97 850.185 1460.04 839.996 1456.76 821.583C1455.57 813.013 1455.47 809.213 1456.09 809.208C1456.64 809.128 1459.77 836.651 1471.77 843.418C1478.73 847.09 1480.35 837.556 1481.39 837.396Z" fill="black"/>
<path fill-rule="evenodd" clip-rule="evenodd" d="M1456 843.743C1453.48 843.97 1452.96 843.889 1453 843.257C1453.06 842.437 1454.12 842.576 1454.83 842.335C1463.56 839.766 1477.14 833.925 1477.14 825.153C1477.14 816.431 1465.95 812.671 1456.7 809.508C1455.26 809.04 1453.05 808.469 1453 805.559C1452.99 803.476 1454.94 802.91 1456.2 803.011C1477.38 804.608 1493.28 812.255 1493.63 823.57C1493.93 833.188 1477.01 841.851 1456 843.743Z" fill="#DADADA" stroke="#383838" stroke-width="1.06538"/>
<path fill-rule="evenodd" clip-rule="evenodd" d="M1456 843.743C1453.48 843.97 1452.96 843.889 1453 843.257C1453.06 842.437 1454.12 842.576 1454.83 842.335C1463.56 839.766 1477.14 833.925 1477.14 825.153C1477.14 816.431 1465.95 812.671 1456.7 809.508C1455.26 809.04 1453.05 808.469 1453 805.559C1452.99 803.476 1454.94 802.91 1456.2 803.011C1477.38 804.608 1493.28 812.255 1493.63 823.57C1493.93 833.188 1477.01 841.851 1456 843.743Z" fill="url(#paint6_linear_0_1)" stroke="#003870" stroke-width="1.06538"/>
<path fill-rule="evenodd" clip-rule="evenodd" d="M1491.89 823.646C1491.74 818.782 1488.26 814.527 1481.91 811.161C1475.55 807.794 1466.49 805.52 1456.07 804.735C1455.77 804.711 1455.27 804.793 1455.04 804.935C1454.81 805.077 1454.74 805.062 1454.74 805.567C1454.76 806.59 1454.98 806.767 1455.37 807.066C1455.76 807.364 1456.46 807.613 1457.24 807.865C1457.25 807.865 1457.26 807.865 1457.27 807.865C1461.89 809.445 1467.08 811.176 1471.29 813.758C1475.49 816.339 1478.88 820.045 1478.88 825.144C1478.88 830.419 1474.9 834.474 1470.19 837.496C1468.05 838.866 1462.1 841.096 1463.36 841.025C1467.04 840.818 1477.1 837.626 1482.01 835.032C1485.28 833.302 1487.86 831.369 1489.53 829.405C1491.2 827.441 1491.95 825.538 1491.89 823.646Z" fill="url(#paint7_radial_0_1)"/>
<path fill-rule="evenodd" clip-rule="evenodd" d="M1474.01 836C1473.07 837.196 1471.71 838.145 1470.17 838.264C1468.73 838.391 1467.26 837.976 1466.05 837.226C1465.7 837.045 1465.17 836.279 1465 836.415C1465.29 837.839 1465.83 838.382 1466.51 839.576C1467.21 840.806 1465.3 841.547 1467.05 842.559C1468.48 843.383 1469.65 842.563 1470.56 841.674C1471.97 840.329 1472.93 838.592 1473.72 836.83C1473.83 836.557 1473.9 836.271 1474.01 836Z" fill="url(#paint8_linear_0_1)"/>
<path d="M25.7558 310.07L29.0921 311.104V304.532L25.7558 305.566C24.5325 305.966 23.3203 306.344 22.1192 306.7C20.8959 307.056 19.6504 307.412 18.3826 307.768V307.901C19.6504 308.235 20.8959 308.58 22.1192 308.936C23.3203 309.292 24.5325 309.67 25.7558 310.07ZM38 316.743L16.1139 309.336V306.2L38 298.793V301.763L31.3274 303.831V311.805L38 313.907V316.743ZM38 295.959H21.7856V293.691L24.7215 293.457V293.357C23.6984 292.801 22.8866 292.123 22.2861 291.322C21.6855 290.521 21.3853 289.665 21.3853 288.753C21.3853 288.108 21.4965 287.53 21.7189 287.018L24.121 287.552C24.032 287.819 23.9653 288.063 23.9208 288.286C23.8764 288.508 23.8541 288.786 23.8541 289.12C23.8541 289.809 24.1321 290.532 24.6882 291.288C25.2442 292.022 26.2118 292.667 27.5908 293.224H38V295.959ZM38.4004 278.313C38.4004 279.737 38.0667 281.027 37.3995 282.183C36.7322 283.34 35.7647 284.252 34.4969 284.919C33.2291 285.586 31.7055 285.92 29.9262 285.92C28.1023 285.92 26.5565 285.564 25.2887 284.852C24.0209 284.118 23.0534 283.162 22.3861 281.983C21.7189 280.782 21.3853 279.492 21.3853 278.113C21.3853 277.045 21.5743 276.133 21.9524 275.377C22.3305 274.599 22.7754 273.931 23.2869 273.375L25.0885 274.777C24.6659 275.244 24.3212 275.744 24.0543 276.278C23.7874 276.79 23.6539 277.368 23.6539 278.013C23.6539 278.992 23.9208 279.87 24.4546 280.649C24.9662 281.405 25.7002 282.005 26.6566 282.45C27.5908 282.873 28.6806 283.084 29.9262 283.084C31.7722 283.084 33.2736 282.628 34.4302 281.716C35.5645 280.782 36.1317 279.57 36.1317 278.08C36.1317 277.323 35.976 276.623 35.6646 275.978C35.331 275.333 34.9417 274.766 34.4969 274.276L36.3319 273.075C36.9769 273.809 37.4884 274.621 37.8665 275.511C38.2224 276.4 38.4004 277.335 38.4004 278.313ZM38 269.504H14.2456V266.768H20.718L24.0543 266.868C23.3203 266.089 22.6975 265.278 22.186 264.432C21.6522 263.565 21.3853 262.575 21.3853 261.463C21.3853 259.75 21.9302 258.505 23.02 257.726C24.0877 256.926 25.6557 256.525 27.7242 256.525H38L38 259.261H28.0912C26.5788 259.261 25.4778 259.506 24.7883 259.995C24.0988 260.484 23.754 261.263 23.754 262.33C23.754 263.153 23.9653 263.899 24.3879 264.566C24.8105 265.211 25.4333 265.945 26.2562 266.768H38V269.504ZM38 244.41H16.1139V241.641H35.6312V232.066H38V244.41ZM38 228.451H21.7856V225.716H38V228.451ZM18.4493 227.05C18.4493 227.584 18.2936 228.029 17.9822 228.385C17.6486 228.718 17.2038 228.885 16.6477 228.885C16.1139 228.885 15.6802 228.718 15.3466 228.385C15.0129 228.029 14.8461 227.584 14.8461 227.05C14.8461 226.516 15.0129 226.083 15.3466 225.749C15.6802 225.393 16.1139 225.215 16.6477 225.215C17.2038 225.215 17.6486 225.393 17.9822 225.749C18.2936 226.083 18.4493 226.516 18.4493 227.05ZM38 220.241H21.7856V217.972L24.121 217.739V217.639C23.3425 216.86 22.6975 216.037 22.186 215.17C21.6522 214.302 21.3853 213.313 21.3853 212.201C21.3853 210.488 21.9302 209.242 23.02 208.464C24.0877 207.663 25.6557 207.263 27.7242 207.263H38V209.999H28.0912C26.5788 209.999 25.4778 210.243 24.7883 210.733C24.0988 211.222 23.754 212 23.754 213.068C23.754 213.891 23.9653 214.636 24.3879 215.303C24.8105 215.948 25.4333 216.682 26.2562 217.505H38V220.241ZM38.4004 197.258C38.4004 198.971 37.8665 200.227 36.7989 201.028C35.7091 201.829 34.1299 202.229 32.0614 202.229H21.7856V199.46H31.6944C33.2069 199.46 34.3078 199.227 34.9973 198.759C35.6868 198.27 36.0316 197.492 36.0316 196.424C36.0316 195.579 35.8203 194.834 35.3977 194.189C34.9529 193.521 34.2522 192.81 33.2958 192.054H21.7856V189.318H38V191.586L35.4644 191.82V191.92C36.3541 192.676 37.0658 193.477 37.5996 194.322C38.1335 195.167 38.4004 196.146 38.4004 197.258ZM38 186.117L29.5258 180.812L21.7856 185.716V182.747L25.3554 180.579C25.778 180.334 26.2229 180.078 26.69 179.811C27.157 179.544 27.613 179.266 28.0578 178.977V178.844C27.613 178.599 27.157 178.354 26.69 178.11C26.2229 177.865 25.778 177.62 25.3554 177.376L21.7856 175.407V172.538L29.8261 177.442L38 172.171V175.14L34.23 177.509C33.7407 177.798 33.2513 178.087 32.762 178.377C32.2727 178.666 31.7945 178.966 31.3274 179.277V179.411C31.7945 179.7 32.2727 179.978 32.762 180.245C33.2291 180.512 33.7184 180.779 34.23 181.046L38 183.248V186.117ZM38.4004 156.741C38.4004 158.765 37.6664 160.389 36.1984 161.612C34.7082 162.835 32.6174 163.447 29.9262 163.447C28.1691 163.447 26.6566 163.125 25.3888 162.48C24.0988 161.812 23.109 160.945 22.4195 159.877C21.73 158.787 21.3853 157.631 21.3853 156.408C21.3853 155.473 21.5521 154.662 21.8857 153.972C22.2193 153.283 22.6753 152.582 23.2536 151.87L20.4845 152.004H14.2456V149.235H38V151.503L36.0983 151.737V151.837C36.7211 152.46 37.266 153.194 37.7331 154.039C38.1779 154.884 38.4004 155.785 38.4004 156.741ZM36.0983 156.141C36.0983 154.717 35.3532 153.338 33.863 152.004H25.3888C24.766 152.693 24.3323 153.36 24.0877 154.005C23.8207 154.628 23.6873 155.273 23.6873 155.94C23.6873 156.808 23.9542 157.598 24.488 158.309C24.9996 158.999 25.7224 159.555 26.6566 159.977C27.5685 160.4 28.6473 160.611 29.8928 160.611C31.8279 160.611 33.3514 160.222 34.4635 159.444C35.5534 158.665 36.0983 157.564 36.0983 156.141ZM38.4004 137.201C38.4004 138.647 38.0667 139.959 37.3995 141.138C36.71 142.317 35.7313 143.251 34.4635 143.94C33.1957 144.63 31.6833 144.975 29.9262 144.975C28.1468 144.975 26.6232 144.63 25.3554 143.94C24.0877 143.229 23.109 142.317 22.4195 141.204C21.73 140.092 21.3853 138.925 21.3853 137.701C21.3853 135.633 22.0748 134.043 23.4538 132.93C24.8328 131.796 26.6788 131.229 28.992 131.229C29.2812 131.229 29.5703 131.24 29.8594 131.262C30.1263 131.262 30.3599 131.285 30.5601 131.329V142.272C32.2727 142.161 33.6406 141.627 34.6637 140.671C35.6868 139.692 36.1984 138.424 36.1984 136.867C36.1984 136.089 36.0872 135.377 35.8648 134.732C35.6201 134.065 35.3087 133.431 34.9306 132.83L36.7322 131.863C37.177 132.552 37.5663 133.342 37.8999 134.232C38.2335 135.099 38.4004 136.089 38.4004 137.201ZM28.5916 142.305V133.631C26.9457 133.631 25.7002 133.987 24.855 134.699C23.9876 135.388 23.5538 136.367 23.5538 137.635C23.5538 138.769 23.9987 139.792 24.8884 140.704C25.7558 141.594 26.9902 142.128 28.5916 142.305ZM38 123.556L21.7856 129.395V126.559L30.9938 123.49C31.7945 123.245 32.5952 123 33.3959 122.756C34.1966 122.489 34.9862 122.233 35.7647 121.988V121.855C34.9862 121.61 34.1966 121.365 33.3959 121.121C32.5952 120.854 31.7945 120.609 30.9938 120.387L21.7856 117.317V114.615L38 120.353V123.556ZM38.4004 99.702C38.4004 101.437 37.8999 102.649 36.899 103.339C35.8981 104.006 34.597 104.339 32.9956 104.339H24.0209V106.742H21.9524L21.7856 104.206L17.2482 103.872V101.57H21.7856V97.1998H24.0209V101.57H33.0289C34.0298 101.57 34.8083 101.392 35.3643 101.037C35.8981 100.658 36.165 100.002 36.165 99.0681C36.165 98.779 36.1206 98.4676 36.0316 98.134C35.9204 97.8003 35.8203 97.5001 35.7313 97.2332L37.7998 96.6994C37.9555 97.1442 38.089 97.6335 38.2002 98.1673C38.3336 98.6789 38.4004 99.1905 38.4004 99.702ZM38.4004 87.4172C38.4004 88.8629 38.0667 90.1752 37.3995 91.354C36.71 92.5328 35.7313 93.467 34.4635 94.1565C33.1957 94.846 31.6833 95.1907 29.9262 95.1907C28.1468 95.1907 26.6232 94.846 25.3554 94.1565C24.0877 93.4447 23.109 92.5328 22.4195 91.4207C21.73 90.3086 21.3853 89.1409 21.3853 87.9176C21.3853 85.8491 22.0748 84.2588 23.4538 83.1467C24.8328 82.0124 26.6788 81.4452 28.992 81.4452C29.2812 81.4452 29.5703 81.4563 29.8594 81.4786C30.1263 81.4786 30.3599 81.5008 30.5601 81.5453V92.4883C32.2727 92.3771 33.6406 91.8433 34.6637 90.8869C35.6868 89.9083 36.1984 88.6405 36.1984 87.0835C36.1984 86.3051 36.0872 85.5933 35.8648 84.9483C35.6201 84.281 35.3087 83.6471 34.9306 83.0466L36.7322 82.0791C37.177 82.7686 37.5663 83.5582 37.8999 84.4479C38.2335 85.3153 38.4004 86.3051 38.4004 87.4172ZM28.5916 92.5217V83.8473C26.9457 83.8473 25.7002 84.2032 24.855 84.9149C23.9876 85.6044 23.5538 86.5831 23.5538 87.8509C23.5538 88.9852 23.9987 90.0083 24.8884 90.9203C25.7558 91.8099 26.9902 92.3438 28.5916 92.5217ZM38.4004 74.158C38.4004 75.5147 38 76.6491 37.1993 77.561C36.3763 78.4507 35.242 78.8955 33.7963 78.8955C32.0169 78.8955 30.6602 78.1059 29.726 76.5268C28.7696 74.9253 28.1023 72.4009 27.7242 68.9534C27.0347 68.9534 26.3786 69.0535 25.7558 69.2536C25.133 69.4316 24.6326 69.7652 24.2545 70.2545C23.8541 70.7216 23.6539 71.4 23.6539 72.2897C23.6539 73.2238 23.8319 74.1024 24.1877 74.9253C24.5436 75.7483 24.944 76.4823 25.3888 77.1273L23.4871 78.1949C22.9978 77.4387 22.5307 76.5156 22.0859 75.4258C21.6188 74.3137 21.3853 73.1126 21.3853 71.8226C21.3853 69.843 21.9969 68.4084 23.2202 67.5188C24.4213 66.6291 26.0338 66.1842 28.0578 66.1842H38V68.4529L36.0649 68.6865V68.7866C36.6877 69.5428 37.2327 70.3769 37.6997 71.2888C38.1668 72.1785 38.4004 73.1349 38.4004 74.158ZM36.1984 73.3573C36.1984 72.5788 36.0093 71.8448 35.6312 71.1553C35.2531 70.4658 34.7193 69.7318 34.0298 68.9534H29.5258C29.8594 71.6446 30.3599 73.5352 31.0271 74.6251C31.6944 75.6927 32.5507 76.2265 33.5961 76.2265C34.508 76.2265 35.1753 75.9485 35.5979 75.3924C35.9982 74.8364 36.1984 74.158 36.1984 73.3573ZM38 61.0829H21.7856V58.8142L24.121 58.5806V58.4805C23.3425 57.7688 22.6975 56.9903 22.186 56.1451C21.6522 55.2999 21.3853 54.3991 21.3853 53.4427C21.3853 52.1972 21.6633 51.2297 22.2193 50.5402C22.7531 49.8284 23.5094 49.3057 24.488 48.9721C23.5761 48.1269 22.831 47.2706 22.2527 46.4032C21.6744 45.5357 21.3853 44.6127 21.3853 43.634C21.3853 41.9659 21.9302 40.7315 23.02 39.9307C24.0877 39.1078 25.6557 38.6963 27.7242 38.6963H38V41.4321H28.0912C26.5788 41.4321 25.4778 41.6767 24.7883 42.1661C24.0988 42.6554 23.754 43.4116 23.754 44.4347C23.754 45.6358 24.5881 46.9926 26.2562 48.505H38V51.2408H28.0912C26.5788 51.2408 25.4778 51.4854 24.7883 51.9748C24.0988 52.4641 23.754 53.2314 23.754 54.2768C23.754 55.4779 24.5881 56.8346 26.2562 58.3471H38V61.0829Z" fill="white"/>
<path d="M1474.24 44.93L1470.91 43.8958V50.4683L1474.24 49.434C1475.47 49.0337 1476.68 48.6555 1477.88 48.2997C1479.1 47.9438 1480.35 47.5879 1481.62 47.2321V47.0986C1480.35 46.765 1479.1 46.4202 1477.88 46.0644C1476.68 45.7085 1475.47 45.3304 1474.24 44.93ZM1462 38.2574L1483.89 45.664V48.8001L1462 56.2067V53.2374L1468.67 51.1689V43.1951L1462 41.0933V38.2574ZM1462 59.0407H1478.21V61.3094L1475.28 61.5429V61.643C1476.3 62.1991 1477.11 62.8775 1477.71 63.6782C1478.31 64.4789 1478.61 65.3352 1478.61 66.2471C1478.61 66.8921 1478.5 67.4704 1478.28 67.982L1475.88 67.4482C1475.97 67.1813 1476.03 66.9366 1476.08 66.7142C1476.12 66.4918 1476.15 66.2137 1476.15 65.8801C1476.15 65.1906 1475.87 64.4678 1475.31 63.7115C1474.76 62.9775 1473.79 62.3325 1472.41 61.7765H1462V59.0407ZM1461.6 76.6868C1461.6 75.2634 1461.93 73.9733 1462.6 72.8167C1463.27 71.6602 1464.24 70.7482 1465.5 70.081C1466.77 69.4137 1468.29 69.0801 1470.07 69.0801C1471.9 69.0801 1473.44 69.436 1474.71 70.1477C1475.98 70.8817 1476.95 71.8381 1477.61 73.0169C1478.28 74.218 1478.61 75.508 1478.61 76.887C1478.61 77.9546 1478.43 78.8666 1478.05 79.6228C1477.67 80.4013 1477.22 81.0685 1476.71 81.6246L1474.91 80.2233C1475.33 79.7562 1475.68 79.2558 1475.95 78.722C1476.21 78.2104 1476.35 77.6321 1476.35 76.9871C1476.35 76.0085 1476.08 75.1299 1475.55 74.3514C1475.03 73.5952 1474.3 72.9947 1473.34 72.5498C1472.41 72.1272 1471.32 71.9159 1470.07 71.9159C1468.23 71.9159 1466.73 72.3719 1465.57 73.2838C1464.44 74.218 1463.87 75.4302 1463.87 76.9204C1463.87 77.6766 1464.02 78.3772 1464.34 79.0222C1464.67 79.6673 1465.06 80.2344 1465.5 80.7238L1463.67 81.9248C1463.02 81.1908 1462.51 80.379 1462.13 79.4893C1461.78 78.5997 1461.6 77.6655 1461.6 76.6868ZM1462 85.4965H1485.75V88.2322H1479.28L1475.95 88.1322C1476.68 88.9106 1477.3 89.7225 1477.81 90.5677C1478.35 91.4351 1478.61 92.4249 1478.61 93.537C1478.61 95.2496 1478.07 96.4951 1476.98 97.2736C1475.91 98.0743 1474.34 98.4747 1472.28 98.4747H1462V95.7389H1471.91C1473.42 95.7389 1474.52 95.4942 1475.21 95.0049C1475.9 94.5156 1476.25 93.7371 1476.25 92.6695C1476.25 91.8466 1476.03 91.1015 1475.61 90.4342C1475.19 89.7892 1474.57 89.0552 1473.74 88.2322H1462V85.4965ZM1462 110.59H1483.89V113.359H1464.37V122.934H1462V110.59ZM1462 126.549H1478.21V129.284H1462V126.549ZM1481.55 127.95C1481.55 127.416 1481.71 126.971 1482.02 126.615C1482.35 126.282 1482.8 126.115 1483.35 126.115C1483.89 126.115 1484.32 126.282 1484.65 126.615C1484.99 126.971 1485.15 127.416 1485.15 127.95C1485.15 128.484 1484.99 128.917 1484.65 129.251C1484.32 129.607 1483.89 129.785 1483.35 129.785C1482.8 129.785 1482.35 129.607 1482.02 129.251C1481.71 128.917 1481.55 128.484 1481.55 127.95ZM1462 134.759H1478.21V137.028L1475.88 137.261V137.361C1476.66 138.14 1477.3 138.963 1477.81 139.83C1478.35 140.698 1478.61 141.687 1478.61 142.799C1478.61 144.512 1478.07 145.758 1476.98 146.536C1475.91 147.337 1474.34 147.737 1472.28 147.737H1462V145.001H1471.91C1473.42 145.001 1474.52 144.757 1475.21 144.267C1475.9 143.778 1476.25 143 1476.25 141.932C1476.25 141.109 1476.03 140.364 1475.61 139.697C1475.19 139.052 1474.57 138.318 1473.74 137.495H1462V134.759ZM1461.6 157.742C1461.6 156.029 1462.13 154.773 1463.2 153.972C1464.29 153.171 1465.87 152.771 1467.94 152.771H1478.21V155.54H1468.31C1466.79 155.54 1465.69 155.773 1465 156.241C1464.31 156.73 1463.97 157.508 1463.97 158.576C1463.97 159.421 1464.18 160.166 1464.6 160.811C1465.05 161.479 1465.75 162.19 1466.7 162.946H1478.21V165.682H1462V163.414L1464.54 163.18V163.08C1463.65 162.324 1462.93 161.523 1462.4 160.678C1461.87 159.833 1461.6 158.854 1461.6 157.742ZM1462 168.883L1470.47 174.188L1478.21 169.284V172.253L1474.64 174.421C1474.22 174.666 1473.78 174.922 1473.31 175.189C1472.84 175.456 1472.39 175.734 1471.94 176.023V176.156C1472.39 176.401 1472.84 176.646 1473.31 176.89C1473.78 177.135 1474.22 177.38 1474.64 177.624L1478.21 179.593V182.462L1470.17 177.558L1462 182.829V179.86L1465.77 177.491C1466.26 177.202 1466.75 176.913 1467.24 176.623C1467.73 176.334 1468.21 176.034 1468.67 175.723V175.589C1468.21 175.3 1467.73 175.022 1467.24 174.755C1466.77 174.488 1466.28 174.221 1465.77 173.954L1462 171.752V168.883ZM1461.6 198.259C1461.6 196.235 1462.33 194.611 1463.8 193.388C1465.29 192.165 1467.38 191.553 1470.07 191.553C1471.83 191.553 1473.34 191.875 1474.61 192.52C1475.9 193.188 1476.89 194.055 1477.58 195.123C1478.27 196.213 1478.61 197.369 1478.61 198.592C1478.61 199.527 1478.45 200.338 1478.11 201.028C1477.78 201.717 1477.32 202.418 1476.75 203.13L1479.52 202.996H1485.75V205.765H1462V203.497L1463.9 203.263V203.163C1463.28 202.54 1462.73 201.806 1462.27 200.961C1461.82 200.116 1461.6 199.215 1461.6 198.259ZM1463.9 198.859C1463.9 200.283 1464.65 201.662 1466.14 202.996H1474.61C1475.23 202.307 1475.67 201.64 1475.91 200.995C1476.18 200.372 1476.31 199.727 1476.31 199.06C1476.31 198.192 1476.05 197.402 1475.51 196.691C1475 196.001 1474.28 195.445 1473.34 195.023C1472.43 194.6 1471.35 194.389 1470.11 194.389C1468.17 194.389 1466.65 194.778 1465.54 195.556C1464.45 196.335 1463.9 197.436 1463.9 198.859ZM1461.6 217.799C1461.6 216.353 1461.93 215.041 1462.6 213.862C1463.29 212.683 1464.27 211.749 1465.54 211.06C1466.8 210.37 1468.32 210.025 1470.07 210.025C1471.85 210.025 1473.38 210.37 1474.64 211.06C1475.91 211.771 1476.89 212.683 1477.58 213.796C1478.27 214.908 1478.61 216.075 1478.61 217.299C1478.61 219.367 1477.93 220.957 1476.55 222.07C1475.17 223.204 1473.32 223.771 1471.01 223.771C1470.72 223.771 1470.43 223.76 1470.14 223.738C1469.87 223.738 1469.64 223.715 1469.44 223.671V212.728C1467.73 212.839 1466.36 213.373 1465.34 214.329C1464.31 215.308 1463.8 216.576 1463.8 218.133C1463.8 218.911 1463.91 219.623 1464.14 220.268C1464.38 220.935 1464.69 221.569 1465.07 222.17L1463.27 223.137C1462.82 222.448 1462.43 221.658 1462.1 220.768C1461.77 219.901 1461.6 218.911 1461.6 217.799ZM1471.41 212.695V221.369C1473.05 221.369 1474.3 221.013 1475.15 220.301C1476.01 219.612 1476.45 218.633 1476.45 217.365C1476.45 216.231 1476 215.208 1475.11 214.296C1474.24 213.406 1473.01 212.872 1471.41 212.695ZM1462 231.444L1478.21 225.605V228.441L1469.01 231.51C1468.21 231.755 1467.4 232 1466.6 232.244C1465.8 232.511 1465.01 232.767 1464.24 233.012V233.145C1465.01 233.39 1465.8 233.635 1466.6 233.879C1467.4 234.146 1468.21 234.391 1469.01 234.613L1478.21 237.683V240.385L1462 234.647V231.444ZM1461.6 255.298C1461.6 253.563 1462.1 252.351 1463.1 251.661C1464.1 250.994 1465.4 250.661 1467 250.661H1475.98V248.258H1478.05L1478.21 250.794L1482.75 251.128V253.43H1478.21V257.8H1475.98V253.43H1466.97C1465.97 253.43 1465.19 253.608 1464.64 253.963C1464.1 254.342 1463.83 254.998 1463.83 255.932C1463.83 256.221 1463.88 256.532 1463.97 256.866C1464.08 257.2 1464.18 257.5 1464.27 257.767L1462.2 258.301C1462.04 257.856 1461.91 257.366 1461.8 256.833C1461.67 256.321 1461.6 255.81 1461.6 255.298ZM1461.6 267.583C1461.6 266.137 1461.93 264.825 1462.6 263.646C1463.29 262.467 1464.27 261.533 1465.54 260.844C1466.8 260.154 1468.32 259.809 1470.07 259.809C1471.85 259.809 1473.38 260.154 1474.64 260.844C1475.91 261.555 1476.89 262.467 1477.58 263.579C1478.27 264.691 1478.61 265.859 1478.61 267.082C1478.61 269.151 1477.93 270.741 1476.55 271.853C1475.17 272.988 1473.32 273.555 1471.01 273.555C1470.72 273.555 1470.43 273.544 1470.14 273.521C1469.87 273.521 1469.64 273.499 1469.44 273.455V262.512C1467.73 262.623 1466.36 263.157 1465.34 264.113C1464.31 265.092 1463.8 266.36 1463.8 267.916C1463.8 268.695 1463.91 269.407 1464.14 270.052C1464.38 270.719 1464.69 271.353 1465.07 271.953L1463.27 272.921C1462.82 272.231 1462.43 271.442 1462.1 270.552C1461.77 269.685 1461.6 268.695 1461.6 267.583ZM1471.41 262.478V271.153C1473.05 271.153 1474.3 270.797 1475.15 270.085C1476.01 269.396 1476.45 268.417 1476.45 267.149C1476.45 266.015 1476 264.992 1475.11 264.08C1474.24 263.19 1473.01 262.656 1471.41 262.478ZM1461.6 280.842C1461.6 279.485 1462 278.351 1462.8 277.439C1463.62 276.549 1464.76 276.104 1466.2 276.104C1467.98 276.104 1469.34 276.894 1470.27 278.473C1471.23 280.075 1471.9 282.599 1472.28 286.047C1472.97 286.047 1473.62 285.947 1474.24 285.746C1474.87 285.568 1475.37 285.235 1475.75 284.745C1476.15 284.278 1476.35 283.6 1476.35 282.71C1476.35 281.776 1476.17 280.898 1475.81 280.075C1475.46 279.252 1475.06 278.518 1474.61 277.873L1476.51 276.805C1477 277.561 1477.47 278.484 1477.91 279.574C1478.38 280.686 1478.61 281.887 1478.61 283.177C1478.61 285.157 1478 286.592 1476.78 287.481C1475.58 288.371 1473.97 288.816 1471.94 288.816H1462V286.547L1463.94 286.314V286.213C1463.31 285.457 1462.77 284.623 1462.3 283.711C1461.83 282.822 1461.6 281.865 1461.6 280.842ZM1463.8 281.643C1463.8 282.421 1463.99 283.155 1464.37 283.845C1464.75 284.534 1465.28 285.268 1465.97 286.047H1470.47C1470.14 283.355 1469.64 281.465 1468.97 280.375C1468.31 279.307 1467.45 278.774 1466.4 278.774C1465.49 278.774 1464.82 279.052 1464.4 279.608C1464 280.164 1463.8 280.842 1463.8 281.643ZM1462 293.917H1478.21V296.186L1475.88 296.419V296.519C1476.66 297.231 1477.3 298.01 1477.81 298.855C1478.35 299.7 1478.61 300.601 1478.61 301.557C1478.61 302.803 1478.34 303.77 1477.78 304.46C1477.25 305.172 1476.49 305.694 1475.51 306.028C1476.42 306.873 1477.17 307.729 1477.75 308.597C1478.33 309.464 1478.61 310.387 1478.61 311.366C1478.61 313.034 1478.07 314.269 1476.98 315.069C1475.91 315.892 1474.34 316.304 1472.28 316.304H1462V313.568H1471.91C1473.42 313.568 1474.52 313.323 1475.21 312.834C1475.9 312.345 1476.25 311.588 1476.25 310.565C1476.25 309.364 1475.41 308.007 1473.74 306.495H1462V303.759H1471.91C1473.42 303.759 1474.52 303.515 1475.21 303.025C1475.9 302.536 1476.25 301.769 1476.25 300.723C1476.25 299.522 1475.41 298.165 1473.74 296.653H1462V293.917Z" fill="white"/>
<path fill-rule="evenodd" clip-rule="evenodd" d="M23.7242 1018.46L16.0051 1016.99C15.5076 1015.57 14.585 1011.89 14.5473 1007.46C14.4212 992.616 24.4747 994.24 27.0967 994.173L45.6281 994.252L46.8478 1001.24L43.9518 1001.24C44.5605 1002.27 46.8478 1004.31 47 1009.77C47 1014.88 44.2562 1022.39 34.6531 1022.22C26.1174 1022.22 23.9352 1014.03 23.974 1008.23C24.0056 1003.64 26.3189 1002.18 26.1782 1002.27C23.7557 1002.17 21.9714 1002.66 21.8391 1007.97C21.7582 1011.18 23.7526 1018.46 23.7242 1018.46ZM30.6907 1008.49C30.6529 1011.51 32.6052 1014.66 35.263 1014.71C38.2355 1014.7 40.1417 1011.3 40.1417 1008.75C40.1417 1006.19 38.4643 1002.25 35.4151 1002.27C32.0626 1002.27 30.7002 1005.59 30.6907 1008.49Z" fill="black"/>
<path fill-rule="evenodd" clip-rule="evenodd" d="M16.305 989.842L46.9913 989.934L45.3787 981.787L27.9801 981.749C25.3895 981.743 22.324 977.944 22.324 973.183C20.5309 972.169 15.9553 970.263 14.9142 969.799C14.9971 980.436 18.0046 980.576 19.5021 982.428C16.6814 982.443 14.9878 982.428 14.9878 982.428L16.305 989.842Z" fill="black"/>
<path fill-rule="evenodd" clip-rule="evenodd" d="M20.3298 944.354C20.2945 944.432 15.157 948.253 15.2047 956.634C15.157 964.485 18.2141 973.296 31.0519 973.455C42.3371 973.403 46.6626 965.019 46.6637 956.636C46.6637 947.665 41.0667 944.087 40.9267 943.873C40.0327 944.942 36.3658 948.946 36.3658 948.946C36.3658 948.946 40.2214 951.455 40.3148 956.314C40.4092 961.174 36.2246 965.392 31.0519 965.445C25.8791 965.5 22.3053 962.455 22.353 956.689C22.353 950.228 24.844 948.785 24.844 948.785L20.3298 944.354Z" fill="black"/>
<path fill-rule="evenodd" clip-rule="evenodd" d="M46.8048 941.416L45.3943 933.836L26.5842 933.724C24.6117 933.705 21.5534 930.792 21.6002 925.933C21.6002 921.287 24.5631 920.258 24.9384 920.272L46.7103 920.166L45.3466 912.69L22.2576 912.636C20.0353 912.584 15.3913 917.618 15.4401 925.72C15.5085 931.57 17.5007 933.467 17.6501 933.728H5L6.83455 941.418L46.8048 941.416Z" fill="black"/>
<path fill-rule="evenodd" clip-rule="evenodd" d="M9.70315 906.069L8.9035 902.599L45.3 902.544L45.8642 906.069L9.70315 906.069Z" fill="black"/>
<path fill-rule="evenodd" clip-rule="evenodd" d="M20.4708 896.672L19.2481 893.629L45.3466 893.681L45.9108 896.618L20.4708 896.672ZM11.0668 897.366L9.27997 894.91L11.2545 892.88L13.088 895.337L11.0668 897.366Z" fill="black"/>
<path fill-rule="evenodd" clip-rule="evenodd" d="M19.9065 887.915L19.248 884.444H24.704C24.9383 884.444 18.5895 882.522 18.6372 873.337C18.5906 864.42 24.6563 862.979 26.02 863.032L45.2054 862.979L45.8174 866.021L26.8662 865.982C26.3124 865.945 21.6467 867.356 21.6934 873.658C21.7411 879.958 25.8322 884.336 28.4177 884.336H45.1121L45.9584 887.861L19.9065 887.915Z" fill="black"/>
<path fill-rule="evenodd" clip-rule="evenodd" d="M45.0369 832.713L45.6953 836.184H40.2395C40.005 836.184 46.354 838.108 46.3062 847.291C46.3529 856.208 40.2872 857.649 38.9234 857.597L19.7379 857.649L19.0452 853.962H37.9963C38.5138 853.962 43.2967 853.272 43.2499 846.971C43.2022 840.67 39.7997 836.246 34.743 836.199H19.7908L18.985 832.767L45.0369 832.713Z" fill="black"/>
<path fill-rule="evenodd" clip-rule="evenodd" d="M19.0624 825.838L20.7632 828.275L31.4169 818.982L43.9352 828.965L45.5955 826.39L33.969 817.006L45.6763 807.392L43.9757 805L31.4584 815.303L21.1677 807.023L19.3041 809.554L28.8253 817.098L19.0624 825.838Z" fill="black"/>
<path fill-rule="evenodd" clip-rule="evenodd" d="M1475.28 864.759L1482.99 866.229C1483.49 867.651 1484.41 871.329 1484.45 875.758C1484.58 890.604 1474.53 888.98 1471.9 889.047L1453.37 888.968L1452.15 881.977L1455.05 881.976C1454.44 880.954 1452.15 878.907 1452 873.452C1452 868.336 1454.74 860.833 1464.35 861.003C1472.88 861.004 1475.06 869.187 1475.03 874.986C1474.99 879.583 1472.68 881.045 1472.82 880.955C1475.24 881.051 1477.03 880.561 1477.16 875.248C1477.24 872.039 1475.25 864.755 1475.28 864.759ZM1468.31 874.73C1468.35 871.715 1466.39 868.559 1463.74 868.506C1460.76 868.517 1458.86 871.916 1458.86 874.474C1458.86 877.032 1460.54 880.965 1463.58 880.955C1466.94 880.955 1468.3 877.628 1468.31 874.73Z" fill="black"/>
<path fill-rule="evenodd" clip-rule="evenodd" d="M1482.7 893.378L1452.01 893.286L1453.62 901.433L1471.02 901.472C1473.61 901.477 1476.68 905.276 1476.68 910.038C1478.47 911.051 1483.04 912.957 1484.09 913.421C1484 902.784 1481 902.644 1479.5 900.792C1482.32 900.777 1484.01 900.792 1484.01 900.792L1482.7 893.378Z" fill="black"/>
<path fill-rule="evenodd" clip-rule="evenodd" d="M1478.67 938.867C1478.71 938.788 1483.84 934.967 1483.8 926.586C1483.84 918.735 1480.79 909.925 1467.95 909.765C1456.66 909.817 1452.34 918.202 1452.34 926.585C1452.34 935.556 1457.93 939.133 1458.07 939.348C1458.97 938.278 1462.63 934.275 1462.63 934.275C1462.63 934.275 1458.78 931.765 1458.69 926.906C1458.59 922.046 1462.78 917.828 1467.95 917.775C1473.12 917.721 1476.69 920.765 1476.65 926.531C1476.65 932.992 1474.16 934.435 1474.16 934.435L1478.67 938.867Z" fill="black"/>
<path fill-rule="evenodd" clip-rule="evenodd" d="M1452.2 941.804L1453.61 949.384L1472.42 949.496C1474.39 949.515 1477.45 952.429 1477.4 957.287C1477.4 961.933 1474.44 962.962 1474.06 962.949L1452.29 963.055L1453.65 970.53L1476.74 970.584C1478.96 970.636 1483.61 965.602 1483.56 957.501C1483.49 951.65 1481.5 949.753 1481.35 949.493H1494L1492.17 941.803L1452.2 941.804Z" fill="black"/>
<path fill-rule="evenodd" clip-rule="evenodd" d="M1489.3 977.151L1490.1 980.622L1453.7 980.676L1453.14 977.151L1489.3 977.151Z" fill="black"/>
<path fill-rule="evenodd" clip-rule="evenodd" d="M1478.53 986.548L1479.75 989.592L1453.65 989.539L1453.09 986.602L1478.53 986.548ZM1487.93 985.854L1489.72 988.31L1487.75 990.34L1485.91 987.883L1487.93 985.854Z" fill="black"/>
<path fill-rule="evenodd" clip-rule="evenodd" d="M1479.09 995.305L1479.75 998.776H1474.3C1474.06 998.776 1480.41 1000.7 1480.36 1009.88C1480.41 1018.8 1474.34 1020.24 1472.98 1020.19L1453.79 1020.24L1453.18 1017.2L1472.13 1017.24C1472.69 1017.28 1477.35 1015.86 1477.31 1009.56C1477.26 1003.26 1473.17 998.884 1470.58 998.884H1453.89L1453.04 995.359L1479.09 995.305Z" fill="black"/>
<path fill-rule="evenodd" clip-rule="evenodd" d="M1453.96 1050.51L1453.3 1047.04H1458.76C1458.99 1047.04 1452.65 1045.11 1452.69 1035.93C1452.65 1027.01 1458.71 1025.57 1460.08 1025.62L1479.26 1025.57L1479.95 1029.26H1461C1460.49 1029.26 1455.7 1029.95 1455.75 1036.25C1455.8 1042.55 1459.2 1046.97 1464.26 1047.02H1479.21L1480.01 1050.45L1453.96 1050.51Z" fill="black"/>
<path fill-rule="evenodd" clip-rule="evenodd" d="M1479.94 1057.38L1478.24 1054.95L1467.58 1064.24L1455.06 1054.25L1453.4 1056.83L1465.03 1066.21L1453.32 1075.83L1455.02 1078.22L1467.54 1067.92L1477.83 1076.2L1479.7 1073.67L1470.17 1066.12L1479.94 1057.38Z" fill="black"/>
<defs>
<linearGradient id="paint0_linear_0_1" x1="704.264" y1="930.574" x2="704.264" y2="353.484" gradientUnits="userSpaceOnUse">
<stop stop-color="#F2F9FF"/>
<stop offset="1" stop-color="#91AFCB"/>
</linearGradient>
<radialGradient id="paint1_radial_0_1" cx="0" cy="0" r="1" gradientTransform="matrix(-171.002 232.777 -143.896 -105.709 644.065 425.417)" gradientUnits="userSpaceOnUse">
<stop stop-color="#A4BFDA"/>
<stop offset="1" stop-color="#387CBF"/>
</radialGradient>
<linearGradient id="paint2_linear_0_1" x1="1019.28" y1="552.354" x2="985.653" y2="674.467" gradientUnits="userSpaceOnUse">
<stop stop-color="#9C9C9C"/>
<stop offset="1" stop-opacity="0"/>
</linearGradient>
<linearGradient id="paint3_linear_0_1" x1="52.5157" y1="1066.34" x2="9.08991" y2="1066.34" gradientUnits="userSpaceOnUse">
<stop stop-color="#F2F9FF"/>
<stop offset="1" stop-color="#91AFCB"/>
</linearGradient>
<radialGradient id="paint4_radial_0_1" cx="0" cy="0" r="1" gradientTransform="matrix(17.5164 12.8679 -7.95454 10.8281 14.5029 1070.87)" gradientUnits="userSpaceOnUse">
<stop stop-color="#A4BFDA"/>
<stop offset="1" stop-color="#387CBF"/>
</radialGradient>
<linearGradient id="paint5_linear_0_1" x1="24.0549" y1="1042.63" x2="33.2438" y2="1045.16" gradientUnits="userSpaceOnUse">
<stop stop-color="#9C9C9C"/>
<stop offset="1" stop-opacity="0"/>
</linearGradient>
<linearGradient id="paint6_linear_0_1" x1="1449.12" y1="823.413" x2="1492.54" y2="823.413" gradientUnits="userSpaceOnUse">
<stop stop-color="#F2F9FF"/>
<stop offset="1" stop-color="#91AFCB"/>
</linearGradient>
<radialGradient id="paint7_radial_0_1" cx="0" cy="0" r="1" gradientTransform="matrix(-17.5164 -12.8679 7.95454 -10.8281 1487.13 818.883)" gradientUnits="userSpaceOnUse">
<stop stop-color="#A4BFDA"/>
<stop offset="1" stop-color="#387CBF"/>
</radialGradient>
<linearGradient id="paint8_linear_0_1" x1="1472.47" y1="840.228" x2="1463.29" y2="837.698" gradientUnits="userSpaceOnUse">
<stop stop-color="#9C9C9C"/>
<stop offset="1" stop-opacity="0"/>
</linearGradient>
</defs>
</svg>
