<svg width="536" height="378" viewBox="0 0 536 378" fill="none" xmlns="http://www.w3.org/2000/svg">
<rect width="536" height="378" fill="#1E1E1E"/>
<rect width="268" height="377.88" fill="#D9D9D9"/>
<rect width="268" height="378" fill="#21283A"/>
<rect x="268" width="268" height="378" fill="#21283A"/>
<path opacity="0.6" d="M77.6338 0C99.2221 24.4923 128.638 56.5847 173.937 104.754C162.527 101.486 148.504 99.5858 129.668 99.7285C158.812 106.014 174.627 114.796 189.17 120.902C200.613 133.03 212.608 145.769 226.001 159.878C173.48 145.806 133.732 138.913 99.0557 141.296C98.8223 136.043 98.0168 130.527 96.665 124.932C89.4813 95.1949 68.5761 73.7735 49.959 77.1084C31.3418 80.4437 22.0613 107.279 29.2451 137.016L29.5859 138.507C31.3912 145.465 33.9876 151.902 37.0664 157.671C24.8209 163.55 12.6188 171.049 0 180.292V15.4854C9.69333 18.7546 21.3097 21.4013 35.7676 23.2705C20.7413 17.8106 9.40226 12.1432 0 6.78906V0H77.6338Z" fill="#1793D1"/>
<path d="M1 205H268V378H1V205Z" fill="white"/>
<path d="M268 205H535V378H268V205Z" fill="white"/>
<rect x="1" y="192" width="267" height="13" fill="#1793D1" fill-opacity="0.85"/>
<rect x="268" y="192" width="267" height="13" fill="#1793D1" fill-opacity="0.85"/>
<path d="M13.3731 272.146C12.6755 272.146 12.0549 271.984 11.5113 271.659C10.9678 271.327 10.5419 270.852 10.2336 270.236C9.92534 269.619 9.77121 268.877 9.77121 268.009C9.77121 267.149 9.9294 266.411 10.2458 265.794C10.5622 265.177 10.9962 264.703 11.5478 264.37C12.0995 264.038 12.7282 263.871 13.434 263.871C13.9856 263.871 14.448 263.977 14.8212 264.188C15.2025 264.391 15.5067 264.614 15.7338 264.857L15.1741 265.514C14.9713 265.303 14.736 265.125 14.4683 264.979C14.2006 264.833 13.8639 264.76 13.4583 264.76C12.9229 264.76 12.4564 264.894 12.0589 265.161C11.6614 265.421 11.3531 265.79 11.1341 266.269C10.9232 266.747 10.8177 267.319 10.8177 267.984C10.8177 268.99 11.0449 269.789 11.4992 270.382C11.9616 270.966 12.6187 271.258 13.4705 271.258C13.7544 271.258 14.0262 271.217 14.2858 271.136C14.5454 271.047 14.7522 270.929 14.9064 270.783V268.702H13.2149V267.863H15.8312V271.221C15.5797 271.489 15.239 271.712 14.809 271.89C14.3872 272.061 13.9085 272.146 13.3731 272.146ZM17.7439 272V264.017H18.7904L21.6744 269.031L22.5384 270.686H22.587C22.5627 270.28 22.5343 269.862 22.5019 269.432C22.4775 268.994 22.4654 268.564 22.4654 268.143V264.017H23.4267V272H22.3802L19.484 266.974L18.6201 265.332H18.5714C18.6038 265.729 18.6322 266.139 18.6566 266.561C18.689 266.982 18.7053 267.404 18.7053 267.826V272H17.7439ZM28.4579 272.146C27.9144 272.146 27.4236 272.037 26.9855 271.817C26.5556 271.598 26.2148 271.237 25.9634 270.734C25.7119 270.231 25.5861 269.554 25.5861 268.702V264.017H26.5961V268.727C26.5961 269.368 26.6772 269.875 26.8395 270.248C27.0099 270.613 27.2329 270.872 27.5088 271.027C27.7927 271.181 28.1091 271.258 28.4579 271.258C28.8149 271.258 29.1353 271.181 29.4192 271.027C29.7032 270.872 29.9263 270.613 30.0885 270.248C30.2589 269.875 30.3441 269.368 30.3441 268.727V264.017H31.3175V268.702C31.3175 269.554 31.1918 270.231 30.9403 270.734C30.6888 271.237 30.3481 271.598 29.9182 271.817C29.4882 272.037 29.0015 272.146 28.4579 272.146ZM32.1119 273.947L35.361 263.36H36.0911L32.842 273.947H32.1119ZM37.3397 272V264.017H38.3497V271.136H41.8421V272H37.3397ZM43.1603 272V266.086H44.1581V272H43.1603ZM43.6714 264.869C43.4767 264.869 43.3144 264.812 43.1846 264.699C43.0629 264.577 43.0021 264.415 43.0021 264.212C43.0021 264.017 43.0629 263.859 43.1846 263.738C43.3144 263.616 43.4767 263.555 43.6714 263.555C43.8661 263.555 44.0242 263.616 44.1459 263.738C44.2757 263.859 44.3406 264.017 44.3406 264.212C44.3406 264.415 44.2757 264.577 44.1459 264.699C44.0242 264.812 43.8661 264.869 43.6714 264.869ZM46.1549 272V266.086H46.9824L47.0675 266.938H47.104C47.388 266.654 47.6881 266.419 48.0045 266.232C48.3209 266.037 48.6819 265.94 49.0875 265.94C49.7122 265.94 50.1665 266.139 50.4504 266.536C50.7425 266.926 50.8885 267.498 50.8885 268.252V272H49.8907V268.386C49.8907 267.834 49.8014 267.433 49.6229 267.181C49.4445 266.93 49.1605 266.804 48.7711 266.804C48.471 266.804 48.1992 266.881 47.9558 267.035C47.7206 267.189 47.4529 267.416 47.1527 267.717V272H46.1549ZM54.5375 272.146C53.9129 272.146 53.4545 271.951 53.1625 271.562C52.8704 271.164 52.7244 270.588 52.7244 269.834V266.086H53.7344V269.7C53.7344 270.252 53.8196 270.653 53.99 270.905C54.1684 271.156 54.4524 271.282 54.8418 271.282C55.15 271.282 55.4218 271.205 55.6571 271.051C55.9004 270.889 56.16 270.633 56.4359 270.284V266.086H57.4337V272H56.6062L56.521 271.075H56.4845C56.2087 271.4 55.9167 271.659 55.6084 271.854C55.3001 272.049 54.9432 272.146 54.5375 272.146ZM58.6012 272L60.536 268.909L58.7472 266.086H59.8302L60.6212 267.388C60.7104 267.542 60.8037 267.704 60.9011 267.875C60.9984 268.045 61.0998 268.212 61.2053 268.374H61.254C61.3432 268.212 61.4324 268.045 61.5217 267.875C61.6109 267.704 61.7001 267.542 61.7894 267.388L62.5073 266.086H63.5538L61.765 269.019L63.6877 272H62.6047L61.7407 270.625C61.6352 270.446 61.5298 270.268 61.4243 270.09C61.3189 269.911 61.2093 269.737 61.0958 269.566H61.0471C60.9416 269.737 60.8402 269.911 60.7429 270.09C60.6455 270.26 60.5482 270.438 60.4508 270.625L59.6477 272H58.6012Z" fill="black"/>
<path fill-rule="evenodd" clip-rule="evenodd" d="M18.4146 278.636C14.8746 278.63 11.9367 279.356 10.8007 279.752L9.6311 286.067C9.62827 286.09 15.452 284.514 18.0171 284.606C22.2641 284.759 22.655 286.23 22.5808 288.215C22.6532 288.331 21.4851 286.421 17.8107 286.357C13.1752 286.277 6.63317 287.998 6.64212 294.995C6.51715 302.866 12.5213 305.181 16.6105 305.224C20.2867 305.157 22.0112 303.831 22.9554 303.121C24.1959 301.824 25.6152 300.52 26.9688 298.955C25.688 301.282 24.5776 302.891 23.4217 304.123V305.162L29.0098 304.222L29.048 289.033C28.9914 286.883 30.2812 278.656 18.4146 278.636ZM17.6119 291.861C19.9282 291.893 22.5846 293.035 22.5885 295.783C22.6005 298.282 19.4573 299.626 17.4132 299.605C15.3682 299.584 12.655 297.998 12.643 295.561C12.6822 293.383 15.2017 291.805 17.6119 291.861Z" fill="#4D4D4D"/>
<path fill-rule="evenodd" clip-rule="evenodd" d="M32.7329 280.04L32.695 305.194L39.2049 303.939L39.2159 289.677C39.2174 287.554 42.2506 285.072 46.0562 285.112C46.864 283.651 48.3823 279.916 48.7522 279.066C40.25 279.046 40.1417 281.51 38.663 282.722C38.6475 280.41 38.6578 279.022 38.6578 279.022L32.7329 280.04Z" fill="#4D4D4D"/>
<path fill-rule="evenodd" clip-rule="evenodd" d="M69.3695 283.342C69.3067 283.312 65.9743 279.444 59.2748 279.414C52.9996 279.309 45.961 281.742 45.8484 292.264C45.9033 301.516 52.6098 305.131 59.3103 305.201C66.4809 305.276 69.3341 300.718 69.5053 300.605C68.6497 299.863 65.445 296.688 65.445 296.688C65.445 296.688 63.4434 299.538 59.5599 299.574C55.6754 299.611 52.2989 296.572 52.251 292.331C52.2013 288.09 55.355 285.792 59.5891 285.607C63.2546 285.606 65.3694 287.973 65.3694 287.973L69.3695 283.342Z" fill="#4D4D4D"/>
<path fill-rule="evenodd" clip-rule="evenodd" d="M77.5751 271.236L71.429 272.681L71.4749 305.445L77.5293 304.352L77.5981 288.933C77.611 287.316 79.937 284.834 83.8207 284.912C87.534 284.951 88.3639 287.387 88.3538 287.695L88.4609 305.545L94.4312 304.49L94.4541 285.562C94.4934 283.741 90.4647 279.894 83.9888 279.867C80.9113 279.872 79.2069 280.569 78.3396 281.082C76.8555 282.229 75.1595 283.327 73.493 284.729C75.0336 282.75 76.3271 281.381 77.5904 280.364L77.5751 271.236Z" fill="#4D4D4D"/>
<path fill-rule="evenodd" clip-rule="evenodd" d="M99.64 272.086L102.412 271.393L102.543 304.424L99.7268 304.904L99.64 272.086Z" fill="#1793D1"/>
<path fill-rule="evenodd" clip-rule="evenodd" d="M107.177 281.945L109.607 280.863L109.628 304.548L107.281 305.033L107.177 281.945ZM106.6 273.404L108.559 271.805L110.186 273.616L108.226 275.257L106.6 273.404Z" fill="#1793D1"/>
<path fill-rule="evenodd" clip-rule="evenodd" d="M114.175 281.513L116.948 280.948L116.961 285.899C116.961 286.112 118.483 280.368 125.824 280.496C132.952 280.535 134.118 286.053 134.08 287.291L134.168 304.703L131.738 305.23L131.723 288.031C131.752 287.529 130.613 283.282 125.576 283.266C120.54 283.252 117.05 286.924 117.056 289.271L117.097 304.421L114.281 305.157L114.175 281.513Z" fill="#1793D1"/>
<path fill-rule="evenodd" clip-rule="evenodd" d="M158.359 304.828L155.587 305.394L155.574 300.442C155.573 300.229 154.05 305.974 146.71 305.846C139.582 305.806 138.416 300.288 138.455 299.051L138.367 281.639L141.313 281.044L141.358 298.243C141.359 298.713 141.922 303.06 146.959 303.075C151.995 303.09 155.523 300.042 155.548 295.454L155.512 281.884L158.254 281.184L158.359 304.828Z" fill="#1793D1"/>
<path fill-rule="evenodd" clip-rule="evenodd" d="M163.793 281.318L161.849 282.839L169.302 292.593L161.352 303.863L163.415 305.393L170.888 294.928L178.601 305.641L180.508 304.12L172.243 292.665L178.837 283.402L176.809 281.687L170.802 290.259L163.793 281.318Z" fill="#1793D1"/>
<path d="M184.139 303.375V301.331H183.375V301.058H185.212V301.331H184.445V303.375H184.139Z" fill="#1793D1"/>
<path d="M185.531 303.375V301.058H185.993L186.541 302.698C186.592 302.851 186.629 302.966 186.652 303.041C186.678 302.957 186.719 302.833 186.775 302.67L187.33 301.058H187.743V303.375H187.447V301.435L186.774 303.375H186.497L185.827 301.402V303.375H185.531Z" fill="#1793D1"/>
<path d="M9.06625 326V313.228H12.7071C13.6676 313.228 14.5048 313.345 15.2187 313.578C15.9326 313.812 16.4907 314.208 16.8931 314.766C17.2955 315.311 17.4967 316.051 17.4967 316.985C17.4967 318.322 17.0618 319.315 16.1922 319.964C15.3225 320.613 14.1868 320.938 12.785 320.938H10.6822V326H9.06625ZM10.6822 319.614H12.5903C13.7065 319.614 14.5308 319.406 15.0629 318.991C15.6081 318.563 15.8807 317.894 15.8807 316.985C15.8807 316.064 15.5951 315.428 15.024 315.077C14.4659 314.714 13.6287 314.532 12.5124 314.532H10.6822V319.614ZM19.9383 326V316.538H21.2622L21.3985 318.251H21.4569C21.7814 317.654 22.1773 317.18 22.6446 316.83C23.1119 316.479 23.6116 316.304 24.1438 316.304C24.5202 316.304 24.8577 316.369 25.1562 316.499L24.8447 317.901C24.6889 317.849 24.5461 317.81 24.4163 317.784C24.2865 317.758 24.1243 317.745 23.9296 317.745C23.5272 317.745 23.1054 317.907 22.6641 318.232C22.2357 318.556 21.8593 319.121 21.5348 319.925V326H19.9383ZM30.1777 326.234C29.4119 326.234 28.6915 326.039 28.0166 325.65C27.3546 325.26 26.8159 324.696 26.4006 323.956C25.9982 323.216 25.797 322.327 25.797 321.288C25.797 320.224 25.9982 319.322 26.4006 318.582C26.8159 317.842 27.3546 317.278 28.0166 316.888C28.6915 316.499 29.4119 316.304 30.1777 316.304C30.9565 316.304 31.6769 316.499 32.3389 316.888C33.0008 317.278 33.533 317.842 33.9354 318.582C34.3508 319.322 34.5584 320.224 34.5584 321.288C34.5584 322.327 34.3508 323.216 33.9354 323.956C33.533 324.696 33.0008 325.26 32.3389 325.65C31.6769 326.039 30.9565 326.234 30.1777 326.234ZM30.1777 324.91C30.9955 324.91 31.6509 324.579 32.1442 323.917C32.6504 323.242 32.9035 322.366 32.9035 321.288C32.9035 320.198 32.6504 319.315 32.1442 318.64C31.6509 317.965 30.9955 317.628 30.1777 317.628C29.373 317.628 28.7175 317.965 28.2113 318.64C27.7051 319.315 27.452 320.198 27.452 321.288C27.452 322.366 27.7051 323.242 28.2113 323.917C28.7175 324.579 29.373 324.91 30.1777 324.91ZM37.323 326V317.842H36.038V316.635L37.323 316.538V315.039C37.323 314.078 37.5436 313.319 37.985 312.761C38.4393 312.189 39.1402 311.904 40.0877 311.904C40.3862 311.904 40.6718 311.936 40.9444 312.001C41.2169 312.053 41.4571 312.125 41.6647 312.215L41.3143 313.442C40.9638 313.286 40.6069 313.208 40.2435 313.208C39.3608 313.208 38.9195 313.818 38.9195 315.039V316.538H40.9249V317.842H38.9195V326H37.323ZM46.3809 326.234C45.5372 326.234 44.7713 326.039 44.0834 325.65C43.3955 325.247 42.8503 324.676 42.448 323.936C42.0456 323.196 41.8444 322.314 41.8444 321.288C41.8444 320.25 42.0456 319.361 42.448 318.621C42.8633 317.881 43.3955 317.31 44.0445 316.908C44.6935 316.505 45.3749 316.304 46.0888 316.304C47.2959 316.304 48.224 316.706 48.873 317.511C49.535 318.316 49.8659 319.393 49.8659 320.743C49.8659 320.912 49.8595 321.081 49.8465 321.249C49.8465 321.405 49.8335 321.541 49.8075 321.658H43.4214C43.4863 322.658 43.7979 323.456 44.356 324.053C44.9271 324.65 45.667 324.949 46.5755 324.949C47.0298 324.949 47.4452 324.884 47.8216 324.754C48.211 324.611 48.5809 324.429 48.9314 324.209L49.496 325.26C49.0936 325.52 48.6329 325.747 48.1137 325.942C47.6074 326.136 47.0298 326.234 46.3809 326.234ZM43.402 320.51H48.4641C48.4641 319.549 48.2564 318.822 47.8411 318.329C47.4387 317.823 46.8676 317.57 46.1277 317.57C45.4658 317.57 44.8687 317.829 44.3365 318.348C43.8173 318.855 43.5058 319.575 43.402 320.51ZM54.6768 326.234C54.0019 326.234 53.3594 326.11 52.7493 325.864C52.1392 325.604 51.6071 325.293 51.1528 324.929L51.951 323.858C52.3664 324.183 52.7947 324.455 53.236 324.676C53.6774 324.884 54.1771 324.988 54.7352 324.988C55.3582 324.988 55.8255 324.845 56.137 324.559C56.4486 324.261 56.6043 323.91 56.6043 323.508C56.6043 323.183 56.494 322.911 56.2733 322.69C56.0657 322.469 55.7931 322.288 55.4556 322.145C55.1311 321.989 54.7936 321.846 54.4432 321.717C54.0019 321.548 53.567 321.36 53.1387 321.152C52.7104 320.931 52.3599 320.652 52.0873 320.315C51.8147 319.964 51.6785 319.523 51.6785 318.991C51.6785 318.225 51.964 317.589 52.5351 317.083C53.1192 316.564 53.924 316.304 54.9494 316.304C55.5335 316.304 56.0786 316.408 56.5848 316.616C57.0911 316.823 57.5259 317.076 57.8893 317.375L57.1105 318.387C56.786 318.141 56.4486 317.94 56.0981 317.784C55.7476 317.628 55.3647 317.55 54.9494 317.55C54.3523 317.55 53.911 317.686 53.6254 317.959C53.3529 318.232 53.2166 318.55 53.2166 318.913C53.2166 319.212 53.3139 319.458 53.5086 319.653C53.7033 319.835 53.9564 319.997 54.2679 320.14C54.5795 320.269 54.9104 320.406 55.2609 320.548C55.7152 320.717 56.163 320.912 56.6043 321.133C57.0456 321.34 57.4091 321.626 57.6946 321.989C57.9932 322.34 58.1424 322.813 58.1424 323.411C58.1424 323.917 58.0061 324.384 57.7336 324.812C57.474 325.241 57.0846 325.585 56.5654 325.844C56.0592 326.104 55.4296 326.234 54.6768 326.234ZM62.8336 326.234C62.1586 326.234 61.5161 326.11 60.9061 325.864C60.296 325.604 59.7638 325.293 59.3096 324.929L60.1078 323.858C60.5232 324.183 60.9515 324.455 61.3928 324.676C61.8341 324.884 62.3339 324.988 62.892 324.988C63.515 324.988 63.9823 324.845 64.2938 324.559C64.6053 324.261 64.7611 323.91 64.7611 323.508C64.7611 323.183 64.6508 322.911 64.4301 322.69C64.2224 322.469 63.9498 322.288 63.6124 322.145C63.2879 321.989 62.9504 321.846 62.5999 321.717C62.1586 321.548 61.7238 321.36 61.2955 321.152C60.8671 320.931 60.5167 320.652 60.2441 320.315C59.9715 319.964 59.8352 319.523 59.8352 318.991C59.8352 318.225 60.1208 317.589 60.6919 317.083C61.276 316.564 62.0808 316.304 63.1062 316.304C63.6903 316.304 64.2354 316.408 64.7416 316.616C65.2478 316.823 65.6827 317.076 66.0461 317.375L65.2673 318.387C64.9428 318.141 64.6053 317.94 64.2549 317.784C63.9044 317.628 63.5215 317.55 63.1062 317.55C62.5091 317.55 62.0678 317.686 61.7822 317.959C61.5096 318.232 61.3733 318.55 61.3733 318.913C61.3733 319.212 61.4707 319.458 61.6654 319.653C61.8601 319.835 62.1132 319.997 62.4247 320.14C62.7362 320.269 63.0672 320.406 63.4177 320.548C63.872 320.717 64.3198 320.912 64.7611 321.133C65.2024 321.34 65.5658 321.626 65.8514 321.989C66.1499 322.34 66.2992 322.813 66.2992 323.411C66.2992 323.917 66.1629 324.384 65.8903 324.812C65.6307 325.241 65.2413 325.585 64.7222 325.844C64.2159 326.104 63.5864 326.234 62.8336 326.234ZM68.5177 326V316.538H70.1142V326H68.5177ZM69.3354 314.591C69.0239 314.591 68.7643 314.5 68.5566 314.318C68.3619 314.123 68.2646 313.864 68.2646 313.539C68.2646 313.228 68.3619 312.975 68.5566 312.78C68.7643 312.585 69.0239 312.488 69.3354 312.488C69.6469 312.488 69.9 312.585 70.0947 312.78C70.3024 312.975 70.4063 313.228 70.4063 313.539C70.4063 313.864 70.3024 314.123 70.0947 314.318C69.9 314.5 69.6469 314.591 69.3354 314.591ZM76.9889 326.234C76.2231 326.234 75.5027 326.039 74.8277 325.65C74.1658 325.26 73.6271 324.696 73.2117 323.956C72.8094 323.216 72.6082 322.327 72.6082 321.288C72.6082 320.224 72.8094 319.322 73.2117 318.582C73.6271 317.842 74.1658 317.278 74.8277 316.888C75.5027 316.499 76.2231 316.304 76.9889 316.304C77.7677 316.304 78.488 316.499 79.15 316.888C79.812 317.278 80.3442 317.842 80.7465 318.582C81.1619 319.322 81.3696 320.224 81.3696 321.288C81.3696 322.327 81.1619 323.216 80.7465 323.956C80.3442 324.696 79.812 325.26 79.15 325.65C78.488 326.039 77.7677 326.234 76.9889 326.234ZM76.9889 324.91C77.8066 324.91 78.4621 324.579 78.9553 323.917C79.4615 323.242 79.7146 322.366 79.7146 321.288C79.7146 320.198 79.4615 319.315 78.9553 318.64C78.4621 317.965 77.8066 317.628 76.9889 317.628C76.1841 317.628 75.5286 317.965 75.0224 318.64C74.5162 319.315 74.2631 320.198 74.2631 321.288C74.2631 322.366 74.5162 323.242 75.0224 323.917C75.5286 324.579 76.1841 324.91 76.9889 324.91ZM83.8616 326V316.538H85.1855L85.3218 317.901H85.3802C85.8345 317.446 86.3148 317.07 86.821 316.771C87.3272 316.46 87.9048 316.304 88.5538 316.304C89.5532 316.304 90.2801 316.622 90.7344 317.258C91.2017 317.881 91.4353 318.796 91.4353 320.003V326H89.8388V320.217C89.8388 319.335 89.696 318.692 89.4104 318.29C89.1249 317.888 88.6706 317.686 88.0476 317.686C87.5673 317.686 87.1325 317.81 86.7431 318.056C86.3667 318.303 85.9383 318.666 85.4581 319.147V326H83.8616ZM96.6897 326.234C95.8979 326.234 95.236 326 94.7038 325.533C94.1846 325.052 93.925 324.39 93.925 323.547C93.925 322.508 94.3858 321.717 95.3074 321.171C96.2419 320.613 97.7151 320.224 99.727 320.003C99.727 319.601 99.6686 319.218 99.5518 318.855C99.4479 318.491 99.2532 318.199 98.9677 317.978C98.6951 317.745 98.2992 317.628 97.78 317.628C97.2349 317.628 96.7222 317.732 96.2419 317.94C95.7617 318.147 95.3333 318.381 94.9569 318.64L94.3339 317.531C94.7752 317.245 95.3138 316.973 95.9499 316.713C96.5989 316.44 97.2998 316.304 98.0526 316.304C99.2078 316.304 100.045 316.661 100.564 317.375C101.083 318.076 101.343 319.017 101.343 320.198V326H100.019L99.8828 324.871H99.8243C99.383 325.234 98.8963 325.552 98.3641 325.825C97.8449 326.097 97.2868 326.234 96.6897 326.234ZM97.157 324.949C97.6113 324.949 98.0396 324.838 98.442 324.618C98.8444 324.397 99.2727 324.085 99.727 323.683V321.055C98.1564 321.249 97.0531 321.541 96.4171 321.931C95.7941 322.32 95.4826 322.82 95.4826 323.43C95.4826 323.962 95.6448 324.352 95.9693 324.598C96.2938 324.832 96.6897 324.949 97.157 324.949ZM106.014 326.234C105.417 326.234 104.982 326.052 104.709 325.688C104.45 325.312 104.32 324.78 104.32 324.092V312.138H105.917V324.209C105.917 324.455 105.962 324.637 106.053 324.754C106.144 324.858 106.248 324.91 106.364 324.91C106.416 324.91 106.462 324.91 106.501 324.91C106.553 324.897 106.624 324.884 106.715 324.871L106.929 326.078C106.825 326.13 106.702 326.169 106.559 326.195C106.416 326.221 106.235 326.234 106.014 326.234Z" fill="black"/>
<g filter="url(#filter0_d_0_1)">
<path fill-rule="evenodd" clip-rule="evenodd" d="M60.9906 142C56.5388 152.912 53.8538 160.051 48.8973 170.639C51.9362 173.859 55.6664 177.61 61.7241 181.846C55.2114 179.166 50.769 176.476 47.4491 173.685C41.1058 186.919 31.1677 205.77 11 242C26.8511 232.851 39.1386 227.21 50.59 225.058C50.0983 222.943 49.8187 220.656 49.8377 218.269L49.8565 217.762C50.108 207.608 55.3908 199.8 61.6489 200.33C67.9069 200.86 72.7712 209.526 72.5197 219.68C72.4724 221.59 72.2568 223.428 71.8802 225.133C83.2072 227.348 95.3633 232.974 111 242C107.917 236.325 105.165 231.209 102.537 226.336C98.3969 223.128 94.0789 218.953 85.2712 214.433C91.3251 216.006 95.6597 217.821 99.0384 219.849C72.3176 170.109 70.1538 163.499 60.9906 142Z" fill="#1793D1"/>
<path d="M61.001 143.383C69.6607 163.75 72.2782 171.096 97.709 218.489C94.5327 216.795 90.5864 215.266 85.4043 213.92L85.0293 214.905C93.7166 219.363 97.9793 223.463 102.122 226.685C104.479 231.055 106.94 235.622 109.648 240.616C95.0056 232.258 83.3761 226.941 72.5059 224.72C72.8221 223.13 73.0066 221.439 73.0498 219.692C73.1776 214.533 72.0067 209.732 69.9873 206.137C67.9743 202.553 65.0655 200.087 61.6934 199.802C58.3066 199.515 55.2597 201.493 53.0615 204.742C50.8602 207.996 49.454 212.59 49.3262 217.748L49.3076 218.25V218.265C49.2899 220.495 49.5298 222.64 49.9561 224.642C38.9714 226.805 27.2199 232.129 12.3887 240.592C31.6344 205.988 41.3691 187.533 47.6328 174.521C50.9435 177.201 55.3063 179.779 61.5225 182.336L62.0283 181.411C56.1737 177.317 52.5116 173.681 49.5303 170.533C54.2163 160.495 56.8799 153.52 61.001 143.383Z" stroke="black" stroke-width="1.0604"/>
</g>
<g filter="url(#filter1_d_0_1)">
<path fill-rule="evenodd" clip-rule="evenodd" d="M401.983 90C394.148 109.206 389.423 121.769 380.699 140.404C386.048 146.072 392.613 152.673 403.274 160.129C391.812 155.413 383.993 150.678 378.15 145.765C366.986 169.057 349.495 202.234 314 266C341.898 249.897 363.524 239.969 383.678 236.181C382.813 232.46 382.321 228.434 382.354 224.234L382.387 223.34C382.83 205.47 392.128 191.728 403.142 192.661C414.156 193.594 422.717 208.846 422.275 226.716C422.191 230.079 421.812 233.313 421.149 236.314C441.085 240.213 462.48 250.115 490 266C484.574 256.011 479.73 247.007 475.104 238.432C467.818 232.786 460.219 225.437 444.717 217.483C455.372 220.251 463.001 223.444 468.948 227.014C421.919 139.471 418.111 127.839 401.983 90Z" fill="#1793D1"/>
<path d="M402.003 92.4336C417.244 128.28 421.848 141.21 466.604 224.62C461.015 221.638 454.071 218.948 444.952 216.579L444.291 218.312C459.58 226.159 467.083 233.373 474.374 239.044C478.521 246.732 482.847 254.769 487.611 263.554C461.847 248.847 441.382 239.492 422.254 235.583C422.81 232.787 423.131 229.812 423.207 226.739C423.432 217.659 421.373 209.208 417.818 202.88C414.275 196.572 409.156 192.234 403.221 191.731C397.26 191.226 391.896 194.708 388.027 200.427C384.274 205.975 381.836 213.735 381.482 222.469L381.454 223.317L381.422 224.199L381.421 224.213V225.026C381.448 228.663 381.861 232.163 382.56 235.445C363.227 239.253 342.546 248.628 316.444 263.521C350.316 202.621 367.451 170.142 378.475 147.241C384.301 151.956 391.98 156.491 402.919 160.991L403.81 159.364C393.506 152.159 387.059 145.761 381.812 140.221C390.06 122.552 394.749 110.276 402.003 92.4336Z" stroke="black" stroke-width="1.86631"/>
</g>
<circle cx="227.44" cy="319.679" r="35.679" fill="#03D20A"/>
<path d="M208.373 308.645V303.047H209.081V308.645H208.373ZM210.547 308.645V304.498H211.127L211.187 305.095H211.212C211.411 304.896 211.622 304.731 211.844 304.6C212.066 304.463 212.319 304.395 212.603 304.395C213.042 304.395 213.36 304.534 213.559 304.813C213.764 305.086 213.867 305.488 213.867 306.017V308.645H213.167V306.111C213.167 305.724 213.104 305.442 212.979 305.266C212.854 305.089 212.655 305.001 212.382 305.001C212.171 305.001 211.98 305.055 211.81 305.163C211.645 305.271 211.457 305.431 211.246 305.641V308.645H210.547ZM216.853 308.748C216.488 308.748 216.158 308.662 215.863 308.492C215.567 308.321 215.333 308.073 215.163 307.749C214.992 307.425 214.907 307.035 214.907 306.58C214.907 306.113 214.998 305.718 215.18 305.394C215.368 305.069 215.612 304.822 215.914 304.651C216.221 304.48 216.551 304.395 216.904 304.395C217.177 304.395 217.41 304.443 217.604 304.54C217.803 304.637 217.973 304.751 218.116 304.882L217.757 305.342C217.638 305.234 217.51 305.146 217.373 305.078C217.242 305.01 217.094 304.975 216.929 304.975C216.679 304.975 216.454 305.044 216.255 305.18C216.062 305.311 215.908 305.499 215.794 305.744C215.686 305.983 215.632 306.261 215.632 306.58C215.632 307.052 215.749 307.436 215.982 307.732C216.221 308.022 216.531 308.167 216.912 308.167C217.106 308.167 217.285 308.128 217.45 308.048C217.615 307.963 217.76 307.863 217.885 307.749L218.193 308.219C218.005 308.384 217.797 308.514 217.569 308.611C217.342 308.702 217.103 308.748 216.853 308.748ZM219.849 308.748C219.587 308.748 219.396 308.668 219.277 308.509C219.163 308.344 219.106 308.11 219.106 307.809V302.569H219.806V307.86C219.806 307.968 219.826 308.048 219.866 308.099C219.906 308.145 219.951 308.167 220.002 308.167C220.025 308.167 220.045 308.167 220.062 308.167C220.085 308.162 220.116 308.156 220.156 308.15L220.25 308.679C220.204 308.702 220.15 308.719 220.088 308.731C220.025 308.742 219.945 308.748 219.849 308.748ZM222.493 308.748C222.055 308.748 221.734 308.611 221.529 308.338C221.324 308.059 221.222 307.655 221.222 307.126V304.498H221.93V307.032C221.93 307.419 221.99 307.701 222.109 307.877C222.234 308.054 222.434 308.142 222.707 308.142C222.923 308.142 223.114 308.088 223.279 307.98C223.449 307.866 223.631 307.687 223.825 307.442V304.498H224.525V308.645H223.944L223.884 307.997H223.859C223.665 308.224 223.461 308.406 223.244 308.543C223.028 308.679 222.778 308.748 222.493 308.748ZM227.341 308.748C226.823 308.748 226.407 308.56 226.094 308.184C225.782 307.803 225.625 307.268 225.625 306.58C225.625 306.13 225.708 305.744 225.873 305.419C226.043 305.089 226.265 304.836 226.538 304.66C226.817 304.483 227.113 304.395 227.426 304.395C227.665 304.395 227.872 304.438 228.049 304.523C228.225 304.608 228.404 304.725 228.587 304.873L228.552 304.165V302.569H229.261V308.645H228.68L228.621 308.159H228.595C228.436 308.318 228.248 308.458 228.032 308.577C227.816 308.691 227.585 308.748 227.341 308.748ZM227.494 308.159C227.858 308.159 228.211 307.968 228.552 307.587V305.419C228.376 305.26 228.205 305.149 228.04 305.086C227.881 305.018 227.716 304.984 227.545 304.984C227.323 304.984 227.121 305.052 226.939 305.189C226.763 305.32 226.621 305.505 226.513 305.744C226.405 305.977 226.351 306.253 226.351 306.571C226.351 307.066 226.45 307.456 226.649 307.741C226.848 308.019 227.13 308.159 227.494 308.159ZM232.339 308.748C231.969 308.748 231.634 308.662 231.332 308.492C231.03 308.315 230.791 308.065 230.615 307.741C230.439 307.416 230.351 307.029 230.351 306.58C230.351 306.125 230.439 305.735 230.615 305.411C230.797 305.086 231.03 304.836 231.315 304.66C231.599 304.483 231.898 304.395 232.211 304.395C232.74 304.395 233.147 304.571 233.431 304.924C233.722 305.277 233.867 305.749 233.867 306.341C233.867 306.415 233.864 306.489 233.858 306.563C233.858 306.631 233.853 306.691 233.841 306.742H231.042C231.07 307.18 231.207 307.53 231.451 307.792C231.702 308.054 232.026 308.184 232.424 308.184C232.624 308.184 232.806 308.156 232.971 308.099C233.141 308.036 233.303 307.957 233.457 307.86L233.705 308.321C233.528 308.435 233.326 308.534 233.099 308.62C232.877 308.705 232.624 308.748 232.339 308.748ZM231.033 306.239H233.252C233.252 305.818 233.161 305.499 232.979 305.283C232.803 305.061 232.552 304.95 232.228 304.95C231.938 304.95 231.676 305.064 231.443 305.291C231.215 305.513 231.079 305.829 231.033 306.239ZM235.976 308.748C235.68 308.748 235.398 308.694 235.131 308.586C234.863 308.472 234.63 308.335 234.431 308.176L234.781 307.706C234.963 307.849 235.151 307.968 235.344 308.065C235.537 308.156 235.757 308.201 236.001 308.201C236.274 308.201 236.479 308.139 236.616 308.014C236.752 307.883 236.82 307.729 236.82 307.553C236.82 307.411 236.772 307.291 236.675 307.194C236.584 307.098 236.465 307.018 236.317 306.955C236.175 306.887 236.027 306.825 235.873 306.768C235.68 306.694 235.489 306.611 235.301 306.52C235.114 306.423 234.96 306.301 234.84 306.153C234.721 306 234.661 305.806 234.661 305.573C234.661 305.237 234.786 304.958 235.037 304.736C235.293 304.509 235.646 304.395 236.095 304.395C236.351 304.395 236.59 304.441 236.812 304.532C237.034 304.623 237.224 304.734 237.384 304.864L237.042 305.308C236.9 305.2 236.752 305.112 236.599 305.044C236.445 304.975 236.277 304.941 236.095 304.941C235.833 304.941 235.64 305.001 235.515 305.121C235.395 305.24 235.335 305.379 235.335 305.539C235.335 305.67 235.378 305.778 235.463 305.863C235.549 305.943 235.66 306.014 235.796 306.076C235.933 306.133 236.078 306.193 236.232 306.256C236.431 306.33 236.627 306.415 236.82 306.512C237.014 306.603 237.173 306.728 237.298 306.887C237.429 307.041 237.495 307.248 237.495 307.51C237.495 307.732 237.435 307.937 237.315 308.125C237.202 308.312 237.031 308.463 236.803 308.577C236.582 308.691 236.306 308.748 235.976 308.748ZM241.482 308.748C241.038 308.748 240.728 308.62 240.551 308.364C240.381 308.108 240.295 307.775 240.295 307.365V305.069H239.681V304.54L240.329 304.498L240.415 303.337H241.004V304.498H242.122V305.069H241.004V307.374C241.004 307.63 241.049 307.829 241.14 307.971C241.237 308.108 241.405 308.176 241.644 308.176C241.718 308.176 241.797 308.165 241.883 308.142C241.968 308.113 242.045 308.088 242.113 308.065L242.25 308.594C242.136 308.634 242.011 308.668 241.874 308.696C241.743 308.731 241.612 308.748 241.482 308.748ZM243.059 308.645V302.569H243.759V304.224L243.734 305.078C243.933 304.89 244.14 304.731 244.357 304.6C244.579 304.463 244.832 304.395 245.116 304.395C245.554 304.395 245.873 304.534 246.072 304.813C246.277 305.086 246.379 305.488 246.379 306.017V308.645H245.68V306.111C245.68 305.724 245.617 305.442 245.492 305.266C245.367 305.089 245.167 305.001 244.894 305.001C244.684 305.001 244.493 305.055 244.323 305.163C244.158 305.271 243.97 305.431 243.759 305.641V308.645H243.059ZM249.383 308.748C249.013 308.748 248.678 308.662 248.376 308.492C248.074 308.315 247.835 308.065 247.659 307.741C247.483 307.416 247.395 307.029 247.395 306.58C247.395 306.125 247.483 305.735 247.659 305.411C247.841 305.086 248.074 304.836 248.359 304.66C248.643 304.483 248.942 304.395 249.255 304.395C249.784 304.395 250.191 304.571 250.475 304.924C250.766 305.277 250.911 305.749 250.911 306.341C250.911 306.415 250.908 306.489 250.902 306.563C250.902 306.631 250.897 306.691 250.885 306.742H248.086C248.114 307.18 248.251 307.53 248.495 307.792C248.746 308.054 249.07 308.184 249.468 308.184C249.668 308.184 249.85 308.156 250.015 308.099C250.185 308.036 250.347 307.957 250.501 307.86L250.749 308.321C250.572 308.435 250.37 308.534 250.143 308.62C249.921 308.705 249.668 308.748 249.383 308.748ZM248.077 306.239H250.296C250.296 305.818 250.205 305.499 250.023 305.283C249.847 305.061 249.596 304.95 249.272 304.95C248.982 304.95 248.72 305.064 248.487 305.291C248.259 305.513 248.123 305.829 248.077 306.239ZM199.716 320.759C199.331 320.759 199.008 320.645 198.749 320.418C198.496 320.184 198.37 319.861 198.37 319.45C198.37 318.945 198.594 318.559 199.043 318.294C199.498 318.022 200.216 317.832 201.196 317.725C201.196 317.529 201.167 317.342 201.11 317.165C201.06 316.988 200.965 316.846 200.826 316.738C200.693 316.625 200.5 316.568 200.247 316.568C199.982 316.568 199.732 316.618 199.498 316.719C199.264 316.821 199.056 316.934 198.872 317.061L198.569 316.52C198.784 316.381 199.046 316.248 199.356 316.122C199.672 315.989 200.013 315.923 200.38 315.923C200.943 315.923 201.351 316.097 201.603 316.444C201.856 316.786 201.983 317.244 201.983 317.819V320.645H201.338L201.272 320.095H201.243C201.028 320.272 200.791 320.427 200.532 320.56C200.279 320.693 200.007 320.759 199.716 320.759ZM199.944 320.133C200.165 320.133 200.374 320.079 200.57 319.972C200.766 319.865 200.974 319.713 201.196 319.517V318.237C200.431 318.331 199.893 318.474 199.584 318.663C199.28 318.853 199.128 319.096 199.128 319.394C199.128 319.653 199.207 319.842 199.365 319.963C199.524 320.076 199.716 320.133 199.944 320.133ZM203.433 320.645V316.037H204.078L204.144 316.871H204.172C204.33 316.58 204.523 316.35 204.751 316.179C204.978 316.008 205.222 315.923 205.481 315.923C205.664 315.923 205.829 315.954 205.974 316.018L205.822 316.7C205.746 316.675 205.677 316.656 205.614 316.644C205.551 316.631 205.471 316.625 205.377 316.625C205.181 316.625 204.975 316.704 204.76 316.862C204.552 317.02 204.368 317.295 204.21 317.687V320.645H203.433ZM208.448 320.759C208.044 320.759 207.677 320.664 207.348 320.475C207.02 320.285 206.76 320.01 206.571 319.65C206.381 319.289 206.286 318.856 206.286 318.35C206.286 317.832 206.387 317.393 206.59 317.032C206.798 316.672 207.07 316.397 207.405 316.207C207.747 316.018 208.113 315.923 208.505 315.923C208.809 315.923 209.068 315.977 209.283 316.084C209.504 316.192 209.694 316.318 209.852 316.463L209.453 316.975C209.321 316.855 209.178 316.757 209.027 316.681C208.881 316.606 208.717 316.568 208.534 316.568C208.255 316.568 208.006 316.644 207.784 316.795C207.57 316.941 207.399 317.149 207.272 317.421C207.152 317.687 207.092 317.996 207.092 318.35C207.092 318.875 207.222 319.302 207.481 319.631C207.747 319.953 208.091 320.114 208.515 320.114C208.73 320.114 208.929 320.07 209.112 319.981C209.295 319.887 209.457 319.776 209.596 319.65L209.937 320.171C209.728 320.354 209.498 320.5 209.245 320.607C208.992 320.708 208.726 320.759 208.448 320.759ZM210.952 320.645V313.894H211.73V315.733L211.701 316.681C211.923 316.473 212.153 316.296 212.394 316.15C212.64 315.999 212.922 315.923 213.238 315.923C213.724 315.923 214.078 316.078 214.3 316.388C214.527 316.691 214.641 317.137 214.641 317.725V320.645H213.863V317.829C213.863 317.399 213.794 317.086 213.655 316.89C213.516 316.694 213.294 316.596 212.991 316.596C212.757 316.596 212.545 316.656 212.356 316.776C212.172 316.896 211.964 317.073 211.73 317.307V320.645H210.952ZM216.11 320.645V316.037H216.888V320.645H216.11ZM216.509 315.088C216.357 315.088 216.23 315.044 216.129 314.956C216.035 314.861 215.987 314.734 215.987 314.576C215.987 314.425 216.035 314.301 216.129 314.206C216.23 314.112 216.357 314.064 216.509 314.064C216.66 314.064 216.784 314.112 216.878 314.206C216.98 314.301 217.03 314.425 217.03 314.576C217.03 314.734 216.98 314.861 216.878 314.956C216.784 315.044 216.66 315.088 216.509 315.088ZM218.444 320.645V316.037H219.089L219.155 316.7H219.184C219.405 316.479 219.639 316.296 219.885 316.15C220.132 315.999 220.413 315.923 220.729 315.923C221.216 315.923 221.57 316.078 221.791 316.388C222.019 316.691 222.133 317.137 222.133 317.725V320.645H221.355V317.829C221.355 317.399 221.286 317.086 221.147 316.89C221.008 316.694 220.786 316.596 220.483 316.596C220.249 316.596 220.037 316.656 219.847 316.776C219.664 316.896 219.456 317.073 219.222 317.307V320.645H218.444ZM224.834 320.759C224.505 320.759 224.193 320.699 223.895 320.579C223.598 320.452 223.339 320.301 223.118 320.124L223.507 319.602C223.709 319.76 223.918 319.893 224.133 320C224.347 320.102 224.591 320.152 224.863 320.152C225.166 320.152 225.394 320.083 225.545 319.944C225.697 319.798 225.773 319.627 225.773 319.431C225.773 319.273 225.719 319.141 225.612 319.033C225.511 318.926 225.378 318.837 225.214 318.768C225.055 318.692 224.891 318.622 224.72 318.559C224.505 318.477 224.294 318.385 224.085 318.284C223.876 318.177 223.706 318.041 223.573 317.876C223.44 317.706 223.374 317.491 223.374 317.231C223.374 316.858 223.513 316.549 223.791 316.302C224.076 316.049 224.468 315.923 224.967 315.923C225.251 315.923 225.517 315.973 225.764 316.075C226.01 316.176 226.222 316.299 226.399 316.444L226.02 316.938C225.862 316.817 225.697 316.719 225.526 316.644C225.356 316.568 225.169 316.53 224.967 316.53C224.676 316.53 224.461 316.596 224.322 316.729C224.189 316.862 224.123 317.017 224.123 317.194C224.123 317.339 224.17 317.459 224.265 317.554C224.36 317.642 224.483 317.721 224.635 317.791C224.787 317.854 224.948 317.921 225.119 317.99C225.34 318.072 225.558 318.167 225.773 318.275C225.988 318.376 226.165 318.515 226.304 318.692C226.449 318.863 226.522 319.093 226.522 319.384C226.522 319.631 226.456 319.858 226.323 320.067C226.197 320.275 226.007 320.443 225.754 320.569C225.508 320.696 225.201 320.759 224.834 320.759ZM228.868 320.759C228.375 320.759 228.031 320.617 227.835 320.332C227.645 320.048 227.55 319.678 227.55 319.223V316.672H226.867V316.084L227.588 316.037L227.683 314.747H228.337V316.037H229.58V316.672H228.337V319.232C228.337 319.517 228.388 319.738 228.489 319.896C228.596 320.048 228.783 320.124 229.049 320.124C229.131 320.124 229.219 320.111 229.314 320.086C229.409 320.054 229.494 320.026 229.57 320L229.722 320.588C229.595 320.633 229.456 320.671 229.305 320.702C229.159 320.74 229.014 320.759 228.868 320.759ZM231.48 320.759C231.094 320.759 230.772 320.645 230.513 320.418C230.26 320.184 230.133 319.861 230.133 319.45C230.133 318.945 230.358 318.559 230.807 318.294C231.262 318.022 231.979 317.832 232.959 317.725C232.959 317.529 232.931 317.342 232.874 317.165C232.823 316.988 232.729 316.846 232.589 316.738C232.457 316.625 232.264 316.568 232.011 316.568C231.745 316.568 231.496 316.618 231.262 316.719C231.028 316.821 230.819 316.934 230.636 317.061L230.333 316.52C230.547 316.381 230.81 316.248 231.12 316.122C231.436 315.989 231.777 315.923 232.144 315.923C232.706 315.923 233.114 316.097 233.367 316.444C233.62 316.786 233.746 317.244 233.746 317.819V320.645H233.102L233.035 320.095H233.007C232.792 320.272 232.555 320.427 232.295 320.56C232.043 320.693 231.771 320.759 231.48 320.759ZM231.708 320.133C231.929 320.133 232.137 320.079 232.333 319.972C232.529 319.865 232.738 319.713 232.959 319.517V318.237C232.194 318.331 231.657 318.474 231.347 318.663C231.044 318.853 230.892 319.096 230.892 319.394C230.892 319.653 230.971 319.842 231.129 319.963C231.287 320.076 231.48 320.133 231.708 320.133ZM236.021 320.759C235.731 320.759 235.519 320.671 235.386 320.494C235.26 320.31 235.196 320.051 235.196 319.716V313.894H235.974V319.773C235.974 319.893 235.996 319.981 236.04 320.038C236.085 320.089 236.135 320.114 236.192 320.114C236.217 320.114 236.239 320.114 236.258 320.114C236.284 320.108 236.318 320.102 236.363 320.095L236.467 320.683C236.416 320.708 236.356 320.727 236.287 320.74C236.217 320.753 236.129 320.759 236.021 320.759ZM238.438 320.759C238.148 320.759 237.936 320.671 237.803 320.494C237.677 320.31 237.613 320.051 237.613 319.716V313.894H238.391V319.773C238.391 319.893 238.413 319.981 238.457 320.038C238.502 320.089 238.552 320.114 238.609 320.114C238.634 320.114 238.656 320.114 238.675 320.114C238.701 320.108 238.735 320.102 238.78 320.095L238.884 320.683C238.833 320.708 238.773 320.727 238.704 320.74C238.634 320.753 238.546 320.759 238.438 320.759ZM242.745 320.748C242.449 320.748 242.167 320.694 241.9 320.586C241.633 320.472 241.399 320.335 241.2 320.176L241.55 319.706C241.732 319.849 241.92 319.968 242.113 320.065C242.307 320.156 242.526 320.201 242.771 320.201C243.044 320.201 243.249 320.139 243.385 320.014C243.522 319.883 243.59 319.729 243.59 319.553C243.59 319.411 243.542 319.291 243.445 319.194C243.354 319.098 243.234 319.018 243.086 318.955C242.944 318.887 242.796 318.825 242.643 318.768C242.449 318.694 242.259 318.611 242.071 318.52C241.883 318.423 241.729 318.301 241.61 318.153C241.49 318 241.431 317.806 241.431 317.573C241.431 317.237 241.556 316.958 241.806 316.736C242.062 316.509 242.415 316.395 242.864 316.395C243.121 316.395 243.359 316.441 243.581 316.532C243.803 316.623 243.994 316.734 244.153 316.864L243.812 317.308C243.67 317.2 243.522 317.112 243.368 317.044C243.214 316.975 243.047 316.941 242.864 316.941C242.603 316.941 242.409 317.001 242.284 317.121C242.165 317.24 242.105 317.379 242.105 317.539C242.105 317.67 242.148 317.778 242.233 317.863C242.318 317.943 242.429 318.014 242.566 318.076C242.702 318.133 242.847 318.193 243.001 318.256C243.2 318.33 243.396 318.415 243.59 318.512C243.783 318.603 243.943 318.728 244.068 318.887C244.199 319.041 244.264 319.248 244.264 319.51C244.264 319.732 244.204 319.937 244.085 320.125C243.971 320.312 243.8 320.463 243.573 320.577C243.351 320.691 243.075 320.748 242.745 320.748ZM246.875 320.748C246.511 320.748 246.181 320.662 245.885 320.492C245.589 320.321 245.356 320.073 245.185 319.749C245.015 319.425 244.929 319.035 244.929 318.58C244.929 318.113 245.02 317.718 245.202 317.394C245.39 317.069 245.635 316.822 245.936 316.651C246.244 316.48 246.574 316.395 246.926 316.395C247.2 316.395 247.433 316.443 247.626 316.54C247.825 316.637 247.996 316.751 248.138 316.882L247.78 317.342C247.66 317.234 247.532 317.146 247.396 317.078C247.265 317.01 247.117 316.975 246.952 316.975C246.702 316.975 246.477 317.044 246.278 317.18C246.084 317.311 245.931 317.499 245.817 317.744C245.709 317.983 245.655 318.261 245.655 318.58C245.655 319.052 245.771 319.436 246.005 319.732C246.244 320.022 246.554 320.167 246.935 320.167C247.128 320.167 247.308 320.128 247.473 320.048C247.638 319.963 247.783 319.863 247.908 319.749L248.215 320.219C248.027 320.384 247.82 320.514 247.592 320.611C247.365 320.702 247.126 320.748 246.875 320.748ZM249.129 320.645V316.498H249.709L249.769 317.249H249.794C249.937 316.987 250.11 316.779 250.315 316.626C250.52 316.472 250.739 316.395 250.972 316.395C251.137 316.395 251.285 316.424 251.416 316.48L251.28 317.095C251.211 317.072 251.149 317.055 251.092 317.044C251.035 317.032 250.964 317.027 250.878 317.027C250.702 317.027 250.517 317.098 250.324 317.24C250.136 317.382 249.971 317.63 249.829 317.983V320.645H249.129ZM252.088 320.645V316.498H252.787V320.645H252.088ZM252.446 315.644C252.309 315.644 252.196 315.604 252.105 315.525C252.019 315.439 251.977 315.325 251.977 315.183C251.977 315.047 252.019 314.936 252.105 314.85C252.196 314.765 252.309 314.722 252.446 314.722C252.583 314.722 252.693 314.765 252.779 314.85C252.87 314.936 252.915 315.047 252.915 315.183C252.915 315.325 252.87 315.439 252.779 315.525C252.693 315.604 252.583 315.644 252.446 315.644ZM254.188 322.395V316.498H254.768L254.828 316.975H254.854C255.041 316.816 255.246 316.68 255.468 316.566C255.696 316.452 255.932 316.395 256.176 316.395C256.711 316.395 257.118 316.589 257.397 316.975C257.676 317.357 257.815 317.869 257.815 318.512C257.815 318.978 257.73 319.379 257.559 319.715C257.394 320.051 257.175 320.307 256.902 320.483C256.634 320.66 256.341 320.748 256.023 320.748C255.829 320.748 255.636 320.705 255.442 320.62C255.255 320.534 255.064 320.418 254.871 320.27L254.888 320.995V322.395H254.188ZM255.903 320.159C256.245 320.159 256.526 320.014 256.748 319.724C256.976 319.428 257.09 319.024 257.09 318.512C257.09 318.056 257.004 317.689 256.834 317.411C256.669 317.126 256.39 316.984 255.997 316.984C255.821 316.984 255.642 317.032 255.459 317.129C255.283 317.226 255.092 317.365 254.888 317.547V319.724C255.075 319.883 255.257 319.997 255.434 320.065C255.61 320.128 255.767 320.159 255.903 320.159ZM260.086 320.748C259.642 320.748 259.332 320.62 259.156 320.364C258.985 320.108 258.9 319.775 258.9 319.365V317.069H258.285V316.54L258.934 316.498L259.019 315.337H259.608V316.498H260.726V317.069H259.608V319.374C259.608 319.63 259.653 319.829 259.745 319.971C259.841 320.108 260.009 320.176 260.248 320.176C260.322 320.176 260.402 320.165 260.487 320.142C260.572 320.113 260.649 320.088 260.717 320.065L260.854 320.594C260.74 320.634 260.615 320.668 260.478 320.696C260.348 320.731 260.217 320.748 260.086 320.748ZM211.062 331.645V328.069H210.499V327.54L211.062 327.498V326.84C211.062 326.419 211.159 326.086 211.352 325.842C211.551 325.591 211.859 325.466 212.274 325.466C212.405 325.466 212.53 325.481 212.649 325.509C212.769 325.532 212.874 325.563 212.965 325.603L212.812 326.141C212.658 326.072 212.502 326.038 212.342 326.038C211.955 326.038 211.762 326.306 211.762 326.84V327.498H212.641V328.069H211.762V331.645H211.062ZM214.964 331.748C214.629 331.748 214.313 331.662 214.017 331.492C213.727 331.321 213.491 331.073 213.309 330.749C213.132 330.425 213.044 330.035 213.044 329.58C213.044 329.113 213.132 328.718 213.309 328.394C213.491 328.069 213.727 327.822 214.017 327.651C214.313 327.48 214.629 327.395 214.964 327.395C215.306 327.395 215.621 327.48 215.912 327.651C216.202 327.822 216.435 328.069 216.611 328.394C216.793 328.718 216.885 329.113 216.885 329.58C216.885 330.035 216.793 330.425 216.611 330.749C216.435 331.073 216.202 331.321 215.912 331.492C215.621 331.662 215.306 331.748 214.964 331.748ZM214.964 331.167C215.323 331.167 215.61 331.022 215.826 330.732C216.048 330.436 216.159 330.052 216.159 329.58C216.159 329.102 216.048 328.715 215.826 328.419C215.61 328.123 215.323 327.975 214.964 327.975C214.611 327.975 214.324 328.123 214.102 328.419C213.88 328.715 213.769 329.102 213.769 329.58C213.769 330.052 213.88 330.436 214.102 330.732C214.324 331.022 214.611 331.167 214.964 331.167ZM217.977 331.645V327.498H218.557L218.617 328.249H218.643C218.785 327.987 218.958 327.779 219.163 327.626C219.368 327.472 219.587 327.395 219.82 327.395C219.985 327.395 220.133 327.424 220.264 327.48L220.128 328.095C220.059 328.072 219.997 328.055 219.94 328.044C219.883 328.032 219.812 328.027 219.726 328.027C219.55 328.027 219.365 328.098 219.172 328.24C218.984 328.382 218.819 328.63 218.677 328.983V331.645H217.977ZM223.6 331.748C223.253 331.748 222.963 331.645 222.73 331.44C222.502 331.23 222.388 330.94 222.388 330.57C222.388 330.115 222.59 329.768 222.994 329.529C223.404 329.284 224.05 329.113 224.931 329.017C224.931 328.84 224.906 328.672 224.855 328.513C224.809 328.354 224.724 328.226 224.599 328.129C224.479 328.027 224.306 327.975 224.078 327.975C223.839 327.975 223.614 328.021 223.404 328.112C223.193 328.203 223.005 328.305 222.84 328.419L222.567 327.933C222.761 327.808 222.997 327.688 223.276 327.574C223.56 327.455 223.867 327.395 224.197 327.395C224.704 327.395 225.071 327.552 225.298 327.864C225.526 328.172 225.64 328.584 225.64 329.102V331.645H225.059L225 331.15H224.974C224.781 331.31 224.567 331.449 224.334 331.568C224.106 331.688 223.862 331.748 223.6 331.748ZM223.805 331.184C224.004 331.184 224.192 331.136 224.368 331.039C224.545 330.943 224.732 330.806 224.931 330.63V329.478C224.243 329.563 223.759 329.691 223.481 329.862C223.207 330.032 223.071 330.251 223.071 330.519C223.071 330.752 223.142 330.923 223.284 331.031C223.426 331.133 223.6 331.184 223.805 331.184ZM226.945 331.645V327.498H227.525L227.585 328.095H227.61C227.81 327.896 228.02 327.731 228.242 327.6C228.464 327.463 228.717 327.395 229.002 327.395C229.44 327.395 229.758 327.534 229.957 327.813C230.162 328.086 230.265 328.488 230.265 329.017V331.645H229.565V329.111C229.565 328.724 229.502 328.442 229.377 328.266C229.252 328.089 229.053 328.001 228.78 328.001C228.569 328.001 228.379 328.055 228.208 328.163C228.043 328.271 227.855 328.431 227.645 328.641V331.645H226.945ZM235.002 331.748C234.632 331.748 234.296 331.662 233.995 331.492C233.693 331.315 233.454 331.065 233.278 330.741C233.102 330.416 233.013 330.029 233.013 329.58C233.013 329.125 233.102 328.735 233.278 328.411C233.46 328.086 233.693 327.836 233.978 327.66C234.262 327.483 234.561 327.395 234.874 327.395C235.403 327.395 235.81 327.571 236.094 327.924C236.385 328.277 236.53 328.749 236.53 329.341C236.53 329.415 236.527 329.489 236.521 329.563C236.521 329.631 236.515 329.691 236.504 329.742H233.705C233.733 330.18 233.87 330.53 234.114 330.792C234.365 331.054 234.689 331.184 235.087 331.184C235.286 331.184 235.468 331.156 235.633 331.099C235.804 331.036 235.966 330.957 236.12 330.86L236.367 331.321C236.191 331.435 235.989 331.534 235.761 331.62C235.54 331.705 235.286 331.748 235.002 331.748ZM233.696 329.239H235.915C235.915 328.818 235.824 328.499 235.642 328.283C235.466 328.061 235.215 327.95 234.891 327.95C234.601 327.95 234.339 328.064 234.106 328.291C233.878 328.513 233.742 328.829 233.696 329.239ZM238.394 331.748C238.047 331.748 237.756 331.645 237.523 331.44C237.296 331.23 237.182 330.94 237.182 330.57C237.182 330.115 237.384 329.768 237.788 329.529C238.197 329.284 238.843 329.113 239.725 329.017C239.725 328.84 239.699 328.672 239.648 328.513C239.603 328.354 239.517 328.226 239.392 328.129C239.273 328.027 239.099 327.975 238.872 327.975C238.633 327.975 238.408 328.021 238.197 328.112C237.987 328.203 237.799 328.305 237.634 328.419L237.361 327.933C237.554 327.808 237.791 327.688 238.069 327.574C238.354 327.455 238.661 327.395 238.991 327.395C239.498 327.395 239.864 327.552 240.092 327.864C240.32 328.172 240.433 328.584 240.433 329.102V331.645H239.853L239.793 331.15H239.768C239.574 331.31 239.361 331.449 239.128 331.568C238.9 331.688 238.655 331.748 238.394 331.748ZM238.599 331.184C238.798 331.184 238.985 331.136 239.162 331.039C239.338 330.943 239.526 330.806 239.725 330.63V329.478C239.037 329.563 238.553 329.691 238.274 329.862C238.001 330.032 237.865 330.251 237.865 330.519C237.865 330.752 237.936 330.923 238.078 331.031C238.22 331.133 238.394 331.184 238.599 331.184ZM242.822 331.748C242.526 331.748 242.245 331.694 241.977 331.586C241.71 331.472 241.477 331.335 241.278 331.176L241.627 330.706C241.81 330.849 241.997 330.968 242.191 331.065C242.384 331.156 242.603 331.201 242.848 331.201C243.121 331.201 243.326 331.139 243.462 331.014C243.599 330.883 243.667 330.729 243.667 330.553C243.667 330.411 243.619 330.291 243.522 330.194C243.431 330.098 243.312 330.018 243.164 329.955C243.021 329.887 242.874 329.825 242.72 329.768C242.526 329.694 242.336 329.611 242.148 329.52C241.96 329.423 241.807 329.301 241.687 329.153C241.568 329 241.508 328.806 241.508 328.573C241.508 328.237 241.633 327.958 241.884 327.736C242.14 327.509 242.492 327.395 242.942 327.395C243.198 327.395 243.437 327.441 243.659 327.532C243.881 327.623 244.071 327.734 244.231 327.864L243.889 328.308C243.747 328.2 243.599 328.112 243.445 328.044C243.292 327.975 243.124 327.941 242.942 327.941C242.68 327.941 242.487 328.001 242.361 328.121C242.242 328.24 242.182 328.379 242.182 328.539C242.182 328.67 242.225 328.778 242.31 328.863C242.396 328.943 242.507 329.014 242.643 329.076C242.78 329.133 242.925 329.193 243.078 329.256C243.277 329.33 243.474 329.415 243.667 329.512C243.861 329.603 244.02 329.728 244.145 329.887C244.276 330.041 244.341 330.248 244.341 330.51C244.341 330.732 244.282 330.937 244.162 331.125C244.048 331.312 243.878 331.463 243.65 331.577C243.428 331.691 243.152 331.748 242.822 331.748ZM245.382 333.429C245.291 333.429 245.203 333.42 245.118 333.403C245.038 333.386 244.964 333.366 244.896 333.344L245.032 332.789C245.078 332.8 245.129 332.812 245.186 332.823C245.243 332.84 245.297 332.849 245.348 332.849C245.581 332.849 245.775 332.763 245.928 332.593C246.082 332.428 246.202 332.217 246.287 331.961L246.381 331.654L244.717 327.498H245.442L246.287 329.793C246.349 329.97 246.415 330.16 246.483 330.365C246.557 330.57 246.625 330.769 246.688 330.963H246.722C246.785 330.775 246.844 330.578 246.901 330.374C246.958 330.169 247.015 329.975 247.072 329.793L247.815 327.498H248.497L246.935 331.987C246.839 332.26 246.722 332.504 246.586 332.721C246.455 332.937 246.29 333.108 246.091 333.233C245.897 333.364 245.661 333.429 245.382 333.429ZM208.892 342.645V338.498H209.592V342.645H208.892ZM209.251 337.644C209.114 337.644 209 337.604 208.909 337.525C208.824 337.439 208.781 337.325 208.781 337.183C208.781 337.047 208.824 336.936 208.909 336.85C209 336.765 209.114 336.722 209.251 336.722C209.387 336.722 209.498 336.765 209.584 336.85C209.675 336.936 209.72 337.047 209.72 337.183C209.72 337.325 209.675 337.439 209.584 337.525C209.498 337.604 209.387 337.644 209.251 337.644ZM210.993 342.645V338.498H211.573L211.633 339.095H211.658C211.857 338.896 212.068 338.731 212.29 338.6C212.512 338.463 212.765 338.395 213.049 338.395C213.487 338.395 213.806 338.534 214.005 338.813C214.21 339.086 214.312 339.488 214.312 340.017V342.645H213.613V340.111C213.613 339.724 213.55 339.442 213.425 339.266C213.3 339.089 213.101 339.001 212.827 339.001C212.617 339.001 212.426 339.055 212.256 339.163C212.091 339.271 211.903 339.431 211.692 339.641V342.645H210.993ZM216.744 342.748C216.448 342.748 216.166 342.694 215.899 342.586C215.631 342.472 215.398 342.335 215.199 342.176L215.549 341.706C215.731 341.849 215.919 341.968 216.112 342.065C216.306 342.156 216.525 342.201 216.769 342.201C217.042 342.201 217.247 342.139 217.384 342.014C217.52 341.883 217.589 341.729 217.589 341.553C217.589 341.411 217.54 341.291 217.444 341.194C217.353 341.098 217.233 341.018 217.085 340.955C216.943 340.887 216.795 340.825 216.641 340.768C216.448 340.694 216.257 340.611 216.07 340.52C215.882 340.423 215.728 340.301 215.609 340.153C215.489 340 215.429 339.806 215.429 339.573C215.429 339.237 215.555 338.958 215.805 338.736C216.061 338.509 216.414 338.395 216.863 338.395C217.119 338.395 217.358 338.441 217.58 338.532C217.802 338.623 217.993 338.734 218.152 338.864L217.811 339.308C217.668 339.2 217.52 339.112 217.367 339.044C217.213 338.975 217.045 338.941 216.863 338.941C216.602 338.941 216.408 339.001 216.283 339.121C216.163 339.24 216.104 339.379 216.104 339.539C216.104 339.67 216.146 339.778 216.232 339.863C216.317 339.943 216.428 340.014 216.565 340.076C216.701 340.133 216.846 340.193 217 340.256C217.199 340.33 217.395 340.415 217.589 340.512C217.782 340.603 217.941 340.728 218.067 340.887C218.197 341.041 218.263 341.248 218.263 341.51C218.263 341.732 218.203 341.937 218.084 342.125C217.97 342.312 217.799 342.463 217.572 342.577C217.35 342.691 217.074 342.748 216.744 342.748ZM220.374 342.748C219.931 342.748 219.621 342.62 219.444 342.364C219.273 342.108 219.188 341.775 219.188 341.365V339.069H218.574V338.54L219.222 338.498L219.308 337.337H219.897V338.498H221.015V339.069H219.897V341.374C219.897 341.63 219.942 341.829 220.033 341.971C220.13 342.108 220.298 342.176 220.537 342.176C220.611 342.176 220.69 342.165 220.776 342.142C220.861 342.113 220.938 342.088 221.006 342.065L221.143 342.594C221.029 342.634 220.904 342.668 220.767 342.696C220.636 342.731 220.505 342.748 220.374 342.748ZM222.725 342.748C222.378 342.748 222.088 342.645 221.854 342.44C221.627 342.23 221.513 341.94 221.513 341.57C221.513 341.115 221.715 340.768 222.119 340.529C222.529 340.284 223.174 340.113 224.056 340.017C224.056 339.84 224.031 339.672 223.979 339.513C223.934 339.354 223.849 339.226 223.723 339.129C223.604 339.027 223.43 338.975 223.203 338.975C222.964 338.975 222.739 339.021 222.529 339.112C222.318 339.203 222.13 339.305 221.965 339.419L221.692 338.933C221.886 338.808 222.122 338.688 222.401 338.574C222.685 338.455 222.992 338.395 223.322 338.395C223.829 338.395 224.196 338.552 224.423 338.864C224.651 339.172 224.765 339.584 224.765 340.102V342.645H224.184L224.125 342.15H224.099C223.906 342.31 223.692 342.449 223.459 342.568C223.231 342.688 222.987 342.748 222.725 342.748ZM222.93 342.184C223.129 342.184 223.317 342.136 223.493 342.039C223.669 341.943 223.857 341.806 224.056 341.63V340.478C223.368 340.563 222.884 340.691 222.605 340.862C222.332 341.032 222.196 341.251 222.196 341.519C222.196 341.752 222.267 341.923 222.409 342.031C222.551 342.133 222.725 342.184 222.93 342.184ZM226.812 342.748C226.55 342.748 226.36 342.668 226.24 342.509C226.127 342.344 226.07 342.11 226.07 341.809V336.569H226.769V341.86C226.769 341.968 226.789 342.048 226.829 342.099C226.869 342.145 226.915 342.167 226.966 342.167C226.989 342.167 227.008 342.167 227.025 342.167C227.048 342.162 227.08 342.156 227.119 342.15L227.213 342.679C227.168 342.702 227.114 342.719 227.051 342.731C226.989 342.742 226.909 342.748 226.812 342.748ZM228.987 342.748C228.726 342.748 228.535 342.668 228.416 342.509C228.302 342.344 228.245 342.11 228.245 341.809V336.569H228.945V341.86C228.945 341.968 228.965 342.048 229.004 342.099C229.044 342.145 229.09 342.167 229.141 342.167C229.164 342.167 229.184 342.167 229.201 342.167C229.224 342.162 229.255 342.156 229.295 342.15L229.389 342.679C229.343 342.702 229.289 342.719 229.226 342.731C229.164 342.742 229.084 342.748 228.987 342.748ZM231.376 342.748C231.029 342.748 230.739 342.645 230.506 342.44C230.278 342.23 230.164 341.94 230.164 341.57C230.164 341.115 230.366 340.768 230.77 340.529C231.18 340.284 231.826 340.113 232.707 340.017C232.707 339.84 232.682 339.672 232.631 339.513C232.585 339.354 232.5 339.226 232.375 339.129C232.255 339.027 232.082 338.975 231.854 338.975C231.615 338.975 231.39 339.021 231.18 339.112C230.969 339.203 230.782 339.305 230.617 339.419L230.343 338.933C230.537 338.808 230.773 338.688 231.052 338.574C231.336 338.455 231.644 338.395 231.974 338.395C232.48 338.395 232.847 338.552 233.074 338.864C233.302 339.172 233.416 339.584 233.416 340.102V342.645H232.835L232.776 342.15H232.75C232.557 342.31 232.343 342.449 232.11 342.568C231.882 342.688 231.638 342.748 231.376 342.748ZM231.581 342.184C231.78 342.184 231.968 342.136 232.144 342.039C232.321 341.943 232.508 341.806 232.707 341.63V340.478C232.019 340.563 231.535 340.691 231.257 340.862C230.984 341.032 230.847 341.251 230.847 341.519C230.847 341.752 230.918 341.923 231.06 342.031C231.203 342.133 231.376 342.184 231.581 342.184ZM235.91 342.748C235.466 342.748 235.156 342.62 234.98 342.364C234.809 342.108 234.724 341.775 234.724 341.365V339.069H234.109V338.54L234.758 338.498L234.843 337.337H235.432V338.498H236.55V339.069H235.432V341.374C235.432 341.63 235.477 341.829 235.569 341.971C235.665 342.108 235.833 342.176 236.072 342.176C236.146 342.176 236.226 342.165 236.311 342.142C236.396 342.113 236.473 342.088 236.541 342.065L236.678 342.594C236.564 342.634 236.439 342.668 236.302 342.696C236.172 342.731 236.041 342.748 235.91 342.748ZM237.488 342.645V338.498H238.188V342.645H237.488ZM237.846 337.644C237.71 337.644 237.596 337.604 237.505 337.525C237.42 337.439 237.377 337.325 237.377 337.183C237.377 337.047 237.42 336.936 237.505 336.85C237.596 336.765 237.71 336.722 237.846 336.722C237.983 336.722 238.094 336.765 238.179 336.85C238.27 336.936 238.316 337.047 238.316 337.183C238.316 337.325 238.27 337.439 238.179 337.525C238.094 337.604 237.983 337.644 237.846 337.644ZM241.201 342.748C240.865 342.748 240.55 342.662 240.254 342.492C239.964 342.321 239.728 342.073 239.545 341.749C239.369 341.425 239.281 341.035 239.281 340.58C239.281 340.113 239.369 339.718 239.545 339.394C239.728 339.069 239.964 338.822 240.254 338.651C240.55 338.48 240.865 338.395 241.201 338.395C241.543 338.395 241.858 338.48 242.148 338.651C242.439 338.822 242.672 339.069 242.848 339.394C243.03 339.718 243.121 340.113 243.121 340.58C243.121 341.035 243.03 341.425 242.848 341.749C242.672 342.073 242.439 342.321 242.148 342.492C241.858 342.662 241.543 342.748 241.201 342.748ZM241.201 342.167C241.56 342.167 241.847 342.022 242.063 341.732C242.285 341.436 242.396 341.052 242.396 340.58C242.396 340.102 242.285 339.715 242.063 339.419C241.847 339.123 241.56 338.975 241.201 338.975C240.848 338.975 240.561 339.123 240.339 339.419C240.117 339.715 240.006 340.102 240.006 340.58C240.006 341.052 240.117 341.436 240.339 341.732C240.561 342.022 240.848 342.167 241.201 342.167ZM244.214 342.645V338.498H244.794L244.854 339.095H244.879C245.079 338.896 245.289 338.731 245.511 338.6C245.733 338.463 245.986 338.395 246.271 338.395C246.709 338.395 247.027 338.534 247.226 338.813C247.431 339.086 247.534 339.488 247.534 340.017V342.645H246.834V340.111C246.834 339.724 246.771 339.442 246.646 339.266C246.521 339.089 246.322 339.001 246.049 339.001C245.838 339.001 245.648 339.055 245.477 339.163C245.312 339.271 245.124 339.431 244.914 339.641V342.645H244.214ZM249.171 340.955L249.077 337.729L249.06 336.927H249.769L249.752 337.729L249.658 340.955H249.171ZM249.419 342.748C249.277 342.748 249.154 342.699 249.052 342.603C248.955 342.5 248.907 342.372 248.907 342.219C248.907 342.054 248.955 341.923 249.052 341.826C249.154 341.724 249.277 341.672 249.419 341.672C249.555 341.672 249.672 341.724 249.769 341.826C249.871 341.923 249.922 342.054 249.922 342.219C249.922 342.372 249.871 342.5 249.769 342.603C249.672 342.699 249.555 342.748 249.419 342.748Z" fill="white"/>
<path d="M198.658 369V362.278H200.759C201.217 362.278 201.623 362.339 201.978 362.462C202.333 362.578 202.61 362.776 202.808 363.057C203.013 363.33 203.116 363.699 203.116 364.163C203.116 364.682 202.979 365.103 202.706 365.424C202.433 365.738 202.064 365.953 201.599 366.069L203.31 369H202.347L200.728 366.162H199.509V369H198.658ZM199.509 365.465H200.636C201.162 365.465 201.565 365.359 201.845 365.147C202.125 364.928 202.265 364.6 202.265 364.163C202.265 363.719 202.125 363.408 201.845 363.231C201.565 363.053 201.162 362.964 200.636 362.964H199.509V365.465ZM206.247 369.123C205.844 369.123 205.465 369.02 205.11 368.816C204.761 368.611 204.478 368.313 204.259 367.924C204.047 367.535 203.941 367.067 203.941 366.52C203.941 365.96 204.047 365.485 204.259 365.096C204.478 364.706 204.761 364.409 205.11 364.204C205.465 363.999 205.844 363.897 206.247 363.897C206.657 363.897 207.036 363.999 207.384 364.204C207.733 364.409 208.013 364.706 208.225 365.096C208.443 365.485 208.553 365.96 208.553 366.52C208.553 367.067 208.443 367.535 208.225 367.924C208.013 368.313 207.733 368.611 207.384 368.816C207.036 369.02 206.657 369.123 206.247 369.123ZM206.247 368.426C206.677 368.426 207.022 368.252 207.282 367.904C207.548 367.548 207.682 367.087 207.682 366.52C207.682 365.946 207.548 365.482 207.282 365.127C207.022 364.771 206.677 364.594 206.247 364.594C205.823 364.594 205.478 364.771 205.212 365.127C204.946 365.482 204.812 365.946 204.812 366.52C204.812 367.087 204.946 367.548 205.212 367.904C205.478 368.252 205.823 368.426 206.247 368.426ZM210.756 369.123C210.441 369.123 210.213 369.027 210.069 368.836C209.932 368.638 209.864 368.358 209.864 367.996V361.704H210.704V368.057C210.704 368.187 210.728 368.283 210.776 368.344C210.824 368.399 210.879 368.426 210.94 368.426C210.967 368.426 210.991 368.426 211.012 368.426C211.039 368.419 211.077 368.412 211.125 368.406L211.237 369.041C211.183 369.068 211.118 369.089 211.043 369.102C210.967 369.116 210.872 369.123 210.756 369.123ZM213.368 369.123C213.053 369.123 212.824 369.027 212.681 368.836C212.544 368.638 212.476 368.358 212.476 367.996V361.704H213.316V368.057C213.316 368.187 213.34 368.283 213.388 368.344C213.436 368.399 213.491 368.426 213.552 368.426C213.579 368.426 213.603 368.426 213.624 368.426C213.651 368.419 213.689 368.412 213.736 368.406L213.849 369.041C213.795 369.068 213.73 369.089 213.654 369.102C213.579 369.116 213.484 369.123 213.368 369.123ZM215.088 369V364.02H215.928V369H215.088ZM215.518 362.995C215.354 362.995 215.218 362.947 215.108 362.852C215.006 362.749 214.955 362.613 214.955 362.442C214.955 362.278 215.006 362.145 215.108 362.042C215.218 361.94 215.354 361.888 215.518 361.888C215.682 361.888 215.815 361.94 215.918 362.042C216.027 362.145 216.082 362.278 216.082 362.442C216.082 362.613 216.027 362.749 215.918 362.852C215.815 362.947 215.682 362.995 215.518 362.995ZM217.61 369V364.02H218.307L218.378 364.737H218.409C218.648 364.498 218.901 364.3 219.167 364.143C219.434 363.979 219.738 363.897 220.079 363.897C220.605 363.897 220.988 364.064 221.227 364.399C221.473 364.727 221.596 365.209 221.596 365.844V369H220.756V365.957C220.756 365.492 220.68 365.154 220.53 364.942C220.38 364.73 220.141 364.624 219.813 364.624C219.56 364.624 219.331 364.689 219.126 364.819C218.928 364.949 218.703 365.14 218.45 365.393V369H217.61ZM224.894 371.295C224.286 371.295 223.791 371.179 223.408 370.947C223.026 370.715 222.835 370.383 222.835 369.953C222.835 369.741 222.899 369.536 223.029 369.338C223.159 369.147 223.337 368.976 223.562 368.826V368.785C223.439 368.71 223.333 368.604 223.244 368.467C223.162 368.331 223.121 368.167 223.121 367.975C223.121 367.763 223.18 367.579 223.296 367.422C223.412 367.265 223.535 367.142 223.665 367.053V367.012C223.501 366.875 223.35 366.691 223.214 366.459C223.084 366.226 223.019 365.963 223.019 365.67C223.019 365.308 223.104 364.993 223.275 364.727C223.446 364.46 223.675 364.256 223.962 364.112C224.249 363.969 224.559 363.897 224.894 363.897C225.031 363.897 225.161 363.911 225.284 363.938C225.407 363.958 225.512 363.986 225.601 364.02H227.333V364.665H226.308C226.424 364.775 226.52 364.922 226.595 365.106C226.677 365.284 226.718 365.478 226.718 365.69C226.718 366.045 226.636 366.353 226.472 366.612C226.308 366.872 226.09 367.074 225.816 367.217C225.543 367.354 225.236 367.422 224.894 367.422C224.628 367.422 224.378 367.364 224.146 367.248C224.057 367.323 223.982 367.408 223.921 367.504C223.859 367.593 223.829 367.705 223.829 367.842C223.829 367.999 223.89 368.129 224.013 368.231C224.143 368.334 224.375 368.385 224.71 368.385H225.673C226.254 368.385 226.688 368.481 226.974 368.672C227.268 368.857 227.415 369.157 227.415 369.574C227.415 369.881 227.313 370.165 227.108 370.424C226.903 370.684 226.612 370.892 226.237 371.049C225.861 371.213 225.413 371.295 224.894 371.295ZM224.894 366.858C225.181 366.858 225.427 366.752 225.632 366.541C225.844 366.322 225.95 366.032 225.95 365.67C225.95 365.308 225.847 365.024 225.642 364.819C225.437 364.614 225.188 364.512 224.894 364.512C224.6 364.512 224.351 364.614 224.146 364.819C223.941 365.024 223.839 365.308 223.839 365.67C223.839 366.032 223.941 366.322 224.146 366.541C224.358 366.752 224.607 366.858 224.894 366.858ZM225.017 370.711C225.495 370.711 225.878 370.605 226.165 370.394C226.452 370.189 226.595 369.956 226.595 369.697C226.595 369.465 226.506 369.304 226.329 369.215C226.158 369.126 225.912 369.082 225.591 369.082H224.73C224.635 369.082 224.529 369.075 224.413 369.061C224.303 369.048 224.194 369.027 224.085 369C223.907 369.13 223.777 369.266 223.695 369.41C223.613 369.553 223.572 369.697 223.572 369.84C223.572 370.107 223.699 370.318 223.951 370.476C224.211 370.633 224.566 370.711 225.017 370.711ZM230.429 369V364.02H231.126L231.197 364.922H231.228C231.399 364.607 231.607 364.358 231.853 364.174C232.099 363.989 232.362 363.897 232.642 363.897C232.84 363.897 233.018 363.931 233.175 363.999L233.011 364.737C232.929 364.71 232.854 364.689 232.786 364.676C232.717 364.662 232.632 364.655 232.53 364.655C232.318 364.655 232.096 364.741 231.863 364.911C231.638 365.082 231.44 365.379 231.269 365.803V369H230.429ZM235.9 369.123C235.456 369.123 235.053 369.02 234.691 368.816C234.329 368.604 234.042 368.303 233.83 367.914C233.618 367.524 233.512 367.06 233.512 366.52C233.512 365.974 233.618 365.506 233.83 365.116C234.049 364.727 234.329 364.426 234.67 364.215C235.012 364.003 235.371 363.897 235.746 363.897C236.382 363.897 236.87 364.109 237.212 364.532C237.56 364.956 237.734 365.523 237.734 366.233C237.734 366.322 237.731 366.411 237.724 366.5C237.724 366.582 237.717 366.653 237.704 366.715H234.342C234.377 367.241 234.541 367.661 234.834 367.975C235.135 368.29 235.524 368.447 236.002 368.447C236.242 368.447 236.46 368.412 236.658 368.344C236.863 368.269 237.058 368.173 237.242 368.057L237.54 368.611C237.328 368.747 237.085 368.867 236.812 368.969C236.546 369.072 236.242 369.123 235.9 369.123ZM234.332 366.11H236.996C236.996 365.605 236.887 365.222 236.669 364.963C236.457 364.696 236.156 364.563 235.767 364.563C235.418 364.563 235.104 364.7 234.824 364.973C234.551 365.239 234.387 365.618 234.332 366.11ZM239.856 369.123C239.542 369.123 239.313 369.027 239.17 368.836C239.033 368.638 238.965 368.358 238.965 367.996V361.704H239.805V368.057C239.805 368.187 239.829 368.283 239.877 368.344C239.925 368.399 239.979 368.426 240.041 368.426C240.068 368.426 240.092 368.426 240.113 368.426C240.14 368.419 240.177 368.412 240.225 368.406L240.338 369.041C240.283 369.068 240.218 369.089 240.143 369.102C240.068 369.116 239.973 369.123 239.856 369.123ZM243.595 369.123C243.151 369.123 242.748 369.02 242.386 368.816C242.024 368.604 241.737 368.303 241.526 367.914C241.314 367.524 241.208 367.06 241.208 366.52C241.208 365.974 241.314 365.506 241.526 365.116C241.744 364.727 242.024 364.426 242.366 364.215C242.707 364.003 243.066 363.897 243.442 363.897C244.077 363.897 244.566 364.109 244.907 364.532C245.256 364.956 245.43 365.523 245.43 366.233C245.43 366.322 245.426 366.411 245.419 366.5C245.419 366.582 245.413 366.653 245.399 366.715H242.038C242.072 367.241 242.236 367.661 242.53 367.975C242.83 368.29 243.22 368.447 243.698 368.447C243.937 368.447 244.156 368.412 244.354 368.344C244.559 368.269 244.753 368.173 244.938 368.057L245.235 368.611C245.023 368.747 244.781 368.867 244.507 368.969C244.241 369.072 243.937 369.123 243.595 369.123ZM242.028 366.11H244.692C244.692 365.605 244.583 365.222 244.364 364.963C244.152 364.696 243.852 364.563 243.462 364.563C243.114 364.563 242.8 364.7 242.519 364.973C242.246 365.239 242.082 365.618 242.028 366.11ZM247.668 369.123C247.251 369.123 246.903 369 246.623 368.754C246.349 368.501 246.213 368.153 246.213 367.709C246.213 367.162 246.455 366.746 246.94 366.459C247.432 366.165 248.208 365.96 249.267 365.844C249.267 365.632 249.236 365.431 249.174 365.239C249.12 365.048 249.017 364.894 248.867 364.778C248.723 364.655 248.515 364.594 248.242 364.594C247.955 364.594 247.685 364.648 247.432 364.758C247.18 364.867 246.954 364.99 246.756 365.127L246.428 364.542C246.66 364.392 246.944 364.249 247.279 364.112C247.62 363.969 247.989 363.897 248.385 363.897C248.993 363.897 249.434 364.085 249.707 364.46C249.98 364.829 250.117 365.325 250.117 365.946V369H249.42L249.349 368.406H249.318C249.086 368.597 248.829 368.764 248.549 368.908C248.276 369.051 247.982 369.123 247.668 369.123ZM247.914 368.447C248.153 368.447 248.378 368.389 248.59 368.272C248.802 368.156 249.027 367.992 249.267 367.781V366.397C248.44 366.5 247.859 366.653 247.524 366.858C247.197 367.063 247.033 367.326 247.033 367.647C247.033 367.927 247.118 368.132 247.289 368.262C247.46 368.385 247.668 368.447 247.914 368.447ZM252.985 369.123C252.63 369.123 252.292 369.058 251.971 368.928C251.65 368.792 251.37 368.628 251.131 368.436L251.551 367.873C251.769 368.044 251.995 368.187 252.227 368.303C252.459 368.412 252.722 368.467 253.016 368.467C253.344 368.467 253.59 368.392 253.754 368.242C253.918 368.085 254 367.9 254 367.688C254 367.518 253.942 367.374 253.826 367.258C253.716 367.142 253.573 367.046 253.395 366.971C253.224 366.889 253.047 366.814 252.862 366.746C252.63 366.657 252.401 366.558 252.176 366.448C251.95 366.332 251.766 366.185 251.622 366.008C251.479 365.823 251.407 365.591 251.407 365.311C251.407 364.908 251.558 364.573 251.858 364.307C252.166 364.033 252.589 363.897 253.129 363.897C253.436 363.897 253.723 363.952 253.99 364.061C254.256 364.17 254.485 364.303 254.676 364.46L254.266 364.993C254.095 364.864 253.918 364.758 253.733 364.676C253.549 364.594 253.347 364.553 253.129 364.553C252.815 364.553 252.582 364.624 252.432 364.768C252.289 364.911 252.217 365.079 252.217 365.27C252.217 365.427 252.268 365.557 252.371 365.659C252.473 365.755 252.606 365.84 252.77 365.916C252.934 365.984 253.108 366.056 253.293 366.131C253.532 366.22 253.768 366.322 254 366.438C254.232 366.547 254.423 366.698 254.574 366.889C254.731 367.074 254.809 367.323 254.809 367.637C254.809 367.904 254.738 368.149 254.594 368.375C254.458 368.6 254.253 368.781 253.979 368.918C253.713 369.055 253.382 369.123 252.985 369.123ZM257.996 369.123C257.552 369.123 257.149 369.02 256.787 368.816C256.424 368.604 256.138 368.303 255.926 367.914C255.714 367.524 255.608 367.06 255.608 366.52C255.608 365.974 255.714 365.506 255.926 365.116C256.144 364.727 256.424 364.426 256.766 364.215C257.108 364.003 257.466 363.897 257.842 363.897C258.477 363.897 258.966 364.109 259.307 364.532C259.656 364.956 259.83 365.523 259.83 366.233C259.83 366.322 259.827 366.411 259.82 366.5C259.82 366.582 259.813 366.653 259.799 366.715H256.438C256.472 367.241 256.636 367.661 256.93 367.975C257.231 368.29 257.62 368.447 258.098 368.447C258.337 368.447 258.556 368.412 258.754 368.344C258.959 368.269 259.154 368.173 259.338 368.057L259.635 368.611C259.423 368.747 259.181 368.867 258.908 368.969C258.641 369.072 258.337 369.123 257.996 369.123ZM256.428 366.11H259.092C259.092 365.605 258.983 365.222 258.764 364.963C258.552 364.696 258.252 364.563 257.862 364.563C257.514 364.563 257.2 364.7 256.92 364.973C256.646 365.239 256.483 365.618 256.428 366.11Z" fill="#C9C9C9"/>
<path d="M166.447 11.8325L166.095 12.9681H168.332L167.98 11.8325C167.843 11.4161 167.715 11.0036 167.594 10.5948C167.473 10.1784 167.351 9.75446 167.23 9.32295H167.185C167.071 9.75446 166.954 10.1784 166.833 10.5948C166.712 11.0036 166.583 11.4161 166.447 11.8325ZM164.176 16L166.697 8.55077H167.764L170.285 16H169.274L168.57 13.7289H165.856L165.141 16H164.176ZM171.249 16V10.4812H172.022L172.101 11.4805H172.135C172.324 11.1323 172.555 10.8559 172.828 10.6515C173.1 10.4471 173.392 10.3449 173.702 10.3449C173.922 10.3449 174.119 10.3828 174.293 10.4585L174.111 11.2761C174.02 11.2458 173.937 11.2231 173.861 11.208C173.786 11.1928 173.691 11.1853 173.577 11.1853C173.343 11.1853 173.097 11.2799 172.839 11.4691C172.589 11.6584 172.37 11.9877 172.181 12.4571V16H171.249ZM177.256 16.1363C176.771 16.1363 176.332 16.0227 175.938 15.7956C175.545 15.5685 175.234 15.2392 175.007 14.8077C174.78 14.3762 174.667 13.8576 174.667 13.252C174.667 12.6312 174.788 12.1051 175.03 11.6735C175.28 11.242 175.605 10.9127 176.006 10.6856C176.415 10.4585 176.854 10.3449 177.324 10.3449C177.687 10.3449 177.997 10.4093 178.255 10.538C178.52 10.6667 178.747 10.8181 178.936 10.9922L178.459 11.6054C178.3 11.4616 178.13 11.3442 177.948 11.2534C177.774 11.1625 177.577 11.1171 177.358 11.1171C177.025 11.1171 176.726 11.208 176.461 11.3897C176.203 11.5638 175.999 11.8136 175.848 12.1391C175.704 12.4571 175.632 12.828 175.632 13.252C175.632 13.8803 175.787 14.3913 176.097 14.785C176.415 15.171 176.828 15.3641 177.335 15.3641C177.592 15.3641 177.831 15.3111 178.05 15.2051C178.27 15.0916 178.463 14.9591 178.63 14.8077L179.038 15.4322C178.789 15.6518 178.512 15.8259 178.209 15.9546C177.907 16.0757 177.589 16.1363 177.256 16.1363ZM180.254 16V7.91486H181.185V10.1178L181.151 11.2534C181.416 11.0036 181.692 10.7916 181.98 10.6175C182.275 10.4358 182.612 10.3449 182.991 10.3449C183.574 10.3449 183.998 10.5304 184.263 10.9014C184.535 11.2647 184.671 11.7985 184.671 12.5025V16H183.74V12.6274C183.74 12.1126 183.657 11.7379 183.49 11.5032C183.324 11.2685 183.059 11.1512 182.696 11.1512C182.415 11.1512 182.162 11.2231 181.935 11.3669C181.715 11.5108 181.465 11.7227 181.185 12.0029V16H180.254ZM188.795 16V8.55077H189.738V15.1938H192.997V16H188.795ZM194.227 16V10.4812H195.158V16H194.227ZM194.704 9.34566C194.522 9.34566 194.371 9.29266 194.249 9.18668C194.136 9.07312 194.079 8.92172 194.079 8.73246C194.079 8.55077 194.136 8.40315 194.249 8.28959C194.371 8.17604 194.522 8.11926 194.704 8.11926C194.885 8.11926 195.033 8.17604 195.146 8.28959C195.268 8.40315 195.328 8.55077 195.328 8.73246C195.328 8.92172 195.268 9.07312 195.146 9.18668C195.033 9.29266 194.885 9.34566 194.704 9.34566ZM197.021 16V10.4812H197.793L197.873 11.2761H197.907C198.172 11.0111 198.452 10.7916 198.747 10.6175C199.043 10.4358 199.379 10.3449 199.758 10.3449C200.341 10.3449 200.765 10.5304 201.03 10.9014C201.302 11.2647 201.439 11.7985 201.439 12.5025V16H200.507V12.6274C200.507 12.1126 200.424 11.7379 200.258 11.5032C200.091 11.2685 199.826 11.1512 199.463 11.1512C199.183 11.1512 198.929 11.2231 198.702 11.3669C198.482 11.5108 198.232 11.7227 197.952 12.0029V16H197.021ZM204.844 16.1363C204.261 16.1363 203.833 15.9546 203.561 15.5912C203.288 15.2203 203.152 14.6828 203.152 13.9787V10.4812H204.094V13.8538C204.094 14.3686 204.174 14.7433 204.333 14.978C204.499 15.2127 204.764 15.33 205.128 15.33C205.415 15.33 205.669 15.2581 205.888 15.1143C206.116 14.9629 206.358 14.7244 206.615 14.3989V10.4812H207.546V16H206.774L206.695 15.137H206.661C206.403 15.4398 206.131 15.682 205.843 15.8637C205.555 16.0454 205.222 16.1363 204.844 16.1363ZM208.636 16L210.441 13.1157L208.772 10.4812H209.783L210.521 11.6963C210.604 11.8401 210.691 11.9915 210.782 12.1505C210.873 12.3095 210.968 12.4646 211.066 12.6161H211.111C211.195 12.4646 211.278 12.3095 211.361 12.1505C211.444 11.9915 211.528 11.8401 211.611 11.6963L212.281 10.4812H213.258L211.588 13.2179L213.383 16H212.372L211.566 14.7168C211.467 14.5503 211.369 14.3837 211.27 14.2172C211.172 14.0506 211.07 13.8879 210.964 13.7289H210.918C210.82 13.8879 210.725 14.0506 210.634 14.2172C210.544 14.3762 210.453 14.5427 210.362 14.7168L209.612 16H208.636ZM218.634 16.1363C217.945 16.1363 217.393 15.8864 216.976 15.3868C216.56 14.8796 216.352 14.168 216.352 13.252C216.352 12.6539 216.462 12.1391 216.681 11.7076C216.908 11.2685 217.203 10.9316 217.567 10.697C217.938 10.4623 218.331 10.3449 218.748 10.3449C219.066 10.3449 219.342 10.4017 219.577 10.5153C219.811 10.6288 220.05 10.784 220.292 10.9809L220.247 10.0383V7.91486H221.189V16H220.417L220.338 15.3527H220.304C220.092 15.5647 219.842 15.7502 219.554 15.9092C219.266 16.0606 218.96 16.1363 218.634 16.1363ZM218.839 15.3527C219.323 15.3527 219.793 15.0991 220.247 14.5919V11.7076C220.012 11.4956 219.785 11.348 219.565 11.2647C219.353 11.1739 219.134 11.1285 218.907 11.1285C218.612 11.1285 218.343 11.2193 218.101 11.401C217.866 11.5751 217.677 11.8212 217.533 12.1391C217.389 12.4495 217.317 12.8167 217.317 13.2406C217.317 13.8992 217.45 14.4178 217.714 14.7963C217.979 15.1673 218.354 15.3527 218.839 15.3527ZM225.285 16.1363C224.793 16.1363 224.346 16.0227 223.945 15.7956C223.544 15.5609 223.226 15.2278 222.991 14.7963C222.757 14.3648 222.639 13.85 222.639 13.252C222.639 12.6463 222.757 12.1278 222.991 11.6963C223.233 11.2647 223.544 10.9316 223.922 10.697C224.301 10.4623 224.698 10.3449 225.115 10.3449C225.819 10.3449 226.36 10.5796 226.739 11.049C227.125 11.5183 227.318 12.1467 227.318 12.934C227.318 13.0324 227.314 13.1308 227.306 13.2292C227.306 13.3201 227.299 13.3996 227.284 13.4677H223.559C223.597 14.0506 223.779 14.5162 224.104 14.8644C224.437 15.2127 224.869 15.3868 225.399 15.3868C225.664 15.3868 225.906 15.3489 226.125 15.2732C226.352 15.19 226.568 15.084 226.773 14.9553L227.102 15.5685C226.867 15.7199 226.599 15.8524 226.296 15.9659C226 16.0795 225.664 16.1363 225.285 16.1363ZM223.548 12.7977H226.5C226.5 12.2375 226.379 11.8136 226.137 11.5259C225.902 11.2307 225.569 11.0831 225.137 11.0831C224.751 11.0831 224.403 11.2345 224.093 11.5373C223.79 11.8325 223.608 12.2527 223.548 12.7977ZM229.929 16L227.942 10.4812H228.907L229.952 13.6153C230.035 13.8879 230.118 14.1604 230.202 14.4329C230.293 14.7055 230.38 14.9742 230.463 15.2392H230.508C230.592 14.9742 230.675 14.7055 230.758 14.4329C230.849 14.1604 230.932 13.8879 231.008 13.6153L232.053 10.4812H232.972L231.019 16H229.929ZM238.048 16.1363C237.458 16.1363 237.045 15.9659 236.811 15.6253C236.583 15.2846 236.47 14.8417 236.47 14.2967V11.242H235.652V10.538L236.515 10.4812L236.629 8.93686H237.412V10.4812H238.9V11.242H237.412V14.308C237.412 14.6487 237.473 14.9137 237.594 15.1029C237.723 15.2846 237.946 15.3754 238.264 15.3754C238.362 15.3754 238.468 15.3603 238.582 15.33C238.696 15.2922 238.798 15.2581 238.889 15.2278L239.07 15.9319C238.919 15.9849 238.752 16.0303 238.571 16.0681C238.397 16.1136 238.222 16.1363 238.048 16.1363ZM242.23 16.1363C241.738 16.1363 241.291 16.0227 240.89 15.7956C240.488 15.5609 240.171 15.2278 239.936 14.7963C239.701 14.3648 239.584 13.85 239.584 13.252C239.584 12.6463 239.701 12.1278 239.936 11.6963C240.178 11.2647 240.488 10.9316 240.867 10.697C241.245 10.4623 241.643 10.3449 242.059 10.3449C242.763 10.3449 243.305 10.5796 243.683 11.049C244.069 11.5183 244.262 12.1467 244.262 12.934C244.262 13.0324 244.258 13.1308 244.251 13.2292C244.251 13.3201 244.243 13.3996 244.228 13.4677H240.504C240.541 14.0506 240.723 14.5162 241.049 14.8644C241.382 15.2127 241.813 15.3868 242.343 15.3868C242.608 15.3868 242.85 15.3489 243.07 15.2732C243.297 15.19 243.513 15.084 243.717 14.9553L244.047 15.5685C243.812 15.7199 243.543 15.8524 243.24 15.9659C242.945 16.0795 242.608 16.1363 242.23 16.1363ZM240.492 12.7977H243.445C243.445 12.2375 243.324 11.8136 243.081 11.5259C242.847 11.2307 242.514 11.0831 242.082 11.0831C241.696 11.0831 241.348 11.2345 241.037 11.5373C240.734 11.8325 240.553 12.2527 240.492 12.7977ZM246.743 16.1363C246.281 16.1363 245.895 16 245.584 15.7275C245.282 15.4474 245.13 15.0613 245.13 14.5692C245.13 13.9636 245.399 13.5018 245.936 13.1838C246.481 12.8583 247.341 12.6312 248.514 12.5025C248.514 12.2678 248.48 12.0445 248.412 11.8325C248.351 11.6205 248.238 11.4502 248.071 11.3215C247.912 11.1853 247.681 11.1171 247.378 11.1171C247.061 11.1171 246.762 11.1777 246.481 11.2988C246.201 11.4199 245.951 11.5562 245.732 11.7076L245.369 11.0603C245.626 10.8938 245.94 10.7348 246.311 10.5834C246.69 10.4244 247.098 10.3449 247.537 10.3449C248.211 10.3449 248.7 10.5531 249.002 10.9695C249.305 11.3783 249.457 11.9271 249.457 12.6161V16H248.684L248.605 15.3414H248.571C248.313 15.5533 248.03 15.7388 247.719 15.8978C247.416 16.0568 247.091 16.1363 246.743 16.1363ZM247.015 15.3868C247.28 15.3868 247.53 15.3225 247.765 15.1938C247.999 15.0651 248.249 14.8834 248.514 14.6487V13.1157C247.598 13.2292 246.955 13.3996 246.584 13.6267C246.22 13.8538 246.039 14.1453 246.039 14.5011C246.039 14.8115 246.133 15.0386 246.322 15.1824C246.512 15.3187 246.743 15.3868 247.015 15.3868ZM251.193 16V10.4812H251.965L252.045 11.2761H252.079C252.321 11.0111 252.586 10.7916 252.874 10.6175C253.161 10.4358 253.468 10.3449 253.793 10.3449C254.217 10.3449 254.547 10.4396 254.781 10.6288C255.023 10.8105 255.201 11.0679 255.315 11.401C255.603 11.0906 255.894 10.837 256.189 10.6402C256.485 10.4434 256.799 10.3449 257.132 10.3449C257.7 10.3449 258.12 10.5304 258.392 10.9014C258.672 11.2647 258.812 11.7985 258.812 12.5025V16H257.881V12.6274C257.881 12.1126 257.798 11.7379 257.631 11.5032C257.465 11.2685 257.208 11.1512 256.859 11.1512C256.451 11.1512 255.989 11.4351 255.474 12.0029V16H254.543V12.6274C254.543 12.1126 254.459 11.7379 254.293 11.5032C254.126 11.2685 253.865 11.1512 253.509 11.1512C253.101 11.1512 252.639 11.4351 252.124 12.0029V16H251.193Z" fill="white"/>
<defs>
<filter id="filter0_d_0_1" x="4.95408" y="138.075" width="112.092" height="112.092" filterUnits="userSpaceOnUse" color-interpolation-filters="sRGB">
<feFlood flood-opacity="0" result="BackgroundImageFix"/>
<feColorMatrix in="SourceAlpha" type="matrix" values="0 0 0 0 0 0 0 0 0 0 0 0 0 0 0 0 0 0 127 0" result="hardAlpha"/>
<feOffset dy="2.12081"/>
<feGaussianBlur stdDeviation="3.02296"/>
<feComposite in2="hardAlpha" operator="out"/>
<feColorMatrix type="matrix" values="0 0 0 0 1 0 0 0 0 1 0 0 0 0 1 0 0 0 0.5 0"/>
<feBlend mode="normal" in2="BackgroundImageFix" result="effect1_dropShadow_0_1"/>
<feBlend mode="normal" in="SourceGraphic" in2="effect1_dropShadow_0_1" result="shape"/>
</filter>
<filter id="filter1_d_0_1" x="303.359" y="83.0918" width="197.282" height="197.282" filterUnits="userSpaceOnUse" color-interpolation-filters="sRGB">
<feFlood flood-opacity="0" result="BackgroundImageFix"/>
<feColorMatrix in="SourceAlpha" type="matrix" values="0 0 0 0 0 0 0 0 0 0 0 0 0 0 0 0 0 0 127 0" result="hardAlpha"/>
<feOffset dy="3.73262"/>
<feGaussianBlur stdDeviation="5.32041"/>
<feComposite in2="hardAlpha" operator="out"/>
<feColorMatrix type="matrix" values="0 0 0 0 1 0 0 0 0 1 0 0 0 0 1 0 0 0 0.5 0"/>
<feBlend mode="normal" in2="BackgroundImageFix" result="effect1_dropShadow_0_1"/>
<feBlend mode="normal" in="SourceGraphic" in2="effect1_dropShadow_0_1" result="shape"/>
</filter>
</defs>
</svg>
